<svg xmlns="http://www.w3.org/2000/svg" xmlns:xlink="http://www.w3.org/1999/xlink" width="150" height="150" viewBox="0 0 150 150">
  <defs>
    <clipPath id="clip-path">
      <rect id="Rectángulo_44229" data-name="Rectángulo 44229" width="82.512" height="79.575" fill="none"/>
    </clipPath>
  </defs>
  <g id="Grupo_163927" data-name="Grupo 163927" transform="translate(-7640.322 13322.473)">
    <g id="Grupo_137048" data-name="Grupo 137048" transform="translate(7345.322 -18384.473)">
      <g id="Grupo_116538" data-name="Grupo 116538" transform="translate(295 5062)">
        <path id="Trazado_170462" data-name="Trazado 170462" d="M75,0A75,75,0,1,1,0,75,75,75,0,0,1,75,0Z" fill="#fff"/>
      </g>
      <g id="Grupo_136936" data-name="Grupo 136936" transform="translate(329 5097)">
        <g id="Grupo_136935" data-name="Grupo 136935" transform="translate(0 0)" clip-path="url(#clip-path)">
          <path id="Trazado_172306" data-name="Trazado 172306" d="M69.919,32.049l.155.224c-6.962,4.239-16.58,10.22-23.361,14.7H31.241C24.473,42.493,14.842,36.5,7.88,32.285l.155-.236V.965H69.919V32.049Z" transform="translate(2.279 0.279)" fill="#f1f2f2"/>
          <path id="Trazado_172307" data-name="Trazado 172307" d="M56,21.217h9.012c-.168,0-3.816,2.139-8.857,5.2L56,26.191Z" transform="translate(16.198 6.137)" fill="#fdb51e"/>
          <path id="Trazado_172308" data-name="Trazado 172308" d="M10.022,21.217v4.974l-.155.236c-5.041-3.071-8.69-5.21-8.857-5.21Z" transform="translate(0.292 6.137)" fill="#fdb51e"/>
          <path id="Trazado_172309" data-name="Trazado 172309" d="M56,14.466l9.012,8.7H56Z" transform="translate(16.198 4.184)" fill="#ffd311"/>
          <path id="Trazado_172310" data-name="Trazado 172310" d="M10.022,14.466v8.7H1.01Z" transform="translate(0.292 4.184)" fill="#ffd311"/>
          <path id="Trazado_172311" data-name="Trazado 172311" d="M33.231,41.11H48.7c6.781-4.475,16.4-10.457,23.361-14.695,5.041-3.061,8.69-5.2,8.857-5.2h.013V69.707a2.541,2.541,0,0,1-2.578,2.487H3.578A2.541,2.541,0,0,1,1,69.707V21.216h.013c.168,0,3.816,2.139,8.857,5.21,6.962,4.217,16.593,10.21,23.361,14.685" transform="translate(0.289 6.136)" fill="#b0a2cd"/>
          <path id="Trazado_172312" data-name="Trazado 172312" d="M42.471.964a15.2,15.2,0,0,1,15.471,14.92A15.2,15.2,0,0,1,42.471,30.8,15.2,15.2,0,0,1,27,15.884,15.2,15.2,0,0,1,42.471.964" transform="translate(7.81 0.279)" fill="#ffef0f"/>
          <path id="Trazado_172313" data-name="Trazado 172313" d="M82.493,27.221a1.065,1.065,0,0,0-.022-.155,1.236,1.236,0,0,0-.07-.19,1.027,1.027,0,0,0-.061-.133,1.16,1.16,0,0,0-.155-.2c-.019-.022-.031-.048-.052-.068l-.022-.022-.006-.006-8.619-8.311V1.243A1.266,1.266,0,0,0,72.2,0H63.173V2.487h7.736V31.962l-2.176,1.333C65.052,35.55,55.8,41.252,48.592,46H33.92c-7.2-4.747-16.448-10.448-20.129-12.7L11.6,31.96V2.487H36.1V0H10.314A1.266,1.266,0,0,0,9.025,1.243V18.136L.409,26.445l-.01.01-.021.019c-.019.018-.03.043-.048.062a1.246,1.246,0,0,0-.16.209,1.178,1.178,0,0,0-.058.13,1.271,1.271,0,0,0-.071.192,1.023,1.023,0,0,0-.022.153A1.177,1.177,0,0,0,0,27.354V75.845a3.805,3.805,0,0,0,3.868,3.73H78.644a3.805,3.805,0,0,0,3.868-3.73V27.354a1.177,1.177,0,0,0-.019-.133m-4.382-1.11H73.487v-4.46ZM73.487,28.6h2.954c-.829.5-1.806,1.091-2.954,1.789Zm-67.416,0H9.025v1.788c-1.147-.7-2.125-1.291-2.954-1.788m2.954-6.945v4.46H4.4ZM79.933,75.845a1.268,1.268,0,0,1-1.289,1.243H3.868a1.268,1.268,0,0,1-1.289-1.243V29.484c4.953,2.89,19.059,11.485,28.929,17.948L14.559,63.775l1.823,1.759L34.054,48.491h14.4L66.129,65.534l1.823-1.759L51.005,47.431c9.867-6.46,23.974-15.055,28.928-17.948Z" transform="translate(0 0)"/>
          <rect id="Rectángulo_44225" data-name="Rectángulo 44225" width="11.603" height="2.487" transform="translate(18.049 14.92)"/>
          <rect id="Rectángulo_44226" data-name="Rectángulo 44226" width="11.603" height="2.487" transform="translate(18.049 21.137)"/>
          <rect id="Rectángulo_44227" data-name="Rectángulo 44227" width="15.471" height="2.487" transform="translate(18.049 27.354)"/>
          <rect id="Rectángulo_44228" data-name="Rectángulo 44228" width="11.603" height="2.487" transform="translate(18.049 8.704)"/>
          <path id="Trazado_172314" data-name="Trazado 172314" d="M42.76,32.328c9.241,0,16.76-7.252,16.76-16.163S52,0,42.76,0,26,7.252,26,16.165s7.519,16.163,16.76,16.163m0-29.841A13.953,13.953,0,0,1,56.942,16.165,13.952,13.952,0,0,1,42.76,29.841,13.952,13.952,0,0,1,28.579,16.165,13.953,13.953,0,0,1,42.76,2.487" transform="translate(7.52 0)"/>
          <path id="Trazado_172315" data-name="Trazado 172315" d="M39.735,23.194h2.578v-7.46h7.735V13.247H42.314V5.786H39.735v7.461H32v2.487h7.735Z" transform="translate(9.256 1.673)"/>
        </g>
      </g>
    </g>
  </g>
</svg>
