<svg xmlns="http://www.w3.org/2000/svg" xmlns:xlink="http://www.w3.org/1999/xlink" width="150" height="150" viewBox="0 0 150 150">
  <defs>
    <clipPath id="clip-path">
      <rect id="Rectángulo_44246" data-name="Rectángulo 44246" width="84" height="72" transform="translate(0.295 -0.113)" fill="#cdc9d7"/>
    </clipPath>
  </defs>
  <g id="Grupo_163931" data-name="Grupo 163931" transform="translate(-8732.13 13341.354)">
    <g id="Grupo_137066" data-name="Grupo 137066" transform="translate(8210.13 -15802.385)">
      <g id="Grupo_136566" data-name="Grupo 136566" transform="translate(522.386 2461.031)">
        <circle id="Elipse_6000" data-name="Elipse 6000" cx="75" cy="75" r="75" transform="translate(-0.386)" fill="#fff"/>
      </g>
      <g id="Grupo_136946" data-name="Grupo 136946" transform="translate(554.705 2500.144)">
        <g id="Grupo_136945" data-name="Grupo 136945" transform="translate(0 0)" clip-path="url(#clip-path)">
          <path id="Trazado_172346" data-name="Trazado 172346" d="M40.967,34.534,80.676,7.64a2.461,2.461,0,0,1,.258,1.109v51.57A2.586,2.586,0,0,1,78.355,62.9H3.578A2.586,2.586,0,0,1,1,60.319V8.749A2.461,2.461,0,0,1,1.258,7.64Z" transform="translate(-0.961 -5.92)" fill="#b0a2cd"/>
          <path id="Trazado_172347" data-name="Trazado 172347" d="M78.3,6.5a2.584,2.584,0,0,1,2.321,1.47L40.909,34.863,1.2,7.97A2.584,2.584,0,0,1,3.521,6.5Z" transform="translate(0.644 -4.78)" fill="#4e2e8e"/>
          <path id="Trazado_172348" data-name="Trazado 172348" d="M52.868,40A3.868,3.868,0,1,1,49,43.868,3.863,3.863,0,0,1,52.868,40" transform="translate(14.213 11.266)" fill="#e7eced"/>
          <path id="Trazado_172349" data-name="Trazado 172349" d="M68.074,61.785H42.289A1.293,1.293,0,0,1,41,60.5V37.289A1.293,1.293,0,0,1,42.289,36H68.074a1.293,1.293,0,0,1,1.289,1.289V60.5a1.293,1.293,0,0,1-1.289,1.289M55.182,48.892a3.868,3.868,0,1,0-3.868-3.868,3.863,3.863,0,0,0,3.868,3.868" transform="translate(11.899 10.109)" fill="#ffef0f"/>
          <path id="Trazado_172350" data-name="Trazado 172350" d="M78.644,0H3.868A3.872,3.872,0,0,0,0,3.868v51.57a3.872,3.872,0,0,0,3.868,3.868H46.413V56.727H3.868a1.291,1.291,0,0,1-1.289-1.289V5.01L30.786,24.118,14.559,40.344l1.823,1.823L32.96,25.59l7.573,5.13a1.29,1.29,0,0,0,1.447,0l7.573-5.13,4.971,4.971,1.823-1.823-4.621-4.621L79.933,5.01V36.1h2.579V3.868A3.872,3.872,0,0,0,78.644,0M41.256,28.1,3.652,2.622a1.226,1.226,0,0,1,.215-.044H78.644a1.227,1.227,0,0,1,.215.044Z" transform="translate(0.039 -0.304)"/>
          <path id="Trazado_172351" data-name="Trazado 172351" d="M68.363,37.314H64.5V28.289A1.29,1.29,0,0,0,63.206,27H47.735a1.29,1.29,0,0,0-1.289,1.289v9.025H42.578A2.581,2.581,0,0,0,40,39.892V63.1a2.581,2.581,0,0,0,2.578,2.579H68.363A2.581,2.581,0,0,0,70.942,63.1V39.892a2.581,2.581,0,0,0-2.578-2.578M49.025,29.579H61.917v7.735H49.025ZM68.363,63.1l-25.785,0v-23.2H68.363Z" transform="translate(11.609 7.506)"/>
          <path id="Trazado_172352" data-name="Trazado 172352" d="M51.868,49.131v7.919h2.578V49.131a5.157,5.157,0,1,0-2.578,0m1.289-7.552a2.578,2.578,0,1,1-2.578,2.578,2.581,2.581,0,0,1,2.578-2.578" transform="translate(13.923 10.977)"/>
        </g>
      </g>
    </g>
  </g>
</svg>
