<svg xmlns="http://www.w3.org/2000/svg" width="139.799" height="140.461" viewBox="0 0 139.799 140.461">
  <g id="Grupo_163922" data-name="Grupo 163922" transform="translate(-8224.694 13561.258)">
    <g id="Grupo_137043" data-name="Grupo 137043" transform="translate(7337.599 -17764.854)">
      <path id="Trazado_171604" data-name="Trazado 171604" d="M56.61,0A56.013,56.013,0,0,1,113,55.946c-.061,30.959-25.406,56.105-56.61,56.166A56.013,56.013,0,0,1,0,56.166C.061,25.208,25.406.061,56.61,0Z" transform="matrix(0.229, -0.973, 0.973, 0.229, 889.5, 4316.003)" fill="#fff" stroke="#6677d6" stroke-width="4"/>
      <g id="Capa_1" data-name="Capa 1" transform="translate(929 4237.291)">
        <g id="Grupo_113038" data-name="Grupo 113038">
          <g id="Grupo_113036" data-name="Grupo 113036">
            <rect id="Rectángulo_41668" data-name="Rectángulo 41668" width="52.638" height="70.154" rx="5.204" transform="translate(1.319 1.319)" fill="#fff"/>
            <path id="Trazado_163412" data-name="Trazado 163412" d="M50.084,72.794H5.193A5.2,5.2,0,0,1,0,67.6V5.193A5.2,5.2,0,0,1,5.193,0H50.084a5.2,5.2,0,0,1,5.193,5.193V67.6A5.2,5.2,0,0,1,50.084,72.794ZM5.193,2.637A2.556,2.556,0,0,0,2.64,5.191V67.6a2.556,2.556,0,0,0,2.554,2.554H50.084A2.556,2.556,0,0,0,52.638,67.6V5.193A2.556,2.556,0,0,0,50.084,2.64H5.193Z" fill="#12263f"/>
            <path id="Trazado_163413" data-name="Trazado 163413" d="M43.208,12.534H18.368a1.319,1.319,0,0,1,0-2.637h24.84a1.319,1.319,0,0,1,0,2.637Z" transform="translate(-3.26 -1.892)" fill="#12263f"/>
            <path id="Trazado_163414" data-name="Trazado 163414" d="M43.208,55.44H18.368a1.319,1.319,0,0,1,0-2.637h24.84a1.319,1.319,0,0,1,0,2.637Z" transform="translate(-3.26 -10.095)" fill="#12263f"/>
            <path id="Trazado_163415" data-name="Trazado 163415" d="M47.238,23.26H11.844a1.319,1.319,0,0,1,0-2.637H47.238a1.319,1.319,0,0,1,0,2.637Z" transform="translate(-2.012 -3.943)" fill="#12263f"/>
            <path id="Trazado_163416" data-name="Trazado 163416" d="M47.238,33.987H11.844a1.319,1.319,0,1,1,0-2.637H47.238a1.319,1.319,0,0,1,0,2.637Z" transform="translate(-2.012 -5.994)" fill="#12263f"/>
            <path id="Trazado_163417" data-name="Trazado 163417" d="M11.844,42.076H47.238a1.319,1.319,0,0,1,0,2.637H11.844a1.319,1.319,0,0,1,0-2.637Z" transform="translate(-2.012 -8.044)" fill="#12263f"/>
          </g>
        </g>
      </g>
    </g>
    <path id="Trazado_164146" data-name="Trazado 164146" d="M170.156,375.754H153.119a.81.81,0,0,1-.809-.809v-1.834a5.285,5.285,0,0,1,2.5-4.476l3.927-2.415a5.538,5.538,0,0,1,5.8,0l3.927,2.415a5.291,5.291,0,0,1,2.5,4.476v1.834a.81.81,0,0,1-.809.809Zm-16.227-1.619h15.418v-1.025a3.664,3.664,0,0,0-1.732-3.1l-3.927-2.415a3.915,3.915,0,0,0-4.1,0l-3.927,2.415a3.664,3.664,0,0,0-1.732,3.1v1.025Z" transform="translate(8142.284 -13838.107)" fill="#12263f"/>
    <path id="Trazado_164147" data-name="Trazado 164147" d="M156.092,377.918v-1.834a4.448,4.448,0,0,1,2.116-3.788l3.927-2.415a4.736,4.736,0,0,1,2.475-.7h0a4.731,4.731,0,0,1,2.475.7l3.927,2.415a4.445,4.445,0,0,1,2.116,3.788v1.834H156.09Z" transform="translate(8139.311 -13841.08)" fill="#c6412a"/>
    <path id="Trazado_164148" data-name="Trazado 164148" d="M177.532,334.513a5.018,5.018,0,0,1-5.012-5.012v-2.87a5.012,5.012,0,1,1,10.024,0v2.87A5.018,5.018,0,0,1,177.532,334.513Zm0-11.275a3.4,3.4,0,0,0-3.393,3.393v2.87a3.393,3.393,0,0,0,6.786,0v-2.87A3.4,3.4,0,0,0,177.532,323.239Z" transform="translate(8126.39 -13804.945)" fill="#12263f"/>
    <path id="Trazado_164149" data-name="Trazado 164149" d="M180.513,336.685h0a4.2,4.2,0,0,1-4.2-4.2v-2.87a4.2,4.2,0,0,1,4.2-4.2h0a4.2,4.2,0,0,1,4.2,4.2v2.87A4.2,4.2,0,0,1,180.513,336.685Z" transform="translate(8123.409 -13807.926)" fill="#fff"/>
  </g>
</svg>
