<svg xmlns="http://www.w3.org/2000/svg" xmlns:xlink="http://www.w3.org/1999/xlink" width="150" height="150" viewBox="0 0 150 150">
  <defs>
    <clipPath id="clip-path">
      <rect id="Rectángulo_44230" data-name="Rectángulo 44230" width="81" height="69" transform="translate(0.043 -0.299)" fill="none"/>
    </clipPath>
  </defs>
  <g id="Grupo_163928" data-name="Grupo 163928" transform="translate(-7921.396 13341.354)">
    <g id="Grupo_137049" data-name="Grupo 137049" transform="translate(7339.396 -18403.354)">
      <g id="Grupo_116539" data-name="Grupo 116539" transform="translate(582.386 5062)">
        <circle id="Elipse_6000" data-name="Elipse 6000" cx="75" cy="75" r="75" transform="translate(-0.386)" fill="#fff"/>
      </g>
      <g id="Grupo_136938" data-name="Grupo 136938" transform="translate(616.957 5103.299)">
        <g id="Grupo_136937" data-name="Grupo 136937" transform="translate(0 0)" clip-path="url(#clip-path)">
          <path id="Trazado_172316" data-name="Trazado 172316" d="M40.967,29.034,80.676,2.14a2.461,2.461,0,0,1,.258,1.109v51.57A2.586,2.586,0,0,1,78.355,57.4H3.578A2.586,2.586,0,0,1,1,54.819V3.249A2.461,2.461,0,0,1,1.258,2.14Z" transform="translate(-0.543 -0.085)" fill="#b0a2cd"/>
          <path id="Trazado_172317" data-name="Trazado 172317" d="M78.3,1a2.584,2.584,0,0,1,2.321,1.47L40.909,29.363,1.2,2.47A2.584,2.584,0,0,1,3.521,1Z" transform="translate(-0.486 -0.415)" fill="#4e2e8e"/>
          <path id="Trazado_172318" data-name="Trazado 172318" d="M53.049,26A18.049,18.049,0,1,1,35,44.049,18.053,18.053,0,0,1,53.049,26" transform="translate(9.291 6.816)" fill="#ffef0f"/>
          <path id="Trazado_172319" data-name="Trazado 172319" d="M78.644,0H3.868A3.872,3.872,0,0,0,0,3.868v51.57a3.872,3.872,0,0,0,3.868,3.868h36.1V56.727H3.868a1.291,1.291,0,0,1-1.289-1.289V5.01L30.786,24.118,14.559,40.344l1.823,1.823L32.96,25.59l7.573,5.13a1.29,1.29,0,0,0,1.447,0l7.573-5.13,4.971,4.971,1.823-1.823-4.621-4.621L79.933,5.01V36.1h2.579V3.868A3.872,3.872,0,0,0,78.644,0M41.256,28.1,3.652,2.622a1.226,1.226,0,0,1,.215-.044H78.644a1.227,1.227,0,0,1,.215.044Z" transform="translate(-0.833 -0.704)"/>
          <path id="Trazado_172320" data-name="Trazado 172320" d="M53.339,25A19.339,19.339,0,1,0,72.677,44.339,19.361,19.361,0,0,0,53.339,25m0,36.1A16.76,16.76,0,1,1,70.1,44.339,16.78,16.78,0,0,1,53.339,61.1" transform="translate(9.002 6.527)"/>
          <path id="Trazado_172321" data-name="Trazado 172321" d="M56.093,30.293,54.27,32.116l2.956,2.956H41v2.578H57.226L54.27,40.607l1.823,1.823,5.157-5.157a1.288,1.288,0,0,0,0-1.823Z" transform="translate(11.026 8.058)"/>
          <path id="Trazado_172322" data-name="Trazado 172322" d="M48.358,41.116l-1.823-1.823L41.378,44.45a1.288,1.288,0,0,0,0,1.823l5.157,5.157,1.823-1.823L45.4,46.651H61.628V44.072H45.4Z" transform="translate(11.026 10.661)"/>
        </g>
      </g>
    </g>
  </g>
</svg>
