<svg xmlns="http://www.w3.org/2000/svg" width="390.324" height="241.568" viewBox="0 0 390.324 241.568">
  <g id="Grupo_163916" data-name="Grupo 163916" transform="translate(-7586.676 14338.196)">
    <g id="Grupo_163832" data-name="Grupo 163832" transform="translate(7254.666 -16870.863)">
      <g id="Grupo_116521" data-name="Grupo 116521" transform="translate(375 2522.667)">
        <g id="Grupo_114351" data-name="Grupo 114351" transform="translate(-13 10)">
          <path id="Trazado_168713" data-name="Trazado 168713" d="M333.638,238.471c10.078,0,19.313-5.308,23.841-13.746,11.185-20.848,10.278-57.776-6.993-84.872-14.618-22.936-37.348-31.275-54.841-53.125C255.942,37.131,223.523.992,149.335.01,80.321-.9-3.877,55.4,5.2,180.988c2.116,29.226,13.061,49.923,33.692,57.483Z" transform="translate(-4.527 0.001)" fill="#b0a2cd"/>
        </g>
      </g>
      <g id="Grupo_136767" data-name="Grupo 136767" transform="translate(514.261 2622.151)">
        <path id="Trazado_171839" data-name="Trazado 171839" d="M302.63,199.29h9.831l-8.81,52.21H293.82Z" transform="translate(-256.532 -171.615)" fill="#6e99d6"/>
        <rect id="Rectángulo_44092" data-name="Rectángulo 44092" width="56.224" height="5.26" rx="2.4" transform="translate(59.296 82.515) rotate(180)" fill="#95b5e8"/>
        <rect id="Rectángulo_44093" data-name="Rectángulo 44093" width="62.373" height="8.705" rx="4.353" transform="translate(62.373 77.255) rotate(180)" fill="#b7cfe2"/>
        <rect id="Rectángulo_44094" data-name="Rectángulo 44094" width="9.5" height="62.562" transform="translate(35.936 145.072) rotate(180)" fill="#6e99d6"/>
        <path id="Trazado_171840" data-name="Trazado 171840" d="M272.941,181.21a208.1,208.1,0,0,0,42.485.021,3.034,3.034,0,0,0,2.567-2.4l5.486-29.714a1.946,1.946,0,0,0-2.241-2.393,147.255,147.255,0,0,1-41.37-.021,2.953,2.953,0,0,0-3.119,2.388L271.263,178.8a1.934,1.934,0,0,0,1.678,2.4Z" transform="translate(-245.82 -146.676)" fill="#b7cfe2"/>
        <path id="Trazado_171841" data-name="Trazado 171841" d="M361.78,146.78H364.7a1.933,1.933,0,0,1,1.92,2.414l-5.46,29.566a3.012,3.012,0,0,1-2.814,2.414H355.3Z" transform="translate(-285.674 -146.725)" fill="#95b5e8"/>
        <path id="Trazado_171842" data-name="Trazado 171842" d="M233.74,428.629h51L263.99,422.48h-9.5Z" transform="translate(-228.054 -277.408)" fill="#6e99d6"/>
        <path id="Trazado_171843" data-name="Trazado 171843" d="M242.638,380.03h40.044a1.69,1.69,0,0,1,1.688,1.688h0a1.69,1.69,0,0,1-1.688,1.688H242.638a1.69,1.69,0,0,1-1.688-1.688h0A1.69,1.69,0,0,1,242.638,380.03Z" transform="translate(-231.471 -257.287)" fill="#b7cfe2"/>
      </g>
      <g id="Grupo_136776" data-name="Grupo 136776" transform="translate(468.42 2569.421)">
        <g id="Grupo_136769" data-name="Grupo 136769" transform="translate(0 14.096)">
          <path id="Trazado_171844" data-name="Trazado 171844" d="M190.89,139.169l-7.774,2.341a15.3,15.3,0,0,1-1.962.447,14.943,14.943,0,0,1-15.117-7.012L150.82,109.839a11,11,0,0,1,4.76-3.419l22.029,21.171,5.465-2.761,7.811,14.333Z" transform="translate(-142.909 -88.961)" fill="#ffd6d2"/>
          <g id="Grupo_136768" data-name="Grupo 136768">
            <path id="Trazado_171845" data-name="Trazado 171845" d="M148.461,90.7l-4.76,3.419-.789-1.052-.763-.3a4.311,4.311,0,0,1-1.883-1.425l-3.934-5.244a2.651,2.651,0,0,1,.174-3.387c.452-.489,1.015-1.057,1.7-1.678l.174-.158c.615-.547,1.32-1.136,2.125-1.741a.016.016,0,0,0,.011-.005h0l.011-.011c.005-.005.016-.011.021-.016h.005a.291.291,0,0,1,.042-.032h0l-1.773-5.018a.591.591,0,0,1,.021-.5.574.574,0,0,1,.2-.221.6.6,0,0,1,.868.231l8.547,17.148Z" transform="translate(-135.79 -73.227)" fill="#ffd6d2"/>
            <path id="Trazado_171846" data-name="Trazado 171846" d="M148.013,103.948a.276.276,0,0,1-.074-.063c-1.857-2.52-5.865-3.524-5.907-3.535a.214.214,0,1,1,.1-.416c.168.042,4.2,1.052,6.149,3.7a.212.212,0,0,1-.047.3.232.232,0,0,1-.226.021Z" transform="translate(-138.666 -85.884)" fill="#f49d98"/>
            <path id="Trazado_171847" data-name="Trazado 171847" d="M138.01,92.32a.75.75,0,0,1-.158-.105l-2.036-1.767a.108.108,0,0,1,.142-.163l2.036,1.767a.566.566,0,0,0,.863-.71l-1.552-2.73a.105.105,0,0,1,.026-.137.111.111,0,0,1,.142.005l2.309,2.178a.659.659,0,0,0,.836.047.645.645,0,0,0,.184-.8l-1.494-2.946a.1.1,0,0,1,.037-.137.106.106,0,0,1,.142.021l2.42,2.861a.605.605,0,0,0,1-.668l-2.42-4.76a.106.106,0,0,1,.189-.095l2.42,4.76a.815.815,0,0,1-.279,1.052.824.824,0,0,1-1.078-.153l-1.83-2.157,1.078,2.125a.858.858,0,0,1-1.157,1.152.8.8,0,0,1-.2-.142l-1.794-1.688,1.2,2.109A.782.782,0,0,1,138,92.32Z" transform="translate(-135.78 -78.39)" fill="#f49d98"/>
            <line id="Línea_708" data-name="Línea 708" transform="translate(4.813 5.835)" fill="#ffd6d2"/>
            <path id="Trazado_171848" data-name="Trazado 171848" d="M152.9,92.5a3.058,3.058,0,0,0-.563-1.9l-.437-.621a3.071,3.071,0,0,0-1.578-1.162l-1.657-.537-2.025.794a.725.725,0,0,0-.063,1.32l.568.289,2.756.095-.952,3.2a2.254,2.254,0,0,0,2.725,2.825l1.068-.279L152.9,92.5Z" transform="translate(-140.709 -80.362)" fill="#ffd6d2"/>
            <path id="Trazado_171849" data-name="Trazado 171849" d="M149.109,96.631s-.026-.021-.037-.032a2.328,2.328,0,0,1-.326-2.025l.91-3.072-2.619-.089a.108.108,0,0,1-.047-.011l-.568-.289a.828.828,0,0,1,.074-1.51.1.1,0,0,1,.137.063.105.105,0,0,1-.063.137.614.614,0,0,0-.053,1.12l.547.279,2.73.089a.11.11,0,0,1,.084.042.1.1,0,0,1,.016.095l-.952,3.2a2.122,2.122,0,0,0,.3,1.841.108.108,0,0,1-.026.147.1.1,0,0,1-.11.005Z" transform="translate(-140.609 -80.986)" fill="#f49d98"/>
          </g>
          <path id="Trazado_171850" data-name="Trazado 171850" d="M201.76,146.268l1.8,2.283-.9-2.74Z" transform="translate(-167.055 -107.632)" fill="#f49d98"/>
          <path id="Trazado_171851" data-name="Trazado 171851" d="M218.226,155.754l-7.774,2.341a15.291,15.291,0,0,1-1.962.447h0a8.02,8.02,0,0,0,3.5-8.09l-1.578-9.042,7.811,14.333Z" transform="translate(-170.245 -105.546)" fill="#f49d98"/>
          <path id="Trazado_171852" data-name="Trazado 171852" d="M237.934,141.939l-5.186,1.131-12.961,2.819a1.856,1.856,0,0,1-1.915-.757,1.884,1.884,0,0,1-.221-.405l-5.5-14.554,12.1-7.906a34.048,34.048,0,0,1,8.19-3.9l2.13-.684,3.361,24.259Z" transform="translate(-171.979 -94.298)" fill="#515fab"/>
          <path id="Trazado_171853" data-name="Trazado 171853" d="M236.407,154.963l-12.961,2.819a1.856,1.856,0,0,1-1.915-.757h0a1.517,1.517,0,0,0,.363-1.541l-1.994-6.165a.584.584,0,0,1,1.031-.521l2.8,3.9a3.536,3.536,0,0,0,4.545,1.073c6.465-3.529,8.032-11,8.032-11l.089,12.187Z" transform="translate(-175.639 -106.191)" fill="#3d4780"/>
        </g>
        <g id="Grupo_136772" data-name="Grupo 136772" transform="translate(1.225 100.277)">
          <path id="Trazado_171854" data-name="Trazado 171854" d="M167.932,321.1h12.887a.953.953,0,0,0,.915-.679l16.232-53.641,5.875-.957,26.337-4.276a11.721,11.721,0,0,0,9.494-14.439l-1.8-7.175-25.09-2.861L184.4,253.881a14.64,14.64,0,0,0-7.18,12.393l-10.236,53.683a.96.96,0,0,0,.942,1.136Z" transform="translate(-151.788 -237.07)" fill="#4e2e8e"/>
          <path id="Trazado_171855" data-name="Trazado 171855" d="M188.57,334l2.462.089a.961.961,0,0,0,.952-.679l16.222-53.615,13.36-2.172,1.047-6.023,2.919-7.069-23.707,14.244a3.585,3.585,0,0,0-1.494,2.777L188.57,334Z" transform="translate(-162.027 -250.086)" opacity="0.3"/>
          <path id="Trazado_171856" data-name="Trazado 171856" d="M288.393,258.5a11.685,11.685,0,0,1-7.5,4.539l-17.316,5.228,3.5,53.3a.956.956,0,0,1-.957,1.02H253.193a.959.959,0,0,1-.942-.789L243.1,270.066c-1.12-6.323.279-11.567,6.012-17.263l11.314-12.419.316-.184,27.852,1.231,1.8,7.175a11.7,11.7,0,0,1-1.994,9.9Z" transform="translate(-187.706 -238.554)" fill="#4e2e8e"/>
          <path id="Trazado_171857" data-name="Trazado 171857" d="M276.238,396.82l.563,9.678-4.839,3.719-5.2-3.719-1.92-9.678Z" transform="translate(-198.18 -312.792)" fill="#ffd6d2"/>
          <path id="Trazado_171858" data-name="Trazado 171858" d="M264.84,396.82l.258,1.3,11.362,1.389-.221-2.693Z" transform="translate(-198.18 -312.792)" fill="#f49d98"/>
          <g id="Grupo_136770" data-name="Grupo 136770" transform="translate(0 84.028)">
            <path id="Trazado_171859" data-name="Trazado 171859" d="M179.2,396.82l-3.75,9.678-4.839,3.719L164.9,406.5l2.051-9.678Z" transform="translate(-150.808 -396.82)" fill="#ffd6d2"/>
            <path id="Trazado_171860" data-name="Trazado 171860" d="M168.549,396.82l-.279,1.315,11.472,1.4,1.052-2.719Z" transform="translate(-152.405 -396.82)" fill="#f49d98"/>
            <path id="Trazado_171861" data-name="Trazado 171861" d="M166.134,423.105a3.6,3.6,0,0,1-3.287,2.072h-23.17a1.566,1.566,0,0,1-.731-2.951l4.382-2.32h0l8.874-4.7s5.97,2.162,10.546,0l3.04,4.176a3.594,3.594,0,0,1,.342,3.714Z" transform="translate(-138.108 -405.537)"/>
            <path id="Trazado_171862" data-name="Trazado 171862" d="M166.134,427.338a3.6,3.6,0,0,1-3.287,2.072h-23.17a1.566,1.566,0,0,1-.731-2.951l4.382-2.32h0s2.13.273,2.9,3.193h19.909Z" transform="translate(-138.108 -409.77)"/>
          </g>
          <path id="Trazado_171863" data-name="Trazado 171863" d="M244.91,286.76a.242.242,0,0,1-.237-.2l-2.393-13.655a14.343,14.343,0,0,1,6.77-14.728l13.413-7.958a.238.238,0,1,1,.242.41l-13.413,7.958a13.852,13.852,0,0,0-6.543,14.233l2.393,13.655a.243.243,0,0,1-.195.279H244.9Z" transform="translate(-187.386 -243.286)" fill="#454911"/>
          <path id="Trazado_171864" data-name="Trazado 171864" d="M304.323,258.495c.815-13.224-21.855-17.268-27.973-18.121l.316-.184,27.852,1.231,1.8,7.175a11.7,11.7,0,0,1-1.994,9.9Z" transform="translate(-203.635 -238.549)" opacity="0.3"/>
          <g id="Grupo_136771" data-name="Grupo 136771" transform="translate(67.032 93.712)">
            <path id="Trazado_171865" data-name="Trazado 171865" d="M280.929,422.678a3.052,3.052,0,0,1-3.019,2.514H267.458a1.908,1.908,0,0,1-1.909-1.978v-.132l1.536-7.853a17.177,17.177,0,0,0,10.041,0l3.682,5.939a3,3,0,0,1,.11,1.515Z" transform="translate(-265.547 -415.23)"/>
            <path id="Trazado_171866" data-name="Trazado 171866" d="M265.559,429.742a1.9,1.9,0,0,0,1.909,1.978H277.92a3.066,3.066,0,0,0,3.019-2.514,3.5,3.5,0,0,1-2.63,1.247c-1.741-.252-2.136-1.331-4.866-1.436s-5.334,1.473-6.254,1.452a2.976,2.976,0,0,1-1.625-.731Z" transform="translate(-265.552 -421.762)"/>
          </g>
        </g>
        <path id="Trazado_171867" data-name="Trazado 171867" d="M293,180.991a.961.961,0,0,1-.6,1.073,23.867,23.867,0,0,1-6.491,1.226c-.463.037-.931.079-1.4.116-.342.026-.694.058-1.036.084-16.532,1.483-31.655-4.787-34.905-6.244a.953.953,0,0,1-.552-.994l2-15.712-.421-34.227,1.988-12.724,7.948-2.735.026-.011,5.234-1.8h8.995l3.046,1.22.389.153,9.884,3.961s1.8,26.468,3.13,45.578a200.01,200.01,0,0,0,2.788,21.035Z" transform="translate(-188.97 -76.107)" fill="#6677d6"/>
        <path id="Trazado_171868" data-name="Trazado 171868" d="M287.593,110.413c-1.015,5.491-4.418,8.121-10.646,7.758-4.913-.289-6.517-5.007-7.017-7.327l5.234-1.8h8.995l3.046,1.22Z" transform="translate(-199.367 -76.106)" fill="#ffcf83"/>
        <path id="Trazado_171869" data-name="Trazado 171869" d="M313.773,209.361c.473-.037.942-.079,1.4-.116a23.824,23.824,0,0,0,6.491-1.22.966.966,0,0,0,.6-1.073,201.249,201.249,0,0,1-2.788-21.035c-.126-1.231-.247-2.472-.363-3.708-.032-.363-.068-.726-.1-1.084-.095-1.015-.184-2.025-.279-3.035-.1-1.157.063-2.346-.026-3.487-.142-1.72-.331-4.781-.458-6.454-1.162-3.456-2.13-4.339-2.13-4.339l-6.359.926s5.47,34.811,4,44.631Z" transform="translate(-218.252 -102.068)" fill="#3d4780"/>
        <path id="Trazado_171870" data-name="Trazado 171870" d="M263.243,163.017l-4.171,3.429a.5.5,0,0,1-.636,0l-4.171-3.429a.5.5,0,0,1-.184-.389v-7.653a.505.505,0,0,1,.5-.5h8.348a.505.505,0,0,1,.5.5v7.653a.5.5,0,0,1-.184.389Z" transform="translate(-191.854 -97.64)" fill="#3d4780"/>
        <g id="Grupo_136773" data-name="Grupo 136773" transform="translate(56.98)">
          <path id="Trazado_171871" data-name="Trazado 171871" d="M250.337,58.417a12.273,12.273,0,0,1-5.4-3.287,3,3,0,0,1,1.962-5.05c4.429-.331,10.8-1.036,14.144-2.5,5.444-2.378,12.519-1.02,14.007,3.545l1.331-.668a1.049,1.049,0,0,1,1.262,1.625l-.689.794s5.376,7.669.842,13.45a92.054,92.054,0,0,0-8.137,12.8l-19.325-20.7Z" transform="translate(-244.108 -46.428)" fill="#492c1e"/>
          <path id="Trazado_171872" data-name="Trazado 171872" d="M285.645,92.16l1.673,10.425h0a6.838,6.838,0,0,1-6.77,5.875h0a6.841,6.841,0,0,1-6.486-4.666l-.252-.747v-6.57l11.84-4.318Z" transform="translate(-258.187 -68.105)" fill="#ffd6d2"/>
          <path id="Trazado_171873" data-name="Trazado 171873" d="M281.264,102.537l-7.464,4.408V100.38Z" transform="translate(-258.182 -72.002)" fill="#f49d98"/>
          <path id="Trazado_171874" data-name="Trazado 171874" d="M257.85,64.155A131.844,131.844,0,0,0,260.6,79.367a8.619,8.619,0,0,0,12.266,5.57,9.568,9.568,0,0,0,5.339-7.822s2.8.247,2.725-4.171-3.808-3.451-4.387-2.267l-.058,1.283a.87.87,0,0,1-.531.763h0a.872.872,0,0,1-1.21-.7l-1.1-9.789A29.06,29.06,0,0,1,257.85,64.155Z" transform="translate(-250.621 -53.918)" fill="#ffd6d2"/>
          <path id="Trazado_171875" data-name="Trazado 171875" d="M274.371,86.072h-.058l-2.751-.31a.267.267,0,0,1-.237-.263l-.116-5.775a.28.28,0,0,1,.263-.274.269.269,0,0,1,.273.263l.111,5.539,2.52.284a.271.271,0,0,1,.237.3A.269.269,0,0,1,274.371,86.072Z" transform="translate(-256.954 -62.081)" fill="#f49d98"/>
          <path id="Trazado_171876" data-name="Trazado 171876" d="M278.838,81.448h0a.606.606,0,0,0,.547-.668l-.063-.636a.606.606,0,0,0-.668-.547h0a.606.606,0,0,0-.547.668l.063.636A.606.606,0,0,0,278.838,81.448Z" transform="translate(-260.222 -62.149)" fill="#492c1e"/>
          <path id="Trazado_171877" data-name="Trazado 171877" d="M265.828,83.458h0a.606.606,0,0,0,.547-.668l-.063-.636a.606.606,0,0,0-.668-.547h0a.606.606,0,0,0-.547.668l.063.636A.606.606,0,0,0,265.828,83.458Z" transform="translate(-254.055 -63.101)" fill="#492c1e"/>
          <path id="Trazado_171878" data-name="Trazado 171878" d="M272.12,93.716a3.436,3.436,0,0,0,6.2-2.956Z" transform="translate(-257.386 -67.442)" fill="#fff"/>
          <path id="Trazado_171879" data-name="Trazado 171879" d="M274.752,76.138a.292.292,0,0,1-.226-.084.267.267,0,0,1,.016-.379,4.33,4.33,0,0,1,4.739-.852.269.269,0,0,1-.247.479,3.728,3.728,0,0,0-4.134.768.254.254,0,0,1-.158.068Z" transform="translate(-258.492 -59.716)" fill="#492c1e"/>
          <path id="Trazado_171880" data-name="Trazado 171880" d="M260.9,78.7a.292.292,0,0,1-.226-.084.267.267,0,0,1,.016-.379,4.33,4.33,0,0,1,4.739-.852.269.269,0,0,1-.247.479,3.72,3.72,0,0,0-4.129.768.254.254,0,0,1-.158.068Z" transform="translate(-251.927 -60.929)" fill="#492c1e"/>
          <path id="Trazado_171881" data-name="Trazado 171881" d="M294.982,82.74h.011a.243.243,0,0,0,.242-.205c.032-.205.184-.836.489-1.015a.371.371,0,0,1,.342-.016.236.236,0,0,0,.305-.142.24.24,0,0,0-.142-.305.854.854,0,0,0-.752.058,1,1,0,0,0-.263.231c.042-.626.2-1.262.61-1.368.868-.221,1.289.731,1.3.773a.241.241,0,0,0,.442-.195,1.656,1.656,0,0,0-1.862-1.041c-1.236.316-.978,2.74-.947,3.019a.241.241,0,0,0,.226.21Z" transform="translate(-268.097 -62.089)" fill="#f49d98"/>
        </g>
        <path id="Trazado_171882" data-name="Trazado 171882" d="M250.929,154.118a.236.236,0,0,1-.237-.237l-.153-12.219a.24.24,0,0,1,.237-.242h0a.236.236,0,0,1,.237.237l.153,12.219a.24.24,0,0,1-.237.242Z" transform="translate(-190.176 -91.455)" fill="#96173e"/>
        <g id="Grupo_136775" data-name="Grupo 136775" transform="translate(88.778 13.824)">
          <path id="Trazado_171883" data-name="Trazado 171883" d="M388.492,110.377l-14.328,31.865a13.729,13.729,0,0,1-19.078,6.422l-8.106-4.408,9.352-16.038,7.559,5.891,19.546-26.7S387.371,107.542,388.492,110.377Z" transform="translate(-324.667 -89.158)" fill="#ffd6d2"/>
          <g id="Grupo_136774" data-name="Grupo 136774" transform="translate(58.743)">
            <path id="Trazado_171884" data-name="Trazado 171884" d="M416.3,90.962l5.055,2.967.689-1.12.736-.368a4.332,4.332,0,0,0,1.741-1.589l3.435-5.586a2.58,2.58,0,0,0,.352-.931,2.659,2.659,0,0,0-.836-2.43c-.494-.442-1.11-.957-1.852-1.515-.063-.047-.121-.095-.189-.142-.663-.489-1.415-1.01-2.272-1.541a.016.016,0,0,1-.01-.005h0s-.005,0-.011-.011-.016-.011-.026-.016h-.005a.481.481,0,0,0-.042-.026h0l1.3-5.16a.614.614,0,0,0-.063-.5.621.621,0,0,0-.216-.205.6.6,0,0,0-.842.31L416.31,90.957Z" transform="translate(-416.268 -72.711)" fill="#ffd6d2"/>
            <path id="Trazado_171885" data-name="Trazado 171885" d="M422.4,103.852a.212.212,0,0,0,.068-.068c1.62-2.677,5.518-4.05,5.56-4.061a.215.215,0,0,0-.142-.405c-.168.058-4.087,1.436-5.786,4.245a.215.215,0,0,0,.074.295.218.218,0,0,0,.226,0Z" transform="translate(-419.003 -85.316)" fill="#f49d98"/>
            <path id="Trazado_171886" data-name="Trazado 171886" d="M430.554,91.725a1.021,1.021,0,0,0,.147-.116l1.867-1.946a.108.108,0,0,0,0-.153.113.113,0,0,0-.153,0l-1.867,1.946a.576.576,0,0,1-.684.105.565.565,0,0,1-.242-.731l1.294-2.861a.117.117,0,0,0-.042-.137.1.1,0,0,0-.137.021l-2.1,2.383a.54.54,0,0,1-.142.121.645.645,0,0,1-.942-.784l1.22-3.072a.109.109,0,0,0-.047-.137.105.105,0,0,0-.137.032l-2.146,3.072a.608.608,0,0,1-1.063-.573l1.973-4.96a.11.11,0,0,0-.058-.142.108.108,0,0,0-.142.058l-1.973,4.96a.819.819,0,0,0,1.431.773l1.62-2.32-.878,2.214a.862.862,0,0,0,1.257,1.047.942.942,0,0,0,.189-.158l1.631-1.846-1,2.209a.784.784,0,0,0,1.136.984Z" transform="translate(-420.449 -77.96)" fill="#f49d98"/>
            <line id="Línea_709" data-name="Línea 709" transform="translate(6.791 5.943)" fill="#ffd6d2"/>
            <path id="Trazado_171887" data-name="Trazado 171887" d="M416.266,93.087a3.079,3.079,0,0,1,.384-1.941l.379-.663a3.122,3.122,0,0,1,1.462-1.3l1.6-.689,2.093.6a.722.722,0,0,1,.184,1.3l-.536.342-2.735.347,1.241,3.1a2.253,2.253,0,0,1-2.456,3.061l-1.089-.179-.526-4Z" transform="translate(-416.239 -80.19)" fill="#ffd6d2"/>
            <path id="Trazado_171888" data-name="Trazado 171888" d="M422.739,96.695a.227.227,0,0,0,.037-.037,2.351,2.351,0,0,0,.142-2.046l-1.189-2.977,2.6-.326a.1.1,0,0,0,.042-.016l.537-.342a.835.835,0,0,0-.21-1.5.107.107,0,1,0-.058.205.616.616,0,0,1,.158,1.11l-.516.326-2.714.342a.092.092,0,0,0-.079.053.1.1,0,0,0-.005.095l1.241,3.1a2.126,2.126,0,0,1-.126,1.862.106.106,0,0,0,.042.147.117.117,0,0,0,.11,0Z" transform="translate(-418.719 -80.642)" fill="#f49d98"/>
          </g>
          <path id="Trazado_171889" data-name="Trazado 171889" d="M376.414,157.284l-3.024,4.6,1.762-5.581Z" transform="translate(-337.186 -112.332)" fill="#f49d98"/>
          <path id="Trazado_171890" data-name="Trazado 171890" d="M367.588,168.334a13.692,13.692,0,0,1-12.492-.321L346.99,163.6l10.052-15.375s-4.076,15.722-.71,18.21,7.364-.442,8.9,0A5.871,5.871,0,0,1,367.588,168.334Z" transform="translate(-324.672 -108.507)" fill="#f49d98"/>
          <path id="Trazado_171891" data-name="Trazado 171891" d="M316.3,119.18h0a38.263,38.263,0,0,1,11.272,6.091l11.767,9.189s-4.7,9.726-6.533,16.248a1.8,1.8,0,0,1-2.409,1.184l-20.687-8.316s-1.2-14.617,6.591-24.4Z" transform="translate(-306.969 -94.737)" fill="#515fab"/>
          <path id="Trazado_171892" data-name="Trazado 171892" d="M313.176,167.106a.18.18,0,0,1-.089-.016l-8.374-3.287a.24.24,0,1,1,.174-.447l8.374,3.287a.243.243,0,0,1,.137.31.238.238,0,0,1-.221.153Z" transform="translate(-304.56 -115.669)" fill="#96173e"/>
        </g>
      </g>
      <g id="Grupo_136779" data-name="Grupo 136779" transform="translate(406.51 2625.856)">
        <g id="Grupo_136777" data-name="Grupo 136777" transform="translate(20.304)">
          <rect id="Rectángulo_44095" data-name="Rectángulo 44095" width="33.659" height="3.109" rx="1.554" transform="translate(88.972 27.999) rotate(180)" fill="#b83909"/>
          <path id="Trazado_171893" data-name="Trazado 171893" d="M71.577,181.719h44.352a.954.954,0,0,0,.842-1.4l-13.939-26.089a.957.957,0,0,0-.842-.5H57.638a.954.954,0,0,0-.842,1.4l13.939,26.089A.958.958,0,0,0,71.577,181.719Z" transform="translate(-56.682 -153.72)" fill="#c6412a"/>
          <ellipse id="Elipse_6088" data-name="Elipse 6088" cx="2.867" cy="2.867" rx="2.867" ry="2.867" transform="translate(27.235 11.13)" fill="#d7e8f7"/>
        </g>
        <rect id="Rectángulo_44096" data-name="Rectángulo 44096" width="5.739" height="108.797" transform="translate(49.407 147.563) rotate(180)" fill="#6e99d6"/>
        <g id="Grupo_136778" data-name="Grupo 136778" transform="translate(0 27.994)">
          <rect id="Rectángulo_44097" data-name="Rectángulo 44097" width="164.243" height="10.725" rx="5.363" transform="translate(164.243 10.725) rotate(180)" fill="#b7cfe2"/>
          <rect id="Rectángulo_44098" data-name="Rectángulo 44098" width="53.72" height="10.725" rx="5.363" transform="translate(164.537 10.725) rotate(180)" fill="#95b5e8"/>
          <rect id="Rectángulo_44099" data-name="Rectángulo 44099" width="5.739" height="108.797" transform="translate(159.361 119.57) rotate(180)" fill="#95b5e8"/>
          <rect id="Rectángulo_44100" data-name="Rectángulo 44100" width="5.739" height="108.797" transform="translate(122.41 119.57) rotate(180)" fill="#95b5e8"/>
          <rect id="Rectángulo_44101" data-name="Rectángulo 44101" width="5.739" height="108.797" transform="translate(10.452 119.57) rotate(180)" fill="#95b5e8"/>
          <rect id="Rectángulo_44102" data-name="Rectángulo 44102" width="5.739" height="2.199" transform="translate(159.361 12.976) rotate(180)" fill="#6e99d6"/>
          <rect id="Rectángulo_44103" data-name="Rectángulo 44103" width="5.739" height="2.199" transform="translate(122.41 12.976) rotate(180)" fill="#6e99d6"/>
          <rect id="Rectángulo_44104" data-name="Rectángulo 44104" width="5.739" height="2.199" transform="translate(10.452 12.976) rotate(180)" fill="#6e99d6"/>
        </g>
      </g>
      <g id="Grupo_136783" data-name="Grupo 136783" transform="translate(586.72 2663.613)">
        <path id="Trazado_171895" data-name="Trazado 171895" d="M430.853,257.986s-21.808-33.432,27.636-32.465a1.826,1.826,0,0,1,1.715,2.351c-2.835,9.452-14.586,44.415-29.356,30.119Z" transform="translate(-391.675 -225.501)" fill="#4e2e8e"/>
        <path id="Trazado_171896" data-name="Trazado 171896" d="M387.982,274.415s12.64-25.848-25.716-20.73a1.826,1.826,0,0,0-1.4,2.588C364.123,263.222,375.043,283.446,387.982,274.415Z" transform="translate(-360.686 -238.543)" fill="#4e2e8e"/>
        <path id="Trazado_171897" data-name="Trazado 171897" d="M424.19,303.226a.647.647,0,0,0,.142-.01.913.913,0,0,0,.763-1.042c-.058-.358-5.223-36.1,21.5-59.764a.913.913,0,0,0-1.21-1.368c-14.37,12.724-19.609,28.74-21.482,39.934a73.878,73.878,0,0,0-.615,21.476A.911.911,0,0,0,424.19,303.226Z" transform="translate(-390.125 -232.758)" fill="#6e99d6"/>
        <path id="Trazado_171898" data-name="Trazado 171898" d="M407.64,312.873a.917.917,0,0,0,.915-.9c0-.326-.068-32.58-28.9-50.664a.916.916,0,1,0-.973,1.552c27.978,17.547,28.046,48.786,28.046,49.1a.915.915,0,0,0,.9.921Z" transform="translate(-369.014 -242.406)" fill="#6e99d6"/>
        <path id="Trazado_171899" data-name="Trazado 171899" d="M372.208,337.977l1.12,6.349,7.206,40.9a3.052,3.052,0,0,0,3,2.514h28.84a3.047,3.047,0,0,0,3-2.514l7.211-40.9,1.12-6.349a2.86,2.86,0,0,0,.037-.7,3.039,3.039,0,0,0-3.035-2.877h-45.5a3.035,3.035,0,0,0-3.035,2.877A2.631,2.631,0,0,0,372.208,337.977Z" transform="translate(-366.126 -277.119)" fill="#b7cfe2"/>
        <path id="Trazado_171900" data-name="Trazado 171900" d="M372.208,340.57l1.12,6.349h49.26l1.12-6.349a2.856,2.856,0,0,0,.037-.7H372.172A2.627,2.627,0,0,0,372.208,340.57Z" transform="translate(-366.126 -279.712)" fill="#95b5e8"/>
        <rect id="Rectángulo_44109" data-name="Rectángulo 44109" width="57.991" height="9.926" rx="4.963" transform="translate(60.828 63.288) rotate(180)" fill="#d7e8f7"/>
      </g>
      <g id="Grupo_136784" data-name="Grupo 136784" transform="translate(524.737 2637.813)">
        <path id="Trazado_171901" data-name="Trazado 171901" d="M248.75,176.45h-5.376a.531.531,0,0,0-.526.579l1.289,14.5a1.054,1.054,0,0,0,1.052.963h7.117a1.058,1.058,0,0,0,1.052-.963l1.289-14.5a.531.531,0,0,0-.526-.579h-5.376Z" transform="translate(-242.846 -176.45)" fill="#b7cfe2"/>
        <path id="Trazado_171902" data-name="Trazado 171902" d="M248.2,183.221a6.849,6.849,0,0,0-2.825-.058l1.015,11.393h7.117l.989-11.146a15.332,15.332,0,0,1-6.3-.195Z" transform="translate(-244.047 -179.575)" fill="#d7e8f7"/>
        <path id="Trazado_171903" data-name="Trazado 171903" d="M258.891,178.55h-1.573l-1.241,13.366a.787.787,0,0,0,.778.857h0a.783.783,0,0,0,.778-.71l1.252-13.508Z" transform="translate(-249.116 -177.445)" fill="#fff"/>
      </g>
      <g id="Grupo_137037" data-name="Grupo 137037" transform="translate(-64.99 -11.413)">
        <g id="Grupo_136781" data-name="Grupo 136781" transform="translate(397 2545)">
          <rect id="Rectángulo_44106" data-name="Rectángulo 44106" width="133.991" height="54.826" rx="16.57" fill="#6677d6"/>
          <rect id="Rectángulo_44107" data-name="Rectángulo 44107" width="53.584" height="8.157" rx="4.078" transform="translate(12.191 8.897)" fill="#fff"/>
          <rect id="Rectángulo_44108" data-name="Rectángulo 44108" width="21.996" height="8.157" rx="4.078" transform="translate(99.804 8.897)" fill="#fff"/>
        </g>
        <ellipse id="Elipse_6089" data-name="Elipse 6089" cx="10.359" cy="10.359" rx="10.359" ry="10.359" transform="translate(407.377 2572.889)" fill="#fff"/>
        <ellipse id="Elipse_6090" data-name="Elipse 6090" cx="10.359" cy="10.359" rx="10.359" ry="10.359" transform="translate(438.665 2572.889)" fill="#fff"/>
        <ellipse id="Elipse_6091" data-name="Elipse 6091" cx="10.359" cy="10.359" rx="10.359" ry="10.359" transform="translate(469.954 2572.889)" fill="#fff"/>
        <ellipse id="Elipse_6092" data-name="Elipse 6092" cx="10.359" cy="10.359" rx="10.359" ry="10.359" transform="translate(501.287 2573.082)" fill="#fff"/>
        <g id="Grupo_136786" data-name="Grupo 136786" transform="translate(477.53 2575.805)">
          <path id="Trazado_171904" data-name="Trazado 171904" d="M91.42,47.978a2.79,2.79,0,1,1,5.576,0,2.789,2.789,0,1,1-5.576,0Z" transform="translate(-91.42 -36.174)" fill="#4e2e8e"/>
          <path id="Trazado_171905" data-name="Trazado 171905" d="M91.42,37.868a2.79,2.79,0,1,1,5.576,0,2.789,2.789,0,1,1-5.576,0Z" transform="translate(-91.42 -34.97)" fill="#4e2e8e"/>
        </g>
        <path id="Trazado_171906" data-name="Trazado 171906" d="M20.38,43.048a2.9,2.9,0,0,1,2.775-2.9,2.93,2.93,0,0,1,2.8,2.9,2.789,2.789,0,1,1-5.576,0Z" transform="translate(394.572 2540.217)" fill="#4e2e8e"/>
        <path id="Trazado_171907" data-name="Trazado 171907" d="M57.7,46.857a1.047,1.047,0,0,1-1.048-1.048,1.432,1.432,0,0,1,.81-1.277,1.626,1.626,0,0,0,.731-.96A2.172,2.172,0,0,1,56.13,41.36a2.39,2.39,0,0,1,2.616-2.44A2.581,2.581,0,0,1,61.3,41.51a5.981,5.981,0,0,1-2.264,4.854,2.266,2.266,0,0,1-1.339.493Z" transform="translate(390.314 2540.364)" fill="#4e2e8e"/>
        <g id="Grupo_136787" data-name="Grupo 136787" transform="translate(508.854 2575.61)">
          <path id="Trazado_171908" data-name="Trazado 171908" d="M126.98,37.648a2.79,2.79,0,1,1,5.576,0,2.789,2.789,0,1,1-5.576,0Z" transform="translate(-126.98 -34.75)" fill="#4e2e8e"/>
          <path id="Trazado_171909" data-name="Trazado 171909" d="M128.778,51.467a1.047,1.047,0,0,1-1.048-1.048,1.432,1.432,0,0,1,.81-1.277,1.626,1.626,0,0,0,.731-.96,2.172,2.172,0,0,1-2.061-2.211,2.39,2.39,0,0,1,2.616-2.44,2.581,2.581,0,0,1,2.555,2.59,5.981,5.981,0,0,1-2.264,4.854,2.266,2.266,0,0,1-1.339.493Z" transform="translate(-127.007 -35.796)" fill="#4e2e8e"/>
        </g>
      </g>
    </g>
  </g>
</svg>
