<svg xmlns="http://www.w3.org/2000/svg" width="150" height="150" viewBox="0 0 150 150">
  <g id="Grupo_163904" data-name="Grupo 163904" transform="translate(-8382.666 14974.432)">
    <g id="Grupo_163836" data-name="Grupo 163836" transform="translate(7276.666 -16579.432)">
      <g id="Grupo_116729" data-name="Grupo 116729" transform="translate(1106 1605)">
        <path id="Trazado_170461" data-name="Trazado 170461" d="M75,0A75,75,0,1,1,0,75,75,75,0,0,1,75,0Z" fill="#fff"/>
      </g>
      <g id="Grupo_136914" data-name="Grupo 136914" transform="translate(1491 12135.49)">
        <g id="Grupo_136912" data-name="Grupo 136912" transform="translate(-349 -10450.712)">
          <g id="Capa_1" data-name="Capa 1" transform="translate(0 0)">
            <g id="Grupo_116313" data-name="Grupo 116313">
              <g id="Grupo_116310" data-name="Grupo 116310">
                <rect id="Rectángulo_42824" data-name="Rectángulo 42824" width="6.803" height="23.373" transform="translate(18.628 4.789)" fill="#6677d6"/>
                <path id="Trazado_171020" data-name="Trazado 171020" d="M9.283,85.823H1.93v-30.8H9.283c2.72,0,7.181-.395,9.011,1.341,1.958,1.858,1.19,5.946,1.19,8.861v10.4c0,2.8.64,7.081-1.19,8.922-1.847,1.858-6.185,1.279-9.011,1.279Z" transform="translate(-0.856 -53.946)" fill="#6677d6"/>
                <path id="Trazado_171021" data-name="Trazado 171021" d="M45.78,68.17H57.322a2.308,2.308,0,0,1,1.418.489l10.24,8.032L90.6,70.273a4.192,4.192,0,0,1,5.106,2.509h0a4.184,4.184,0,0,1-1.975,5.229L67.139,91.865A4.218,4.218,0,0,1,63,91.726L52.538,85.363H45.78V68.17Z" transform="translate(-20.316 -59.799)" fill="#fff"/>
                <path id="Trazado_171022" data-name="Trazado 171022" d="M39.436,85.314h-6.8a1.074,1.074,0,0,1-1.074-1.074V60.874A1.074,1.074,0,0,1,32.634,59.8h6.8a1.074,1.074,0,0,1,1.074,1.074V84.246a1.074,1.074,0,0,1-1.074,1.074ZM33.7,83.173h4.661V61.947H33.7Z" transform="translate(-14.006 -56.084)"/>
                <path id="Trazado_171023" data-name="Trazado 171023" d="M15.524,86.065H1.074A1.074,1.074,0,0,1,0,84.992v-30.8A1.074,1.074,0,0,1,1.074,53.12H15.524A4.177,4.177,0,0,1,19.7,57.292v24.6A4.177,4.177,0,0,1,15.524,86.065ZM2.141,83.924H15.524a2.034,2.034,0,0,0,2.03-2.03v-24.6a2.034,2.034,0,0,0-2.03-2.03H2.141V83.924Z" transform="translate(0 -53.12)"/>
                <path id="Trazado_171024" data-name="Trazado 171024" d="M64.33,92.551a5.273,5.273,0,0,1-2.748-.773l-10.2-6.207H44.924A1.074,1.074,0,0,1,43.85,84.5V67.3a1.074,1.074,0,0,1,1.074-1.074H56.465a3.4,3.4,0,0,1,2.08.718l9.8,7.687,21.092-6.263a5.266,5.266,0,0,1,3.933,9.717L66.778,91.944a5.336,5.336,0,0,1-2.442.6ZM45.991,83.429h5.685a1.09,1.09,0,0,1,.556.156l10.457,6.363a3.15,3.15,0,0,0,3.087.1L92.37,76.192a3.122,3.122,0,0,0-1.441-5.89,3.217,3.217,0,0,0-.89.128L68.419,76.854a1.079,1.079,0,0,1-.968-.184l-10.24-8.032a1.247,1.247,0,0,0-.756-.261H45.986V83.429Z" transform="translate(-19.459 -58.938)"/>
                <path id="Trazado_171025" data-name="Trazado 171025" d="M73.609,81.316a3.728,3.728,0,0,1-2.18-.7l-8.95-6.541a1.071,1.071,0,1,1,1.263-1.73l8.944,6.536a1.6,1.6,0,0,0,2.525-1.352,1.588,1.588,0,0,0-.612-1.2l-9.306-7.292a1.07,1.07,0,0,1,1.318-1.685l9.306,7.292A3.734,3.734,0,0,1,73.6,81.316Z" transform="translate(-27.531 -59.334)"/>
              </g>
            </g>
          </g>
        </g>
        <g id="Trazado_202630" data-name="Trazado 202630" transform="translate(-344 -10478.49)" fill="#c6412a">
          <path d="M 9.5 18 C 4.813079833984375 18 1 14.18692016601562 1 9.5 C 1 4.813079833984375 4.813079833984375 1 9.5 1 C 14.18692016601562 1 18 4.813079833984375 18 9.5 C 18 14.18692016601562 14.18692016601562 18 9.5 18 Z" stroke="none"/>
          <path d="M 9.5 2 C 5.364489555358887 2 2 5.364489555358887 2 9.5 C 2 13.6355094909668 5.364489555358887 17 9.5 17 C 13.6355094909668 17 17 13.6355094909668 17 9.5 C 17 5.364489555358887 13.6355094909668 2 9.5 2 M 9.5 0 C 14.74670028686523 0 19 4.253299713134766 19 9.5 C 19 14.74670028686523 14.74670028686523 19 9.5 19 C 4.253299713134766 19 0 14.74670028686523 0 9.5 C 0 4.253299713134766 4.253299713134766 0 9.5 0 Z" stroke="none" fill="#000"/>
        </g>
        <g id="Trazado_202629" data-name="Trazado 202629" transform="translate(-321 -10493.49)" fill="#4e2e8e">
          <path d="M 25.5 50.5 C 22.26300048828125 50.5 19.12334060668945 49.85382080078125 16.16824913024902 48.57941818237305 C 13.31126976013184 47.34732055664062 10.74464988708496 45.58266067504883 8.539679527282715 43.3344612121582 C 6.332729816436768 41.0842399597168 4.599939823150635 38.46369171142578 3.389430046081543 35.54561996459961 C 2.135699987411499 32.52333068847656 1.5 29.31171989440918 1.5 26 C 1.5 22.68828010559082 2.135699987411499 19.47666931152344 3.389430046081543 16.45438003540039 C 4.599939823150635 13.53631019592285 6.332729816436768 10.9157600402832 8.539679527282715 8.665539741516113 C 10.74464988708496 6.41733980178833 13.31126976013184 4.652679920196533 16.16824913024902 3.42057991027832 C 19.12334060668945 2.146179914474487 22.26300048828125 1.5 25.5 1.5 C 28.73699951171875 1.5 31.87665939331055 2.146179914474487 34.83174896240234 3.42057991027832 C 37.68872833251953 4.652679920196533 40.25534820556641 6.41733980178833 42.46031951904297 8.665539741516113 C 44.66727066040039 10.9157600402832 46.40005874633789 13.53631019592285 47.61056900024414 16.45438003540039 C 48.86429977416992 19.47666931152344 49.5 22.68828010559082 49.5 26 C 49.5 29.31171989440918 48.86429977416992 32.52333068847656 47.61056900024414 35.54561996459961 C 46.40005874633789 38.46369171142578 44.66727066040039 41.0842399597168 42.46031951904297 43.3344612121582 C 40.25534820556641 45.58266067504883 37.68872833251953 47.34732055664062 34.83174896240234 48.57941818237305 C 31.87665939331055 49.85382080078125 28.73699951171875 50.5 25.5 50.5 Z" stroke="none"/>
          <path d="M 25.5 3 C 22.46846961975098 3 19.5286693572998 3.60491943359375 16.76226043701172 4.797958374023438 C 14.08481979370117 5.952621459960938 11.67864990234375 7.60723876953125 9.610591888427734 9.715850830078125 C 7.538570404052734 11.82849884033203 5.91162109375 14.2890510559082 4.774948120117188 17.02914047241211 C 3.597179412841797 19.86830139160156 3 22.88652992248535 3 26 C 3 29.11347007751465 3.597179412841797 32.13169860839844 4.774948120117188 34.97085952758789 C 5.91162109375 37.7109489440918 7.538570404052734 40.17150115966797 9.610591888427734 42.28414916992188 C 11.67864990234375 44.39276123046875 14.08481979370117 46.04737854003906 16.76226043701172 47.20204162597656 C 19.5286693572998 48.39508056640625 22.46846961975098 49 25.5 49 C 28.53153038024902 49 31.4713306427002 48.39508056640625 34.23773956298828 47.20204162597656 C 36.91518020629883 46.04737854003906 39.32135009765625 44.39276123046875 41.38941192626953 42.28414916992188 C 43.46142959594727 40.17150115966797 45.08837890625 37.7109489440918 46.22505187988281 34.97085952758789 C 47.4028205871582 32.13169860839844 48 29.11347007751465 48 26 C 48 22.88652992248535 47.4028205871582 19.86830139160156 46.22505187988281 17.02914047241211 C 45.08837890625 14.2890510559082 43.46142959594727 11.82849884033203 41.38941192626953 9.715850830078125 C 39.32135009765625 7.60723876953125 36.91518020629883 5.952621459960938 34.23773956298828 4.797958374023438 C 31.4713306427002 3.60491943359375 28.53153038024902 3 25.5 3 M 25.5 0 C 39.58325958251953 0 51 11.64059829711914 51 26 C 51 40.35939788818359 39.58325958251953 52 25.5 52 C 11.41674041748047 52 0 40.35939788818359 0 26 C 0 11.64059829711914 11.41674041748047 0 25.5 0 Z" stroke="none" fill="#000"/>
        </g>
      </g>
    </g>
  </g>
</svg>
