<svg xmlns="http://www.w3.org/2000/svg" width="91.924" height="124.596" viewBox="0 0 91.924 124.596">
  <g id="Grupo_163802" data-name="Grupo 163802" transform="translate(17193.832 11567.863)">
    <g id="Grupo_163798" data-name="Grupo 163798" transform="translate(-18155.475 -11667.417)">
      <g id="Grupo_114644" data-name="Grupo 114644" transform="translate(0.257)">
        <path id="Trazado_163579" data-name="Trazado 163579" d="M816.213,985.9V969.48l37.065-21.4,37.065,21.4V985.9h7.284l3.226,26.383-37.065,21.4-37.065-21.4L808.929,985.9Z" transform="translate(152.457 -809.528)" fill="#c6412a"/>
        <path id="Trazado_163581" data-name="Trazado 163581" d="M853.278,862.029l44.348,25.6v51.209l-44.348,25.6-44.348-25.6V887.633Z" transform="translate(152.457 -762.475)" fill="#c6412a"/>
        <path id="Trazado_163582" data-name="Trazado 163582" d="M862.066,880.587l37.065,21.4v42.8l-37.065,21.4L825,944.785v-42.8Z" transform="translate(143.669 -772.623)" fill="#fff"/>
        <path id="Trazado_163583" data-name="Trazado 163583" d="M1007.868,996.118V953.585l-3.226-35.06v51.209Z" transform="translate(45.442 -793.367)" fill="#c6412a"/>
        <path id="Trazado_163600" data-name="Trazado 163600" d="M897.627,987.513l3.226,26.383-37.065,21.4-37.065-21.4L808.93,987.513l45.4,26.383Z" transform="translate(152.456 -811.146)" fill="#030403" opacity="0.2" style="mix-blend-mode: multiply;isolation: isolate"/>
        <path id="Trazado_163601" data-name="Trazado 163601" d="M1007.868,996.118V953.585l-3.226-35.06v51.209Z" transform="translate(45.442 -793.367)" fill="#030403" opacity="0.1" style="mix-blend-mode: multiply;isolation: isolate"/>
      </g>
      <g id="folder_setting" data-name="folder setting" transform="translate(953.456 -284.443)">
        <g id="Grupo_163694" data-name="Grupo 163694" transform="translate(29.347 406.997)">
          <path id="Trazado_202646" data-name="Trazado 202646" d="M78.089,447.184h-.334a10.522,10.522,0,0,0-.586-1.41l.239-.239a1.765,1.765,0,0,0,0-2.491l-.959-.959V431.992a2.244,2.244,0,0,0-2.243-2.24H72.5l1.34-14.939a1.73,1.73,0,0,0-.465-1.517l-3.2-3.32a1.285,1.285,0,0,0-1-.46l-1.249-.112h0l-26.7-2.4a2.509,2.509,0,0,0-2.724,2.275L36.707,429.2H31.438a2.127,2.127,0,0,0-1.521.587,1.9,1.9,0,0,0-.551,1.378l-.019,23.17c0,1.755.855,3.831,4.811,3.958a.886.886,0,0,0,.324.065h24.7l1.456,1.456a1.808,1.808,0,0,0,2.49,0l.238-.239a10.3,10.3,0,0,0,1.409.585v.338a1.765,1.765,0,0,0,1.764,1.761h2.91A1.763,1.763,0,0,0,71.21,460.5v-.338a10.181,10.181,0,0,0,1.41-.584l.24.241a1.768,1.768,0,0,0,2.49,0l2.058-2.058a1.762,1.762,0,0,0,0-2.489l-.24-.242a10.42,10.42,0,0,0,.585-1.411h.334a1.765,1.765,0,0,0,1.764-1.761v-2.91a1.765,1.765,0,0,0-1.764-1.762Zm-3.422-15.193v8.579a1.77,1.77,0,0,0-1.811.415l-.237.238a10.182,10.182,0,0,0-1.41-.584V440.3a1.764,1.764,0,0,0-1.761-1.762h-2.91a1.765,1.765,0,0,0-1.764,1.762v.337a10.305,10.305,0,0,0-1.409.585l-.238-.239a1.764,1.764,0,0,0-2.49,0l-2.059,2.058a1.764,1.764,0,0,0,0,2.491l.238.238a10.307,10.307,0,0,0-.585,1.412h-.337a1.763,1.763,0,0,0-1.761,1.761v2.91a1.763,1.763,0,0,0,1.761,1.761h.337a10.2,10.2,0,0,0,.585,1.412l-.239.24a1.749,1.749,0,0,0-.508,1.309h-22.7V437.965a.121.121,0,0,1,.119-.119H54.866a.893.893,0,0,0,.778-.455l2.788-4.963.163-.3c.107-.2.285-.541.407-.59H74.207a.465.465,0,0,1,.46.457Zm-2.594-17.473c0,.042-.007.086-.012.136v.015l-3.69-.334.278-3.076.311.028Zm-31.8-5.078a.721.721,0,0,1,.258-.492.711.711,0,0,1,.529-.166L66.872,411.1l-.289,3.2a1.665,1.665,0,0,0,1.509,1.8l3.809.345-1.193,13.307H59a2.269,2.269,0,0,0-1.984,1.541l-2.674,4.77H37.88Zm-9.141,44.9.018-23.17a.188.188,0,0,1,.027-.115.544.544,0,0,1,.271-.068h5.1l-.456,5.079h-.6a1.9,1.9,0,0,0-1.9,1.9v18.511c-2.451-.253-2.459-1.5-2.459-2.139Zm45.958-2.5a.89.89,0,0,0-.863.669,8.6,8.6,0,0,1-.924,2.228.89.89,0,0,0,.136,1.081l.712.684-2.03,2.059-.71-.71a.891.891,0,0,0-1.086-.136,8.464,8.464,0,0,1-2.226.922.892.892,0,0,0-.669.864l.022.982-2.891.022V459.5a.89.89,0,0,0-.669-.863,8.565,8.565,0,0,1-2.227-.924.89.89,0,0,0-1.085.137l-.68.71-1.67-1.647a.946.946,0,0,0-.122-.121l-.264-.26.71-.714a.891.891,0,0,0,.134-1.084,8.462,8.462,0,0,1-.922-2.226.892.892,0,0,0-.864-.669l-.983.022-.022-2.888h1a.891.891,0,0,0,.863-.669,8.533,8.533,0,0,1,.924-2.229.892.892,0,0,0-.137-1.085l-.71-.68,2.028-2.059.71.71a.892.892,0,0,0,1.085.137,8.576,8.576,0,0,1,2.227-.925.89.89,0,0,0,.669-.863l-.019-.983,2.888-.021v1a.892.892,0,0,0,.669.864,8.451,8.451,0,0,1,2.225.923.894.894,0,0,0,1.086-.136l.682-.71.815.8c.019.021.039.039.06.058l1.182,1.166-.71.713a.891.891,0,0,0-.136,1.082,8.632,8.632,0,0,1,.924,2.228.891.891,0,0,0,.863.669l.983-.022.018,2.888Z" transform="translate(-29.347 -406.997)" fill="#9f3522" stroke="#9f3522" stroke-width="1"/>
          <path id="Trazado_202647" data-name="Trazado 202647" d="M92.807,473.013a5.794,5.794,0,1,0,5.793,5.794A5.8,5.8,0,0,0,92.807,473.013Zm0,9.805a4.011,4.011,0,1,1,4.011-4.011A4.016,4.016,0,0,1,92.807,482.818Z" transform="translate(-54.16 -435.403)" fill="#9f3522" stroke="#9f3522" stroke-width="1"/>
          <path id="Trazado_202648" data-name="Trazado 202648" d="M57.029,427.229l19.1,1.715q.04,0,.08,0a.891.891,0,0,0,.079-1.779l-19.1-1.715a.891.891,0,1,0-.159,1.776Z" transform="translate(-40.909 -414.937)" fill="#9f3522" stroke="#9f3522" stroke-width="1"/>
          <path id="Trazado_202649" data-name="Trazado 202649" d="M56.227,436.132l19.106,1.715c.027,0,.054,0,.08,0a.891.891,0,0,0,.079-1.779l-19.106-1.714a.891.891,0,1,0-.16,1.775Z" transform="translate(-40.564 -418.768)" fill="#9f3522" stroke="#9f3522" stroke-width="1"/>
        </g>
      </g>
    </g>
  </g>
</svg>
