<svg xmlns="http://www.w3.org/2000/svg" width="99.989" height="100" viewBox="0 0 99.989 100">
  <g id="Grupo_163860" data-name="Grupo 163860" transform="translate(7934.299 10702.976)">
    <g id="Grupo_163309" data-name="Grupo 163309" transform="translate(-3371 -165)">
      <g id="Grupo_108979" data-name="Grupo 108979" transform="translate(-4561.997 -10536.673)">
        <g id="Grupo_108952" data-name="Grupo 108952" transform="translate(0.311 45.464)">
          <path id="Trazado_160431" data-name="Trazado 160431" d="M591.417,434H520.451A6.452,6.452,0,0,0,514,440.453v35.489a9.677,9.677,0,0,0,9.677,9.679h64.514a9.678,9.678,0,0,0,9.677-9.679V440.453A6.452,6.452,0,0,0,591.417,434Z" transform="translate(-514 -434)" fill="#6677d6"/>
        </g>
        <g id="Grupo_108953" data-name="Grupo 108953" transform="translate(0 45.559)">
          <path id="Rectángulo_40570" data-name="Rectángulo 40570" d="M4,0H79.959a4,4,0,0,1,4,4v9.019a0,0,0,0,1,0,0H0a0,0,0,0,1,0,0V4A4,4,0,0,1,4,0Z" transform="translate(0 0)" fill="#6677d6"/>
        </g>
        <g id="Grupo_108954" data-name="Grupo 108954" transform="translate(0.311 82.566)">
          <path id="Trazado_160432" data-name="Trazado 160432" d="M588.191,466.679H523.677A9.677,9.677,0,0,1,514,457v4.839a9.677,9.677,0,0,0,9.677,9.679h64.514a9.677,9.677,0,0,0,9.677-9.679V457A9.678,9.678,0,0,1,588.191,466.679Z" transform="translate(-514 -457)" fill="#6677d6"/>
        </g>
        <g id="Grupo_108955" data-name="Grupo 108955" transform="translate(52.062 65.081)">
          <circle id="Elipse_5278" data-name="Elipse 5278" cx="12.694" cy="12.694" r="12.694" transform="translate(0 0)" fill="#dce736"/>
        </g>
        <g id="Grupo_108956" data-name="Grupo 108956" transform="translate(51.917 75.307)">
          <path id="Trazado_160433" data-name="Trazado 160433" d="M558.905,462.985A12.9,12.9,0,0,1,546.234,452.5a12.905,12.905,0,1,0,25.342,0A12.9,12.9,0,0,1,558.905,462.985Z" transform="translate(-546 -452.5)" fill="#dce736"/>
        </g>
        <g id="Grupo_108957" data-name="Grupo 108957" transform="translate(39.05 68.339)">
          <ellipse id="Elipse_5279" data-name="Elipse 5279" cx="3.255" cy="2.929" rx="3.255" ry="2.929" transform="translate(0 0)" fill="#dce736"/>
        </g>
        <g id="Grupo_108958" data-name="Grupo 108958" transform="translate(22.888 32.568)">
          <path id="Trazado_160434" data-name="Trazado 160434" d="M528,445.358V432.453A6.453,6.453,0,0,1,534.453,426h25.81a6.453,6.453,0,0,1,6.453,6.453v12.905h-6.453V432.453h-25.81v12.905Z" transform="translate(-528 -426)" fill="#4e2e8e"/>
        </g>
        <g id="Grupo_108959" data-name="Grupo 108959" transform="translate(22.779 46.861)">
          <rect id="Rectángulo_40571" data-name="Rectángulo 40571" width="6.51" height="5.208" transform="translate(0 0)" fill="#dce736"/>
        </g>
        <g id="Grupo_108960" data-name="Grupo 108960" transform="translate(55.321 46.861)">
          <rect id="Rectángulo_40572" data-name="Rectángulo 40572" width="6.51" height="5.208" transform="translate(0 0)" fill="#dce736"/>
        </g>
        <g id="Grupo_108961" data-name="Grupo 108961" transform="translate(6.51 29.287)">
          <rect id="Rectángulo_40573" data-name="Rectángulo 40573" width="6.51" height="16.274" transform="translate(0 0)" fill="#ffef0f"/>
        </g>
        <g id="Grupo_108962" data-name="Grupo 108962" transform="translate(6.51 40.353)">
          <rect id="Rectángulo_40574" data-name="Rectángulo 40574" width="6.51" height="5.208" transform="translate(0 0)" fill="#dce736"/>
        </g>
        <g id="Grupo_108963" data-name="Grupo 108963" transform="translate(74.195 13.019)">
          <circle id="Elipse_5280" data-name="Elipse 5280" cx="3.255" cy="3.255" r="3.255" transform="translate(0 0)" fill="#dce736"/>
        </g>
        <g id="Grupo_108964" data-name="Grupo 108964" transform="translate(6.51 0)">
          <rect id="Rectángulo_40575" data-name="Rectángulo 40575" width="6.51" height="6.51" transform="translate(0)" fill="#c6412a"/>
        </g>
        <g id="Grupo_108965" data-name="Grupo 108965" transform="translate(60.188 64.87)">
          <path id="Trazado_160435" data-name="Trazado 160435" d="M551.127,446.856l16.667,16.667a12.778,12.778,0,0,0,.828-3.734l-13.76-13.76A12.785,12.785,0,0,0,551.127,446.856Z" transform="translate(-551.127 -446.028)" fill="#dce736"/>
        </g>
        <g id="Grupo_108966" data-name="Grupo 108966" transform="translate(75.127 77.719)">
          <path id="Trazado_160436" data-name="Trazado 160436" d="M560.388,456.91l1.728,1.728a12.78,12.78,0,0,0,.828-3.734l-.908-.908A12.881,12.881,0,0,1,560.388,456.91Z" transform="translate(-560.388 -453.995)" fill="#dce736"/>
        </g>
        <g id="Grupo_108967" data-name="Grupo 108967" transform="translate(54.637 67.542)">
          <path id="Trazado_160437" data-name="Trazado 160437" d="M549.967,447.686a12.933,12.933,0,0,0-2.281,2.281l18.09,18.09a12.936,12.936,0,0,0,2.281-2.281Z" transform="translate(-547.686 -447.686)" fill="#dce736"/>
        </g>
        <g id="Grupo_108968" data-name="Grupo 108968" transform="translate(69.657 83.192)">
          <path id="Trazado_160438" data-name="Trazado 160438" d="M559.909,457.388A12.82,12.82,0,0,1,557,459.04l3.07,3.068a12.937,12.937,0,0,0,2.281-2.281Z" transform="translate(-556.997 -457.388)" fill="#dce736"/>
        </g>
        <g id="Grupo_108969" data-name="Grupo 108969" transform="translate(51.965 73.092)">
          <path id="Trazado_160439" data-name="Trazado 160439" d="M546.028,454.861l13.76,13.76a12.782,12.782,0,0,0,3.734-.827l-16.667-16.667A12.783,12.783,0,0,0,546.028,454.861Z" transform="translate(-546.028 -451.127)" fill="#dce736"/>
        </g>
        <g id="Grupo_108970" data-name="Grupo 108970" transform="translate(51.968 75.391)">
          <path id="Trazado_160440" data-name="Trazado 160440" d="M546.028,453.989l.92.919a12.768,12.768,0,0,1-.711-2.358A12.839,12.839,0,0,0,546.028,453.989Z" transform="translate(-546.028 -452.55)" fill="#dce736"/>
        </g>
        <g id="Grupo_108971" data-name="Grupo 108971" transform="translate(59.976 84.838)">
          <path id="Trazado_160441" data-name="Trazado 160441" d="M556.743,464.157a12.783,12.783,0,0,0,3.734-.827l-4-4c-.213.011-.423.029-.639.029a12.819,12.819,0,0,1-4.849-.955Z" transform="translate(-550.994 -458.408)" fill="#dce736"/>
        </g>
        <g id="Grupo_108972" data-name="Grupo 108972" transform="translate(52.062 65.081)">
          <path id="Trazado_202491" data-name="Trazado 202491" d="M12.694,0A12.694,12.694,0,1,1,0,12.694,12.694,12.694,0,0,1,12.694,0Z" transform="translate(0 0)" fill="#ffef0f"/>
        </g>
        <g id="Grupo_108973" data-name="Grupo 108973" transform="translate(51.917 75.307)">
          <path id="Trazado_160442" data-name="Trazado 160442" d="M558.905,462.985A12.9,12.9,0,0,1,546.234,452.5a12.905,12.905,0,1,0,25.342,0A12.9,12.9,0,0,1,558.905,462.985Z" transform="translate(-546 -452.5)" fill="#dce736"/>
        </g>
        <g id="Grupo_108974" data-name="Grupo 108974" transform="translate(6.51 65.081)">
          <ellipse id="Elipse_5282" data-name="Elipse 5282" cx="13.019" cy="12.694" rx="13.019" ry="12.694" transform="translate(0 0)" fill="#ffef0f"/>
        </g>
        <g id="Grupo_108975" data-name="Grupo 108975" transform="translate(6.764 75.307)">
          <path id="Trazado_160443" data-name="Trazado 160443" d="M530.905,462.985A12.9,12.9,0,0,1,518.234,452.5a12.905,12.905,0,1,0,25.342,0A12.9,12.9,0,0,1,530.905,462.985Z" transform="translate(-518 -452.5)" fill="#ffef0f"/>
        </g>
        <g id="Grupo_108976" data-name="Grupo 108976" transform="translate(40.352 32.542)">
          <rect id="Rectángulo_40576" data-name="Rectángulo 40576" width="3.255" height="6.51" transform="translate(0 0)" fill="#3d46c2"/>
        </g>
        <g id="Grupo_108977" data-name="Grupo 108977" transform="translate(46.861 32.542)">
          <rect id="Rectángulo_40577" data-name="Rectángulo 40577" width="3.255" height="6.51" transform="translate(0 0)" fill="#dce736"/>
        </g>
        <g id="Grupo_108978" data-name="Grupo 108978" transform="translate(34.495 32.542)">
          <rect id="Rectángulo_40578" data-name="Rectángulo 40578" width="2.604" height="6.51" transform="translate(0 0)" fill="#dce736"/>
        </g>
      </g>
      <g id="Grupo_109007" data-name="Grupo 109007" transform="translate(-4563.299 -10537.976)">
        <g id="Grupo_108980" data-name="Grupo 108980" transform="translate(30.644 45.161)">
          <path id="Trazado_160444" data-name="Trazado 160444" d="M556.2,436.226H533.613a1.613,1.613,0,0,1,0-3.226H556.2a1.613,1.613,0,0,1,0,3.226Z" transform="translate(-532 -433)"/>
        </g>
        <g id="Grupo_108981" data-name="Grupo 108981" transform="translate(0 45.153)">
          <path id="Trazado_160445" data-name="Trazado 160445" d="M588.8,487.847H524.29A11.305,11.305,0,0,1,513,476.555V441.066A8.074,8.074,0,0,1,521.064,433h16.129a1.613,1.613,0,0,1,0,3.226H521.064a4.845,4.845,0,0,0-4.839,4.839v35.489a8.074,8.074,0,0,0,8.064,8.066H588.8a8.074,8.074,0,0,0,8.064-8.066V441.066a4.845,4.845,0,0,0-4.839-4.839H575.9a1.613,1.613,0,0,1,0-3.226h16.129a8.074,8.074,0,0,1,8.064,8.066v35.489A11.305,11.305,0,0,1,588.8,487.847Z" transform="translate(-513 -433)"/>
        </g>
        <g id="Grupo_108982" data-name="Grupo 108982" transform="translate(6.453 64.511)">
          <path id="Trazado_160446" data-name="Trazado 160446" d="M531.518,474.037a14.518,14.518,0,1,1,14.518-14.518A14.534,14.534,0,0,1,531.518,474.037Zm0-25.81a11.292,11.292,0,1,0,11.292,11.292A11.307,11.307,0,0,0,531.518,448.226Z" transform="translate(-517 -445)" fill="#4e2e8e"/>
        </g>
        <g id="Grupo_108983" data-name="Grupo 108983" transform="translate(16.531 66.127)">
          <path id="Trazado_160447" data-name="Trazado 160447" d="M538.978,463.341a1.608,1.608,0,0,1-1.14-.473l-14.115-14.115A1.613,1.613,0,0,1,526,446.473l14.115,14.115a1.613,1.613,0,0,1-1.14,2.754Z" transform="translate(-523.25 -446)" fill="#4e2e8e"/>
        </g>
        <g id="Grupo_108984" data-name="Grupo 108984" transform="translate(11.292 69.35)">
          <path id="Trazado_160448" data-name="Trazado 160448" d="M537.745,467.358a1.608,1.608,0,0,1-1.14-.473l-16.131-16.131a1.613,1.613,0,0,1,2.281-2.281L538.885,464.6a1.613,1.613,0,0,1-1.14,2.754Z" transform="translate(-520 -448)" fill="#4e2e8e"/>
        </g>
        <g id="Grupo_108985" data-name="Grupo 108985" transform="translate(8.065 74.593)">
          <path id="Trazado_160449" data-name="Trazado 160449" d="M533.728,468.591a1.608,1.608,0,0,1-1.14-.473L518.473,454a1.613,1.613,0,0,1,2.281-2.281l14.115,14.115a1.613,1.613,0,0,1-1.14,2.754Z" transform="translate(-518 -451.25)" fill="#4e2e8e"/>
        </g>
        <g id="Grupo_108986" data-name="Grupo 108986" transform="translate(51.61 64.511)">
          <path id="Trazado_160450" data-name="Trazado 160450" d="M559.518,474.037a14.518,14.518,0,1,1,14.518-14.518A14.534,14.534,0,0,1,559.518,474.037Zm0-25.81a11.292,11.292,0,1,0,11.292,11.292A11.306,11.306,0,0,0,559.518,448.226Z" transform="translate(-545 -445)" fill="#4e2e8e"/>
        </g>
        <g id="Grupo_108987" data-name="Grupo 108987" transform="translate(61.691 66.127)">
          <path id="Trazado_160451" data-name="Trazado 160451" d="M566.978,463.341a1.608,1.608,0,0,1-1.14-.473l-14.115-14.115A1.613,1.613,0,0,1,554,446.473l14.115,14.115a1.613,1.613,0,0,1-1.14,2.754Z" transform="translate(-551.25 -446)" fill="#4e2e8e"/>
        </g>
        <g id="Grupo_108988" data-name="Grupo 108988" transform="translate(56.449 69.35)">
          <path id="Trazado_160452" data-name="Trazado 160452" d="M565.745,467.358a1.608,1.608,0,0,1-1.14-.473l-16.131-16.131a1.613,1.613,0,0,1,2.281-2.281L566.885,464.6a1.613,1.613,0,0,1-1.14,2.754Z" transform="translate(-548 -448)" fill="#4e2e8e"/>
        </g>
        <g id="Grupo_108989" data-name="Grupo 108989" transform="translate(53.224 74.593)">
          <path id="Trazado_160453" data-name="Trazado 160453" d="M561.728,468.591a1.608,1.608,0,0,1-1.141-.473L546.473,454a1.613,1.613,0,0,1,2.281-2.281l14.115,14.115a1.613,1.613,0,0,1-1.14,2.754Z" transform="translate(-546 -451.25)" fill="#4e2e8e"/>
        </g>
        <g id="Grupo_108990" data-name="Grupo 108990" transform="translate(38.709 67.741)">
          <path id="Trazado_160454" data-name="Trazado 160454" d="M541.839,456.679a4.839,4.839,0,1,1,4.839-4.839A4.845,4.845,0,0,1,541.839,456.679Zm0-6.453a1.613,1.613,0,1,0,1.613,1.613A1.614,1.614,0,0,0,541.839,450.226Z" transform="translate(-537 -447)"/>
        </g>
        <g id="Grupo_108991" data-name="Grupo 108991" transform="translate(41.655 80.704)">
          <circle id="Elipse_5283" data-name="Elipse 5283" cx="1.627" cy="1.627" r="1.627" transform="translate(0 0)"/>
        </g>
        <g id="Grupo_108992" data-name="Grupo 108992" transform="translate(41.655 87.214)">
          <circle id="Elipse_5284" data-name="Elipse 5284" cx="1.627" cy="1.627" r="1.627" transform="translate(0 0)"/>
        </g>
        <g id="Grupo_108993" data-name="Grupo 108993" transform="translate(48.38 58.064)">
          <path id="Trazado_160455" data-name="Trazado 160455" d="M580.1,444.226H544.613a1.613,1.613,0,1,1,0-3.226H580.1a1.613,1.613,0,0,1,0,3.226Z" transform="translate(-543 -441)"/>
        </g>
        <g id="Grupo_108994" data-name="Grupo 108994" transform="translate(0 58.064)">
          <path id="Trazado_160456" data-name="Trazado 160456" d="M550.1,444.226H514.613a1.613,1.613,0,1,1,0-3.226H550.1a1.613,1.613,0,0,1,0,3.226Z" transform="translate(-513 -441)"/>
        </g>
        <g id="Grupo_108995" data-name="Grupo 108995" transform="translate(19.354 51.613)">
          <path id="Trazado_160457" data-name="Trazado 160457" d="M539.518,440.226H526.613a1.613,1.613,0,1,1,0-3.226h12.905a1.613,1.613,0,1,1,0,3.226Z" transform="translate(-525 -437)"/>
        </g>
        <g id="Grupo_108996" data-name="Grupo 108996" transform="translate(51.611 51.613)">
          <path id="Trazado_160458" data-name="Trazado 160458" d="M559.518,440.226H546.613a1.613,1.613,0,0,1,0-3.226h12.905a1.613,1.613,0,0,1,0,3.226Z" transform="translate(-545 -437)"/>
        </g>
        <g id="Grupo_108997" data-name="Grupo 108997" transform="translate(22.578 32.257)">
          <path id="Trazado_160459" data-name="Trazado 160459" d="M567.328,447.584a1.612,1.612,0,0,1-1.613-1.613V433.066a4.845,4.845,0,0,0-4.839-4.839h-25.81a4.845,4.845,0,0,0-4.839,4.839v12.905a1.613,1.613,0,1,1-3.226,0V433.066A8.075,8.075,0,0,1,535.066,425h25.81a8.075,8.075,0,0,1,8.066,8.066v12.905A1.612,1.612,0,0,1,567.328,447.584Z" transform="translate(-527 -425)" fill="#12263f"/>
        </g>
        <g id="Grupo_108998" data-name="Grupo 108998" transform="translate(29.031 38.709)">
          <path id="Trazado_160460" data-name="Trazado 160460" d="M558.423,445.131a1.612,1.612,0,0,1-1.613-1.613V432.226H534.226v11.292a1.613,1.613,0,1,1-3.226,0V430.613A1.612,1.612,0,0,1,532.613,429h25.81a1.612,1.612,0,0,1,1.613,1.613v12.905A1.612,1.612,0,0,1,558.423,445.131Z" transform="translate(-531 -429)"/>
        </g>
        <g id="Grupo_108999" data-name="Grupo 108999" transform="translate(6.453)">
          <path id="Trazado_160461" data-name="Trazado 160461" d="M525.066,414.679h-6.453A1.612,1.612,0,0,1,517,413.066v-6.453A1.612,1.612,0,0,1,518.613,405h6.453a1.612,1.612,0,0,1,1.613,1.613v6.453A1.612,1.612,0,0,1,525.066,414.679Zm-4.839-3.226h3.226v-3.226h-3.226Z" transform="translate(-517 -405)"/>
        </g>
        <g id="Grupo_109000" data-name="Grupo 109000" transform="translate(9.679 6.453)">
          <path id="Trazado_160462" data-name="Trazado 160462" d="M520.613,434.81A1.612,1.612,0,0,1,519,433.2V410.613a1.613,1.613,0,0,1,3.226,0V433.2A1.612,1.612,0,0,1,520.613,434.81Z" transform="translate(-519 -409)"/>
        </g>
        <g id="Grupo_109001" data-name="Grupo 109001" transform="translate(6.453 29.031)">
          <path id="Trazado_160463" data-name="Trazado 160463" d="M525.066,442.358a1.612,1.612,0,0,1-1.613-1.613V426.226h-3.226v14.518a1.613,1.613,0,0,1-3.226,0V424.613A1.612,1.612,0,0,1,518.613,423h6.453a1.612,1.612,0,0,1,1.613,1.613v16.131A1.612,1.612,0,0,1,525.066,442.358Z" transform="translate(-517 -423)"/>
        </g>
        <g id="Grupo_109002" data-name="Grupo 109002" transform="translate(74.192 12.905)">
          <path id="Trazado_160464" data-name="Trazado 160464" d="M563.839,422.679a4.839,4.839,0,1,1,4.839-4.839A4.845,4.845,0,0,1,563.839,422.679Zm0-6.453a1.613,1.613,0,1,0,1.613,1.613A1.614,1.614,0,0,0,563.839,416.226Z" transform="translate(-559 -413)"/>
        </g>
        <g id="Grupo_109003" data-name="Grupo 109003" transform="translate(64.522 7.005)">
          <path id="Trazado_160465" data-name="Trazado 160465" d="M558.39,430.82a1.6,1.6,0,0,1-1.141-.473,14.535,14.535,0,0,1,0-20.532,1.613,1.613,0,1,1,2.281,2.281,11.307,11.307,0,0,0,0,15.97,1.613,1.613,0,0,1-1.14,2.754Z" transform="translate(-553.004 -409.343)"/>
        </g>
        <g id="Grupo_109004" data-name="Grupo 109004" transform="translate(86.542 7.005)">
          <path id="Trazado_160466" data-name="Trazado 160466" d="M568.27,430.82a1.613,1.613,0,0,1-1.14-2.754,11.307,11.307,0,0,0,0-15.97,1.613,1.613,0,1,1,2.281-2.281,14.535,14.535,0,0,1,0,20.532A1.6,1.6,0,0,1,568.27,430.82Z" transform="translate(-566.658 -409.343)"/>
        </g>
        <g id="Grupo_109005" data-name="Grupo 109005" transform="translate(58.074 2.443)">
          <path id="Trazado_160467" data-name="Trazado 160467" d="M556.28,437.116a1.6,1.6,0,0,1-1.141-.473,20.992,20.992,0,0,1,0-29.656,1.613,1.613,0,0,1,2.281,2.281,17.764,17.764,0,0,0,0,25.094,1.613,1.613,0,0,1-1.14,2.754Z" transform="translate(-549.006 -406.515)"/>
        </g>
        <g id="Grupo_109006" data-name="Grupo 109006" transform="translate(91.104 2.443)">
          <path id="Trazado_160468" data-name="Trazado 160468" d="M571.1,437.116a1.613,1.613,0,0,1-1.141-2.754,17.764,17.764,0,0,0,0-25.094,1.613,1.613,0,0,1,2.281-2.281,20.992,20.992,0,0,1,0,29.656A1.6,1.6,0,0,1,571.1,437.116Z" transform="translate(-569.486 -406.515)"/>
        </g>
      </g>
    </g>
  </g>
</svg>
