<svg xmlns="http://www.w3.org/2000/svg" width="91.924" height="124.596" viewBox="0 0 91.924 124.596">
  <g id="Grupo_163803" data-name="Grupo 163803" transform="translate(16799.002 11543.421)">
    <g id="Grupo_163799" data-name="Grupo 163799" transform="translate(-18092.041 -11890.938)">
      <g id="Grupo_114642" data-name="Grupo 114642" transform="translate(-184.334 -75.027)">
        <path id="Trazado_163577" data-name="Trazado 163577" d="M1413.036,996.118V953.585l3.226-35.06v51.209Z" transform="translate(64.336 -470.377)" fill="#3f2572"/>
        <g id="Grupo_114641" data-name="Grupo 114641" transform="translate(11679.333 12451)">
          <path id="Trazado_163573" data-name="Trazado 163573" d="M1497.676,985.9V969.48l-37.064-21.4-37.065,21.4V985.9h-7.284l-3.226,26.383,37.064,21.4,37.065-21.4L1504.96,985.9Z" transform="translate(-11614.997 -12937.537)" fill="#4e2e8e"/>
          <path id="Trazado_163574" data-name="Trazado 163574" d="M1497.675,985.9V969.48l-37.064-21.4-37.065,21.4V985.9h-7.284l-3.226,26.383,37.065,21.4,37.065-21.4,17.794-26.383Z" transform="translate(-11614.997 -12937.537)" fill="#030403" opacity="0.2" style="mix-blend-mode: multiply;isolation: isolate"/>
          <path id="Trazado_163575" data-name="Trazado 163575" d="M1464.5,862.029l-44.348,25.6v51.209l44.348,25.6,44.349-25.6V887.633Z" transform="translate(-11618.891 -12890.483)" fill="#4e2e8e"/>
          <path id="Trazado_163576" data-name="Trazado 163576" d="M1473.292,880.587l-37.065,21.4v42.8l37.065,21.4,37.065-21.4v-42.8Z" transform="translate(-11627.678 -12900.632)" fill="#fff"/>
        </g>
      </g>
      <g id="Grupo_163697" data-name="Grupo 163697" transform="translate(1313.011 24.583)">
        <path id="Trazado_202655" data-name="Trazado 202655" d="M110.014,366.509V357.68a.883.883,0,0,0-.883-.883H105.6v1.766h2.649v7.947Z" transform="translate(-63.226 -5.268)" fill="#4e2e8e" stroke="#4e2e8e" stroke-width="1"/>
        <path id="Trazado_202656" data-name="Trazado 202656" d="M15.4,414v22.073a.883.883,0,0,0,.883.883H51.6a.883.883,0,0,0,.883-.883v-6.181H50.714v5.3H17.163V414Z" transform="translate(-9.224 -39.513)" fill="#4e2e8e" stroke="#4e2e8e" stroke-width="1"/>
        <path id="Trazado_202657" data-name="Trazado 202657" d="M44.016,348.085c-.028-.012-.054-.019-.082-.029a.885.885,0,0,0-.229-.046.356.356,0,0,0-.055-.013H16.28a.883.883,0,0,0-.883.883v1.766h1.766v-.883H42.768v7.063a.883.883,0,0,0,.883.883h7.063v4.415H52.48v-5.3c0-.018-.009-.035-.01-.055a.867.867,0,0,0-.046-.228c-.01-.029-.017-.055-.029-.083a.883.883,0,0,0-.177-.258l-7.946-7.947A.888.888,0,0,0,44.016,348.085Zm5.449,7.858H44.534v-4.932Z" transform="translate(-9.224)" fill="#4e2e8e" stroke="#4e2e8e" stroke-width="1"/>
        <path id="Trazado_202658" data-name="Trazado 202658" d="M50.6,439.082v7.063a.883.883,0,0,0,.883.883H62.959v-1.766h-10.6v-5.3h4.415V438.2h-5.3A.883.883,0,0,0,50.6,439.082Z" transform="translate(-30.298 -54.002)" fill="#4e2e8e" stroke="#4e2e8e" stroke-width="1"/>
        <path id="Trazado_202659" data-name="Trazado 202659" d="M59.4,447h5.3v1.766H59.4Z" transform="translate(-35.566 -59.27)" fill="#4e2e8e" stroke="#4e2e8e" stroke-width="1"/>
        <path id="Trazado_202660" data-name="Trazado 202660" d="M62.6,385.4a6.188,6.188,0,0,0-6.181,6.18v.088l-4.5,4.754L49.1,393.6a.883.883,0,0,0-1.249,0L39.9,401.548a.884.884,0,0,0,0,1.248l12.361,12.361a.884.884,0,0,0,1.249,0l2.649-2.649,4.673-4.671V421.6H26.4v1.766H61.715a.883.883,0,0,0,.883-.883v-21.19H60.832v4.049l-3.078-3.078,4.755-4.5H62.6a6.18,6.18,0,0,0,0-12.361Zm-9.712,27.888L41.773,402.174l1.4-1.4,11.112,11.112Zm6.7-6.7-4.049,4.049L44.422,399.525l4.049-4.049L50.7,397.7l-1.987,2.1a.883.883,0,0,0,.017,1.236l4.415,4.415a.883.883,0,0,0,1.231.017l2.1-1.987Zm3.014-10.6h-.441a.884.884,0,0,0-.608.242l-7.764,7.351-3.2-3.2,7.355-7.764a.881.881,0,0,0,.238-.608v-.441a4.415,4.415,0,1,1,4.415,4.415Z" transform="translate(-15.81 -22.391)" fill="#4e2e8e" stroke="#4e2e8e" stroke-width="1"/>
        <path id="Trazado_202661" data-name="Trazado 202661" d="M41.8,411.8h8.829v1.766H41.8Z" transform="translate(-25.03 -38.196)" fill="#4e2e8e" stroke="#4e2e8e" stroke-width="1"/>
        <path id="Trazado_202662" data-name="Trazado 202662" d="M28.6,420.6H39.193v1.766H28.6Z" transform="translate(-17.127 -43.465)" fill="#4e2e8e" stroke="#4e2e8e" stroke-width="1"/>
        <path id="Trazado_202663" data-name="Trazado 202663" d="M48.4,403h10.6v1.766H48.4Z" transform="translate(-28.981 -32.928)" fill="#4e2e8e" stroke="#4e2e8e" stroke-width="1"/>
        <path id="Trazado_202664" data-name="Trazado 202664" d="M28.6,429.4h5.3v1.766H28.6Z" transform="translate(-17.127 -48.734)" fill="#4e2e8e" stroke="#4e2e8e" stroke-width="1"/>
        <path id="Trazado_202665" data-name="Trazado 202665" d="M28.6,438.2h7.063v1.766H28.6Z" transform="translate(-17.127 -54.002)" fill="#4e2e8e" stroke="#4e2e8e" stroke-width="1"/>
        <path id="Trazado_202666" data-name="Trazado 202666" d="M28.6,447h7.063v1.766H28.6Z" transform="translate(-17.127 -59.27)" fill="#4e2e8e" stroke="#4e2e8e" stroke-width="1"/>
        <path id="Trazado_202667" data-name="Trazado 202667" d="M28.6,455.8h7.063v1.766H28.6Z" transform="translate(-17.127 -64.539)" fill="#4e2e8e" stroke="#4e2e8e" stroke-width="1"/>
        <path id="Trazado_202668" data-name="Trazado 202668" d="M28.6,411.8H32.13v1.766H28.6Z" transform="translate(-17.127 -38.196)" fill="#4e2e8e" stroke="#4e2e8e" stroke-width="1"/>
        <path id="Trazado_202669" data-name="Trazado 202669" d="M46.2,429.4H49.73v1.766H46.2Z" transform="translate(-27.664 -48.734)" fill="#4e2e8e" stroke="#4e2e8e" stroke-width="1"/>
        <path id="Trazado_202670" data-name="Trazado 202670" d="M55,392h8.829v1.766H55Z" transform="translate(-32.932 -26.342)" fill="#4e2e8e" stroke="#4e2e8e" stroke-width="1"/>
        <path id="Trazado_202671" data-name="Trazado 202671" d="M10.588,377.985a10.6,10.6,0,0,0,10.576-10.224,2.337,2.337,0,0,0,1.712.535,2.395,2.395,0,0,0,3.677,0,2.4,2.4,0,0,0,2.6-2.6,2.395,2.395,0,0,0,0-3.677,2.4,2.4,0,0,0-2.6-2.6,2.395,2.395,0,0,0-3.677,0,2.395,2.395,0,0,0-2.6,2.6,2.281,2.281,0,0,0-.353.364,10.6,10.6,0,1,0-9.336,15.6Zm11.006-14.71a.882.882,0,0,0,.5-1.21.618.618,0,0,1,.826-.826.882.882,0,0,0,1.21-.5.618.618,0,0,1,1.166,0,.882.882,0,0,0,1.21.5.618.618,0,0,1,.825.826.882.882,0,0,0,.5,1.21.618.618,0,0,1,0,1.166.882.882,0,0,0-.5,1.21.594.594,0,0,1-.122.706.6.6,0,0,1-.706.122.883.883,0,0,0-1.21.5.618.618,0,0,1-1.165,0,.881.881,0,0,0-.495-.52.9.9,0,0,0-.338-.067.864.864,0,0,0-.378.088.618.618,0,0,1-.825-.826.883.883,0,0,0-.5-1.21.618.618,0,0,1,0-1.165Zm-11.006-4.715a8.829,8.829,0,1,1-8.829,8.829A8.829,8.829,0,0,1,10.588,358.561Z" transform="translate(0 -5.266)" fill="#4e2e8e" stroke="#4e2e8e" stroke-width="1"/>
        <path id="Trazado_202672" data-name="Trazado 202672" d="M12.091,380.72a.883.883,0,0,0,1.249,0l8.829-8.829-1.249-1.249-8.205,8.205-2.024-2.025-1.249,1.249Z" transform="translate(-5.659 -13.557)" fill="#4e2e8e" stroke="#4e2e8e" stroke-width="1"/>
      </g>
    </g>
  </g>
</svg>
