<svg xmlns="http://www.w3.org/2000/svg" width="88.697" height="124.596" viewBox="0 0 88.697 124.596">
  <g id="Grupo_163805" data-name="Grupo 163805" transform="translate(16355.329 11465.535)">
    <g id="Grupo_163804" data-name="Grupo 163804">
      <g id="Grupo_163800" data-name="Grupo 163800" transform="translate(-17265.436 -11850.938)">
        <g id="Grupo_114643" data-name="Grupo 114643" transform="translate(0.333)">
          <path id="Trazado_163569" data-name="Trazado 163569" d="M1195.956,1032.494v-16.416l-37.065-21.4-37.064,21.4v16.416h-7.284l7.284,26.383,37.064,21.4,37.065-21.4,7.284-26.383Z" transform="translate(-204.771 -570.276)" fill="#ffef0f"/>
          <path id="Trazado_163571" data-name="Trazado 163571" d="M1158.891,908.627l-44.348,25.6v51.209l44.348,25.6,44.348-25.6V934.231Z" transform="translate(-204.771 -523.224)" fill="#ffef0f"/>
          <path id="Trazado_163572" data-name="Trazado 163572" d="M1167.679,927.185l-37.065,21.4v42.8l37.065,21.4,37.064-21.4v-42.8Z" transform="translate(-213.559 -533.37)" fill="#fff"/>
          <path id="Trazado_163731" data-name="Trazado 163731" d="M1114.542,1032.494l7.284,26.383,37.064,21.4,37.065-21.4,7.284-26.383-44.348,26.383Z" transform="translate(-204.771 -570.276)" fill="#030403" opacity="0.2" style="mix-blend-mode: multiply;isolation: isolate"/>
          <g id="Grupo_163696" data-name="Grupo 163696" transform="translate(925.564 61.01)">
            <g id="Grupo_163690" data-name="Grupo 163690" transform="translate(19.912 382.412)">
              <g id="Grupo_163689" data-name="Grupo 163689" transform="translate(0 0)">
                <path id="Trazado_202644" data-name="Trazado 202644" d="M61.282,423.6H49.069a1.671,1.671,0,0,0-1.669,1.669v3.746a1.671,1.671,0,0,0,1.669,1.669H61.283a1.671,1.671,0,0,0,1.669-1.669v-3.746A1.672,1.672,0,0,0,61.282,423.6Zm-.477,4.938H49.546v-2.792H60.805Z" transform="translate(-47.4 -423.595)" fill="#ffef0f" stroke="#ffef0f" stroke-width="1"/>
              </g>
            </g>
            <g id="Grupo_163692" data-name="Grupo 163692" transform="translate(0 352.579)">
              <g id="Grupo_163691" data-name="Grupo 163691">
                <path id="Trazado_202645" data-name="Trazado 202645" d="M54.832,373.135l.017-.009L46.8,357.216a3.782,3.782,0,0,0-3.39-2.085h-1.53v-1.479a1.073,1.073,0,0,0-1.073-1.073H14.567a1.073,1.073,0,0,0-1.073,1.073v1.479H11.964a3.782,3.782,0,0,0-3.391,2.085L.526,373.126l.017.009A3.737,3.737,0,0,0,0,375.079v16.809a3.763,3.763,0,0,0,3.759,3.759H51.617a3.763,3.763,0,0,0,3.759-3.759V375.079A3.733,3.733,0,0,0,54.832,373.135Zm-12.95-15.619h1.529a1.408,1.408,0,0,1,1.262.776l6.59,13.029H46.783v-4.009a1.073,1.073,0,0,0-1.073-1.073H44.382v-5.757a1.073,1.073,0,0,0-1.073-1.073H41.883Zm2.755,10.869v2.936H38.974a2.48,2.48,0,0,0-2.257,1.458l-1.546,3.43a.091.091,0,0,1-.083.053h-14.8a.091.091,0,0,1-.083-.053l-1.546-3.429a2.479,2.479,0,0,0-2.257-1.459H10.739v-2.936Zm-29-13.66h24.1v4.684h-24.1Zm26.6,6.83v4.684H13.14v-4.684ZM10.7,358.292a1.408,1.408,0,0,1,1.262-.776h1.529v1.893H12.067a1.073,1.073,0,0,0-1.073,1.073v5.757H9.666a1.073,1.073,0,0,0-1.073,1.073v4.009H4.112Zm40.916,34.969H3.759a1.375,1.375,0,0,1-1.374-1.374V375.079a1.375,1.375,0,0,1,1.374-1.374H16.4a.091.091,0,0,1,.083.054l1.546,3.429a2.479,2.479,0,0,0,2.257,1.458h14.8a2.48,2.48,0,0,0,2.257-1.458l1.546-3.43h0a.091.091,0,0,1,.083-.053H51.617a1.375,1.375,0,0,1,1.374,1.374v16.809h0A1.375,1.375,0,0,1,51.617,393.262Z" transform="translate(0 -352.579)" fill="#ffef0f" stroke="#ffef0f" stroke-width="1"/>
              </g>
            </g>
          </g>
        </g>
      </g>
    </g>
  </g>
</svg>
