<svg xmlns="http://www.w3.org/2000/svg" width="150" height="150" viewBox="0 0 150 150">
  <g id="Grupo_163906" data-name="Grupo 163906" transform="translate(-9064.666 14974.432)">
    <g id="Grupo_163838" data-name="Grupo 163838" transform="translate(8691.666 -18373.432)">
      <path id="Trazado_170461" data-name="Trazado 170461" d="M75,0A75,75,0,1,1,0,75,75,75,0,0,1,75,0Z" transform="translate(373 3399)" fill="#fff"/>
      <g id="Capa_1" data-name="Capa 1" transform="translate(362.021 3440.75)">
        <g id="Grupo_116313" data-name="Grupo 116313" transform="translate(36.979 -3.75)">
          <path id="Trazado_171018" data-name="Trazado 171018" d="M135.549,39.982l-8.707,2.3v-2.3H114.679a1.659,1.659,0,0,1-1.659-1.659V20.909a1.659,1.659,0,0,1,1.659-1.659h20.87a1.659,1.659,0,0,1,1.659,1.659V38.324A1.659,1.659,0,0,1,135.549,39.982Z" transform="translate(-40.457 2.634)" fill="#ffef0f"/>
          <path id="Trazado_171019" data-name="Trazado 171019" d="M75.993,37.107H66.145l-1.152,3.455c-1.97,0-3.455-4.607-5.759-4.607-5.759,0-9.214-6.358-9.214-11.241V8.831A8.58,8.58,0,0,1,58.6.25H75.993a8.58,8.58,0,0,1,8.581,8.581v19.7A8.58,8.58,0,0,1,75.993,37.107Z" transform="translate(-50.02 -0.25)" fill="#4e2e8e"/>
          <g id="Grupo_116311" data-name="Grupo 116311" transform="translate(19.35 4.676)">
            <path id="Trazado_171026" data-name="Trazado 171026" d="M69.282,65.824V59.4A15.577,15.577,0,0,1,76.7,46.129l13.752-8.466a16.567,16.567,0,0,1,8.673-2.453h0a16.567,16.567,0,0,1,8.673,2.453l13.752,8.466A15.577,15.577,0,0,1,128.967,59.4v6.427H69.27Z" transform="translate(-66.448 0.38)" fill="#b0a2cd" stroke="#f75316" stroke-miterlimit="10" stroke-width="0.5"/>
            <path id="Trazado_171027" data-name="Trazado 171027" d="M129.35,69.033h-59.7A2.831,2.831,0,0,1,66.82,66.2V59.772a18.556,18.556,0,0,1,8.765-15.687l13.752-8.466a19.36,19.36,0,0,1,20.317,0l13.752,8.466a18.53,18.53,0,0,1,8.765,15.687V66.2a2.831,2.831,0,0,1-2.833,2.833ZM72.487,63.366h54.019V59.772a12.813,12.813,0,0,0-6.07-10.85l-13.752-8.466a13.688,13.688,0,0,0-14.374,0L78.557,48.923a12.828,12.828,0,0,0-6.07,10.85v3.594Z" transform="translate(-66.82 0.005)"/>
            <path id="Trazado_171028" data-name="Trazado 171028" d="M97.13,46.275h0a14.717,14.717,0,0,1-14.72-14.72V21.5A14.717,14.717,0,0,1,97.13,6.78h0A14.717,14.717,0,0,1,111.85,21.5V31.555A14.717,14.717,0,0,1,97.13,46.275Z" transform="translate(-64.454 -3.935)" fill="#fff"/>
            <path id="Trazado_171029" data-name="Trazado 171029" d="M97.5,49.495A17.583,17.583,0,0,1,79.94,31.93V21.875a17.565,17.565,0,1,1,35.129,0V31.93A17.583,17.583,0,0,1,97.5,49.495Zm0-39.506A11.9,11.9,0,0,0,85.618,21.875V31.93a11.886,11.886,0,1,0,23.773,0V21.875A11.9,11.9,0,0,0,97.5,9.988Z" transform="translate(-64.829 -4.31)"/>
          </g>
          <g id="Grupo_116312" data-name="Grupo 116312" transform="translate(1.566 1.152)">
            <path id="Trazado_171030" data-name="Trazado 171030" d="M83.941,1.25h-28.5A4.065,4.065,0,0,0,51.38,5.316V31.772a4.065,4.065,0,0,0,4.066,4.066h4.066l6.1,8.143V35.838H79.864" transform="translate(-51.38 -1.25)" fill="none" stroke="#000" stroke-linejoin="round" stroke-width="2.5"/>
            <path id="Trazado_171031" data-name="Trazado 171031" d="M113.45,19.15H133.8a4.065,4.065,0,0,1,4.066,4.066V35.425a4.065,4.065,0,0,1-4.066,4.066h-2.039l-6.1,6.1v-6.1h-8.143" transform="translate(-41.959 1.467)" fill="none" stroke="#000" stroke-linejoin="round" stroke-width="2.5"/>
            <line id="Línea_619" data-name="Línea 619" x2="22.391" transform="translate(6.104 12.209)" fill="none" stroke="#000" stroke-linejoin="round" stroke-width="2.5"/>
            <line id="Línea_620" data-name="Línea 620" x2="22.391" transform="translate(6.104 22.379)" fill="none" stroke="#000" stroke-linejoin="round" stroke-width="2.5"/>
            <line id="Línea_621" data-name="Línea 621" x1="18.325" transform="translate(71.491 30.799)" fill="none" stroke="#000" stroke-linejoin="round" stroke-width="2.5"/>
          </g>
        </g>
      </g>
    </g>
  </g>
</svg>
