<svg xmlns="http://www.w3.org/2000/svg" xmlns:xlink="http://www.w3.org/1999/xlink" width="150" height="150" viewBox="0 0 150 150">
  <defs>
    <clipPath id="clip-path">
      <rect id="Rectángulo_44240" data-name="Rectángulo 44240" width="83" height="69" transform="translate(0.273 0.381)" fill="none"/>
    </clipPath>
  </defs>
  <g id="Grupo_163936" data-name="Grupo 163936" transform="translate(-8174.177 13109.504)">
    <g id="Grupo_137051" data-name="Grupo 137051" transform="translate(7019.177 -18171.504)">
      <g id="Grupo_136564" data-name="Grupo 136564" transform="translate(-0.008 -8)">
        <path id="Trazado_170517" data-name="Trazado 170517" d="M75,0A75,75,0,1,1,0,75,75,75,0,0,1,75,0Z" transform="translate(1155.008 5070)" fill="#fff"/>
      </g>
      <g id="Grupo_136942" data-name="Grupo 136942" transform="translate(1188.727 5102.62)">
        <g id="Grupo_136941" data-name="Grupo 136941" transform="translate(0 0)" clip-path="url(#clip-path)">
          <path id="Trazado_172333" data-name="Trazado 172333" d="M40.967,29.034,80.676,2.14a2.461,2.461,0,0,1,.258,1.109v51.57A2.586,2.586,0,0,1,78.355,57.4H3.578A2.586,2.586,0,0,1,1,54.819V3.249A2.461,2.461,0,0,1,1.258,2.14Z" transform="translate(0.172 1.041)" fill="#b0a2cd"/>
          <path id="Trazado_172334" data-name="Trazado 172334" d="M78.3,1a2.584,2.584,0,0,1,2.321,1.47L40.909,29.363,1.2,2.47A2.584,2.584,0,0,1,3.521,1Z" transform="translate(0.23 0.711)" fill="#4e2e8e"/>
          <path id="Trazado_172335" data-name="Trazado 172335" d="M58.735,46l-3.868,7.736L51,46h7.735Z" transform="translate(14.635 13.728)" fill="#afb6bb"/>
          <path id="Trazado_172336" data-name="Trazado 172336" d="M58.735,18v7.735H51V18Z" transform="translate(14.635 5.629)" fill="#e7eced"/>
          <path id="Trazado_202632" data-name="Trazado 202632" d="M0,0H3V27H0Z" transform="translate(66.273 32.381)" fill="#ffef0f"/>
          <rect id="Rectángulo_44237" data-name="Rectángulo 44237" width="3" height="27" transform="translate(69.273 32.381)" fill="#ffef0f"/>
          <path id="Trazado_172337" data-name="Trazado 172337" d="M78.644,0H3.868A3.872,3.872,0,0,0,0,3.868v51.57a3.872,3.872,0,0,0,3.868,3.868H58.016V56.727H3.868a1.291,1.291,0,0,1-1.289-1.289V5.009L30.786,24.118,14.559,40.344l1.823,1.823L32.96,25.59l7.573,5.13a1.29,1.29,0,0,0,1.447,0l7.573-5.13,4.971,4.971,1.823-1.823-4.621-4.621L79.933,5.009V36.1h2.579V3.868A3.872,3.872,0,0,0,78.644,0M41.256,28.1,3.652,2.622a1.2,1.2,0,0,1,.215-.044H78.644a1.2,1.2,0,0,1,.215.044Z" transform="translate(-0.117 0.422)"/>
          <path id="Trazado_172338" data-name="Trazado 172338" d="M59.025,17H51.289A1.289,1.289,0,0,0,50,18.289v36.1h.005a1.29,1.29,0,0,0,.13.576L54,62.7a1.29,1.29,0,0,0,2.308,0l3.868-7.735a1.29,1.29,0,0,0,.13-.576h.005v-36.1A1.289,1.289,0,0,0,59.025,17M52.579,27.314h1.289V53.1H52.579Zm3.868,0h1.289V53.1H56.446Zm1.289-2.578H52.579V19.578h5.157ZM55.157,59.241l-1.782-3.563h3.563Z" transform="translate(14.345 5.339)"/>
          <rect id="Rectángulo_44238" data-name="Rectángulo 44238" width="27" height="4" transform="translate(38.273 65.381)"/>
          <rect id="Rectángulo_44239" data-name="Rectángulo 44239" width="7" height="4" transform="translate(28.273 65.381)"/>
        </g>
      </g>
    </g>
  </g>
</svg>
