<svg xmlns="http://www.w3.org/2000/svg" width="140.663" height="140.664" viewBox="0 0 140.663 140.664">
  <g id="Grupo_163921" data-name="Grupo 163921" transform="translate(-7918.991 13561.258)">
    <g id="Grupo_137042" data-name="Grupo 137042" transform="translate(7346.028 -17764.854)">
      <path id="Trazado_171603" data-name="Trazado 171603" d="M56.61,0A56.5,56.5,0,1,1,0,56.611,56.233,56.233,0,0,1,56.61,0Z" transform="matrix(0.229, -0.973, 0.973, 0.229, 575.367, 4316.003)" fill="#fff" stroke="#6677d6" stroke-width="4"/>
      <g id="Capa_1" data-name="Capa 1" transform="translate(618.847 4237.291)">
        <g id="Grupo_113038" data-name="Grupo 113038">
          <g id="Grupo_113036" data-name="Grupo 113036">
            <rect id="Rectángulo_41668" data-name="Rectángulo 41668" width="52.638" height="70.154" rx="5.204" transform="translate(1.319 1.319)" fill="#fff"/>
            <path id="Trazado_163412" data-name="Trazado 163412" d="M50.084,72.794H5.193A5.2,5.2,0,0,1,0,67.6V5.193A5.2,5.2,0,0,1,5.193,0H50.084a5.2,5.2,0,0,1,5.193,5.193V67.6A5.2,5.2,0,0,1,50.084,72.794ZM5.193,2.637A2.556,2.556,0,0,0,2.64,5.191V67.6a2.556,2.556,0,0,0,2.554,2.554H50.084A2.556,2.556,0,0,0,52.638,67.6V5.193A2.556,2.556,0,0,0,50.084,2.64H5.193Z" fill="#12263f"/>
            <path id="Trazado_163413" data-name="Trazado 163413" d="M43.208,12.534H18.368a1.319,1.319,0,0,1,0-2.637h24.84a1.319,1.319,0,0,1,0,2.637Z" transform="translate(-3.26 -1.892)" fill="#12263f"/>
            <path id="Trazado_163414" data-name="Trazado 163414" d="M43.208,55.44H18.368a1.319,1.319,0,0,1,0-2.637h24.84a1.319,1.319,0,0,1,0,2.637Z" transform="translate(-3.26 -10.095)" fill="#12263f"/>
            <path id="Trazado_163415" data-name="Trazado 163415" d="M47.238,23.26H11.844a1.319,1.319,0,0,1,0-2.637H47.238a1.319,1.319,0,0,1,0,2.637Z" transform="translate(-2.012 -3.943)" fill="#12263f"/>
            <path id="Trazado_163416" data-name="Trazado 163416" d="M47.238,33.987H11.844a1.319,1.319,0,1,1,0-2.637H47.238a1.319,1.319,0,0,1,0,2.637Z" transform="translate(-2.012 -5.994)" fill="#12263f"/>
            <path id="Trazado_163417" data-name="Trazado 163417" d="M11.844,42.076H47.238a1.319,1.319,0,0,1,0,2.637H11.844a1.319,1.319,0,0,1,0-2.637Z" transform="translate(-2.012 -8.044)" fill="#12263f"/>
          </g>
          <g id="Grupo_113037" data-name="Grupo 113037" transform="translate(30.122 47.498)">
            <ellipse id="Elipse_5602" data-name="Elipse 5602" cx="8.473" cy="8.473" rx="8.473" ry="8.473" transform="translate(1.418 1.418)" fill="#6677d6"/>
            <path id="Trazado_163418" data-name="Trazado 163418" d="M30.552,76.459,25.095,71l1.879-1.881,3.578,3.58,6.378-6.378L38.809,68.2Z" transform="translate(-22.194 -60.809)" fill="#ffef0f"/>
            <path id="Trazado_163419" data-name="Trazado 163419" d="M31.22,78.946a9.891,9.891,0,1,1,9.891-9.891A9.9,9.9,0,0,1,31.22,78.946Zm0-18.123a8.232,8.232,0,1,0,8.232,8.232A8.242,8.242,0,0,0,31.22,60.823Z" transform="translate(-21.329 -59.164)" fill="#12263f"/>
          </g>
        </g>
      </g>
    </g>
  </g>
</svg>
