<svg xmlns="http://www.w3.org/2000/svg" width="325.487" height="237.848" viewBox="0 0 325.487 237.848">
  <g id="Grupo_163917" data-name="Grupo 163917" transform="translate(-8148.666 14357.629)">
    <g id="Grupo_163833" data-name="Grupo 163833" transform="translate(7244.153 -16894.432)">
      <g id="Grupo_116519" data-name="Grupo 116519" transform="translate(904.513 2521.771)">
        <g id="Capa_1" data-name="Capa 1" transform="translate(0 23.23)">
          <g id="Focus_groups" data-name="Focus groups" transform="translate(0 0)">
            <path id="Trazado_168936" data-name="Trazado 168936" d="M322.874,172.24c-20.826,45.7-178.108,77.045-264.027,28.527C32.958,186.151,6.34,160.13.962,127.129c-4.187-25.723,6.236-46.405,13.279-57.2C22.166,57.778,33.247,46.681,46.8,37.218c13.379-9.342,29.264-16.96,46.137-22.977A231.451,231.451,0,0,1,140.9,2.936,354.2,354.2,0,0,1,186.866,0a303.712,303.712,0,0,1,45.574,3.194c13.164,2,26.283,5.071,37.683,10.142,7.028,3.126,13.389,7.08,17.944,11.961C300.6,38.742,270.093,42.049,283.5,72.286c14.729,33.228,36.626,42.529,40.784,73.824,1.311,9.839,2.373,17.837-1.406,26.125Z" transform="translate(0 0)" fill="#b0a5c6" opacity="0.503"/>
          </g>
        </g>
      </g>
      <g id="Grupo_136808" data-name="Grupo 136808" transform="translate(1000 2578.54)">
        <g id="Grupo_136789" data-name="Grupo 136789" transform="translate(0 48.878)">
          <path id="Trazado_171910" data-name="Trazado 171910" d="M190.593,192.15H181.41l8.233,48.769h9.183Z" transform="translate(-157.999 -166.306)" fill="#6e99d6"/>
          <rect id="Rectángulo_44110" data-name="Rectángulo 44110" width="52.516" height="4.911" rx="2.4" transform="translate(20.267 72.158)" fill="#95b5e8"/>
          <rect id="Rectángulo_44111" data-name="Rectángulo 44111" width="58.259" height="8.134" rx="4.067" transform="translate(17.396 64.024)" fill="#b7cfe2"/>
          <rect id="Rectángulo_44112" data-name="Rectángulo 44112" width="8.872" height="58.437" transform="translate(42.089 77.069)" fill="#6e99d6"/>
          <path id="Trazado_171911" data-name="Trazado 171911" d="M187.584,172.2a194.325,194.325,0,0,1-39.684.02,2.829,2.829,0,0,1-2.4-2.243L140.38,142.22a1.814,1.814,0,0,1,2.089-2.233,137.64,137.64,0,0,0,38.645-.02,2.758,2.758,0,0,1,2.916,2.233l5.124,27.753a1.808,1.808,0,0,1-1.569,2.248Z" transform="translate(-137.262 -139.946)" fill="#b7cfe2"/>
          <path id="Trazado_171912" data-name="Trazado 171912" d="M138.69,140.04h-2.733a1.81,1.81,0,0,0-1.8,2.257l5.1,27.62a2.8,2.8,0,0,0,2.629,2.253h2.852l-6.055-32.13Z" transform="translate(-134.122 -139.993)" fill="#95b5e8"/>
          <path id="Trazado_171913" data-name="Trazado 171913" d="M227.625,419.4H179.99l19.382-5.743h8.872Z" transform="translate(-157.282 -278.154)" fill="#6e99d6"/>
          <path id="Trazado_171914" data-name="Trazado 171914" d="M226.121,371.52h-37.4a1.58,1.58,0,0,0-1.579,1.579h0a1.58,1.58,0,0,0,1.579,1.579h37.4A1.58,1.58,0,0,0,227.7,373.1h0A1.58,1.58,0,0,0,226.121,371.52Z" transform="translate(-160.893 -256.876)" fill="#b7cfe2"/>
        </g>
        <g id="Grupo_136799" data-name="Grupo 136799" transform="translate(24.708)">
          <g id="Grupo_136790" data-name="Grupo 136790" transform="translate(96.84 70.761)">
            <path id="Trazado_171915" data-name="Trazado 171915" d="M379.65,194.4l2.084.554h2.639l3.193-1.282.7,1.728a.6.6,0,0,0,1.154-.257l-.084-1.4.931,1.7a.638.638,0,0,0,1.144-.564l-.718-1.624-1.985-2.515,2.47,1.985,1.624,2.688a.748.748,0,0,0,1.307-.728l-1.376-2.688-2.035-2.178L379.66,194.4Z" transform="translate(-379.645 -187.018)" fill="#f49d98"/>
            <path id="Trazado_171916" data-name="Trazado 171916" d="M379.65,186.318v5.218l10.431-4.322a1.562,1.562,0,0,1,1.213,0l3.267,1.347,2.574,2.832a.794.794,0,0,0,.584.262.826.826,0,0,0,.218-.03.8.8,0,0,0,.436-1.218l-2.446-3.51a1.018,1.018,0,0,0-.4-.337l-4.936-2.238a1.9,1.9,0,0,0-1.2-.129l-9.738,2.124Z" transform="translate(-379.645 -184.15)" fill="#ffd6d2"/>
            <path id="Trazado_171917" data-name="Trazado 171917" d="M385.125,192.91l2.857,1.668,3.144,1.277a.768.768,0,0,1-.292,1.48H387.3l-5.579-.822-2.084-.554,5.48-3.05Z" transform="translate(-379.64 -188.573)" fill="#ffd6d2"/>
            <path id="Trazado_171918" data-name="Trazado 171918" d="M379.65,191.98v3.51l2.084.554,5.579.827h3.53c.188-1.282-2.079-.644-2.079-.644a13.984,13.984,0,0,1-6.2-1.946c-.119-.069-.238-.144-.351-.213A12.327,12.327,0,0,1,379.65,191.98Z" transform="translate(-379.645 -188.103)" fill="#f49d98"/>
          </g>
          <g id="Grupo_136793" data-name="Grupo 136793" transform="translate(2.262 89.133)">
            <path id="Trazado_171919" data-name="Trazado 171919" d="M234.982,340.01l-5.792,12.06,7.228,6.461,9.906-12.634Z" transform="translate(-209.095 -281.221)" fill="#ffd6d2"/>
            <g id="Grupo_136791" data-name="Grupo 136791" transform="translate(11.973 68.316)">
              <path id="Trazado_171920" data-name="Trazado 171920" d="M233.966,381.456a2.261,2.261,0,0,1-.416,1.3,1.71,1.71,0,0,1-.248.282,2.243,2.243,0,0,1-2.758.337l-1.3-.8a23.2,23.2,0,0,1-5.6-4.792l-10.3-12.119a2.337,2.337,0,0,1,.723-3.6l.886-.45,3.436-1.743a5.743,5.743,0,0,1,3.683-.52h0c-.941,4.6,4.629,6.065,4.629,6.065,1.574-1.436,3.881-.3,3.881-.3l1.758,11.594,1.485,3.951a2.2,2.2,0,0,1,.144.792Z" transform="translate(-212.784 -359.254)" fill="#c6412a"/>
              <path id="Trazado_171921" data-name="Trazado 171921" d="M233.312,385.461a2.243,2.243,0,0,1-2.758.337l-1.3-.8a23.2,23.2,0,0,1-5.6-4.792l-10.3-12.119a2.337,2.337,0,0,1,.723-3.6l.886-.451.985.9a4.081,4.081,0,0,1,1.173,4.149h0a1.748,1.748,0,0,0,.307,1.574l6.669,8.5a2,2,0,0,0,1.574.767h.134a2,2,0,0,1,1.47.644,23.92,23.92,0,0,0,6.04,4.9Z" transform="translate(-212.789 -361.67)" fill="#c15316"/>
            </g>
            <path id="Trazado_171922" data-name="Trazado 171922" d="M242.864,352.619l-10.094-4.238,4.02-8.372,11.342,5.886Z" transform="translate(-210.903 -281.221)" fill="#f49d98"/>
            <path id="Trazado_171923" data-name="Trazado 171923" d="M284.7,365.48l-.743,13.352,9.149,3.208,4.322-15.461Z" transform="translate(-236.75 -294.082)" fill="#ffd6d2"/>
            <g id="Grupo_136792" data-name="Grupo 136792" transform="translate(40.447 82.057)">
              <path id="Trazado_171924" data-name="Trazado 171924" d="M296.657,402.887a2.244,2.244,0,0,1,.114,1.361,1.835,1.835,0,0,1-.119.352,2.236,2.236,0,0,1-2.416,1.361l-1.505-.238a23.291,23.291,0,0,1-7.01-2.282l-14.149-7.263a2.338,2.338,0,0,1-.708-3.6l.644-.752,2.5-2.926a5.747,5.747,0,0,1,3.2-1.886h0c.886,4.609,6.594,3.832,6.594,3.832.911-1.926,3.47-1.762,3.47-1.762l6.055,10.04,2.886,3.084a2.28,2.28,0,0,1,.436.673Z" transform="translate(-270.299 -387.01)" fill="#c6412a"/>
              <path id="Trazado_171925" data-name="Trazado 171925" d="M296.652,409.518a2.236,2.236,0,0,1-2.416,1.361l-1.5-.238a23.292,23.292,0,0,1-7.01-2.282L271.572,401.1a2.338,2.338,0,0,1-.708-3.6l.644-.753,1.252.451a4.066,4.066,0,0,1,2.668,3.381h0a1.753,1.753,0,0,0,.886,1.337l9.411,5.307a1.991,1.991,0,0,0,1.748.1l.124-.049a2.008,2.008,0,0,1,1.6.03,23.911,23.911,0,0,0,7.451,2.213Z" transform="translate(-270.299 -391.923)" fill="#c15316"/>
            </g>
            <path id="Trazado_171926" data-name="Trazado 171926" d="M295.456,374.624,284.5,374l.475-8.52,12.728,1.1Z" transform="translate(-237.023 -294.082)" fill="#f49d98"/>
            <path id="Trazado_171927" data-name="Trazado 171927" d="M280.325,259.311l-7.832,41.561a2.233,2.233,0,0,1-2.634,1.772l-1.059-.213-12.768-2.579a2.221,2.221,0,0,1-1.782-2.371l1.416-17.01,2.441-29.239-3.277-.708-25.629-5.54.852-17.887.1-2.188,7.6-.347,6.758-.312,27.545,16.6a17.725,17.725,0,0,1,8.268,18.461Z" transform="translate(-209.1 -222.77)" fill="#4e2e8e"/>
            <path id="Trazado_171928" data-name="Trazado 171928" d="M288.034,321.5l6.307,2.7-12.768-2.579a2.222,2.222,0,0,1-1.782-2.371l3.857-46.249-3.277-.708.089-1.391,8.787-3.545,4.8,4.777a7.887,7.887,0,0,1,1.886,8.193L284.43,313.332a6.548,6.548,0,0,0,3.609,8.173Z" transform="translate(-234.641 -244.532)" opacity="0.3"/>
            <path id="Trazado_171929" data-name="Trazado 171929" d="M245.725,259.563,235.17,278.955l-7.53,13.842a2.237,2.237,0,0,1-3.149.827l-6.451-4.03-6.515-4.074a2.23,2.23,0,0,1-.728-3.045l18.773-31.041-26.625-2.886a15.506,15.506,0,0,1-2.168-.386,16.08,16.08,0,0,1-12.1-17.03l.886-9.872,20.1,2.124,4.956.525,2.564.272,4.545,6.579,19.382,11.708a12.807,12.807,0,0,1,4.629,17.09Z" transform="translate(-188.604 -221.26)" fill="#4e2e8e"/>
            <path id="Trazado_171930" data-name="Trazado 171930" d="M237.251,316.449l3.094,3.926L233.83,316.3a2.23,2.23,0,0,1-.728-3.045l18.773-31.036h4.609l-19.431,29.11a4.35,4.35,0,0,0,.2,5.114Z" transform="translate(-210.908 -252.041)" opacity="0.3"/>
            <path id="Trazado_171931" data-name="Trazado 171931" d="M284.6,260.44a.228.228,0,0,1-.223-.2c-.564-4.7-18.778-13.52-18.966-13.6a.224.224,0,0,1-.1-.3.22.22,0,0,1,.3-.1c.762.366,18.619,9.02,19.214,13.956a.223.223,0,0,1-.193.247Z" transform="translate(-227.321 -233.86)" fill="#2b160e"/>
            <path id="Trazado_171932" data-name="Trazado 171932" d="M217.254,223.047l-2.649.871-5.055,1.668-7.2,2.371a10.258,10.258,0,0,0-5.743,14.748,22.292,22.292,0,0,0,4.164,5.466,16.08,16.08,0,0,1-12.1-17.03l.886-9.872,20.1,2.124Z" transform="translate(-188.599 -221.265)" opacity="0.3"/>
          </g>
          <path id="Trazado_171933" data-name="Trazado 171933" d="M330.013,149.909v5.629h-29.59a9.422,9.422,0,0,1-8.7-5.822L280.63,122.879l7.926-7.223,3.8-3.456a16.933,16.933,0,0,1,6.446,9.416l5.916,22.555,25.3,5.738Z" transform="translate(-232.807 -77.058)" fill="#3d46c2"/>
          <path id="Trazado_171934" data-name="Trazado 171934" d="M330.013,157.543v1.53h-29.59a9.422,9.422,0,0,1-8.7-5.822L280.63,126.413l7.926-7.223,7.51,31.352a6.092,6.092,0,0,0,5.426,4.654l28.526,2.347Z" transform="translate(-232.807 -80.588)" fill="#2730a4"/>
          <path id="Trazado_171935" data-name="Trazado 171935" d="M277.888,158.862l-2.678,3.3,2.03-6.084Z" transform="translate(-230.07 -99.215)" fill="none" stroke="red" stroke-linecap="round" stroke-linejoin="round" stroke-width="1"/>
          <g id="Grupo_136795" data-name="Grupo 136795" transform="translate(0 29.123)">
            <path id="Trazado_171936" data-name="Trazado 171936" d="M243.571,106.061l-3.97,13.887c-4.381,4.975-7.362,11.466-9.367,17.609-.1.322-.2.644-.3.96-.485,1.559-.911,3.084-1.277,4.555-.084.317-.158.629-.238.941-.386,1.609-.708,3.134-.975,4.535-.059.322-.114.634-.168.936-.322,1.767-.545,3.307-.7,4.52-.045.337-.084.649-.114.936-.025.223-.049.431-.069.614a6.073,6.073,0,0,0,.307,2.693l.4,1.163.114.332a4.334,4.334,0,0,1,.158.589,4.544,4.544,0,0,1-1.723,4.56,4.478,4.478,0,0,1-1.465.733c-.287.079-.579.158-.881.233-12.9,3.139-37.105-2.272-37.105-2.272a6.276,6.276,0,0,1-1.663-2.559,7.482,7.482,0,0,1-.287-1.015,13.007,13.007,0,0,1-.025-4.564c.045-.3.094-.6.158-.916a31.147,31.147,0,0,1,1.178-4.3c.1-.3.2-.589.312-.886.5-1.352,1.079-2.753,1.738-4.183.129-.287.262-.574.4-.866.644-1.352,1.342-2.733,2.089-4.124.153-.287.3-.569.465-.856.743-1.361,1.525-2.728,2.332-4.1.168-.282.342-.569.51-.852,5.065-8.436,11.08-16.753,15.045-22.313,5.921-8.307,12.4-10.916,16.515-11.7a14.339,14.339,0,0,1,4.208-.257,35.962,35.962,0,0,1,9.48,2.817,17.853,17.853,0,0,1,4.926,3.149Z" transform="translate(-184.03 -100.042)" fill="#4952c6"/>
            <g id="Grupo_136794" data-name="Grupo 136794" transform="translate(0.193 34.327)" opacity="0.5">
              <path id="Trazado_171937" data-name="Trazado 171937" d="M239.278,172.568c-.1.322-.2.644-.3.96a112.912,112.912,0,0,1-16.194-.352c-7.7-.663-15.169-1.876-20.842-2.946.168-.282.342-.569.51-.852,9.743,1.837,24.6,4.03,36.833,3.193Z" transform="translate(-193.266 -169.38)" fill="#fff"/>
              <path id="Trazado_171938" data-name="Trazado 171938" d="M234.841,183.128c-.084.317-.158.629-.238.941a115.359,115.359,0,0,1-15.005-.411,218.358,218.358,0,0,1-23.318-3.431c.153-.287.3-.569.465-.856,9.243,1.842,24.986,4.421,38.09,3.758Z" transform="translate(-190.409 -174.424)" fill="#fff"/>
              <path id="Trazado_171939" data-name="Trazado 171939" d="M231.093,193.693c-.059.322-.114.634-.168.936a119.239,119.239,0,0,1-14.184-.451,223.268,223.268,0,0,1-25.481-3.871c.129-.287.262-.574.4-.866,8.57,1.792,25.382,4.8,39.437,4.253Z" transform="translate(-187.874 -179.509)" fill="#fff"/>
              <path id="Trazado_171940" data-name="Trazado 171940" d="M228.131,204.3c-.045.337-.084.649-.114.936a120.394,120.394,0,0,1-13.684-.465,225.516,225.516,0,0,1-27.214-4.243c.1-.3.2-.589.312-.886,7.7,1.678,25.679,5.149,40.7,4.659Z" transform="translate(-185.783 -184.659)" fill="#fff"/>
              <path id="Trazado_171941" data-name="Trazado 171941" d="M227.565,215.9a115.8,115.8,0,0,1-14.921-.421,226.955,226.955,0,0,1-28.224-4.465c.045-.3.094-.6.158-.916,7.015,1.574,26.714,5.574,42.719,4.881l.114.332a4.331,4.331,0,0,1,.158.589Z" transform="translate(-184.42 -189.941)" fill="#fff"/>
              <path id="Trazado_171942" data-name="Trazado 171942" d="M225.867,226.051a4.478,4.478,0,0,1-1.465.733c-.287.079-.579.158-.881.233-3.663.015-7.446-.183-11.169-.5a224.915,224.915,0,0,1-27.595-4.327,7.48,7.48,0,0,1-.287-1.015C191.48,222.734,210.228,226.512,225.867,226.051Z" transform="translate(-184.445 -195.531)" fill="#fff"/>
            </g>
            <path id="Trazado_171943" data-name="Trazado 171943" d="M278.042,109.517c-8.505.4-10.807-6.733-11.342-9.164a14.339,14.339,0,0,1,4.208-.257,35.962,35.962,0,0,1,9.48,2.817c.089.188.188.386.287.589,2.629,5.426-2.629,6.015-2.629,6.015Z" transform="translate(-225.773 -100.042)" fill="#e8f1f9"/>
          </g>
          <g id="Grupo_136796" data-name="Grupo 136796" transform="translate(24.904 25.013)">
            <path id="Trazado_171944" data-name="Trazado 171944" d="M321.444,92.854a.757.757,0,0,1-.6.886l-.109.015-2.53.109-1.723.921,2.916,3.876a2.688,2.688,0,0,1,.361.658,2.635,2.635,0,0,1-1.431,3.357l-6.035,2.574-.936,3.861a7.071,7.071,0,0,1-3.4-.941,5.662,5.662,0,0,1-2.624-3.693L312.355,95l4.139-2.837a2.4,2.4,0,0,1,1.822-.381l2.53.485a.755.755,0,0,1,.6.6Z" transform="translate(-270.187 -91.741)" fill="#ffd6d2"/>
            <path id="Trazado_171945" data-name="Trazado 171945" d="M321,110.387l-6.035,2.574-.936,3.862a7.071,7.071,0,0,1-3.4-.941l3.124-3.98s7.946-1.807,8.669-4.871a2.635,2.635,0,0,1-1.431,3.357Z" transform="translate(-272.858 -99.461)" fill="#f49d98"/>
            <path id="Trazado_171946" data-name="Trazado 171946" d="M275.5,122.079c-.094.767-.2,1.525-.307,2.267a96.914,96.914,0,0,1-9.48,30.189,6.724,6.724,0,0,1-11.352.98l-16.778-22.238h0l-2.218-2.941a5.04,5.04,0,0,1-.936-2.1,5.193,5.193,0,0,1-.01-1.9A10.819,10.819,0,0,1,248.07,117.9a3.985,3.985,0,0,1,2.579,2.342l7.738,19.223,10.179-20.228.906-1.8a18.066,18.066,0,0,0,5.272,4.243c.46.253.748.391.748.391Z" transform="translate(-234.334 -104.717)" fill="#3d46c2"/>
            <path id="Trazado_171947" data-name="Trazado 171947" d="M278.812,126.411a97.539,97.539,0,0,1-9.787,32.456,6.729,6.729,0,0,1-11.357.985L240.89,137.614l19.976,20.4a1.3,1.3,0,0,0,1.98-.139l1.228-1.668a1.3,1.3,0,0,1,1.852-.252h0a1.3,1.3,0,0,0,1.97-.446c2.089-4.178,8.094-16.936,10.164-29.491.465.257.748.391.748.391Z" transform="translate(-237.644 -109.05)" fill="#2730a4"/>
            <path id="Trazado_171948" data-name="Trazado 171948" d="M310.421,122.079c-.094.767-.2,1.525-.307,2.267a13.9,13.9,0,0,1-6.614-5.109l.906-1.8a18.067,18.067,0,0,0,5.272,4.243c.46.252.748.391.748.391Z" transform="translate(-269.258 -104.717)" fill="#e8f1f9"/>
            <path id="Trazado_171949" data-name="Trazado 171949" d="M277.052,141.3h-.01a.221.221,0,0,1-.2-.139l-5.55-13.8a.224.224,0,1,1,.416-.168l5.366,13.337,9.956-19.788a.225.225,0,0,1,.4.2l-10.179,20.228a.226.226,0,0,1-.2.124Z" transform="translate(-252.988 -106.324)" fill="#1b6d5d"/>
            <path id="Trazado_171950" data-name="Trazado 171950" d="M326.357,102.952a.2.2,0,0,1-.163-.079l-3.852-4.837a.2.2,0,0,1,.035-.292.206.206,0,0,1,.292.035l3.852,4.837a.2.2,0,0,1-.035.292A.214.214,0,0,1,326.357,102.952Z" transform="translate(-278.748 -94.749)" fill="#f49d98"/>
          </g>
          <g id="Grupo_136798" data-name="Grupo 136798" transform="translate(35.823)">
            <path id="Trazado_171951" data-name="Trazado 171951" d="M268.192,79.607s-9.406-6.946-11.387-14.4,3.753-7.51,3.753-7.51l7.391.861L270.663,70.9,268.2,79.6Z" transform="translate(-256.39 -49.539)" fill="#492c1e"/>
            <path id="Trazado_171952" data-name="Trazado 171952" d="M275.14,82.2l-5.03,8.906-.01.045c.342,5.688,10.773,10.842,11.882,5.505l.168-.609,2.213-5.966Z" transform="translate(-263.313 -61.91)" fill="#ffd6d2"/>
            <path id="Trazado_171953" data-name="Trazado 171953" d="M283.62,98.363l5.357,5.723,2.213-5.966Z" transform="translate(-270.139 -69.949)" fill="#f49d98"/>
            <path id="Trazado_171954" data-name="Trazado 171954" d="M287.393,54.4a127.448,127.448,0,0,1,2,14.837,8.347,8.347,0,0,1-9.644,8.787A9.285,9.285,0,0,1,272.5,72.41s-2.51,1.064-3.753-3.03,2.48-4.317,3.366-3.4l.282.757a1.542,1.542,0,0,0,1.3,1h0a.521.521,0,0,0,.554-.624l-2.262-11.04L287.393,54.4Z" transform="translate(-262.501 -47.873)" fill="#ffd6d2"/>
            <g id="Grupo_136797" data-name="Grupo 136797" transform="translate(13.744 12.96)">
              <path id="Trazado_171955" data-name="Trazado 171955" d="M295.658,79.015a.26.26,0,0,1-.292-.149.265.265,0,0,1,.129-.347l2.233-1.015-1.55-5.139a.259.259,0,1,1,.5-.153l1.614,5.357a.26.26,0,0,1-.144.312L295.7,78.99a.192.192,0,0,1-.054.015Z" transform="translate(-289.803 -69.735)" fill="#f49d98"/>
              <path id="Trazado_171956" data-name="Trazado 171956" d="M290.053,76.314h0a.593.593,0,0,1-.7-.451l-.134-.6a.593.593,0,0,1,.451-.7h0a.593.593,0,0,1,.7.451l.134.6A.593.593,0,0,1,290.053,76.314Z" transform="translate(-286.702 -71.004)" fill="#492c1e"/>
              <path id="Trazado_171957" data-name="Trazado 171957" d="M303.433,74.164h0a.593.593,0,0,1-.7-.451l-.134-.6a.593.593,0,0,1,.451-.7h0a.593.593,0,0,1,.7.451l.134.6A.593.593,0,0,1,303.433,74.164Z" transform="translate(-293.458 -69.918)" fill="#492c1e"/>
              <path id="Trazado_171958" data-name="Trazado 171958" d="M288.6,69.681a.23.23,0,0,1-.163.02,3.6,3.6,0,0,0-3.807,1.436.263.263,0,0,1-.356.084.258.258,0,0,1-.084-.356,4.181,4.181,0,0,1,4.352-1.673.26.26,0,0,1,.2.307A.248.248,0,0,1,288.6,69.681Z" transform="translate(-284.152 -68.252)" fill="#492c1e"/>
              <path id="Trazado_171959" data-name="Trazado 171959" d="M303.074,68.729a.272.272,0,0,1-.158-.05,3.6,3.6,0,0,0-4.06-.272.262.262,0,0,1-.292-.436,4.183,4.183,0,0,1,4.654.282.26.26,0,0,1-.149.47Z" transform="translate(-291.372 -67.395)" fill="#492c1e"/>
              <path id="Trazado_171960" data-name="Trazado 171960" d="M291.412,90.827a.224.224,0,0,1-.208-.144.219.219,0,0,1,.129-.287,15.4,15.4,0,0,1,4.876-.916h0a.222.222,0,0,1,.223.223.229.229,0,0,1-.223.228,15.29,15.29,0,0,0-4.718.886.224.224,0,0,1-.079.015Z" transform="translate(-287.705 -78.546)" fill="#f49d98"/>
            </g>
            <path id="Trazado_171961" data-name="Trazado 171961" d="M271.617,51.911s8.877,4.584,16.085.718a4.54,4.54,0,0,0,1.208-7.02c-2.9-3.248-8.124-6.748-15.332-2.267,0,0-7.758-1.04-8.777,6.04l6.812,2.53Z" transform="translate(-260.636 -41.216)" fill="#492c1e"/>
            <path id="Trazado_171962" data-name="Trazado 171962" d="M273.561,82.664h-.01a.225.225,0,0,1-.257-.144c-.064-.183-.317-.733-.629-.847a.341.341,0,0,0-.317.045.224.224,0,1,1-.228-.386.8.8,0,0,1,.7-.079,1,1,0,0,1,.282.163c-.154-.564-.406-1.119-.8-1.144-.832-.049-1.054.9-1.059.941a.225.225,0,0,1-.267.168.222.222,0,0,1-.168-.267,1.547,1.547,0,0,1,1.525-1.287c1.188.074,1.381,2.342,1.4,2.6a.224.224,0,0,1-.168.233Z" transform="translate(-263.665 -60.711)" fill="#f49d98"/>
          </g>
        </g>
        <g id="Grupo_136807" data-name="Grupo 136807" transform="translate(18.445 52.33)">
          <g id="Grupo_136800" data-name="Grupo 136800" transform="translate(48.482)">
            <rect id="Rectángulo_44113" data-name="Rectángulo 44113" width="31.442" height="2.901" rx="1.451" transform="translate(0 23.253)" fill="#b7cfe2"/>
            <path id="Trazado_171963" data-name="Trazado 171963" d="M365.906,173.074H324.479a.892.892,0,0,1-.787-1.312l13.02-24.372a.889.889,0,0,1,.787-.47h41.427a.892.892,0,0,1,.787,1.312L366.693,172.6A.889.889,0,0,1,365.906,173.074Z" transform="translate(-296.716 -146.92)" fill="#d7e8f7"/>
            <ellipse id="Elipse_6093" data-name="Elipse 6093" cx="2.678" cy="2.678" rx="2.678" ry="2.678" transform="translate(52.309 10.396)" fill="#fff"/>
          </g>
          <g id="Grupo_136804" data-name="Grupo 136804" transform="translate(133.4 1.172)">
            <path id="Trazado_171964" data-name="Trazado 171964" d="M448.418,179.344l-.243,1.574-1.05-1.2-4.644-15.976a.666.666,0,0,1,.46-.832h0a.666.666,0,0,1,.832.46l4.644,15.976Z" transform="translate(-441.655 -156.154)" fill="#95b5e8"/>
            <path id="Trazado_171965" data-name="Trazado 171965" d="M459.4,161.771l.718-1.421.629,1.46-.505,16.629a.674.674,0,0,1-.693.654h0a.674.674,0,0,1-.654-.693Z" transform="translate(-449.959 -154.874)" fill="#95b5e8"/>
            <g id="Grupo_136802" data-name="Grupo 136802" transform="translate(4.441 0)">
              <rect id="Rectángulo_44114" data-name="Rectángulo 44114" width="24.644" height="3.233" rx="1.13" transform="translate(0 24.61) rotate(-86.98)" fill="#d7e8f7"/>
              <g id="Grupo_136801" data-name="Grupo 136801" transform="translate(2.03 0.813)">
                <line id="Línea_710" data-name="Línea 710" x1="1.183" y2="22.402" transform="translate(0.208 0.203)" fill="#95b5e8"/>
                <path id="Trazado_171966" data-name="Trazado 171966" d="M454.108,173.747a.209.209,0,0,1-.2-.218l1.183-22.4a.208.208,0,1,1,.416.02l-1.183,22.4A.209.209,0,0,1,454.108,173.747Z" transform="translate(-453.91 -150.93)" fill="#95b5e8"/>
              </g>
            </g>
            <g id="Grupo_136803" data-name="Grupo 136803" transform="translate(0 12.541)">
              <path id="Trazado_171967" data-name="Trazado 171967" d="M442.495,177.85h10.867v7.4a3.471,3.471,0,0,1-3.47,3.47H445.96a3.471,3.471,0,0,1-3.47-3.47v-7.4h0Z" transform="translate(-441.673 -176.251)" fill="#95b5e8"/>
              <rect id="Rectángulo_44115" data-name="Rectángulo 44115" width="12.51" height="1.599" rx="0.8" fill="#b7cfe2"/>
              <path id="Trazado_171968" data-name="Trazado 171968" d="M442.46,177.845v.6h7.916a1.671,1.671,0,0,1,1.673,1.673v5.614a1.671,1.671,0,0,1-1.673,1.673h-7.891a1.277,1.277,0,0,0,1.277,1.277h8.282a1.306,1.306,0,0,0,1.307-1.307V177.84H442.46Z" transform="translate(-441.658 -176.246)" fill="#6e99d6"/>
            </g>
          </g>
          <g id="Grupo_136805" data-name="Grupo 136805" transform="translate(29.338 13.07)">
            <path id="Trazado_171969" data-name="Trazado 171969" d="M235.1,186.476h-1.787a2.675,2.675,0,0,1-2.673-2.673v-4.089a2.675,2.675,0,0,1,2.673-2.673H235.1a.673.673,0,0,1,0,1.347h-1.787a1.327,1.327,0,0,0-1.327,1.327V183.8a1.327,1.327,0,0,0,1.327,1.327H235.1a.673.673,0,0,1,0,1.347Z" transform="translate(-230.64 -175.198)" fill="#d7e8f7"/>
            <path id="Trazado_171970" data-name="Trazado 171970" d="M251.734,174V184.85a2.548,2.548,0,0,1-.267.876,1.565,1.565,0,0,1-.183.223,2.7,2.7,0,0,1-.228.188,1.5,1.5,0,0,1-.9.287H240.2a1.578,1.578,0,0,1-1.569-1.441c0-.054,0-.109,0-.163V173.993a.671.671,0,0,1,.673-.673h11.763a.671.671,0,0,1,.673.673Z" transform="translate(-234.674 -173.32)" fill="#d7e8f7"/>
            <path id="Trazado_171971" data-name="Trazado 171971" d="M251.734,188.1a2.548,2.548,0,0,1-.267.876,1.567,1.567,0,0,1-.183.223,2.7,2.7,0,0,1-.228.188,1.564,1.564,0,0,1-.861.262H240.2a1.575,1.575,0,0,1-1.569-1.416c0-.054,0-.109,0-.163V179.75h.817v6.332a2.022,2.022,0,0,0,2.02,2.02h10.273Z" transform="translate(-234.674 -176.567)" fill="#b7cfe2"/>
          </g>
          <rect id="Rectángulo_44116" data-name="Rectángulo 44116" width="5.362" height="101.627" transform="translate(107.538 36.219)" fill="#6e99d6"/>
          <g id="Grupo_136806" data-name="Grupo 136806" transform="translate(0 26.154)">
            <rect id="Rectángulo_44117" data-name="Rectángulo 44117" width="153.421" height="10.015" rx="5.008" transform="translate(0.277)" fill="#b7cfe2"/>
            <rect id="Rectángulo_44118" data-name="Rectángulo 44118" width="50.18" height="10.015" rx="5.008" fill="#95b5e8"/>
            <rect id="Rectángulo_44119" data-name="Rectángulo 44119" width="5.362" height="101.627" transform="translate(4.832 10.065)" fill="#95b5e8"/>
            <rect id="Rectángulo_44120" data-name="Rectángulo 44120" width="5.362" height="101.627" transform="translate(39.348 10.065)" fill="#95b5e8"/>
            <rect id="Rectángulo_44121" data-name="Rectángulo 44121" width="5.362" height="101.627" transform="translate(143.93 10.065)" fill="#95b5e8"/>
            <rect id="Rectángulo_44122" data-name="Rectángulo 44122" width="5.362" height="2.055" transform="translate(4.832 10.065)" fill="#6e99d6"/>
            <rect id="Rectángulo_44123" data-name="Rectángulo 44123" width="5.362" height="2.055" transform="translate(39.348 10.065)" fill="#6e99d6"/>
            <rect id="Rectángulo_44124" data-name="Rectángulo 44124" width="5.362" height="2.055" transform="translate(143.93 10.065)" fill="#6e99d6"/>
          </g>
        </g>
      </g>
      <g id="Grupo_136809" data-name="Grupo 136809" transform="translate(940.08 2578.54)">
        <path id="Trazado_171972" data-name="Trazado 171972" d="M64.026,63.9H44.348a1.117,1.117,0,0,1-1.109-1L40.654,36.653a1.115,1.115,0,0,1,1.109-1.223H61.437a1.117,1.117,0,0,1,1.109,1L65.13,62.673A1.115,1.115,0,0,1,64.021,63.9Z" transform="translate(-27.436 -35.43)" fill="#b7cfe2"/>
        <rect id="Rectángulo_44125" data-name="Rectángulo 44125" width="53.125" height="4.451" rx="2.225" transform="translate(0 28.466)" fill="#b7cfe2"/>
        <rect id="Rectángulo_44126" data-name="Rectángulo 44126" width="17.337" height="4.451" rx="2.225" transform="translate(0 28.466)" fill="#95b5e8"/>
        <path id="Trazado_171973" data-name="Trazado 171973" d="M27.1,101.93v4.594a1.115,1.115,0,0,0,2.035.629l3.574-5.223H27.1Z" transform="translate(-20.595 -69.008)" fill="#6e99d6"/>
        <path id="Trazado_171974" data-name="Trazado 171974" d="M88.15,101.93v4.594a1.115,1.115,0,0,0,2.035.629l3.574-5.223h-5.6Z" transform="translate(-51.421 -69.008)" fill="#6e99d6"/>
        <path id="Trazado_171975" data-name="Trazado 171975" d="M68.486,63.9H48.808a1.117,1.117,0,0,1-1.109-1L45.114,36.653a1.115,1.115,0,0,1,1.109-1.223H65.9a1.117,1.117,0,0,1,1.109,1L69.59,62.673A1.115,1.115,0,0,1,68.481,63.9Z" transform="translate(-29.688 -35.43)" fill="#d7e8f7"/>
        <path id="Trazado_171976" data-name="Trazado 171976" d="M51.456,63.943,49.02,39.19H67.2l2.436,24.753Z" transform="translate(-31.663 -37.329)" fill="#fff"/>
        <path id="Trazado_171977" data-name="Trazado 171977" d="M55.617,60.751H68.865a.744.744,0,0,0,.55-1.243L66.4,56.191a.748.748,0,0,0-1.1,0l-1.134,1.267A.745.745,0,0,1,63,57.389l-3.56-5.1a.741.741,0,0,0-1.287.124L54.934,59.7a.74.74,0,0,0,.678,1.04Z" transform="translate(-34.617 -43.78)" fill="#75b52f"/>
      </g>
      <g id="Grupo_136812" data-name="Grupo 136812" transform="translate(933.167 2671.509)">
        <path id="Trazado_171983" data-name="Trazado 171983" d="M75.391,253.8S54.866,222.329,101.4,223.24a1.719,1.719,0,0,1,1.614,2.213c-2.668,8.9-13.728,41.8-27.63,28.347Z" transform="translate(-35.789 -223.221)" fill="#b0a2cd"/>
        <path id="Trazado_171984" data-name="Trazado 171984" d="M25.687,268.907s11.9-24.327-24.2-19.51a1.718,1.718,0,0,0-1.322,2.436C3.231,258.372,13.508,277.407,25.687,268.907Z" transform="translate(0.004 -236.119)" fill="#b0a2cd"/>
        <path id="Trazado_171985" data-name="Trazado 171985" d="M68.928,297.275a.611.611,0,0,0,.134-.01.86.86,0,0,0,.718-.98c-.054-.337-4.916-33.976,20.233-56.249a.859.859,0,1,0-1.139-1.287c-13.525,11.976-18.456,27.05-20.218,37.585a69.533,69.533,0,0,0-.579,20.214.857.857,0,0,0,.852.728Z" transform="translate(-34.138 -230.952)" fill="#6e99d6"/>
        <path id="Trazado_171986" data-name="Trazado 171986" d="M45.222,305.582a.863.863,0,0,0,.861-.852c0-.307-.064-30.664-27.2-47.685a.862.862,0,1,0-.916,1.46c26.332,16.515,26.4,45.917,26.4,46.209a.861.861,0,0,0,.852.866h0Z" transform="translate(-8.867 -240.234)" fill="#6e99d6"/>
        <path id="Trazado_171987" data-name="Trazado 171987" d="M11.516,333.516l1.054,5.975,6.782,38.5a2.873,2.873,0,0,0,2.827,2.366H49.324a2.868,2.868,0,0,0,2.822-2.366l6.787-38.5,1.054-5.975a2.688,2.688,0,0,0,.035-.658,2.86,2.86,0,0,0-2.857-2.708H14.338a2.857,2.857,0,0,0-2.857,2.708,2.475,2.475,0,0,0,.035.658Z" transform="translate(-5.791 -277.213)" fill="#b7cfe2"/>
        <path id="Trazado_171988" data-name="Trazado 171988" d="M11.516,336.279l1.054,5.975H58.933l1.054-5.975a2.688,2.688,0,0,0,.035-.658H11.481a2.475,2.475,0,0,0,.035.658Z" transform="translate(-5.791 -279.975)" fill="#95b5e8"/>
        <rect id="Rectángulo_44127" data-name="Rectángulo 44127" width="54.581" height="9.342" rx="4.671" transform="translate(57.251 58.59) rotate(180)" fill="#d7e8f7"/>
      </g>
      <g id="Grupo_137039" data-name="Grupo 137039" transform="translate(-3 -24.196)">
        <g id="Grupo_136810" data-name="Grupo 136810" transform="translate(1097.471 2561)">
          <path id="Trazado_171978" data-name="Trazado 171978" d="M430.551,56.12H358.742a2.575,2.575,0,0,0-1.873.808l-6.922,7.341A2.578,2.578,0,0,1,345.5,62.5V58.687a2.579,2.579,0,0,0-2.577-2.577h-6.751a4.289,4.289,0,0,1-4.288-4.288V4.288A4.289,4.289,0,0,1,336.168,0h94.383a4.289,4.289,0,0,1,4.288,4.288V51.832a4.289,4.289,0,0,1-4.288,4.288Z" transform="translate(-331.88)" fill="#c6412a"/>
          <path id="Trazado_171979" data-name="Trazado 171979" d="M403.87,19.661a6.564,6.564,0,0,1-4.935-2.13,7.013,7.013,0,0,1,.047-9.908,6.955,6.955,0,0,1,9.908,0,6.884,6.884,0,0,1,2.025,4.983,6.8,6.8,0,0,1-2.025,4.925,6.666,6.666,0,0,1-5.03,2.13Z" transform="translate(-335.075 -0.273)" fill="#fff"/>
          <path id="Trazado_171980" data-name="Trazado 171980" d="M422.2,34.481a6.564,6.564,0,0,1-4.935-2.13,7.013,7.013,0,0,1,.048-9.908,6.955,6.955,0,0,1,9.908,0,6.884,6.884,0,0,1,2.025,4.983,6.8,6.8,0,0,1-2.025,4.925,6.666,6.666,0,0,1-5.03,2.13Z" transform="translate(-335.976 -1.001)" fill="#fff"/>
          <path id="Trazado_171981" data-name="Trazado 171981" d="M403.87,53.481a6.564,6.564,0,0,1-4.935-2.13,7.013,7.013,0,0,1,.047-9.908,6.955,6.955,0,0,1,9.908,0,6.885,6.885,0,0,1,2.025,4.983,6.8,6.8,0,0,1-2.025,4.925,6.666,6.666,0,0,1-5.03,2.13Z" transform="translate(-335.075 -1.935)" fill="#fff"/>
          <path id="Trazado_171982" data-name="Trazado 171982" d="M354.092,40.717a10.731,10.731,0,0,1-8.073-3.48,11.478,11.478,0,0,1,.086-16.212,11.386,11.386,0,0,1,16.222,0,11.272,11.272,0,0,1,3.319,8.149,11.118,11.118,0,0,1-3.319,8.063A10.9,10.9,0,0,1,354.092,40.717Z" transform="translate(-332.412 -0.866)" fill="#fff"/>
        </g>
        <line id="Línea_711" data-name="Línea 711" y1="17.116" x2="46.554" transform="translate(1119.236 2573.029)" fill="none" stroke="#fff" stroke-miterlimit="10" stroke-width="1"/>
        <line id="Línea_712" data-name="Línea 712" y1="2.957" x2="59.524" transform="translate(1123.382 2588.67)" fill="none" stroke="#fff" stroke-miterlimit="10" stroke-width="1"/>
        <line id="Línea_713" data-name="Línea 713" x2="48.665" y2="15.442" transform="translate(1117.648 2591.056)" fill="none" stroke="#fff" stroke-miterlimit="10" stroke-width="1"/>
      </g>
    </g>
  </g>
</svg>
