<svg xmlns="http://www.w3.org/2000/svg" width="140.663" height="140.664" viewBox="0 0 140.663 140.664">
  <g id="Grupo_163925" data-name="Grupo 163925" transform="translate(-9019.785 13561.232)">
    <g id="Grupo_137046" data-name="Grupo 137046" transform="translate(8290.689 -18137.328)">
      <path id="Trazado_171606" data-name="Trazado 171606" d="M56.61,0A56.5,56.5,0,1,1,0,56.611,56.233,56.233,0,0,1,56.61,0Z" transform="matrix(0.229, -0.973, 0.973, 0.229, 731.5, 4688.503)" fill="#fff" stroke="#6677d6" stroke-width="4"/>
      <g id="Grupo_136699" data-name="Grupo 136699" transform="translate(770 4609)">
        <g id="Capa_1" data-name="Capa 1" transform="translate(0)">
          <g id="Grupo_116246" data-name="Grupo 116246">
            <path id="Trazado_170920" data-name="Trazado 170920" d="M59.127,80.9H16.081A4.986,4.986,0,0,1,11.1,75.921V16.081A4.986,4.986,0,0,1,16.081,11.1H59.127a4.986,4.986,0,0,1,4.981,4.981V75.927a4.986,4.986,0,0,1-4.981,4.981ZM16.081,13.63a2.454,2.454,0,0,0-2.45,2.45V75.927a2.454,2.454,0,0,0,2.45,2.45H59.127a2.454,2.454,0,0,0,2.45-2.45V16.081a2.454,2.454,0,0,0-2.45-2.45Z" transform="translate(-4.775 -4.775)"/>
            <rect id="Rectángulo_45232" data-name="Rectángulo 45232" width="51" height="68" transform="translate(1.334 1.432)" fill="#f3f9ff"/>
            <path id="Trazado_170927" data-name="Trazado 170927" d="M49.53,105.89H15.6a1.265,1.265,0,0,1,0-2.53h33.94a1.265,1.265,0,0,1,0,2.53Z" transform="translate(-6.164 -44.46)"/>
            <path id="Trazado_170922" data-name="Trazado 170922" d="M48.291,20.44H24.465a1.265,1.265,0,0,1,0-2.53h23.82a1.265,1.265,0,1,1,0,2.53Z" transform="translate(-9.979 -7.704)"/>
            <path id="Trazado_170923" data-name="Trazado 170923" d="M49.53,37.46H15.6a1.265,1.265,0,1,1,0-2.53h33.94a1.265,1.265,0,0,1,0,2.53Z" transform="translate(-6.164 -15.025)"/>
            <path id="Trazado_170924" data-name="Trazado 170924" d="M49.53,54.84H15.6a1.265,1.265,0,1,1,0-2.53h33.94a1.265,1.265,0,0,1,0,2.53Z" transform="translate(-6.164 -22.501)"/>
            <path id="Trazado_170925" data-name="Trazado 170925" d="M49.53,72.23H15.6a1.265,1.265,0,1,1,0-2.53h33.94a1.265,1.265,0,0,1,0,2.53Z" transform="translate(-6.164 -29.981)"/>
            <path id="Trazado_170926" data-name="Trazado 170926" d="M49.53,89.25H15.6a1.265,1.265,0,0,1,0-2.53h33.94a1.265,1.265,0,0,1,0,2.53Z" transform="translate(-6.164 -37.302)"/>
            <path id="Trazado_170921" data-name="Trazado 170921" d="M48.027,69.807H4.981A4.986,4.986,0,0,1,0,64.827V4.981A4.986,4.986,0,0,1,4.981,0H48.027a4.986,4.986,0,0,1,4.98,4.981V64.827A4.986,4.986,0,0,1,48.027,69.807ZM4.981,2.53a2.454,2.454,0,0,0-2.45,2.45V64.827a2.454,2.454,0,0,0,2.45,2.45H48.027a2.454,2.454,0,0,0,2.45-2.45V4.981a2.454,2.454,0,0,0-2.45-2.45H4.981Z"/>
          </g>
        </g>
      </g>
    </g>
  </g>
</svg>
