<svg xmlns="http://www.w3.org/2000/svg" xmlns:xlink="http://www.w3.org/1999/xlink" width="150" height="150" viewBox="0 0 150 150">
  <defs>
    <clipPath id="clip-path">
      <rect id="Rectángulo_44258" data-name="Rectángulo 44258" width="83" height="81" transform="translate(-0.004 0.488)" fill="none"/>
    </clipPath>
  </defs>
  <g id="Grupo_163935" data-name="Grupo 163935" transform="translate(-7907.25 13109.707)">
    <g id="Grupo_137069" data-name="Grupo 137069" transform="translate(7386.25 -15985.738)">
      <g id="Grupo_136570" data-name="Grupo 136570" transform="translate(521 2876.031)">
        <path id="Trazado_170462" data-name="Trazado 170462" d="M75,0A75,75,0,1,1,0,75,75,75,0,0,1,75,0Z" fill="#fff"/>
      </g>
      <g id="Grupo_136954" data-name="Grupo 136954" transform="translate(555.004 2909.543)">
        <g id="Grupo_136953" data-name="Grupo 136953" transform="translate(0 0)" clip-path="url(#clip-path)">
          <path id="Trazado_172383" data-name="Trazado 172383" d="M69.919,33.231l.155.232c-6.962,4.4-16.58,10.6-23.361,15.239H31.241c-6.769-4.641-16.4-10.855-23.361-15.226l.155-.245V1H69.919V33.231Z" transform="translate(2.315 -0.487)" fill="#f1f2f2"/>
          <path id="Trazado_172384" data-name="Trazado 172384" d="M56,22h9.012c-.168,0-3.816,2.218-8.857,5.389L56,27.157Z" transform="translate(16.233 5.587)" fill="#fdb51e"/>
          <path id="Trazado_172385" data-name="Trazado 172385" d="M10.022,22v5.157l-.155.245C4.826,24.218,1.178,22,1.01,22Z" transform="translate(0.328 5.587)" fill="#fdb51e"/>
          <path id="Trazado_172386" data-name="Trazado 172386" d="M56,15l9.012,9.025H56Z" transform="translate(16.233 3.562)" fill="#ffd311"/>
          <path id="Trazado_172387" data-name="Trazado 172387" d="M10.022,15v9.025H1.01Z" transform="translate(0.328 3.562)" fill="#ffd311"/>
          <path id="Trazado_172388" data-name="Trazado 172388" d="M33.231,42.628H48.7c6.781-4.641,16.4-10.843,23.361-15.239C77.1,24.218,80.753,22,80.921,22h.013V72.281a2.586,2.586,0,0,1-2.578,2.578H3.578A2.586,2.586,0,0,1,1,72.281V22h.013c.168,0,3.816,2.218,8.857,5.4,6.962,4.371,16.593,10.585,23.361,15.226" transform="translate(1.614 5.587)" fill="#b0a2cd"/>
          <path id="Trazado_172389" data-name="Trazado 172389" d="M42.471,1A15.471,15.471,0,1,1,27,16.471,15.467,15.467,0,0,1,42.471,1" transform="translate(7.845 -0.487)" fill="#ffef0f"/>
          <path id="Trazado_172390" data-name="Trazado 172390" d="M82.493,28.227a1.127,1.127,0,0,0-.022-.161,1.38,1.38,0,0,0-.07-.2,1.076,1.076,0,0,0-.061-.137,1.278,1.278,0,0,0-.155-.21c-.019-.022-.031-.049-.052-.07l-.022-.022-.006-.008L73.487,18.8V1.289A1.289,1.289,0,0,0,72.2,0H63.173V2.578h7.736V33.141l-2.176,1.382C65.052,36.862,55.8,42.775,48.592,47.7H33.92c-7.2-4.922-16.448-10.834-20.129-13.174L11.6,33.14V2.578H36.1V0H10.314A1.289,1.289,0,0,0,9.025,1.289V18.8L.409,27.421l-.01.01-.021.021c-.019.019-.03.044-.048.063a1.3,1.3,0,0,0-.16.217,1.379,1.379,0,0,0-.058.135,1.4,1.4,0,0,0-.071.2,1.134,1.134,0,0,0-.022.16A1.268,1.268,0,0,0,0,28.363V78.644a3.872,3.872,0,0,0,3.868,3.868H78.644a3.872,3.872,0,0,0,3.868-3.868V28.363a1.2,1.2,0,0,0-.019-.137M78.11,27.074H73.487V22.451Zm-4.623,2.578h2.954c-.829.516-1.806,1.129-2.954,1.855Zm-67.416,0H9.025v1.854c-1.147-.725-2.125-1.34-2.954-1.854m2.954-7.2v4.623H4.4ZM79.933,78.644a1.291,1.291,0,0,1-1.289,1.289H3.868a1.291,1.291,0,0,1-1.289-1.289V30.572c4.953,3,19.059,11.909,28.929,18.609L14.559,66.129l1.823,1.823L34.054,50.281h14.4L66.129,67.952l1.823-1.823L51.005,49.181c9.867-6.7,23.974-15.609,28.928-18.609Z" transform="translate(0.035 -0.776)"/>
          <rect id="Rectángulo_44254" data-name="Rectángulo 44254" width="11" height="3" transform="translate(18.996 15.488)"/>
          <rect id="Rectángulo_44255" data-name="Rectángulo 44255" width="11" height="2" transform="translate(18.996 21.488)"/>
          <rect id="Rectángulo_44256" data-name="Rectángulo 44256" width="15" height="3" transform="translate(18.996 27.488)"/>
          <rect id="Rectángulo_44257" data-name="Rectángulo 44257" width="11" height="2" transform="translate(18.996 7.488)"/>
          <path id="Trazado_172391" data-name="Trazado 172391" d="M42.76,33.52A16.76,16.76,0,1,0,26,16.76,16.78,16.78,0,0,0,42.76,33.52m0-30.942A14.182,14.182,0,1,1,28.579,16.76,14.2,14.2,0,0,1,42.76,2.578" transform="translate(7.556 -0.776)"/>
          <path id="Trazado_172392" data-name="Trazado 172392" d="M35.166,21.93l5.47-5.47,5.469,5.47,1.823-1.823-5.469-5.47,5.469-5.47L46.106,7.343l-5.469,5.47-5.47-5.47L33.343,9.166l5.47,5.47-5.47,5.47Z" transform="translate(9.68 1.348)"/>
        </g>
      </g>
    </g>
  </g>
</svg>
