<svg xmlns="http://www.w3.org/2000/svg" width="400" height="222.959" viewBox="0 0 400 222.959">
  <g id="Grupo_163919" data-name="Grupo 163919" transform="translate(-7615.666 13882.313)">
    <g id="Grupo_163726" data-name="Grupo 163726" transform="translate(6595.666 -17667.854)">
      <g id="Grupo_163721" data-name="Grupo 163721" transform="translate(1020 3785.541)">
        <rect id="Rectángulo_44002" data-name="Rectángulo 44002" width="400" height="221.701" fill="#eaf4fe"/>
        <rect id="Rectángulo_44003" data-name="Rectángulo 44003" width="400" height="26.416" fill="#c6412a"/>
        <path id="Trazado_171640" data-name="Trazado 171640" d="M117.221,27.1c0,2.91-2.673,5.289-5.99,5.289s-5.981-2.379-5.981-5.289,2.682-5.289,5.981-5.289,5.99,2.351,5.99,5.289Z" transform="translate(-95.288 -13.877)" fill="#75b52f"/>
        <path id="Trazado_171641" data-name="Trazado 171641" d="M137.212,27.1c0,2.91-2.673,5.289-5.981,5.289s-5.971-2.379-5.971-5.289,2.673-5.289,5.971-5.289,5.981,2.351,5.981,5.289Z" transform="translate(-96.332 -13.877)" fill="#dce736"/>
        <path id="Trazado_171642" data-name="Trazado 171642" d="M157.2,27.1c0,2.91-2.673,5.289-5.981,5.289s-5.981-2.379-5.981-5.289,2.682-5.289,5.981-5.289S157.2,24.161,157.2,27.1Z" transform="translate(-97.374 -13.877)" fill="#f85316"/>
      </g>
      <path id="Trazado_202687" data-name="Trazado 202687" d="M269.624,177.871h-35.2a8.556,8.556,0,0,1-8.531-8.531h0a8.556,8.556,0,0,1,8.531-8.531h35.2a8.556,8.556,0,0,1,8.531,8.531h0A8.556,8.556,0,0,1,269.624,177.871Z" transform="translate(969.117 3764.415)" fill="#c6412a"/>
      <g id="Grupo_163722" data-name="Grupo 163722" transform="translate(1027.992 3870.124)">
        <path id="Trazado_171644" data-name="Trazado 171644" d="M.873,230.138c-2.708-4.16.661-7.691,13.515-9.575a104.754,104.754,0,0,1,38.448,1.884c-26-12.6-56.319-30.292-28.637-32.339,8.629-.636,21.9,3.54,36.662,10.073-16.467-13.4-25.529-24.42-15.546-26.467,9.257-1.9,28.147,9,48.252,23.465-11.451-12.12-18.091-22.707-12.944-27.7,4.2-4.07,13.156.6,23.465,9.265-.457-7.618,2.74-12.218,10.048-11.3,6.868.865,12.438,9.681,16.41,20.26,6.59-16.4,24-26.434,41.564-21.459,20.627,5.848,4.054,45.177-5.171,63.871H.873Z" transform="translate(-0.003 -93.02)" fill="#ccbf0c"/>
        <g id="Grupo_136655" data-name="Grupo 136655" transform="translate(38.013)">
          <path id="Trazado_171645" data-name="Trazado 171645" d="M118.46,198.983l.938-.277c-6.7-22.43-18.767-55.2-38.22-83.96C69.531,97.519,60.616,89.8,60.526,89.73l-.636.742c.09.073,8.923,7.732,20.5,24.86,10.693,15.815,25.969,43.163,38.057,83.65Z" transform="translate(-47.057 -79.147)" fill="#ffef0f"/>
          <path id="Trazado_171646" data-name="Trazado 171646" d="M131.626,193.267l.979-.082c-3.793-46.7-27.348-86.856-27.584-87.255l-.84.506c.237.4,23.678,40.365,27.454,86.831Z" transform="translate(-55.223 -82.134)" fill="#ffef0f"/>
          <path id="Trazado_171647" data-name="Trazado 171647" d="M108.358,205.562l.979-.082c-1.909-22.446-11.419-36.662-19.053-44.639C82,152.187,74.029,148.8,73.955,148.77l-.375.905c.082.033,7.887,3.36,16.035,11.884,7.52,7.854,16.867,21.875,18.751,44.011Z" transform="translate(-49.581 -90.033)" fill="#ffef0f"/>
          <path id="Trazado_171648" data-name="Trazado 171648" d="M52.944,81.49c-6.427,4.527-10.155,10.3-8.319,12.911s8.531,1.052,14.959-3.475,10.155-10.3,8.319-12.911S59.371,76.971,52.944,81.49Z" transform="translate(-44.156 -76.755)" fill="#ffef0f"/>
          <path id="Trazado_171649" data-name="Trazado 171649" d="M57.079,86.161c-2.039,1.436-3.222,3.271-2.643,4.1s2.708.334,4.747-1.1,3.222-3.271,2.643-4.1S59.118,84.725,57.079,86.161Z" transform="translate(-46.025 -78.213)" fill="#ffef0f"/>
          <path id="Trazado_171650" data-name="Trazado 171650" d="M101.633,102.615c-2.675,1.884-4.225,4.29-3.466,5.375s3.556.432,6.231-1.444,4.225-4.29,3.466-5.375-3.548-.44-6.223,1.444Z" transform="translate(-54.079 -81.16)" fill="#ffef0f"/>
          <path id="Trazado_171651" data-name="Trazado 171651" d="M103.347,104.569c-.848.6-1.346,1.362-1.1,1.7s1.126.139,1.982-.457,1.338-1.362,1.1-1.7-1.126-.139-1.974.457Z" transform="translate(-54.855 -81.769)" fill="#ffef0f"/>
          <path id="Trazado_171652" data-name="Trazado 171652" d="M70.19,145.935c-2.7,3.246-3.817,6.762-2.5,7.854s4.567-.653,7.267-3.9,3.817-6.762,2.5-7.854-4.567.652-7.267,3.9Z" transform="translate(-48.393 -88.731)" fill="#ffef0f"/>
          <path id="Trazado_171653" data-name="Trazado 171653" d="M72.651,148.236c-.856,1.028-1.215,2.145-.791,2.5s1.452-.212,2.308-1.24,1.215-2.145.791-2.5S73.507,147.2,72.651,148.236Z" transform="translate(-49.231 -89.687)" fill="#ffef0f"/>
        </g>
        <path id="Trazado_171654" data-name="Trazado 171654" d="M93.7,209.2c-.114-.09-.22-.171-.334-.245.057-.024.114-.041.171-.065,1.542-.6,2.537-1.745,2.218-2.553s-1.827-.971-3.36-.367c-.131.057-.261.114-.383.171.008-.057.024-.122.033-.188.253-1.639-.245-3.067-1.1-3.2s-1.754,1.093-2,2.732c-.024.139-.033.277-.049.416l-.147-.122c-1.3-1.036-2.781-1.321-3.32-.644s.073,2.064,1.362,3.091a3.186,3.186,0,0,0,.334.245c-.057.024-.114.041-.171.065-1.542.6-2.537,1.745-2.218,2.553s1.819.971,3.36.367a2.731,2.731,0,0,0,.383-.171c-.008.065-.024.122-.033.188-.253,1.639.245,3.067,1.1,3.2s1.754-1.093,2-2.732a3.592,3.592,0,0,0,.041-.416l.147.122c1.3,1.036,2.781,1.321,3.32.644s-.073-2.064-1.362-3.1Zm-3.687,1.117a1.16,1.16,0,1,1,.008.008Z" transform="translate(-15.615 -99.985)" fill="#ffef0f"/>
      </g>
      <rect id="Rectángulo_45230" data-name="Rectángulo 45230" width="175.844" height="4.872" transform="translate(1132.705 3883.946)" fill="#c5e1f9"/>
      <rect id="Rectángulo_45231" data-name="Rectángulo 45231" width="140.234" height="4.872" transform="translate(1150.506 3897.472)" fill="#c5e1f9"/>
      <circle id="Elipse_18503" data-name="Elipse 18503" cx="17.014" cy="17.014" r="17.014" transform="translate(1200.149 3864.137) rotate(-76.72)" fill="#c6412a"/>
      <g id="Grupo_163723" data-name="Grupo 163723" transform="translate(1189.049 3804.182)">
        <g id="Grupo_136658" data-name="Grupo 136658" transform="translate(92.747)">
          <path id="Trazado_171655" data-name="Trazado 171655" d="M321.07,100.848s20.35-10.095,14.246-36.8C331.932,49.248,345.363,15.116,364.87,32.3s17.184,1.886,28.227,11.488,14.132,20.3,9.649,29.781-8.654,28.758-1.839,34.587,38.625,36.663,7.289,55.714-113.94-24.331-87.126-63.032Z" transform="translate(-315.797 -27.577)" fill="#212957"/>
          <g id="Grupo_136657" data-name="Grupo 136657" transform="translate(30.973 20.457)">
            <path id="Trazado_171656" data-name="Trazado 171656" d="M377.941,74.5l-4.208,45.3-23.213-1.564L359.534,88Z" transform="translate(-348.581 -50.482)" fill="#f7b68b"/>
            <path id="Trazado_171657" data-name="Trazado 171657" d="M357.01,98.131c.54-.2,1.109-.445,1.725-.739a83.7,83.7,0,0,0,18.142-11.715l1.45-13.7L359.9,86.463,357.01,98.131Z" transform="translate(-348.919 -50.35)" fill="#ec9568"/>
            <path id="Trazado_171658" data-name="Trazado 171658" d="M354.157,49.16s-6.606,14.379-5.573,24.369-1.81,16.587,8.787,15.26,23.658-5.317,27.658-9.469,2.787-12.189-4.18-11.1-4.929-3.261-11.1-4.426-16.663-5.886-15.6-14.635Z" transform="translate(-348.474 -49.16)" fill="#f7b68b"/>
          </g>
        </g>
        <path id="Trazado_171659" data-name="Trazado 171659" d="M394.605,230.233l-5.725,1.905-1.27-7.943s4.768-1.27,7,6.038Z" transform="translate(-226.795 -37.827)" fill="#ec9568"/>
        <path id="Trazado_171660" data-name="Trazado 171660" d="M337.7,118.677a20.351,20.351,0,0,0-13.981,2.967c-7,4.445-27.45,45.847-27.45,45.847L287.85,182.23s6.218,10.218,11.052,8.948c19.9-5.232,38.8-68.681,38.8-72.5Z" transform="translate(-221.592 -32.316)" fill="#515fab"/>
        <path id="Trazado_171661" data-name="Trazado 171661" d="M327.359,120.036l61.657-15.886,11.44,39.705s-7.63,19.194-16.53,29.781-11.44,54.861-9.535,59.5-67.382,2.313-69.288.986,5.725-34.672,10.17-53.866-7-30.445,12.076-60.226Z" transform="translate(-222.476 -31.571)" fill="#6677d6"/>
        <path id="Trazado_171662" data-name="Trazado 171662" d="M393.547,104.006s7-7,13.981,1.905,46.407,54.672,46.407,54.672,7,14.625,2.54,20.341a14.758,14.758,0,0,1-10.805,5.725s-4.445-13.981-13.981-13.981,1.905-6.36,1.905-6.36-28.606-16.53-33.7-29.241-11.44-30.511-6.36-33.051Z" transform="translate(-227.007 -31.427)" fill="#515fab"/>
        <path id="Trazado_171663" data-name="Trazado 171663" d="M431.162,176.534,388.575,197.51l-7,12.076,5.725,16.53s1.374-1.2,3.081-3.043c2.938-3.156,6.853-8.2,6.455-12.218-.635-6.36,48.312-12.711,53.4-21.611s-15.9-16.53-19.071-12.711Z" transform="translate(-226.481 -35.293)" fill="#f7b68b"/>
        <g id="Grupo_136659" data-name="Grupo 136659" transform="translate(0 86.439)">
          <path id="Trazado_171664" data-name="Trazado 171664" d="M293.818,169.687c-3.261-6.8-35.563-29.127-35.563-29.127l-7.185.929s19.346,27.4,25.582,34.1,11.687,12.341,13.526,12.616,6.256-13.061,3.64-18.511Z" transform="translate(-219.674 -119.908)" fill="#f7b68b"/>
          <path id="Trazado_171665" data-name="Trazado 171665" d="M263.674,145.575s-.692-10.1-1.858-14.767-9.109-8.2-9.9-11.061c-.521-1.9-4.142-1-2.976,2.493s5.611,9.649,5.611,9.649-13.071.569-19.478-3.507-14.388-5.791-16.929-4.559c-1.877.91,9.914,6.834,9.914,6.834l12.8,7.715,16.5,12.985,6.313-5.791Z" transform="translate(-217.946 -118.772)" fill="#f7b68b"/>
          <path id="Trazado_171666" data-name="Trazado 171666" d="M227.736,128.865s-6.663-1.4-8.6-.531.531,1.934.531,1.934,13.507,3.156,14.559,3.687-6.493-5.09-6.493-5.09Z" transform="translate(-217.97 -119.256)" fill="#f7b68b"/>
          <path id="Trazado_171667" data-name="Trazado 171667" d="M237.847,133.313s-12.455-1.052-13.687-.531,4.389,2.284,4.389,2.284,8.948,1.583,10,1.232-.7-2.986-.7-2.986Z" transform="translate(-218.261 -119.495)" fill="#f7b68b"/>
        </g>
      </g>
    </g>
  </g>
</svg>
