<svg xmlns="http://www.w3.org/2000/svg" xmlns:xlink="http://www.w3.org/1999/xlink" width="150" height="150" viewBox="0 0 150 150">
  <defs>
    <clipPath id="clip-path">
      <rect id="Rectángulo_44251" data-name="Rectángulo 44251" width="82" height="83" transform="translate(0.21 0.168)" fill="none"/>
    </clipPath>
  </defs>
  <g id="Grupo_163932" data-name="Grupo 163932" transform="translate(-9013.203 13322.473)">
    <g id="Grupo_137065" data-name="Grupo 137065" transform="translate(8203.203 -15783.504)">
      <g id="Grupo_136567" data-name="Grupo 136567" transform="translate(810 2461.031)">
        <path id="Trazado_170463" data-name="Trazado 170463" d="M75,0A75,75,0,1,1,0,75,75,75,0,0,1,75,0Z" fill="#fff"/>
      </g>
      <g id="Grupo_136948" data-name="Grupo 136948" transform="translate(843.79 2494.863)">
        <g id="Grupo_136947" data-name="Grupo 136947" transform="translate(0 0)" clip-path="url(#clip-path)">
          <path id="Trazado_172353" data-name="Trazado 172353" d="M69.919,33.231l.155.232c-6.962,4.4-16.58,10.6-23.361,15.239H31.241c-6.769-4.641-16.4-10.855-23.361-15.226l.155-.245V1H69.919V33.231Z" transform="translate(1.796 0.639)" fill="#f1f2f2"/>
          <path id="Trazado_172354" data-name="Trazado 172354" d="M56,22h9.012c-.168,0-3.816,2.218-8.857,5.389L56,27.157Z" transform="translate(15.714 6.713)" fill="#fdb51e"/>
          <path id="Trazado_172355" data-name="Trazado 172355" d="M10.022,22v5.157l-.155.245C4.826,24.218,1.178,22,1.01,22Z" transform="translate(-0.192 6.713)" fill="#fdb51e"/>
          <path id="Trazado_172356" data-name="Trazado 172356" d="M56,15l9.012,9.025H56Z" transform="translate(15.714 4.689)" fill="#ffd311"/>
          <path id="Trazado_172357" data-name="Trazado 172357" d="M10.022,15v9.025H1.01Z" transform="translate(-0.192 4.689)" fill="#ffd311"/>
          <path id="Trazado_172358" data-name="Trazado 172358" d="M33.231,42.628H48.7c6.781-4.641,16.4-10.843,23.361-15.239C77.1,24.218,80.753,22,80.921,22h.013V72.281a2.586,2.586,0,0,1-2.578,2.578H3.578A2.586,2.586,0,0,1,1,72.281V22h.013c.168,0,3.816,2.218,8.857,5.4,6.962,4.371,16.593,10.585,23.361,15.226" transform="translate(-0.194 6.713)" fill="#b0a2cd"/>
          <path id="Trazado_172359" data-name="Trazado 172359" d="M42.471,1A15.471,15.471,0,1,1,27,16.471,15.467,15.467,0,0,1,42.471,1" transform="translate(7.326 0.639)" fill="#ffef0f"/>
          <path id="Trazado_172360" data-name="Trazado 172360" d="M82.494,28.229a1.453,1.453,0,0,0-.023-.165,1.333,1.333,0,0,0-.07-.193,1.033,1.033,0,0,0-.061-.139,1.279,1.279,0,0,0-.153-.209c-.019-.022-.031-.05-.053-.071l-.022-.022-.006-.008L73.487,18.8V1.289A1.288,1.288,0,0,0,72.2,0H63.173V2.578h7.736V33.141l-2.176,1.382c-3.681,2.339-12.927,8.25-20.141,13.179H33.92c-7.2-4.922-16.448-10.834-20.13-13.174L11.6,33.14V2.578H36.1V0H10.314A1.288,1.288,0,0,0,9.025,1.289V18.8L.409,27.421l-.01.01-.021.021c-.019.019-.03.044-.048.063a1.381,1.381,0,0,0-.16.217,1.412,1.412,0,0,0-.059.137,1.327,1.327,0,0,0-.07.2,1.353,1.353,0,0,0-.023.164c0,.045-.018.088-.018.134V78.644a3.872,3.872,0,0,0,3.868,3.868H78.644a3.872,3.872,0,0,0,3.868-3.868V28.363c0-.046-.014-.089-.018-.134M78.11,27.074H73.487V22.451Zm-4.623,2.578h2.954c-.829.516-1.806,1.129-2.954,1.855Zm-67.415,0H9.025v1.854c-1.146-.725-2.125-1.34-2.952-1.854m2.952-7.2v4.623H4.4ZM79.933,78.644a1.29,1.29,0,0,1-1.289,1.289H3.868a1.29,1.29,0,0,1-1.289-1.289V30.572c4.953,3,19.059,11.909,28.928,18.609L14.559,66.129l1.823,1.823L34.054,50.281h14.4L66.129,67.952l1.823-1.823L51.005,49.182c9.868-6.7,23.974-15.61,28.928-18.61Z" transform="translate(-0.484 0.35)"/>
          <rect id="Rectángulo_44247" data-name="Rectángulo 44247" width="13" height="2" transform="translate(17.21 16.168)"/>
          <rect id="Rectángulo_44248" data-name="Rectángulo 44248" width="13" height="3" transform="translate(17.21 22.168)"/>
          <rect id="Rectángulo_44249" data-name="Rectángulo 44249" width="16" height="2" transform="translate(17.21 29.168)"/>
          <rect id="Rectángulo_44250" data-name="Rectángulo 44250" width="13" height="3" transform="translate(17.21 10.168)"/>
          <path id="Trazado_172361" data-name="Trazado 172361" d="M42.76,33.52A16.76,16.76,0,1,0,26,16.76,16.78,16.78,0,0,0,42.76,33.52m0-30.942A14.182,14.182,0,1,1,28.579,16.76,14.2,14.2,0,0,1,42.76,2.578" transform="translate(7.037 0.35)"/>
          <path id="Trazado_172362" data-name="Trazado 172362" d="M40.362,24.339a1.286,1.286,0,0,0,.911-.378L46.43,18.8l-1.823-1.823-2.956,2.956V5H39.072V19.937l-2.956-2.956L34.293,18.8l5.157,5.157a1.286,1.286,0,0,0,.912.378" transform="translate(9.436 1.796)"/>
        </g>
      </g>
    </g>
  </g>
</svg>
