<svg xmlns="http://www.w3.org/2000/svg" width="68.109" height="92.771" viewBox="0 0 68.109 92.771">
  <g id="Grupo_163865" data-name="Grupo 163865" transform="translate(7980.354 10083.125)">
    <g id="Grupo_112832" data-name="Grupo 112832" transform="translate(-8196.684 -10196.465)">
      <path id="Trazado_161084" data-name="Trazado 161084" d="M272.284,113.34a17.844,17.844,0,0,1,3.694,2.841c2.57,2.193,5.114,4.419,7.673,6.625a2.2,2.2,0,0,1,.787,1.816q-.029,35.96-.016,71.92a3.106,3.106,0,0,1-3.42,3.4c-.664,0-1.333.051-1.991-.014s-.807.2-.766.807c.053.781.029,1.57.008,2.354a3.051,3.051,0,0,1-3.077,3.014q-24.771.009-49.543,0a2.941,2.941,0,0,1-3.009-2.671,24.121,24.121,0,0,1-.065-2.893c.007-.461-.112-.636-.6-.609-.752.042-1.509.014-2.264.01a3.155,3.155,0,0,1-3.344-3.16c-.009-.15,0-.3,0-.453q-.012-34.149-.017-68.3c0-1.327.11-2.653.153-3.98a1.63,1.63,0,0,1,.616-1.248q5.092-4.352,10.182-8.708a10.675,10.675,0,0,1,1.157-.759Zm-3.246,43.272c.784.011,1.57-.012,2.351.043.587.042.7-.2.7-.731q-.023-10.1,0-20.2c0-.63-.224-.766-.785-.756-1.055.02-2.111-.029-3.168-.029q-19.2,0-38.4,0c-.29,0-.6-.106-.874.095a.5.5,0,0,0-.067.167q-.009,10.459-.022,20.918c0,.483.213.524.6.522q3.893-.017,7.787,0a.675.675,0,0,0,.782-.536c.285-.883.654-1.739.981-2.61.894-2.382,2.523-3.065,4.841-2.032q5.551,2.473,11.1,4.939a2.039,2.039,0,0,0,.857.238Q262.384,156.619,269.038,156.612ZM272.122,203c.784.011,1.57-.011,2.351.043.572.039.706-.172.7-.719q-.024-11.681,0-23.362c0-.578-.2-.716-.736-.7-1.055.024-2.112-.022-3.168-.022q-22.319,0-44.639,0c-.287,0-.6-.12-.865.107-.024.3-.068.6-.068.894,0,7.608.01,15.217-.023,22.825,0,.788.176.986.978.985q22.279-.042,44.559-.022C271.519,203.026,271.821,203.007,272.122,203Zm-35.588-43.2a1.559,1.559,0,0,0-.264-.066c-2.325,0-4.654-.1-6.972.021a3.341,3.341,0,0,1-3.643-3.6q.128-10.279,0-20.561a3.466,3.466,0,0,1,3.79-3.764c13.978.048,27.956.025,41.935.025.241,0,.484-.012.724.006a3.113,3.113,0,0,1,3.06,3.089q.038,10.869,0,21.739a3.06,3.06,0,0,1-3.17,3.037c-2.808.01-5.615,0-8.423,0h-.85c1.835.967,3.694,1.8,5.556,2.62a3.013,3.013,0,0,1,1.984,2.776c.02.647.2.866.817.774a4.221,4.221,0,0,1,.633,0,3.162,3.162,0,0,1,3.464,3.5q.006,2.536,0,5.072c0,.381.013.636.5.779a3.23,3.23,0,0,1,2.643,3.566q0,8.016,0,16.033c0,1.947,0,1.9,1.9,1.967.878.033,1.087-.21,1.086-1.086q-.04-34.465-.021-68.931a2.6,2.6,0,0,1,0-.362c.072-.509-.132-.682-.651-.674-1.085.016-2.17-.05-3.256-.051q-28.394-.006-56.789-.024c-.9,0-1.075.259-1.074,1.109q.036,34.058.019,68.116c0,1.942,0,1.893,1.921,1.962.9.032,1.171-.193,1.163-1.135-.048-5.736-.03-11.473-.02-17.21a2.959,2.959,0,0,1,2.5-3.265.683.683,0,0,0,.6-.8q-.039-2.672-.005-5.344a3.054,3.054,0,0,1,3.255-3.211c1.54-.01,3.08,0,4.619,0,.319,0,.67.088.83-.347C235.1,163.628,235.818,161.719,236.534,159.8Zm13.058,15.355c4.857,0,9.715-.015,14.572.018.647,0,.866-.195.994-.8.593-2.793,1.227-5.578,1.862-8.361.124-.544.021-.818-.554-1.071q-11.879-5.232-23.721-10.551c-.7-.314-.836-.087-1.044.472q-3.619,9.711-7.281,19.406c-.322.847-.056.905.69.9C239.937,175.14,244.764,175.154,249.592,175.154Zm26.84-52.613c-2.2-1.887-4.243-3.577-6.209-5.35a2.973,2.973,0,0,0-2.2-.765q-18.378.031-36.756-.012a3.893,3.893,0,0,0-3.3,1.22,13.043,13.043,0,0,1-1.44,1.235c-1.384,1.188-2.764,2.38-4.265,3.673Zm-8.268,52.614c1.174,0,2.227-.024,3.277.01.526.017.667-.178.655-.679-.03-1.2-.01-2.41-.01-3.614,0-2.054,0-2.044-2.049-1.909-.352.023-.566.112-.642.472C269,171.308,268.59,173.18,268.164,175.154Zm-39.374-3.148c0,.781-.022,1.564.012,2.344.012.276-.226.805.3.772.622-.04,1.478.461,1.837-.4.713-1.708,1.316-3.462,1.973-5.194.178-.469-.018-.57-.45-.562q-1.577.027-3.155,0c-.389-.007-.533.124-.523.517C228.8,170.323,228.791,171.165,228.79,172.007Z" fill="#070808"/>
      <path id="Trazado_161085" data-name="Trazado 161085" d="M248.729,207.076c-.717,1.92-1.435,3.829-2.14,5.742-.16.435-.512.346-.83.347-1.54,0-3.08-.006-4.619,0a3.054,3.054,0,0,0-3.255,3.211q-.031,2.672.005,5.344a.683.683,0,0,1-.6.8,2.959,2.959,0,0,0-2.5,3.265c-.01,5.737-.028,11.474.02,17.21.008.942-.261,1.168-1.163,1.135-1.919-.069-1.921-.02-1.921-1.962q0-34.058-.019-68.116c0-.85.175-1.111,1.074-1.109q28.395.043,56.789.024c1.085,0,2.171.067,3.256.051.518-.008.723.165.651.674a2.607,2.607,0,0,0,0,.362q0,34.466.021,68.931c0,.876-.208,1.119-1.086,1.086-1.9-.071-1.9-.02-1.9-1.967q0-8.017,0-16.033a3.23,3.23,0,0,0-2.643-3.566c-.487-.143-.5-.4-.5-.779q.012-2.536,0-5.072a3.162,3.162,0,0,0-3.464-3.5,4.226,4.226,0,0,0-.633,0c-.618.092-.8-.127-.817-.774a3.013,3.013,0,0,0-1.984-2.776c-1.862-.823-3.721-1.653-5.556-2.62h.85c2.808,0,5.615.007,8.423,0a3.06,3.06,0,0,0,3.17-3.037q.039-10.87,0-21.739a3.113,3.113,0,0,0-3.06-3.089c-.24-.018-.483-.006-.724-.006-13.978,0-27.957.023-41.935-.025a3.466,3.466,0,0,0-3.79,3.764q.147,10.279,0,20.561a3.341,3.341,0,0,0,3.643,3.6c2.318-.123,4.648-.025,6.972-.021A1.56,1.56,0,0,1,248.729,207.076Z" transform="translate(-12.195 -47.277)" fill="#6677d6"/>
      <path id="Trazado_161086" data-name="Trazado 161086" d="M307.956,452.1c-.3.01-.6.029-.9.029q-22.279,0-44.559.022c-.8,0-.982-.2-.978-.985.033-7.608.019-15.216.023-22.825,0-.3.044-.6.068-.894.362.01.723.026,1.085.026q22.139,0,44.278-.011c.687,0,1.017.089,1.013.912C307.948,436.288,307.958,444.2,307.956,452.1ZM267.7,439.721a4.6,4.6,0,0,0,8.652,2.251,1.154,1.154,0,0,1,1.254-.7q8.647.023,17.295,0a1.177,1.177,0,0,1,1.248.718,4.515,4.515,0,0,0,5.05,2.275,4.619,4.619,0,0,0,.173-8.976,4.541,4.541,0,0,0-5.224,2.227,1.127,1.127,0,0,1-1.173.695q-8.738-.037-17.476,0a1.082,1.082,0,0,1-1.158-.685,4.6,4.6,0,0,0-8.642,2.2Z" transform="translate(-35.834 -249.108)" fill="#e7eaf8"/>
      <path id="Trazado_161087" data-name="Trazado 161087" d="M316.747,239.778q-6.654.015-13.308.037a2.039,2.039,0,0,1-.857-.238q-5.554-2.466-11.1-4.939c-2.318-1.033-3.947-.35-4.841,2.032-.327.87-.7,1.726-.981,2.61a.675.675,0,0,1-.782.536q-3.894-.022-7.787,0c-.386,0-.6-.039-.6-.522q.026-10.459.022-20.918a.5.5,0,0,1,.067-.166c.361.012.722.032,1.084.032q19.019,0,38.039-.015c.8,0,1.1.165,1.077,1.035-.061,2.565-.018,5.132-.027,7.7,0,.319.11.672-.177.942a4.461,4.461,0,0,0-3.826-3.48,4.4,4.4,0,0,0-4.881,2.612c-.241.483-.588.421-.969.421-5.825,0-11.65-.008-17.476.013a1.111,1.111,0,0,1-1.178-.69,4.608,4.608,0,0,0-8.664,2.4,4.61,4.61,0,0,0,8.689,1.979c.194-.359.326-.619.831-.617q9.01.034,18.019.01a.728.728,0,0,1,.772.446,4.4,4.4,0,0,0,4.561,2.6,4.49,4.49,0,0,0,4.132-3.6c.255.245.168.563.168.854Q316.756,235.308,316.747,239.778Z" transform="translate(-47.709 -83.167)" fill="#e7eaf8"/>
      <path id="Trazado_161088" data-name="Trazado 161088" d="M318.4,331.914c-4.827,0-9.654-.013-14.481.014-.746,0-1.012-.054-.69-.9q3.68-9.688,7.281-19.406c.208-.559.347-.786,1.044-.472q11.838,5.327,23.721,10.551c.575.253.678.527.554,1.071-.635,2.784-1.269,5.568-1.862,8.361-.129.605-.348.8-.994.8C328.117,331.9,323.26,331.914,318.4,331.914Z" transform="translate(-68.811 -156.761)" fill="#ffef0f"/>
      <path id="Trazado_161089" data-name="Trazado 161089" d="M299.183,134.316H245.018c1.5-1.293,2.881-2.485,4.265-3.673a13.042,13.042,0,0,0,1.44-1.235,3.893,3.893,0,0,1,3.3-1.22q18.378.068,36.756.012a2.973,2.973,0,0,1,2.2.765C294.94,130.739,296.981,132.43,299.183,134.316Z" transform="translate(-22.751 -11.776)" fill="#b0c0d2"/>
      <path id="Trazado_161090" data-name="Trazado 161090" d="M308.3,451.572c0-7.909-.008-15.817.025-23.725,0-.823-.326-.912-1.013-.912q-22.139.023-44.278.011c-.362,0-.723-.017-1.085-.026.264-.227.579-.107.865-.108q22.319-.011,44.639,0c1.056,0,2.112.046,3.168.022.532-.012.737.127.736.7q-.026,11.681,0,23.362c0,.547-.133.758-.7.719C309.873,451.561,309.087,451.582,308.3,451.572Z" transform="translate(-36.181 -248.575)" fill="#d1d4e2"/>
      <path id="Trazado_161091" data-name="Trazado 161091" d="M316.915,227.431c.287-.27.175-.624.177-.942.009-2.566-.034-5.134.026-7.7.02-.87-.277-1.037-1.077-1.035q-19.019.034-38.039.015c-.362,0-.723-.021-1.084-.032.272-.2.584-.095.874-.1q19.2-.01,38.4,0c1.056,0,2.112.049,3.168.029.561-.01.787.126.785.756q-.035,10.1,0,20.2c0,.531-.109.773-.7.731-.781-.055-1.567-.032-2.351-.043q0-4.47,0-8.94c0-.291.087-.609-.169-.853A4.9,4.9,0,0,0,316.915,227.431Z" transform="translate(-48.05 -82.696)" fill="#d1d4e2"/>
      <path id="Trazado_161092" data-name="Trazado 161092" d="M466.8,388.118c.426-1.974.832-3.846,1.231-5.719.077-.36.29-.449.642-.472,2.05-.135,2.049-.145,2.049,1.909,0,1.2-.02,2.41.01,3.614.013.5-.128.7-.655.679C469.029,388.094,467.976,388.118,466.8,388.118Z" transform="translate(-198.638 -212.964)" fill="#4e2e8e"/>
      <path id="Trazado_161093" data-name="Trazado 161093" d="M276.419,385.173c0-.841.015-1.683-.006-2.524-.01-.393.134-.524.523-.517q1.577.03,3.155,0c.432-.007.628.094.45.563-.657,1.732-1.259,3.486-1.973,5.194-.359.861-1.215.36-1.837.4-.527.033-.289-.5-.3-.772C276.4,386.736,276.418,385.954,276.419,385.173Z" transform="translate(-47.628 -213.166)" fill="#4e2e8e"/>
      <path id="Trazado_161094" data-name="Trazado 161094" d="M291.41,469.125a4.6,4.6,0,0,1,8.642-2.2,1.082,1.082,0,0,0,1.158.685q8.738-.028,17.476,0a1.127,1.127,0,0,0,1.173-.695,4.541,4.541,0,0,1,5.224-2.227,4.619,4.619,0,0,1-.173,8.976,4.515,4.515,0,0,1-5.05-2.275,1.177,1.177,0,0,0-1.248-.718q-8.647.027-17.295,0a1.154,1.154,0,0,0-1.254.7,4.6,4.6,0,0,1-8.652-2.251Zm6.172.151a1.544,1.544,0,0,0-3.076-.284,1.511,1.511,0,0,0,1.388,1.68A1.534,1.534,0,0,0,297.582,469.276Zm24.783-.158a1.441,1.441,0,0,0,1.487,1.558,1.518,1.518,0,0,0,1.549-1.531,1.6,1.6,0,0,0-1.476-1.549A1.517,1.517,0,0,0,322.365,469.118Z" transform="translate(-59.542 -278.512)" fill="#070808"/>
      <path id="Trazado_161095" data-name="Trazado 161095" d="M328.415,251.381a4.894,4.894,0,0,1,.009,2.083,4.49,4.49,0,0,1-4.132,3.6,4.4,4.4,0,0,1-4.561-2.6.728.728,0,0,0-.772-.446q-9.01.01-18.019-.01c-.5,0-.637.258-.831.617a4.61,4.61,0,0,1-8.689-1.979,4.608,4.608,0,0,1,8.664-2.4,1.111,1.111,0,0,0,1.178.69c5.825-.02,11.651-.012,17.476-.013.381,0,.728.062.969-.421a4.4,4.4,0,0,1,4.881-2.612A4.461,4.461,0,0,1,328.415,251.381Zm-32.345-.432a1.463,1.463,0,0,0-1.559,1.5,1.606,1.606,0,0,0,1.555,1.564,1.627,1.627,0,0,0,1.524-1.514A1.483,1.483,0,0,0,296.07,250.948Zm27.8,0a1.437,1.437,0,0,0-1.5,1.542,1.533,1.533,0,0,0,1.467,1.522,1.612,1.612,0,0,0,1.573-1.539A1.521,1.521,0,0,0,323.867,250.95Z" transform="translate(-59.55 -106.645)" fill="#070808"/>
      <path id="Trazado_161096" data-name="Trazado 161096" d="M309.412,481.033a1.534,1.534,0,0,1-1.687,1.4,1.511,1.511,0,0,1-1.388-1.68,1.544,1.544,0,0,1,3.076.284Z" transform="translate(-71.372 -290.269)" fill="#20418f"/>
      <path id="Trazado_161097" data-name="Trazado 161097" d="M440.987,480.867a1.517,1.517,0,0,1,1.561-1.521,1.6,1.6,0,0,1,1.476,1.549,1.518,1.518,0,0,1-1.549,1.531A1.441,1.441,0,0,1,440.987,480.867Z" transform="translate(-178.165 -290.261)" fill="#20418f"/>
      <path id="Trazado_161098" data-name="Trazado 161098" d="M307.921,262.959a1.483,1.483,0,0,1,1.52,1.554,1.627,1.627,0,0,1-1.524,1.514,1.606,1.606,0,0,1-1.555-1.564A1.463,1.463,0,0,1,307.921,262.959Z" transform="translate(-71.4 -118.656)" fill="#20418f"/>
      <path id="Trazado_161099" data-name="Trazado 161099" d="M442.481,262.967a1.521,1.521,0,0,1,1.544,1.525,1.612,1.612,0,0,1-1.573,1.539,1.533,1.533,0,0,1-1.467-1.522A1.437,1.437,0,0,1,442.481,262.967Z" transform="translate(-178.163 -118.662)" fill="#20418f"/>
    </g>
  </g>
</svg>
