<svg xmlns="http://www.w3.org/2000/svg" width="140.69" height="140.69" viewBox="0 0 140.69 140.69">
  <g id="Grupo_163920" data-name="Grupo 163920" transform="translate(-7613.261 13561.259)">
    <g id="Grupo_137041" data-name="Grupo 137041" transform="translate(7350.166 -17765.354)">
      <circle id="Elipse_6059" data-name="Elipse 6059" cx="56.5" cy="56.5" r="56.5" transform="translate(265.5 4316.495) rotate(-76.758)" fill="#fff" stroke="#6677d6" stroke-width="4"/>
      <g id="Grupo_136749" data-name="Grupo 136749" transform="translate(306 4238)">
        <g id="Capa_1" data-name="Capa 1">
          <g id="Grupo_113038" data-name="Grupo 113038">
            <g id="Grupo_113036" data-name="Grupo 113036">
              <rect id="Rectángulo_41668" data-name="Rectángulo 41668" width="52.638" height="70.154" rx="5.204" transform="translate(1.319 1.319)" fill="#fff"/>
              <path id="Trazado_163412" data-name="Trazado 163412" d="M50.084,72.794H5.193A5.2,5.2,0,0,1,0,67.6V5.193A5.2,5.2,0,0,1,5.193,0H50.084a5.2,5.2,0,0,1,5.193,5.193V67.6A5.2,5.2,0,0,1,50.084,72.794ZM5.193,2.637A2.556,2.556,0,0,0,2.64,5.191V67.6a2.556,2.556,0,0,0,2.554,2.554H50.084A2.556,2.556,0,0,0,52.638,67.6V5.193A2.556,2.556,0,0,0,50.084,2.64H5.193Z" fill="#12263f"/>
              <path id="Trazado_163413" data-name="Trazado 163413" d="M43.208,12.534H18.368a1.319,1.319,0,0,1,0-2.637h24.84a1.319,1.319,0,0,1,0,2.637Z" transform="translate(-3.26 -1.892)" fill="#12263f"/>
              <path id="Trazado_163414" data-name="Trazado 163414" d="M43.208,55.44H18.368a1.319,1.319,0,0,1,0-2.637h24.84a1.319,1.319,0,0,1,0,2.637Z" transform="translate(-3.26 -10.095)" fill="#12263f"/>
              <path id="Trazado_163415" data-name="Trazado 163415" d="M47.238,23.26H11.844a1.319,1.319,0,0,1,0-2.637H47.238a1.319,1.319,0,0,1,0,2.637Z" transform="translate(-2.012 -3.943)" fill="#12263f"/>
              <path id="Trazado_163416" data-name="Trazado 163416" d="M47.238,33.987H11.844a1.319,1.319,0,1,1,0-2.637H47.238a1.319,1.319,0,0,1,0,2.637Z" transform="translate(-2.012 -5.994)" fill="#12263f"/>
              <path id="Trazado_163417" data-name="Trazado 163417" d="M11.844,42.076H47.238a1.319,1.319,0,0,1,0,2.637H11.844a1.319,1.319,0,0,1,0-2.637Z" transform="translate(-2.012 -8.044)" fill="#12263f"/>
            </g>
          </g>
        </g>
        <g id="Grupo_136696" data-name="Grupo 136696" transform="translate(30.03 19.71)">
          <g id="Grupo_116269" data-name="Grupo 116269" transform="translate(3.755 25.161)">
            <g id="Grupo_116249" data-name="Grupo 116249" transform="translate(0 0)">
              <g id="Capa_1-2" data-name="Capa 1">
                <g id="Grupo_116248" data-name="Grupo 116248" transform="translate(0 0)">
                  <path id="Trazado_170940" data-name="Trazado 170940" d="M27.291,41.7a7.386,7.386,0,0,0-14.771.13,7.5,7.5,0,0,0,2.954,5.887,3.161,3.161,0,0,1,1.2,2.508v3.084a3.273,3.273,0,0,0,3.058,3.3,3.217,3.217,0,0,0,3.384-3.186V50.265A3.226,3.226,0,0,1,24.4,47.694a7.312,7.312,0,0,0,2.891-6Z" transform="translate(-11.825 -33.761)" fill="#ffef0f"/>
                  <path id="Trazado_170941" data-name="Trazado 170941" d="M31.88,106.552a2.5,2.5,0,0,1,.132,1.08v3.084a3.3,3.3,0,0,0,3.088,3.3,3.245,3.245,0,0,0,3.416-3.186v-3.151a2.35,2.35,0,0,1,.251-1.124H31.88Z" transform="translate(-27.242 -91.168)" fill="#c6412a"/>
                  <path id="Trazado_170942" data-name="Trazado 170942" d="M32.538,112.007h0c-.065,0-.108,0-.173,0a4,4,0,0,1-3.726-3.993v-3.084c0-.1-.022-.2-.018-.291a2.2,2.2,0,0,0-.018-.407.754.754,0,0,1,0-.7.71.71,0,0,1,.6-.377h6.887a.75.75,0,0,1,.607,1.116,1.54,1.54,0,0,0-.161.7v3.151a3.843,3.843,0,0,1-1.2,2.754,4.021,4.021,0,0,1-2.8,1.133Zm-2.548-7.464c0,.116.022.081.022.11,0,.081.02.189.02.273v3.084a2.551,2.551,0,0,0,4.345,1.868,2.452,2.452,0,0,0,.766-1.756v-3.151a2.507,2.507,0,0,1-.02-.428H29.992Z" transform="translate(-24.563 -88.461)"/>
                  <path id="Trazado_170943" data-name="Trazado 170943" d="M17.181,54.586h0c-.065,0-.132,0-.2,0a3.956,3.956,0,0,1-3.72-3.993V47.506a2.482,2.482,0,0,0-.931-1.958A8.225,8.225,0,0,1,9.11,39.109a8.092,8.092,0,0,1,8.1-8.069c.159,0,.32,0,.481.014a8.094,8.094,0,0,1,7.59,7.91,7.969,7.969,0,0,1-3.168,6.57A2.54,2.54,0,0,0,21.1,47.548V50.7a3.845,3.845,0,0,1-1.157,2.752,3.908,3.908,0,0,1-2.76,1.135ZM17.2,32.435a6.7,6.7,0,0,0-6.7,6.675,6.82,6.82,0,0,0,2.683,5.335,3.879,3.879,0,0,1,1.473,3.06V50.59a2.564,2.564,0,0,0,2.4,2.6,2.516,2.516,0,0,0,1.911-.729,2.459,2.459,0,0,0,.741-1.76V47.55a3.943,3.943,0,0,1,1.56-3.127,6.589,6.589,0,0,0,2.614-5.433A6.7,6.7,0,0,0,17.6,32.448c-.132-.008-.267-.012-.4-.012Z" transform="translate(-9.11 -31.04)"/>
                  <path id="Trazado_170944" data-name="Trazado 170944" d="M46.347,88.995a.7.7,0,0,1-.7-.7V84.7a.7.7,0,1,1,1.393,0v3.6A.7.7,0,0,1,46.347,88.995Z" transform="translate(-38.207 -73.212)"/>
                </g>
              </g>
              <line id="Línea_616" data-name="Línea 616" x2="6.022" transform="translate(5.072 19.151)" fill="none" stroke="#000" stroke-width="3"/>
            </g>
          </g>
        </g>
      </g>
    </g>
  </g>
</svg>
