<svg xmlns="http://www.w3.org/2000/svg" width="339.2" height="290.619" viewBox="0 0 339.2 290.619">
  <g id="Grupo_163863" data-name="Grupo 163863" transform="translate(8185.804 10467.431)">
    <g id="Grupo_112818" data-name="Grupo 112818" transform="translate(-8725.117 -13049.535)">
      <g id="Grupo_112812" data-name="Grupo 112812" transform="translate(539.313 2570.799)">
        <path id="Trazado_161034" data-name="Trazado 161034" d="M1115.243,3011.343a6.09,6.09,0,0,1-.655-.036L970.5,2995.192a5.849,5.849,0,0,1-5.15-6.447l21.211-189.672a5.85,5.85,0,0,1,6.447-5.15l144.091,16.113a5.85,5.85,0,0,1,5.15,6.448l-21.211,189.672a5.854,5.854,0,0,1-5.793,5.187ZM992.354,2795.291a4.448,4.448,0,0,0-4.4,3.938L966.744,2988.9a4.445,4.445,0,0,0,3.91,4.894l144.091,16.113a4.443,4.443,0,0,0,4.894-3.91l21.21-189.673a4.445,4.445,0,0,0-3.91-4.895l-144.091-16.113A4.328,4.328,0,0,0,992.354,2795.291Z" transform="translate(-817.206 -2716.326)" fill="#444"/>
        <g id="Grupo_112807" data-name="Grupo 112807" transform="translate(135.224 66.24)">
          <rect id="Rectángulo_40724" data-name="Rectángulo 40724" width="201.119" height="155.254" rx="14.762" transform="matrix(0.271, -0.963, 0.963, 0.271, 0, 193.583)" fill="#4e2e8e"/>
          <path id="Trazado_161035" data-name="Trazado 161035" d="M1237.154,2898.984,1169.4,2879.9a3.807,3.807,0,0,1-2.625-4.684h0a3.807,3.807,0,0,1,4.684-2.624l67.753,19.088a3.808,3.808,0,0,1,2.625,4.684h0A3.809,3.809,0,0,1,1237.154,2898.984Z" transform="translate(-1083.761 -2833.813)" fill="#b3cef6"/>
          <path id="Trazado_161036" data-name="Trazado 161036" d="M1202.859,2955.29l-106.724-30.068a3.808,3.808,0,0,1-2.625-4.684h0a3.808,3.808,0,0,1,4.684-2.625l106.724,30.068a3.808,3.808,0,0,1,2.625,4.684h0A3.807,3.807,0,0,1,1202.859,2955.29Z" transform="translate(-1035.967 -2863.381)" fill="#b3cef6"/>
          <path id="Trazado_161037" data-name="Trazado 161037" d="M1189.224,3003.685,1082.5,2973.617a3.808,3.808,0,0,1-2.625-4.684h0a3.808,3.808,0,0,1,4.684-2.625l106.724,30.069a3.807,3.807,0,0,1,2.625,4.684h0A3.808,3.808,0,0,1,1189.224,3003.685Z" transform="translate(-1027.072 -2894.951)" fill="#b3cef6"/>
          <path id="Trazado_161038" data-name="Trazado 161038" d="M1175.589,3052.081l-106.724-30.068a3.808,3.808,0,0,1-2.625-4.684h0a3.807,3.807,0,0,1,4.684-2.624l106.724,30.068a3.807,3.807,0,0,1,2.625,4.684h0A3.807,3.807,0,0,1,1175.589,3052.081Z" transform="translate(-1018.178 -2926.522)" fill="#b3cef6"/>
          <path id="Trazado_161039" data-name="Trazado 161039" d="M1161.954,3100.477l-106.724-30.068a3.808,3.808,0,0,1-2.625-4.684h0a3.808,3.808,0,0,1,4.684-2.625l106.724,30.068a3.808,3.808,0,0,1,2.624,4.684h0A3.807,3.807,0,0,1,1161.954,3100.477Z" transform="translate(-1009.283 -2958.092)" fill="#b3cef6"/>
          <path id="Trazado_161040" data-name="Trazado 161040" d="M1148.319,3148.872,1041.6,3118.8a3.809,3.809,0,0,1-2.625-4.684h0a3.808,3.808,0,0,1,4.684-2.625l106.724,30.069a3.808,3.808,0,0,1,2.625,4.684h0A3.809,3.809,0,0,1,1148.319,3148.872Z" transform="translate(-1000.389 -2989.661)" fill="#b3cef6"/>
          <path id="Trazado_161041" data-name="Trazado 161041" d="M1134.684,3197.268,1027.961,3167.2a3.808,3.808,0,0,1-2.625-4.684h0a3.807,3.807,0,0,1,4.684-2.624l106.724,30.068a3.808,3.808,0,0,1,2.625,4.684h0A3.808,3.808,0,0,1,1134.684,3197.268Z" transform="translate(-991.494 -3021.233)" fill="#b3cef6"/>
          <path id="Trazado_161042" data-name="Trazado 161042" d="M1121.05,3245.664,1014.326,3215.6a3.808,3.808,0,0,1-2.625-4.684h0a3.808,3.808,0,0,1,4.684-2.625l106.724,30.069a3.807,3.807,0,0,1,2.625,4.684h0A3.807,3.807,0,0,1,1121.05,3245.664Z" transform="translate(-982.6 -3052.802)" fill="#b3cef6"/>
          <path id="Trazado_161043" data-name="Trazado 161043" d="M1107.415,3294.06l-106.724-30.069a3.808,3.808,0,0,1-2.625-4.684h0a3.807,3.807,0,0,1,4.684-2.625l106.724,30.068a3.808,3.808,0,0,1,2.625,4.684h0A3.808,3.808,0,0,1,1107.415,3294.06Z" transform="translate(-973.705 -3084.372)" fill="#b3cef6"/>
        </g>
        <path id="Trazado_161044" data-name="Trazado 161044" d="M621.6,2849.021h-.022c-.212,0-.4-.007-.576-.022l-.078-.008-.026,0c-.159-.016-.324-.038-.489-.066l-.035-.006c-.044-.007-.088-.015-.131-.023-.176-.034-.352-.076-.523-.124-.05-.014-.1-.028-.148-.044l-.032-.01c-.138-.042-.276-.088-.41-.139l-.011,0c-.062-.023-.125-.047-.186-.072-.138-.057-.276-.119-.421-.189-.07-.034-.139-.069-.208-.1-.162-.086-.3-.166-.428-.245-.063-.039-.124-.081-.185-.123l-.055-.038c-.091-.062-.182-.125-.27-.19-.072-.054-.141-.109-.211-.166-.094-.075-.19-.158-.293-.252l-.039-.036c-.041-.036-.081-.072-.12-.11-.152-.147-.289-.291-.417-.438-.021-.024-.038-.046-.054-.067l-.012-.015c-.11-.13-.22-.271-.324-.416-.037-.051-.071-.1-.105-.152l-.008-.011c-.085-.125-.169-.258-.248-.393l-.022-.038c-.025-.042-.049-.084-.073-.127-.115-.208-.209-.4-.289-.582l-.435-1-74.823-171.945c-.087-.2-.165-.407-.239-.635-.016-.048-.029-.1-.043-.146-.005-.02-.01-.04-.016-.059-.038-.13-.081-.282-.116-.44-.014-.063-.026-.125-.037-.188l-.01-.054c-.029-.158-.05-.288-.065-.409-.01-.084-.019-.169-.026-.254-.012-.136-.02-.27-.024-.4,0-.084,0-.169,0-.254,0-.122.006-.251.015-.4l0-.044c0-.069.008-.138.015-.208.014-.141.035-.276.053-.392l.01-.065c.009-.06.018-.121.03-.18.024-.126.053-.24.081-.35l.008-.03a7.027,7.027,0,0,1,.3-.926c.014-.034.029-.066.044-.1l.014-.03c.084-.2.165-.366.247-.522.024-.046.05-.09.076-.135l.03-.052c.094-.166.178-.3.264-.432.041-.062.086-.124.13-.186l.013-.017c.1-.135.193-.259.292-.377.057-.069.114-.136.174-.2.1-.109.2-.219.323-.336l.016-.016c.06-.058.12-.117.183-.173.13-.117.263-.223.365-.3l.052-.042c.053-.042.106-.084.161-.125.147-.106.294-.2.431-.282l.055-.036c.048-.031.1-.063.148-.091a7.067,7.067,0,0,1,.683-.344L678.5,2603.9a7.128,7.128,0,0,1,.717-.265c.054-.017.109-.031.166-.045l.065-.017c.148-.041.319-.086.5-.122.07-.014.139-.024.208-.034l.066-.011c.144-.022.3-.044.462-.059.082-.007.165-.012.248-.015l.035,0c.167-.008.315-.01.456-.008.093,0,.186.006.279.011.145.008.294.022.455.042l.015,0c.083.01.166.02.249.034.143.023.293.053.471.1l.058.013c.058.013.116.026.174.042.16.043.326.1.523.166l.04.014c.039.013.079.025.117.041a6.915,6.915,0,0,1,.9.422l.038.021c.09.049.183.1.279.16.052.032.1.065.147.1l.054.037c.1.07.219.149.334.236.055.042.108.085.16.128l.027.022c.117.1.22.184.312.269.059.055.117.11.174.167.1.1.193.2.286.3.055.061.109.122.162.185.082.1.164.2.26.333l.032.043c.038.05.075.1.111.152.089.129.169.262.243.385l.032.052c.027.043.054.087.079.132.117.212.216.411.3.608l75.258,172.945c.08.183.153.376.229.607.015.047.029.092.042.137l.013.046c.045.148.085.3.119.45l.008.034c.012.053.024.106.035.16.034.172.062.348.083.522l0,.018c0,.027.008.054.011.081.021.2.033.4.036.607,0,.053,0,.107,0,.163v.054c0,.141-.007.266-.015.385-.006.09-.013.18-.023.269-.011.107-.027.214-.043.321a7.1,7.1,0,0,1-.238,1.035c-.013.04-.026.079-.04.117l-.016.047c-.066.195-.14.385-.22.566-.027.062-.055.125-.084.188h0c-.086.181-.18.359-.29.547l-.022.038c-.019.035-.038.069-.059.1a6.976,6.976,0,0,1-.451.647c-.015.019-.032.039-.049.057-.141.176-.3.35-.463.52-.041.043-.086.084-.13.125l-.044.042c-.136.129-.274.25-.411.361-.071.057-.143.114-.216.169-.139.1-.29.206-.46.313l-.055.035c-.051.033-.1.066-.156.1a6.97,6.97,0,0,1-.726.371l-134.97,58.733c-.179.078-.376.152-.6.226l-.018.006-.11.036c-.2.062-.4.114-.588.155l-.078.016-.032.006c-.187.038-.37.067-.546.087l-.021,0c-.025,0-.049.007-.074.009-.185.02-.377.031-.586.035Zm59.709-244.3c-.087,0-.179,0-.281.008h-.036c-.063,0-.127.006-.19.011-.123.011-.251.029-.37.048l-.077.012c-.047.007-.094.013-.141.023-.132.026-.274.064-.4.1l-.1.026c-.028.007-.057.014-.086.022a5.7,5.7,0,0,0-.576.212l-134.97,58.733a5.661,5.661,0,0,0-.547.276c-.027.015-.052.032-.078.049l-.083.053c-.115.071-.236.147-.345.226-.036.026-.072.055-.108.084l-.063.049c-.089.07-.194.154-.291.241-.049.044-.1.09-.143.136l-.016.016c-.1.095-.182.183-.258.268-.048.053-.093.106-.139.161-.078.094-.154.192-.233.3l-.013.018c-.034.047-.069.095-.1.143-.068.1-.134.211-.212.346l-.038.065c-.016.028-.033.057-.048.085-.064.121-.128.257-.2.416-.01.024-.022.049-.033.074s-.01.02-.014.031a5.583,5.583,0,0,0-.238.742l-.008.032c-.024.1-.047.187-.064.271-.007.038-.013.076-.018.115l-.012.082c-.015.1-.033.209-.043.314,0,.051-.008.1-.011.151l0,.049c-.008.121-.012.224-.012.317,0,.067,0,.134,0,.2,0,.1.009.211.019.32.006.067.012.135.021.2.011.093.028.2.052.325l.011.062c.008.045.016.089.026.134.026.117.06.237.093.35.008.027.016.057.024.086s.014.053.023.079c.06.186.123.352.191.509l75.258,172.945c.062.144.138.3.232.466.016.031.034.06.051.088l.026.043c.063.108.13.214.2.315l.008.012c.027.04.054.08.081.118.082.114.17.227.259.332l.043.053.011.014c.1.112.206.227.33.346l.081.074.048.043c.083.076.16.142.234.2.057.046.112.09.169.133s.143.1.215.152l.062.042c.043.03.086.06.131.087.1.062.212.126.343.2l.167.083c.118.058.228.107.337.152l.149.057c.117.043.227.081.338.115l.034.01.111.033c.137.038.277.071.418.1.03.006.06.01.089.016l.041.007c.135.023.267.041.393.054l.056.007.027,0c.135.011.285.017.458.018h.121c.171,0,.323-.012.468-.027l.075-.01c.141-.017.286-.04.435-.069l.088-.018c.153-.033.311-.075.47-.124l.082-.027.019-.007c.187-.062.341-.119.482-.181l134.97-58.733a5.61,5.61,0,0,0,.58-.3c.033-.019.066-.041.1-.062l.069-.044c.139-.087.26-.169.369-.25.058-.043.115-.088.172-.134.11-.089.217-.183.328-.289l.054-.051c.029-.027.058-.053.085-.082a5.587,5.587,0,0,0,.378-.423c.016-.021.029-.035.04-.047a5.655,5.655,0,0,0,.352-.508l.025-.044.039-.069c.089-.151.165-.294.233-.437h0c.024-.05.046-.1.068-.151.064-.146.123-.3.176-.453l.02-.058c.009-.025.017-.049.025-.075a5.721,5.721,0,0,0,.191-.829c.013-.086.026-.171.035-.257s.013-.143.018-.214c.006-.094.01-.194.012-.308v-.065c0-.036,0-.072,0-.107,0-.174-.012-.331-.029-.484l0-.015c0-.022-.007-.043-.009-.065-.017-.139-.039-.279-.067-.417-.008-.04-.017-.079-.026-.119l-.008-.035c-.027-.119-.059-.239-.094-.358l-.016-.052c-.009-.033-.019-.064-.029-.1-.062-.187-.121-.342-.183-.485l-75.258-172.945c-.068-.156-.147-.315-.243-.487-.013-.024-.028-.048-.043-.071l-.046-.075c-.071-.119-.131-.217-.193-.308-.025-.037-.052-.073-.078-.108l-.037-.05c-.078-.106-.144-.19-.206-.265-.042-.05-.086-.1-.13-.149-.074-.083-.151-.163-.227-.238-.046-.045-.092-.09-.14-.135-.071-.066-.151-.134-.249-.214l-.031-.025c-.039-.032-.079-.064-.119-.1-.084-.064-.177-.128-.266-.187l-.069-.047c-.031-.021-.061-.042-.092-.062-.067-.042-.139-.081-.212-.121l-.041-.022a5.668,5.668,0,0,0-.721-.34l-.046-.015-.08-.027c-.162-.058-.295-.1-.419-.133-.038-.011-.075-.019-.113-.026l-.072-.017c-.147-.034-.267-.059-.378-.077-.065-.01-.13-.019-.2-.026l-.015,0c-.129-.016-.248-.027-.364-.033-.076,0-.15-.008-.224-.009Z" transform="translate(-539.313 -2592.012)" fill="#444"/>
        <path id="Trazado_161045" data-name="Trazado 161045" d="M769.754,2830.645c.035-.051.068-.1.1-.155.1-.154.19-.31.275-.471.024-.047.05-.092.073-.14a6.315,6.315,0,0,0,.358-.887c.03-.092.059-.185.084-.279.021-.078.04-.156.058-.235.026-.112.048-.226.067-.34.011-.064.023-.129.033-.194.025-.179.043-.36.053-.542,0-.03,0-.06,0-.09q.009-.238,0-.478c0-.059-.007-.117-.011-.177q-.014-.207-.042-.417c-.008-.057-.014-.113-.024-.17-.031-.191-.068-.382-.118-.573l-.272-1.052h0l-46.368-179.294h0l-.584-2.257c-.052-.2-.114-.394-.183-.584-.022-.06-.048-.117-.072-.177-.051-.128-.1-.255-.162-.378-.032-.066-.066-.13-.1-.194-.058-.113-.119-.224-.183-.332-.038-.063-.078-.125-.117-.187q-.1-.157-.211-.306c-.043-.058-.087-.116-.131-.173-.077-.1-.158-.192-.241-.285-.047-.053-.094-.106-.143-.158-.085-.089-.174-.174-.264-.257-.053-.049-.1-.1-.159-.148-.083-.072-.171-.138-.257-.206a6.381,6.381,0,0,0-.741-.5c-.043-.025-.089-.046-.132-.069-.145-.079-.291-.154-.442-.221-.065-.029-.132-.054-.2-.082-.134-.054-.268-.106-.405-.151-.076-.025-.153-.047-.23-.069-.132-.038-.265-.072-.4-.1-.082-.018-.164-.035-.246-.049-.134-.024-.269-.042-.406-.057-.084-.009-.168-.019-.253-.025-.14-.009-.28-.011-.42-.012-.083,0-.165,0-.248,0-.152.006-.305.021-.459.038-.072.008-.143.011-.215.022a6.406,6.406,0,0,0-.675.134L573.24,2675.22a6.478,6.478,0,0,0-.656.209c-.067.026-.131.057-.2.085-.143.059-.285.121-.422.19-.073.037-.142.078-.214.118-.124.069-.247.14-.366.217-.07.045-.136.093-.2.141-.115.08-.226.164-.335.252q-.093.076-.184.155c-.108.095-.211.193-.312.294-.053.052-.105.105-.156.16-.1.111-.2.227-.3.345-.04.051-.082.1-.121.151-.1.139-.2.283-.293.429-.023.036-.048.07-.07.107a6.28,6.28,0,0,0-.4.784c-.046.106-.092.212-.132.321-.026.071-.047.144-.07.216-.036.113-.072.225-.1.339-.019.073-.035.148-.051.222-.026.116-.05.232-.069.35-.012.076-.023.151-.033.227-.015.119-.027.239-.035.359-.005.076-.01.152-.013.229,0,.124,0,.248,0,.373,0,.074,0,.147.007.222.008.135.024.271.041.407.008.064.013.128.023.192.032.2.072.4.123.6l.585,2.261h0l46.366,179.285h0l.273,1.056c.049.191.11.376.175.559.019.054.041.107.062.16.051.13.106.259.165.384.025.053.05.108.076.16.072.142.149.281.23.417.016.026.03.053.046.079.1.155.2.3.309.448.039.053.082.1.122.153.073.091.147.179.224.265.054.06.108.119.164.177s.14.139.212.206.127.122.194.18c.111.1.226.188.343.275.057.042.114.083.172.125.112.079.227.154.344.225.056.033.112.065.169.1q.168.1.342.18c.051.025.1.051.155.075.147.066.3.128.448.183.047.017.095.033.143.049.14.047.281.091.424.128l.091.025c.167.041.337.073.508.1l.136.02c.173.024.348.042.524.052l.088,0q.245.01.493,0l.1,0c.181-.01.363-.03.545-.055l.119-.019c.189-.031.378-.068.566-.116l142.507-36.855a6.316,6.316,0,0,0,.7-.227c.071-.027.138-.059.207-.088.155-.066.306-.136.453-.214.073-.038.144-.078.215-.119.143-.083.281-.17.416-.263.06-.042.121-.081.179-.124a6.245,6.245,0,0,0,.494-.4c.014-.012.029-.023.042-.036a6.33,6.33,0,0,0,.491-.511c.032-.038.061-.077.092-.115C769.537,2830.946,769.649,2830.8,769.754,2830.645Z" transform="translate(-558.36 -2614.747)" fill="#3a7ec1" opacity="0.2" style="mix-blend-mode: multiply;isolation: isolate"/>
        <g id="Grupo_112808" data-name="Grupo 112808" transform="translate(10.949 18.115)">
          <path id="Trazado_161046" data-name="Trazado 161046" d="M725.74,2627.637l47.224,182.6a6.319,6.319,0,0,1-4.531,7.692l-142.507,36.855a6.32,6.32,0,0,1-7.692-4.531l-47.224-182.6a6.315,6.315,0,0,1,4.531-7.692l142.507-36.855a6.315,6.315,0,0,1,7.692,4.531Z" transform="translate(-570.806 -2622.904)" fill="#6677d6"/>
          <path id="Trazado_161047" data-name="Trazado 161047" d="M725.74,2627.637l.584,2.257-7.039,21.911-65.246,17.74-65.671,16.118-16.774-15.75-.585-2.261a6.311,6.311,0,0,1,4.531-7.692L718.048,2623.1A6.312,6.312,0,0,1,725.74,2627.637Z" transform="translate(-570.807 -2622.903)" fill="#ffef0f"/>
          <path id="Trazado_161048" data-name="Trazado 161048" d="M861.17,3137.792l.272,1.051a6.314,6.314,0,0,1-4.531,7.693L714.4,3183.39a6.314,6.314,0,0,1-7.692-4.531l-.273-1.056,4.887-14.327a3.945,3.945,0,0,1,2.7-2.491l132.358-34.23a3.966,3.966,0,0,1,3.569.87Z" transform="translate(-659.284 -2951.507)" fill="#d89444"/>
          <path id="Trazado_161049" data-name="Trazado 161049" d="M865.479,3142.61a6.3,6.3,0,0,1-4.347,3.947l-142.507,36.855a6.3,6.3,0,0,1-5.715-1.344l2.975-18.476a3.2,3.2,0,0,1,2.357-2.588l132.358-34.23a3.21,3.21,0,0,1,3.32,1.121Z" transform="translate(-663.505 -2951.529)" fill="#6677d6"/>
          <path id="Trazado_161050" data-name="Trazado 161050" d="M724.448,2624.1l-3.94,27.317a1.928,1.928,0,0,1-1.429,1.6l-127.833,33.06a1.934,1.934,0,0,1-2.029-.7l-16.688-21.978a6.3,6.3,0,0,1,4.135-3.433l142.507-36.855A6.3,6.3,0,0,1,724.448,2624.1Z" transform="translate(-571.931 -2622.904)" fill="#515fab"/>
          <path id="Trazado_161051" data-name="Trazado 161051" d="M797.762,2762.978a6,6,0,0,1-5.8-4.489l-12.575-48.626a6,6,0,0,1,4.3-7.3l2.91-.753a6,6,0,0,1,7.3,4.3l12.576,48.626a6,6,0,0,1-4.3,7.3h0l-2.91.752A5.984,5.984,0,0,1,797.762,2762.978Zm-9.667-59.644a4.291,4.291,0,0,0-1.07.136l-2.91.753a4.291,4.291,0,0,0-3.07,5.211l12.575,48.626a4.282,4.282,0,0,0,5.212,3.07l2.91-.752a4.293,4.293,0,0,0,3.07-5.212l-12.576-48.626A4.284,4.284,0,0,0,788.1,2703.333Z" transform="translate(-706.747 -2674.254)" fill="#444"/>
          <circle id="Elipse_5847" data-name="Elipse 5847" cx="8.361" cy="8.361" r="8.361" transform="translate(69.72 29.453) rotate(-17.422)" fill="#fff"/>
          <circle id="Elipse_5848" data-name="Elipse 5848" cx="8.361" cy="8.361" r="8.361" transform="translate(84.119 74.047)" fill="#fff"/>
        </g>
        <path id="Trazado_161055" data-name="Trazado 161055" d="M1044.495,2760.1l-117.069-12.2a8.348,8.348,0,0,0-9.168,7.438l-19.131,183.547a8.347,8.347,0,0,0,7.437,9.168l142.356,14.837a8.347,8.347,0,0,0,9.167-7.437l16.5-158.26Z" transform="translate(-774.003 -2686.299)" fill="#3a7ec1" opacity="0.25" style="mix-blend-mode: multiply;isolation: isolate"/>
        <g id="Grupo_112811" data-name="Grupo 112811" transform="translate(120.5 58.029)">
          <path id="Trazado_161056" data-name="Trazado 161056" d="M1031.324,2749.956l-117.069-12.2a8.347,8.347,0,0,0-9.167,7.437l-19.131,183.548a8.347,8.347,0,0,0,7.437,9.168l142.356,14.838a8.347,8.347,0,0,0,9.167-7.437l16.5-158.26Z" transform="translate(-885.911 -2737.708)" fill="#fff"/>
          <path id="Trazado_161057" data-name="Trazado 161057" d="M1296.5,2798.224a8.346,8.346,0,0,0,7.437,9.167l25.287,2.636-30.089-37.091Z" transform="translate(-1153.723 -2760.689)" fill="#ededed"/>
          <path id="Trazado_161058" data-name="Trazado 161058" d="M1314.217,2871.345l26.151,7.133.444-4.256Z" transform="translate(-1165.31 -2824.884)" fill="#cecece"/>
          <path id="Trazado_161059" data-name="Trazado 161059" d="M1122.724,2859.207l-71.591-7.461a3.539,3.539,0,0,1-3.144-3.876h0a3.539,3.539,0,0,1,3.876-3.144l71.59,7.462a3.539,3.539,0,0,1,3.144,3.875h0A3.538,3.538,0,0,1,1122.724,2859.207Z" transform="translate(-991.628 -2807.507)" fill="#ffef0f"/>
          <path id="Trazado_161060" data-name="Trazado 161060" d="M1095.093,2925.591l-118.352-12.335a3.539,3.539,0,0,1-3.144-3.875h0a3.54,3.54,0,0,1,3.875-3.144l118.351,12.337a3.538,3.538,0,0,1,3.144,3.875h0A3.538,3.538,0,0,1,1095.093,2925.591Z" transform="translate(-943.099 -2847.632)" fill="#4e2e8e"/>
          <path id="Trazado_161061" data-name="Trazado 161061" d="M1089.736,2976.981l-118.352-12.335a3.54,3.54,0,0,1-3.144-3.875h0a3.539,3.539,0,0,1,3.875-3.144l118.352,12.336a3.539,3.539,0,0,1,3.144,3.875h0A3.539,3.539,0,0,1,1089.736,2976.981Z" transform="translate(-939.605 -2881.156)" fill="#4e2e8e"/>
          <path id="Trazado_161062" data-name="Trazado 161062" d="M1084.38,3028.371l-118.352-12.336a3.539,3.539,0,0,1-3.144-3.875h0a3.539,3.539,0,0,1,3.875-3.144l118.352,12.335a3.539,3.539,0,0,1,3.144,3.875h0A3.539,3.539,0,0,1,1084.38,3028.371Z" transform="translate(-936.111 -2914.68)" fill="#4e2e8e"/>
          <path id="Trazado_161063" data-name="Trazado 161063" d="M1079.024,3079.761l-118.352-12.336a3.539,3.539,0,0,1-3.144-3.875h0a3.539,3.539,0,0,1,3.875-3.144l118.352,12.336a3.539,3.539,0,0,1,3.144,3.875h0A3.539,3.539,0,0,1,1079.024,3079.761Z" transform="translate(-932.617 -2948.203)" fill="#4e2e8e"/>
          <path id="Trazado_161064" data-name="Trazado 161064" d="M1073.668,3131.151l-118.352-12.336a3.539,3.539,0,0,1-3.144-3.875h0a3.539,3.539,0,0,1,3.875-3.144l118.352,12.335a3.539,3.539,0,0,1,3.144,3.876h0A3.539,3.539,0,0,1,1073.668,3131.151Z" transform="translate(-929.123 -2981.727)" fill="#4e2e8e"/>
          <path id="Trazado_161065" data-name="Trazado 161065" d="M1068.311,3182.541l-118.352-12.336a3.54,3.54,0,0,1-3.144-3.876h0a3.54,3.54,0,0,1,3.875-3.144l118.352,12.335a3.539,3.539,0,0,1,3.144,3.875h0A3.54,3.54,0,0,1,1068.311,3182.541Z" transform="translate(-925.628 -3015.25)" fill="#4e2e8e"/>
          <path id="Trazado_161066" data-name="Trazado 161066" d="M1135.748,3252.95a.675.675,0,0,0-1.108-.533,11.222,11.222,0,0,1-2.015,1.388l-1.056.421q-1.051.554-1.173-.877a.666.666,0,0,0-.887-.992c-.817.667-1.9,1.569-3.052,1.426a3.674,3.674,0,0,1-1.065-.361,4.508,4.508,0,0,0,.661-.62.675.675,0,0,0,.037-.671,8.314,8.314,0,0,0-.731-1.381,25.325,25.325,0,0,0,6.2-9.749.671.671,0,0,0-1.074-.709,20.8,20.8,0,0,0-6.046,6.728,4.894,4.894,0,0,0-.753,3.068,3.051,3.051,0,0,0,.089.326,21.244,21.244,0,0,1-2.053,1.709,11.045,11.045,0,0,1-3.146,1.632c-.819.255-2.049.655-2.612-.144,1.858-1.041,3.359-2.516,2.559-4.356-1.2-2.766-4.076,1.406-4.225,3.737a15.236,15.236,0,0,1-2.826.961.666.666,0,0,0,.282,1.3,18.971,18.971,0,0,0,2.854-.974c1.576,2.778,6.56-.065,8.24-1.327.5-.377,1-.79,1.485-1.227.383.683.407.568-.545,1.211a.677.677,0,0,0,.091,1.223,6.8,6.8,0,0,0,3.254.959,3.673,3.673,0,0,0,1.035-.3.65.65,0,0,0,.268.451c1.825,1.2,4.139.206,5.9-.977a8.872,8.872,0,0,1-3.039,5.417c-2.512,2.066-5.738,1.563-8.685.985-.83-.162-1.262,1.1-.424,1.261,3.214.629,6.653,1.166,9.492-.866A9.932,9.932,0,0,0,1135.748,3252.95Zm-19.274-2.42c1.03-.8.327.715-.033,1.084a4.589,4.589,0,0,1-.773.612A3.641,3.641,0,0,1,1116.474,3250.53Zm8.664-1.872a9.789,9.789,0,0,1,1.785-3.026,19.437,19.437,0,0,1,2.373-2.617,25.493,25.493,0,0,1-4.239,6.119A4.182,4.182,0,0,1,1125.138,3248.658Z" transform="translate(-1032.727 -3065.466)" fill="#e4ecf9"/>
          <path id="Trazado_161067" data-name="Trazado 161067" d="M1232.362,3271.155a12.745,12.745,0,1,1,14.585-10.59A12.759,12.759,0,0,1,1232.362,3271.155Zm3.563-22.453a9.989,9.989,0,1,0,8.3,11.432A10,10,0,0,0,1235.926,3248.7Z" transform="translate(-1104.901 -3069.169)" fill="#12263f"/>
          <path id="Trazado_161068" data-name="Trazado 161068" d="M1264.967,3256.659l-.089.013a21.475,21.475,0,0,0-3.024.727l-1.437.468-1.378.547a39.9,39.9,0,0,0-5.228,2.584,42.828,42.828,0,0,0-4.822,3.143c-.869.633-1.705,1.308-2.526,2.006-.467-.429-.948-.847-1.451-1.251-.669-.586-1.428-1.109-2.167-1.646a21.832,21.832,0,0,0-2.426-1.458l-.08-.041a.184.184,0,0,0-.234.268c1.96,2.87,3.983,5.694,6.006,8.519a.341.341,0,0,0,.474.076c3.127-2.217,6.237-4.455,9.308-6.749l4.626-3.413c1.55-1.127,3.057-2.312,4.588-3.466a.183.183,0,0,0-.14-.327Z" transform="translate(-1116.943 -3076.237)" fill="#c6412a"/>
        </g>
      </g>
    </g>
  </g>
</svg>
