<svg xmlns="http://www.w3.org/2000/svg" width="100" height="100.002" viewBox="0 0 100 100.002">
  <g id="Grupo_163859" data-name="Grupo 163859" transform="translate(8145 10696.976)">
    <g id="Grupo_112141" data-name="Grupo 112141" transform="translate(-3360 -32.976)">
      <g id="Grupo_108931" data-name="Grupo 108931" transform="translate(-4783.385 -10662.598)">
        <g id="Grupo_108922" data-name="Grupo 108922" transform="translate(20.754 0)">
          <rect id="Rectángulo_40566" data-name="Rectángulo 40566" width="54.984" height="84.012" transform="translate(0)" fill="#6677d6"/>
        </g>
        <g id="Grupo_108923" data-name="Grupo 108923" transform="translate(42 19.49)">
          <path id="Trazado_160558" data-name="Trazado 160558" d="M0,0H54.984V77.426H0Z" transform="translate(0 0)" fill="#fff"/>
        </g>
        <g id="Grupo_108924" data-name="Grupo 108924" transform="translate(0 84.062)">
          <path id="Trazado_160410" data-name="Trazado 160410" d="M191.38,278.922H136.461A6.461,6.461,0,0,1,130,272.461h0A6.461,6.461,0,0,1,136.461,266H191.38l11.307,6.461Z" transform="translate(-130 -266)" fill="#ffef0f"/>
        </g>
        <g id="Grupo_108925" data-name="Grupo 108925" transform="translate(46.489 24.634)">
          <rect id="Rectángulo_40568" data-name="Rectángulo 40568" width="45.446" height="28.614" rx="2" transform="translate(0 0)" fill="#6677d6"/>
        </g>
        <g id="Grupo_108926" data-name="Grupo 108926" transform="translate(7.923 90.744)">
          <rect id="Rectángulo_40569" data-name="Rectángulo 40569" width="53.3" height="6.172" transform="translate(0 0)" fill="#ffef0f"/>
        </g>
        <g id="Grupo_108927" data-name="Grupo 108927" transform="translate(41.899 0.215)">
          <path id="Trazado_160411" data-name="Trazado 160411" d="M189.921,233.383H156L189.921,214Z" transform="translate(-156 -214)" fill="#6677d6"/>
        </g>
        <g id="Grupo_108928" data-name="Grupo 108928" transform="translate(61.275 84.062)">
          <path id="Trazado_160412" data-name="Trazado 160412" d="M168,278.922V266l11.307,6.461Z" transform="translate(-168 -266)" fill="#6677d6"/>
        </g>
        <g id="Grupo_108929" data-name="Grupo 108929" transform="translate(0 84.062)">
          <path id="Trazado_160413" data-name="Trazado 160413" d="M142.922,278.922h-6.461A6.461,6.461,0,0,1,130,272.461h0A6.461,6.461,0,0,1,136.461,266h6.461Z" transform="translate(-130 -266)" fill="#ececec"/>
        </g>
        <g id="Grupo_108930" data-name="Grupo 108930" transform="translate(41.899 13.137)">
          <path id="Trazado_160414" data-name="Trazado 160414" d="M156,228.461h33.921V222Z" transform="translate(-156 -222)" fill="#515fab"/>
        </g>
      </g>
      <g id="Grupo_108950" data-name="Grupo 108950" transform="translate(-4785 -10664)">
        <g id="Grupo_108932" data-name="Grupo 108932" transform="translate(0 83.849)">
          <path id="Trazado_160415" data-name="Trazado 160415" d="M192,281.153H137.076a8.076,8.076,0,0,1,0-16.153H192a1.62,1.62,0,0,1,.8.213l11.307,6.461a1.614,1.614,0,0,1,0,2.8L192.8,280.94A1.62,1.62,0,0,1,192,281.153Zm-54.919-12.922a4.846,4.846,0,0,0,0,9.692h54.49l8.48-4.846-8.48-4.846Z" transform="translate(-129 -265)"/>
        </g>
        <g id="Grupo_108933" data-name="Grupo 108933" transform="translate(61.287 83.849)">
          <path id="Trazado_160416" data-name="Trazado 160416" d="M168.615,281.153A1.614,1.614,0,0,1,167,279.537V266.615a1.615,1.615,0,1,1,3.231,0v12.922A1.614,1.614,0,0,1,168.615,281.153Z" transform="translate(-167 -265)"/>
        </g>
        <g id="Grupo_108934" data-name="Grupo 108934" transform="translate(12.922 83.849)">
          <path id="Trazado_160417" data-name="Trazado 160417" d="M138.615,281.153A1.614,1.614,0,0,1,137,279.537V266.615a1.615,1.615,0,1,1,3.231,0v12.922A1.614,1.614,0,0,1,138.615,281.153Z" transform="translate(-137 -265)"/>
        </g>
        <g id="Grupo_108935" data-name="Grupo 108935" transform="translate(12.922 90.311)">
          <path id="Trazado_160418" data-name="Trazado 160418" d="M187.074,272.231H138.615a1.615,1.615,0,0,1,0-3.231h48.458a1.615,1.615,0,0,1,0,3.231Z" transform="translate(-137 -269)"/>
        </g>
        <g id="Grupo_108936" data-name="Grupo 108936" transform="translate(41.899)">
          <path id="Trazado_160419" data-name="Trazado 160419" d="M156.615,300.079A1.612,1.612,0,0,1,155,298.466v-64.5a1.612,1.612,0,0,1,.814-1.4l33.921-19.351a1.613,1.613,0,1,1,1.6,2.8L158.231,234.9v63.567A1.612,1.612,0,0,1,156.615,300.079Z" transform="translate(-155 -212.999)"/>
        </g>
        <g id="Grupo_108937" data-name="Grupo 108937" transform="translate(41.85 19.238)">
          <path id="Trazado_160420" data-name="Trazado 160420" d="M211.535,305.764H176a1.615,1.615,0,1,1,0-3.231h33.921v-74.3h-53.3a1.615,1.615,0,1,1,0-3.23h54.919a1.614,1.614,0,0,1,1.615,1.615v77.533A1.614,1.614,0,0,1,211.535,305.764Z" transform="translate(-155 -225)"/>
        </g>
        <g id="Grupo_108938" data-name="Grupo 108938" transform="translate(20.925 0.002)">
          <path id="Trazado_160421" data-name="Trazado 160421" d="M143.615,300.078A1.612,1.612,0,0,1,142,298.465V214.613A1.612,1.612,0,0,1,143.615,213h54.919a1.612,1.612,0,0,1,1.615,1.613v19.351a1.615,1.615,0,0,1-3.231,0V216.225H145.231v82.24A1.612,1.612,0,0,1,143.615,300.078Z" transform="translate(-142 -213)"/>
        </g>
        <g id="Grupo_108939" data-name="Grupo 108939" transform="translate(48.311 25.793)">
          <path id="Trazado_160422" data-name="Trazado 160422" d="M202.612,258.075h-42A1.614,1.614,0,0,1,159,256.46V230.615A1.614,1.614,0,0,1,160.615,229h42a1.614,1.614,0,0,1,1.615,1.615V256.46A1.614,1.614,0,0,1,202.612,258.075Zm-40.382-3.231H201V232.231H162.231Z" transform="translate(-159 -229)"/>
        </g>
        <g id="Grupo_108940" data-name="Grupo 108940" transform="translate(48.37 58.064)">
          <path id="Trazado_160423" data-name="Trazado 160423" d="M176.768,252.231H160.615a1.615,1.615,0,1,1,0-3.231h16.153a1.615,1.615,0,0,1,0,3.231Z" transform="translate(-159 -249)"/>
        </g>
        <g id="Grupo_108941" data-name="Grupo 108941" transform="translate(54.827 64.515)">
          <path id="Trazado_160424" data-name="Trazado 160424" d="M174.307,256.231h-9.692a1.615,1.615,0,1,1,0-3.231h9.692a1.615,1.615,0,1,1,0,3.231Z" transform="translate(-163 -253)"/>
        </g>
        <g id="Grupo_108942" data-name="Grupo 108942" transform="translate(48.37 70.966)">
          <path id="Trazado_160425" data-name="Trazado 160425" d="M176.768,260.231H160.615a1.615,1.615,0,1,1,0-3.231h16.153a1.615,1.615,0,1,1,0,3.231Z" transform="translate(-159 -257)"/>
        </g>
        <g id="Grupo_108943" data-name="Grupo 108943" transform="translate(48.37 77.418)">
          <path id="Trazado_160426" data-name="Trazado 160426" d="M176.768,264.231H160.615a1.615,1.615,0,1,1,0-3.231h16.153a1.615,1.615,0,0,1,0,3.231Z" transform="translate(-159 -261)"/>
        </g>
        <g id="Grupo_108944" data-name="Grupo 108944" transform="translate(74.156 58.064)">
          <path id="Trazado_160427" data-name="Trazado 160427" d="M192.768,252.231H176.615a1.615,1.615,0,0,1,0-3.231h16.153a1.615,1.615,0,1,1,0,3.231Z" transform="translate(-175 -249)"/>
        </g>
        <g id="Grupo_108945" data-name="Grupo 108945" transform="translate(74.156 64.515)">
          <path id="Trazado_160428" data-name="Trazado 160428" d="M192.768,256.231H176.615a1.615,1.615,0,1,1,0-3.231h16.153a1.615,1.615,0,1,1,0,3.231Z" transform="translate(-175 -253)"/>
        </g>
        <g id="Grupo_108946" data-name="Grupo 108946" transform="translate(74.156 70.966)">
          <path id="Trazado_160429" data-name="Trazado 160429" d="M192.768,260.231H176.615a1.615,1.615,0,0,1,0-3.231h16.153a1.615,1.615,0,1,1,0,3.231Z" transform="translate(-175 -257)"/>
        </g>
        <g id="Grupo_108947" data-name="Grupo 108947" transform="translate(74.156 77.418)">
          <path id="Trazado_160430" data-name="Trazado 160430" d="M186.307,264.231h-9.692a1.615,1.615,0,0,1,0-3.231h9.692a1.615,1.615,0,1,1,0,3.231Z" transform="translate(-175 -261)"/>
        </g>
        <g id="Grupo_108948" data-name="Grupo 108948" transform="translate(90.183 77.589)">
          <ellipse id="Elipse_5276" data-name="Elipse 5276" cx="1.683" cy="1.403" rx="1.683" ry="1.403" transform="translate(0 0)"/>
        </g>
        <g id="Grupo_108949" data-name="Grupo 108949" transform="translate(48.178 64.704)">
          <ellipse id="Elipse_5277" data-name="Elipse 5277" cx="1.683" cy="1.403" rx="1.683" ry="1.403" transform="translate(0 0)"/>
        </g>
      </g>
    </g>
  </g>
</svg>
