<svg xmlns="http://www.w3.org/2000/svg" xmlns:xlink="http://www.w3.org/1999/xlink" width="150" height="150" viewBox="0 0 150 150">
  <defs>
    <clipPath id="clip-path">
      <rect id="Rectángulo_44178" data-name="Rectángulo 44178" width="73.593" height="99.109" fill="none"/>
    </clipPath>
  </defs>
  <g id="Grupo_163907" data-name="Grupo 163907" transform="translate(-9448.666 14974.432)">
    <g id="Grupo_163840" data-name="Grupo 163840" transform="translate(8391.666 -16122.463)">
      <g id="Grupo_136629" data-name="Grupo 136629" transform="translate(1057 1148.031)">
        <path id="Trazado_170461" data-name="Trazado 170461" d="M75,0A75,75,0,1,1,0,75,75,75,0,0,1,75,0Z" fill="#fff"/>
      </g>
      <g id="Grupo_136910" data-name="Grupo 136910" transform="translate(1093 1170.031)">
        <rect id="Rectángulo_44177" data-name="Rectángulo 44177" width="73.154" height="56.477" transform="translate(2.722 44.667)" fill="#b0a5c6"/>
        <rect id="Rectángulo_44181" data-name="Rectángulo 44181" width="31.154" height="8.477" transform="translate(23.722 56.629)" fill="#ffef0f"/>
        <g id="Grupo_136909" data-name="Grupo 136909" transform="translate(2 3)">
          <g id="Grupo_136908" data-name="Grupo 136908" clip-path="url(#clip-path)">
            <path id="Trazado_172227" data-name="Trazado 172227" d="M48.269,39.933H23.642a3.32,3.32,0,0,1-3.267-3.35l-3.118-12,3.118-9.112a3.32,3.32,0,0,1,3.267-3.351H48.269a3.32,3.32,0,0,1,3.266,3.351l3.7,9.266-3.7,11.842a3.319,3.319,0,0,1-3.266,3.35" transform="translate(-1.008 -0.415)" fill="#c6412a"/>
            <path id="Trazado_172228" data-name="Trazado 172228" d="M29.917,0,28.184,3.554a8.194,8.194,0,0,1,4.777,6.06,9.672,9.672,0,0,1,.17,1.512,16.3,16.3,0,0,0-6.54-1.4A12.429,12.429,0,0,0,14.249,22.211a25.763,25.763,0,0,0,4.907,14.758,24.234,24.234,0,0,0,2.087,2.549H0V99.109H73.594V39.517H48.969a23.192,23.192,0,0,0,1.558-1.827,25.372,25.372,0,0,0,4.944-15.479A12.429,12.429,0,0,0,43.129,9.722,16.422,16.422,0,0,0,37,10.944a13.572,13.572,0,0,0-.238-2.106A12.6,12.6,0,0,0,29.917,0M26.591,13.7c2.276,0,5.94,1.036,6.987,1.987l1.282,1.16,1.282-1.16c1.047-.95,4.712-1.987,6.987-1.987A8.424,8.424,0,0,1,51.6,22.211a21.272,21.272,0,0,1-4.118,13.031c-2.251,2.954-5.115,4.275-5.878,4.275H28.123A5.455,5.455,0,0,1,25.8,38.373a17.735,17.735,0,0,1-3.514-3.747,21.956,21.956,0,0,1-4.161-12.415A8.424,8.424,0,0,1,26.591,13.7M3.874,43.491H69.72V95.136H3.874Zm21.3,7.945a5.961,5.961,0,0,0,0,11.918h23.24a5.961,5.961,0,0,0,0-11.918Zm0,3.973h23.24a1.987,1.987,0,0,1,0,3.973H25.177a1.987,1.987,0,0,1,0-3.973" transform="translate(0 0)"/>
          </g>
        </g>
      </g>
    </g>
  </g>
</svg>
