<svg xmlns="http://www.w3.org/2000/svg" width="99.422" height="99.47" viewBox="0 0 99.422 99.47">
  <g id="Grupo_163867" data-name="Grupo 163867" transform="translate(7644.46 10077.86)">
    <g id="Grupo_112834" data-name="Grupo 112834" transform="translate(-9267.887 -10765.578)">
      <path id="Trazado_161119" data-name="Trazado 161119" d="M1699.038,719.9c.407-.251.62-.382.832-.514,3.72-2.322,7.519-4.529,11.131-7.008a11.4,11.4,0,0,1,7.551-2.2c3.088.2,5.176-1.98,5.2-5.095q.053-6.165,0-12.331a4.813,4.813,0,0,0-5.169-5.035q-10.924,0-21.847,0a4.827,4.827,0,0,0-5.145,5.148q-.009,6.069,0,12.137a4.917,4.917,0,0,0,5.214,5.224c1.283,0,2.565,0,3.879,0Zm-68.808,7.228c-.616-1.026-1.125-1.914-1.676-2.776-.449-.7-.7-1.873-1.374-1.992-.631-.112-1.413.736-2.155,1.109-.5.252-.536.483-.244.96,1.668,2.722,3.32,5.454,4.928,8.211.347.6.6.539,1.1.229,2.224-1.37,4.475-2.7,6.71-4.047.657-.4,1.7-.726,1.831-1.267s-.687-1.291-1.006-1.988c-.331-.724-.7-.676-1.287-.293-1.057.692-2.157,1.318-3.361,2.045a3.085,3.085,0,0,1,0-.5,41.674,41.674,0,0,1,50.21-29.85c.8.195,1.831.766,2.35.466.54-.312.542-1.492.867-2.255.271-.635-.022-.725-.54-.877a44.927,44.927,0,0,0-17.06-1.55,42.937,42.937,0,0,0-17.551,5.537C1640.715,704.762,1633.56,714.383,1630.23,727.127Zm83.239-3.094a42.68,42.68,0,0,1,2.066,16.426,41.692,41.692,0,0,1-7.8,21.429c-.43.6-1.272,1.291-1.172,1.788.12.6,1.075,1,1.617,1.542.513.512.808.466,1.262-.127a45.235,45.235,0,0,0,7.671-15.079,44.213,44.213,0,0,0,1.51-17.638,48.194,48.194,0,0,0-2-9.118c.985.581,1.77,1.062,2.572,1.511.693.388,1.441,1.267,2.045,1.061s.863-1.276,1.339-1.92c.4-.535.265-.774-.28-1.093q-4.051-2.368-8.047-4.828c-.573-.354-.8-.334-1.151.269-1.271,2.208-2.612,4.375-3.917,6.563-.426.714-1.26,1.555-1.113,2.138s1.312.884,1.981,1.376c.538.4.734.169,1.006-.3C1711.812,726.719,1712.617,725.439,1713.469,724.034Z" transform="translate(-0.935 0)" fill="#fefefe"/>
      <path id="Trazado_161120" data-name="Trazado 161120" d="M1623.427,816.987a5.914,5.914,0,0,0,.43-1.722,11.774,11.774,0,0,1,3.088-5.285c2.18-2.169,4.36-4.338,6.515-6.532.4-.406.6-.468,1.047-.021q5.392,5.457,10.85,10.849c.506.5.432.752-.031,1.2-1.834,1.782-3.632,3.6-5.436,5.413-1.074,1.08-1.069,1.8.011,2.895,1.657,1.673,3.322,3.339,4.994,5.018a2.4,2.4,0,0,0,.5-1.123,11.417,11.417,0,0,1,9.583-8.339c3.018-.524,6.035-1.049,9.042-1.63.318-.061.89.145.99-.488.09-.566-.363-.684-.7-.909a15.676,15.676,0,0,1-6.727-9.264,1.887,1.887,0,0,0-1.366-1.453,6.286,6.286,0,0,1-4.034-5.948c-.009-3.949-.02-7.9,0-11.848.061-9.684,7.863-18.5,17.426-20a20.962,20.962,0,0,1,23.826,16.151,20.28,20.28,0,0,1,.5,4.224q.006,9.663,0,19.326a4.743,4.743,0,0,1-5.028,4.962c-2-.1-3.6.2-4.812,1.964a7.522,7.522,0,0,1-2.492,1.979.8.8,0,0,0-.5.833c.05.548.492.346.738.393,3.322.64,6.658,1.212,9.976,1.874a10.856,10.856,0,0,1,8.587,7.4c1.263,3.541,2.41,7.124,3.6,10.689a4.822,4.822,0,0,1,.108.563h-34.328c.762.766,1.37,1.419,2.026,2.018.363.331.287.516-.036.808-2.76,2.5-5.473,5.047-8.27,7.5a9.2,9.2,0,0,1-5.317,2.319c-.065.006-.121.113-.182.173h-3.5c-.067-.266-.3-.18-.473-.221a12.035,12.035,0,0,1-5.8-3.3q-10.62-10.637-21.254-21.258a11.818,11.818,0,0,1-3.288-6.019c-.075-.353.107-.786-.27-1.065ZM1683,834.906v-.029c5.213,0,10.425-.024,15.637.022.931.008.98-.244.705-1.01-.672-1.876-1.27-3.779-1.915-5.665a7.919,7.919,0,0,0-6.281-5.544c-3.319-.662-6.668-1.17-9.983-1.852a1.909,1.909,0,0,0-2.018.638c-1.82,1.888-3.71,3.708-5.538,5.588-.446.458-.694.456-1.141,0-1.943-1.994-3.933-3.942-5.889-5.924a1.179,1.179,0,0,0-1.192-.392c-3.1.589-6.206,1.2-9.327,1.687-3.453.537-6.06,2.111-7.326,5.5-.36.964-.653,1.952-.995,2.923a.9.9,0,0,0,.267,1.1c.968.907,1.878,1.875,2.826,2.8a1.686,1.686,0,0,0,2.7.023c2.066-1.866,4.143-3.719,6.18-5.615.437-.406.656-.405,1.067.018,1.646,1.7,3.348,3.338,4.992,5.035a2.114,2.114,0,0,0,1.683.712C1672.641,834.891,1677.821,834.906,1683,834.906Zm7.638-41.025c-.15-3.006.205-6.008-.374-9a17.6,17.6,0,0,0-33.448-3.379c-1.769,4.022-1.305,8.228-1.367,12.453.951-.245,1.835-.438,1.563-1.713-.128-.6.255-.679.748-.666a19.372,19.372,0,0,0,5.285-.528,18.84,18.84,0,0,0,9.369-5.909c.472-.518.744-.582,1.254-.023a19.921,19.921,0,0,0,6.178,4.771,18.075,18.075,0,0,0,8.462,1.7c.421-.014.938-.078.806.6C1688.878,793.4,1689.6,793.729,1690.64,793.881Zm-9.324,18.625h-6c-2.32,0-2.291,0-2.324-2.306-.011-.74.153-1,.952-.984,3.171.045,6.344-.007,9.515.019a.965.965,0,0,0,1.017-.649,11.835,11.835,0,0,0,1.314-5.012c.033-2.686,0-5.373.048-8.059.011-.634-.274-.756-.782-.816a20.464,20.464,0,0,1-11.54-5.208c-.375-.338-.59-.315-.953.009a20.213,20.213,0,0,1-11.55,5.177c-.554.06-.846.2-.833.878.05,2.426-.016,4.855.03,7.282a12.7,12.7,0,0,0,4.846,10.038C1669.721,816.678,1677.006,816.567,1681.316,812.506Zm-24.755,35.22a8.2,8.2,0,0,0,6.062-2.761c.38-.379.214-.568-.07-.851q-3.237-3.215-6.451-6.453c-.348-.352-.558-.335-.952-.039a4.666,4.666,0,0,1-6.341-.364q-5.8-5.732-11.531-11.532a4.668,4.668,0,0,1-.384-6.345c.281-.374.369-.571-.008-.942-2.192-2.155-4.359-4.336-6.525-6.517-.265-.267-.414-.343-.757-.038a8.041,8.041,0,0,0-.508,11.818q10.831,10.928,21.758,21.761A7.6,7.6,0,0,0,1656.561,847.726Zm10.818-7.322c-.169-.182-.337-.374-.518-.555q-2.637-2.641-5.277-5.279c-1.478-1.481-1.456-1.463-2.989-.038-.457.425-.421.642,0,1.053,1.9,1.851,3.756,3.738,5.63,5.612,1.212,1.212,1.217,1.216,2.467.024C1666.941,840.984,1667.281,840.814,1667.379,840.4Zm-33.521-32.925a7.369,7.369,0,0,1-.895,1.043c-.609.492-.648.828-.034,1.412,1.851,1.758,3.627,3.595,5.433,5.4,1.354,1.354,1.339,1.341,2.617-.089.294-.328.262-.493-.024-.777q-3.271-3.243-6.52-6.508C1634.3,807.83,1634.149,807.721,1633.858,807.479Zm34.769,10.842,4.433,4.435,4.48-4.448a22.508,22.508,0,0,1-4.432.614A21.162,21.162,0,0,1,1668.627,818.321Zm21.951-13.022c-.6.41-1.583.255-1.825,1.011-.3.937-.615,1.88-.879,2.838C1690.429,809.462,1690.953,808.725,1690.578,805.3Zm-33.595-8.356a3.016,3.016,0,0,0-1.535,2.925,2.848,2.848,0,0,0,1.535,2.445Zm32.125,5.43a3.108,3.108,0,0,0,1.532-3.07,2.761,2.761,0,0,0-1.532-2.315Z" transform="translate(0 -63.798)" fill="#0c0b0d"/>
      <path id="Trazado_161121" data-name="Trazado 161121" d="M1965.7,719.9l1.646-9.67c-1.313,0-2.6,0-3.879,0a4.917,4.917,0,0,1-5.214-5.224q-.008-6.069,0-12.137a4.827,4.827,0,0,1,5.145-5.148q10.923,0,21.847,0a4.813,4.813,0,0,1,5.169,5.035q.063,6.165,0,12.331c-.027,3.114-2.116,5.3-5.2,5.095a11.4,11.4,0,0,0-7.552,2.2c-3.612,2.48-7.411,4.686-11.131,7.008C1966.323,719.517,1966.109,719.648,1965.7,719.9Zm4.44-6.607c2.1-1.312,4.147-2.415,5.992-3.792a11.958,11.958,0,0,1,8.983-2.586c1.456.181,2.047-.532,2.05-2.009q.008-5.969,0-11.937c0-1.447-.542-1.993-1.987-1.994q-10.87-.009-21.74,0c-1.4,0-1.9.523-1.9,1.951q-.006,5.92,0,11.84c0,1.718.46,2.179,2.167,2.179h7.5Z" transform="translate(-267.6 0)" fill="#0c0b0d"/>
      <path id="Trazado_161122" data-name="Trazado 161122" d="M1630.23,746.29c3.331-12.744,10.485-22.366,21.749-28.839a42.937,42.937,0,0,1,17.551-5.537,44.926,44.926,0,0,1,17.06,1.55c.518.152.811.241.54.877-.325.763-.328,1.943-.867,2.255-.52.3-1.547-.271-2.35-.466a41.674,41.674,0,0,0-50.21,29.85,3.086,3.086,0,0,0,0,.5c1.2-.727,2.3-1.353,3.361-2.045.585-.383.956-.431,1.287.293.318.7,1.14,1.445,1.006,1.988s-1.174.87-1.831,1.267c-2.235,1.351-4.486,2.677-6.71,4.047-.5.31-.756.366-1.1-.229-1.608-2.758-3.261-5.489-4.928-8.211-.292-.477-.255-.708.244-.96.742-.374,1.524-1.221,2.155-1.11.671.119.925,1.289,1.374,1.992C1629.1,744.375,1629.613,745.264,1630.23,746.29Z" transform="translate(-0.935 -19.162)" fill="#0c0b0d"/>
      <path id="Trazado_161123" data-name="Trazado 161123" d="M2039.723,843.6c-.852,1.405-1.657,2.686-2.409,4-.272.473-.468.7-1.006.3-.669-.492-1.834-.791-1.981-1.376s.687-1.424,1.113-2.138c1.305-2.188,2.646-4.356,3.917-6.563.347-.6.577-.623,1.151-.269q3.99,2.468,8.047,4.828c.545.319.676.557.28,1.093-.476.644-.746,1.717-1.339,1.92s-1.351-.673-2.045-1.061c-.8-.449-1.587-.93-2.572-1.511a48.193,48.193,0,0,1,2,9.118,44.213,44.213,0,0,1-1.51,17.638,45.231,45.231,0,0,1-7.671,15.079c-.454.593-.749.639-1.262.127-.541-.54-1.5-.945-1.617-1.542-.1-.5.742-1.187,1.172-1.788a41.693,41.693,0,0,0,7.8-21.429A42.685,42.685,0,0,0,2039.723,843.6Z" transform="translate(-327.189 -119.568)" fill="#0c0b0d"/>
      <path id="Trazado_161124" data-name="Trazado 161124" d="M1779.464,1046.521c-5.181,0-10.361-.015-15.542.017a2.114,2.114,0,0,1-1.683-.712c-1.644-1.7-3.347-3.338-4.992-5.035-.411-.424-.631-.424-1.067-.018-2.037,1.9-4.115,3.749-6.18,5.615a1.686,1.686,0,0,1-2.7-.023c-.948-.929-1.858-1.9-2.826-2.8a.9.9,0,0,1-.267-1.1c.341-.971.635-1.959.995-2.923,1.266-3.392,3.873-4.966,7.326-5.5,3.121-.485,6.223-1.1,9.327-1.687a1.179,1.179,0,0,1,1.192.393c1.956,1.982,3.946,3.93,5.889,5.924.447.458.695.461,1.141,0,1.828-1.88,3.719-3.7,5.538-5.588a1.909,1.909,0,0,1,2.018-.638c3.314.682,6.664,1.19,9.983,1.852a7.919,7.919,0,0,1,6.281,5.544c.645,1.886,1.243,3.789,1.915,5.665.275.766.225,1.018-.705,1.01-5.212-.046-10.425-.022-15.637-.022Z" transform="translate(-96.462 -275.413)" fill="#6677d6"/>
      <path id="Trazado_161125" data-name="Trazado 161125" d="M1818.07,806.764c-1.035-.152-1.762-.484-1.524-1.7.131-.673-.385-.61-.806-.6a18.079,18.079,0,0,1-8.462-1.7A19.919,19.919,0,0,1,1801.1,798c-.509-.558-.782-.495-1.254.023a18.841,18.841,0,0,1-9.369,5.909,19.372,19.372,0,0,1-5.285.528c-.493-.013-.876.066-.748.666.272,1.275-.611,1.468-1.563,1.713.062-4.225-.4-8.431,1.367-12.453a17.6,17.6,0,0,1,33.448,3.379C1818.275,800.757,1817.921,803.758,1818.07,806.764Z" transform="translate(-127.43 -76.682)" fill="#ca8d57"/>
      <path id="Trazado_161126" data-name="Trazado 161126" d="M1827.635,898.9c-4.31,4.061-11.595,4.172-16.255.37a12.7,12.7,0,0,1-4.846-10.038c-.046-2.427.02-4.855-.029-7.282-.014-.677.279-.819.833-.878a20.213,20.213,0,0,0,11.55-5.177c.362-.323.578-.347.953-.009a20.464,20.464,0,0,0,11.54,5.208c.508.06.793.182.782.816-.049,2.686-.015,5.373-.048,8.058a11.836,11.836,0,0,1-1.314,5.012.965.965,0,0,1-1.018.649c-3.171-.026-6.344.026-9.515-.019-.8-.011-.963.244-.952.984.033,2.305,0,2.306,2.324,2.306Z" transform="translate(-146.319 -150.193)" fill="#f6d28f"/>
      <path id="Trazado_161127" data-name="Trazado 161127" d="M1669.779,1023.445a7.6,7.6,0,0,1-5.708-2.262q-10.9-10.855-21.758-21.761a8.041,8.041,0,0,1,.508-11.818c.343-.3.492-.229.757.038,2.166,2.181,4.333,4.362,6.525,6.516.378.371.289.569.008.943a4.668,4.668,0,0,0,.384,6.345q5.731,5.8,11.531,11.532a4.666,4.666,0,0,0,6.341.364c.395-.3.6-.313.952.039q3.207,3.245,6.451,6.453c.284.282.45.471.07.851A8.2,8.2,0,0,1,1669.779,1023.445Z" transform="translate(-13.218 -239.517)" fill="#ffef0f"/>
      <path id="Trazado_161128" data-name="Trazado 161128" d="M1806.058,1102.8c-.1.41-.438.58-.687.817-1.25,1.193-1.255,1.188-2.467-.024-1.874-1.873-3.735-3.76-5.63-5.611-.421-.411-.457-.629,0-1.054,1.533-1.425,1.511-1.443,2.989.038q2.636,2.643,5.277,5.28C1805.721,1102.424,1805.89,1102.616,1806.058,1102.8Z" transform="translate(-138.679 -326.191)" fill="#eee99a"/>
      <path id="Trazado_161129" data-name="Trazado 161129" d="M1669.924,966.448c.291.242.445.351.577.482q3.26,3.254,6.52,6.508c.286.283.318.448.024.777-1.278,1.43-1.263,1.443-2.617.089-1.806-1.806-3.582-3.642-5.433-5.4-.614-.584-.575-.921.034-1.412A7.378,7.378,0,0,0,1669.924,966.448Z" transform="translate(-36.066 -222.767)" fill="#eee99a"/>
      <path id="Trazado_161130" data-name="Trazado 161130" d="M1848.552,1020.393a21.154,21.154,0,0,0,4.481.6,22.509,22.509,0,0,0,4.432-.614l-4.48,4.448Z" transform="translate(-179.925 -265.87)" fill="#f6d28f"/>
      <path id="Trazado_161131" data-name="Trazado 161131" d="M1947.115,955.589c.375,3.426-.149,4.163-2.7,3.849.265-.958.579-1.9.879-2.838C1945.533,955.844,1946.512,956,1947.115,955.589Z" transform="translate(-256.537 -214.088)" fill="#fefefe"/>
      <path id="Trazado_161132" data-name="Trazado 161132" d="M1784.42,913.972v5.37a2.848,2.848,0,0,1-1.535-2.445A3.015,3.015,0,0,1,1784.42,913.972Z" transform="translate(-127.437 -180.827)" fill="#f6d28f"/>
      <path id="Trazado_161133" data-name="Trazado 161133" d="M1950.563,919.584V914.2a2.761,2.761,0,0,1,1.532,2.315A3.108,3.108,0,0,1,1950.563,919.584Z" transform="translate(-261.454 -181.008)" fill="#f6d28f"/>
      <path id="Trazado_161134" data-name="Trazado 161134" d="M1983.224,726.235l1.069-6.347h-7.5c-1.707,0-2.167-.462-2.167-2.179q0-5.92,0-11.84c0-1.428.5-1.95,1.9-1.951q10.87-.011,21.739,0c1.444,0,1.984.547,1.987,1.994q.009,5.969,0,11.937c0,1.477-.593,2.19-2.05,2.009a11.959,11.959,0,0,0-8.983,2.586C1987.371,723.82,1985.321,724.923,1983.224,726.235Zm4.128-15.906h7.37c2.349,0,2.322,0,2.35-2.368.008-.695-.124-.924-.888-.918-5.333.041-10.667.021-16,.021-2.471,0-2.44,0-2.452,2.438,0,.718.25.847.894.84C1981.534,710.312,1984.443,710.329,1987.353,710.329Zm-3.1,3.148h-4.068c-2.467,0-2.438,0-2.449,2.439,0,.707.232.851.885.846,3.713-.028,7.427-.037,11.139.006.766.009.956-.248.884-.94a6.845,6.845,0,0,1,0-1.451c.075-.687-.1-.952-.87-.923C1987.933,713.524,1986.09,713.477,1984.25,713.477Zm9.586,1.657c0,1.615,0,1.615,1.516,1.615,1.7,0,1.7,0,1.7-1.727,0-1.544,0-1.544-1.578-1.544C1993.836,713.477,1993.836,713.477,1993.836,715.134Z" transform="translate(-280.682 -12.943)" fill="#6677d6"/>
      <path id="Trazado_161135" data-name="Trazado 161135" d="M1999.734,722.792c-2.909,0-5.819-.017-8.728.013-.644.007-.9-.122-.894-.84.012-2.437-.018-2.437,2.452-2.437,5.333,0,10.667.019,16-.021.764-.006.9.224.888.918-.028,2.368,0,2.368-2.35,2.368Z" transform="translate(-293.063 -25.405)" fill="#0c0b0d"/>
      <path id="Trazado_161136" data-name="Trazado 161136" d="M1996.634,751.455c1.841,0,3.683.047,5.521-.022.774-.029.945.236.87.923a6.862,6.862,0,0,0,0,1.451c.073.692-.117.948-.884.94-3.713-.043-7.426-.034-11.139-.006-.653.005-.889-.139-.885-.846.012-2.439-.018-2.44,2.449-2.44Z" transform="translate(-293.065 -50.92)" fill="#0c0b0d"/>
      <path id="Trazado_161137" data-name="Trazado 161137" d="M2070.322,753.208c0-1.657,0-1.657,1.642-1.657,1.577,0,1.577,0,1.577,1.544,0,1.727,0,1.727-1.7,1.727C2070.322,754.823,2070.322,754.823,2070.322,753.208Z" transform="translate(-357.168 -51.017)" fill="#0c0b0d"/>
    </g>
  </g>
</svg>
