<svg xmlns="http://www.w3.org/2000/svg" width="82.948" height="82.933" viewBox="0 0 82.948 82.933">
  <g id="Grupo_163864" data-name="Grupo 163864" transform="translate(8148.171 10081.591)">
    <g id="Grupo_112831" data-name="Grupo 112831" transform="translate(-9288.254 -12032.814)">
      <path id="Trazado_161070" data-name="Trazado 161070" d="M1181.494,2034.156h-39.556c-1.44,0-1.841-.4-1.841-1.831q0-14.033-.014-28.067a2.916,2.916,0,0,1,.6-1.821c1.973-2.721,3.911-5.468,5.878-8.193a2.275,2.275,0,0,0,.457-1.419q-.021-19.862-.011-39.725c0-1.483.387-1.864,1.893-1.864q20.253,0,40.506-.014a2.33,2.33,0,0,1,1.82.762c1.4,1.448,2.854,2.846,4.256,4.292a1.494,1.494,0,0,0,1.194.5c4-.02,8-.011,12-.011,1.537,0,1.9.374,1.9,1.943,0,1.008.023,2.016-.01,3.022-.015.454.121.587.574.573,1.064-.033,2.13-.012,3.2-.01,1.358,0,1.77.423,1.77,1.816q0,14.335-.011,28.671a2.388,2.388,0,0,0,.483,1.5c2,2.772,3.969,5.568,5.968,8.343a2.3,2.3,0,0,1,.48,1.423q-.018,14.206-.01,28.412c0,1.252-.452,1.7-1.713,1.7Zm-31.722-56.063q0,11.743-.015,23.486c0,.625.12.814.786.81,5.181-.032,10.362-.02,15.543-.016,1.11,0,1.573.437,1.655,1.521a4.168,4.168,0,0,0,4.254,4q9.542.021,19.084,0a4.174,4.174,0,0,0,4.3-4.045,1.39,1.39,0,0,1,1.609-1.477c1.526-.008,3.052-.036,4.576.014.626.021.741-.181.74-.767q-.027-16.535,0-33.07c0-.62-.173-.75-.764-.743-2.907.032-5.814.017-8.721.013a4.136,4.136,0,0,1-4.35-4.317c0-2.878-.028-5.757.018-8.634.012-.72-.17-.887-.887-.886q-18.48.037-36.959,0c-.712,0-.893.158-.89.882C1149.782,1962.608,1149.771,1970.351,1149.771,1978.093Zm31.792,53.3q18.873,0,37.746.02c.808,0,.969-.229.967-.991q-.042-12.22,0-24.442c0-.648-.124-.866-.83-.863q-10.322.045-20.643,0c-.635,0-.845.2-1.032.8a6.847,6.847,0,0,1-6.493,4.744q-9.717.019-19.434,0a6.86,6.86,0,0,1-6.488-4.751c-.187-.6-.407-.79-1.036-.788q-10.278.037-20.557-.007c-.807,0-.914.249-.911.961q.037,12.177,0,24.355c0,.778.182.985.975.983Q1162.69,2031.37,1181.563,2031.392Zm17.169-71.862c1.756,1.754,3.311,3.419,4.992,4.944a4.019,4.019,0,0,1,1.36,3.32c-.052,10.9-.029,21.806-.029,32.709,0,1.87,0,1.827,1.854,1.889.766.026.93-.183.929-.935q-.039-20.5-.019-40.994a4.193,4.193,0,0,1,0-.431c.036-.348-.058-.512-.462-.51C1204.55,1959.537,1201.74,1959.53,1198.731,1959.53Zm14.616,24.183v-16.739c0-1.922,0-1.882-1.9-1.935-.737-.021-.881.2-.88.9q.036,17.214.017,34.428c0,2.017,0,1.984,1.987,2.02.667.012.794-.189.791-.815C1213.338,1995.62,1213.347,1989.666,1213.347,1983.712Zm-22.113-27.652c0,2.5,0,4.886,0,7.268,0,1.211.519,1.723,1.736,1.727q3.281.009,6.562-.005c.2,0,.456.126.6-.087Zm-44.263,42.478-2.707,3.8c.833,0,1.517-.012,2.2.005.337.008.524-.046.514-.456C1146.954,2000.841,1146.971,1999.8,1146.971,1998.538Zm71.894,3.8-2.718-3.785c0,1.249.014,2.278-.008,3.3-.008.373.107.5.484.487C1217.31,2002.316,1218,2002.335,1218.865,2002.335Z" transform="translate(0 0)" fill="#050606"/>
      <path id="Trazado_161071" data-name="Trazado 161071" d="M1181.984,1987.287c0-7.742.011-15.484-.018-23.227,0-.724.178-.884.89-.882q18.479.036,36.959,0c.718,0,.9.166.887.886-.046,2.878-.023,5.756-.018,8.634a4.135,4.135,0,0,0,4.35,4.316c2.907,0,5.815.019,8.721-.013.591-.006.765.123.764.743q-.031,16.535,0,33.07c0,.586-.114.787-.74.767-1.524-.05-3.051-.022-4.576-.014a1.39,1.39,0,0,0-1.608,1.477,4.174,4.174,0,0,1-4.3,4.045q-9.542.017-19.084,0a4.168,4.168,0,0,1-4.254-4c-.082-1.083-.545-1.519-1.655-1.52-5.181,0-10.362-.016-15.543.016-.666,0-.788-.185-.786-.81Q1182,1999.03,1181.984,1987.287Zm26.259-3.362H1189.42c-1.911,0-1.872,0-1.927,1.9-.021.729.182.883.892.881q19.3-.036,38.6-.017c2,0,1.973,0,2.012-1.987.013-.656-.167-.8-.8-.793C1221.541,1983.935,1214.892,1983.925,1208.243,1983.925Zm0,11.056h18.824c1.911,0,1.872,0,1.927-1.9.021-.729-.182-.883-.892-.881q-19.3.036-38.6.017c-2.005,0-1.973,0-2.012,1.986-.013.655.167.8.8.793C1194.947,1994.971,1201.6,1994.981,1208.244,1994.981Zm12.464,5.528h-6.3c-2.039,0-2.009,0-2.035,2.047-.008.637.2.733.777.73,4.574-.023,9.148-.013,13.722-.013,2.152,0,2.126,0,2.121-2.134,0-.569-.2-.646-.69-.641C1225.771,2000.521,1223.24,2000.509,1220.708,2000.509Zm-12.485-22.111h5c1.936,0,1.9,0,1.948-1.964.02-.729-.247-.817-.87-.812-3.653.026-7.306.013-10.958.013-2.036,0-2.005,0-2.031,2.051-.008.643.214.736.781.726C1204.138,1978.377,1206.18,1978.4,1208.223,1978.4Z" transform="translate(-32.213 -9.194)" fill="#fff"/>
      <path id="Trazado_161072" data-name="Trazado 161072" d="M1190.755,2210.909q-18.873,0-37.745.019c-.793,0-.978-.205-.975-.983q.045-12.177,0-24.355c0-.712.1-.966.911-.961q10.278.06,20.557.007c.629,0,.85.19,1.036.788a6.859,6.859,0,0,0,6.488,4.751q9.717.021,19.434,0a6.846,6.846,0,0,0,6.494-4.744c.187-.6.4-.8,1.032-.8q10.321.038,20.643,0c.706,0,.832.215.83.863q-.031,12.221,0,24.442c0,.762-.158.993-.967.991Q1209.628,2210.885,1190.755,2210.909Zm.059-16.583a5.528,5.528,0,1,0,5.465,5.592A5.579,5.579,0,0,0,1190.814,2194.326Z" transform="translate(-9.192 -179.517)" fill="#6677d6"/>
      <path id="Trazado_161073" data-name="Trazado 161073" d="M1394.107,1987.171c3.009,0,5.819.007,8.629-.008.4,0,.5.162.462.51a4.193,4.193,0,0,0,0,.431q0,20.5.019,40.995c0,.752-.163.96-.929.935-1.852-.062-1.854-.019-1.854-1.889,0-10.9-.023-21.806.029-32.709a4.017,4.017,0,0,0-1.36-3.32C1397.418,1990.59,1395.864,1988.925,1394.107,1987.171Z" transform="translate(-195.376 -27.641)" fill="#61ace1"/>
      <path id="Trazado_161074" data-name="Trazado 161074" d="M1448.151,2029.725c0,5.954-.01,11.907.015,17.861,0,.626-.125.828-.791.815-1.987-.036-1.987,0-1.987-2.02q0-17.214-.016-34.428c0-.7.143-.924.88-.9,1.9.053,1.9.014,1.9,1.936Z" transform="translate(-234.803 -46.013)" fill="#2369b2"/>
      <path id="Trazado_161075" data-name="Trazado 161075" d="M1361.629,1972.173l8.9,8.9c-.144.213-.4.086-.6.087q-3.281.016-6.562.005c-1.216,0-1.732-.516-1.735-1.727C1361.625,1977.059,1361.629,1974.678,1361.629,1972.173Z" transform="translate(-170.395 -16.112)" fill="#ffef0f"/>
      <path id="Trazado_161076" data-name="Trazado 161076" d="M1160.9,2156.157c0,1.257-.017,2.3.008,3.346.01.409-.177.464-.514.456-.684-.018-1.369-.005-2.2-.005Z" transform="translate(-13.929 -157.619)" fill="#ffe585"/>
      <path id="Trazado_161077" data-name="Trazado 161077" d="M1472.233,2159.993c-.869,0-1.556-.019-2.241.007-.377.014-.493-.114-.485-.487.022-1.027.008-2.056.008-3.3Z" transform="translate(-253.368 -157.658)" fill="#ffe585"/>
      <path id="Trazado_161078" data-name="Trazado 161078" d="M1226.65,2052.988c6.648,0,13.3.01,19.946-.016.637,0,.817.137.8.793-.039,1.986-.007,1.987-2.012,1.987q-19.3,0-38.6.017c-.71,0-.913-.152-.892-.881.055-1.9.016-1.9,1.927-1.9Z" transform="translate(-50.62 -78.257)" fill="#050606"/>
      <path id="Trazado_161079" data-name="Trazado 161079" d="M1226.659,2091.661c-6.648,0-13.3-.01-19.946.016-.637,0-.817-.138-.8-.793.039-1.986.007-1.986,2.012-1.986q19.3,0,38.6-.018c.71,0,.913.153.892.882-.055,1.9-.016,1.9-1.927,1.9Z" transform="translate(-50.628 -105.874)" fill="#050606"/>
      <path id="Trazado_161080" data-name="Trazado 161080" d="M1322,2124.834c2.531,0,5.063.012,7.595-.01.495,0,.689.072.69.641.005,2.134.031,2.134-2.121,2.134-4.574,0-9.148-.01-13.722.013-.572,0-.785-.093-.777-.73.026-2.046,0-2.047,2.035-2.047Z" transform="translate(-133.506 -133.519)" fill="#050606"/>
      <path id="Trazado_161081" data-name="Trazado 161081" d="M1272.682,2019.847c-2.042,0-4.085-.02-6.126.013-.567.009-.789-.083-.781-.726.026-2.05,0-2.051,2.031-2.051,3.653,0,7.306.013,10.959-.013.623,0,.89.084.87.813-.053,1.963-.012,1.964-1.948,1.964Z" transform="translate(-96.672 -50.644)" fill="#050606"/>
      <path id="Trazado_161082" data-name="Trazado 161082" d="M1301.376,2226.628a5.528,5.528,0,1,1-5.591,5.463A5.586,5.586,0,0,1,1301.376,2226.628Zm-.052,2.791a2.737,2.737,0,1,0,2.727,2.748A2.766,2.766,0,0,0,1301.324,2229.419Z" transform="translate(-119.754 -211.819)" fill="#050606"/>
      <path id="Trazado_161083" data-name="Trazado 161083" d="M1310.621,2238.716a2.737,2.737,0,1,1-2.748,2.726A2.763,2.763,0,0,1,1310.621,2238.716Z" transform="translate(-129.051 -221.116)" fill="#ffef0f"/>
    </g>
  </g>
</svg>
