<svg xmlns="http://www.w3.org/2000/svg" width="69.111" height="100" viewBox="0 0 69.111 100">
  <g id="Grupo_163862" data-name="Grupo 163862" transform="translate(7559 10701.002)">
    <g id="Grupo_163310" data-name="Grupo 163310" transform="translate(-2793 -481)">
      <g id="Grupo_109107" data-name="Grupo 109107" transform="translate(-4766 -10220.002)">
        <g id="Grupo_109105" data-name="Grupo 109105">
          <rect id="Rectángulo_40590" data-name="Rectángulo 40590" width="66.151" height="97.041" transform="translate(1.481 1.481)" fill="#fff"/>
          <path id="Trazado_160537" data-name="Trazado 160537" d="M1294.617,534.883h-65.972a1.569,1.569,0,0,1-1.571-1.568V436.454a1.57,1.57,0,0,1,1.571-1.571h65.972a1.569,1.569,0,0,1,1.569,1.571v96.861A1.568,1.568,0,0,1,1294.617,534.883Zm-64.4-3.139h62.834V438.02h-62.834Z" transform="translate(-1227.074 -434.883)" fill="#1e1c17"/>
        </g>
        <g id="Grupo_109106" data-name="Grupo 109106" transform="translate(9.709 13.317)">
          <rect id="Rectángulo_40591" data-name="Rectángulo 40591" width="49.695" height="64.676" fill="#6677d6"/>
        </g>
      </g>
      <g id="Grupo_109108" data-name="Grupo 109108" transform="translate(-4745.532 -10131.284)">
        <rect id="Rectángulo_40592" data-name="Rectángulo 40592" width="27.234" height="3.292" fill="#4e2e8e"/>
      </g>
    </g>
  </g>
</svg>
