<svg xmlns="http://www.w3.org/2000/svg" xmlns:xlink="http://www.w3.org/1999/xlink" width="394.821" height="494.206" viewBox="0 0 394.821 494.206">
  <defs>
    <clipPath id="clip-path">
      <rect width="394.821" height="494.206" fill="none"/>
    </clipPath>
  </defs>
  <g id="Cuadrícula_de_repetición_2" data-name="Cuadrícula de repetición 2" clip-path="url(#clip-path)">
    <g id="Grupo_163891" data-name="Grupo 163891" transform="translate(-1923 7533.603)">
      <g id="Layer_4" data-name="Layer 4" transform="translate(1923.004 -7547.897)">
        <g id="Grupo_136670" data-name="Grupo 136670">
          <g id="Grupo_136664" data-name="Grupo 136664" transform="translate(34.326 14.294)">
            <rect id="Rectángulo_44007" data-name="Rectángulo 44007" width="233.054" height="307.981" transform="translate(127.438 22.232)" fill="#fff"/>
            <rect id="Rectángulo_44008" data-name="Rectángulo 44008" width="233.054" height="12.188" transform="translate(127.438 318.033)" fill="#c5e1f9"/>
            <path id="Trazado_171669" data-name="Trazado 171669" d="M105.926,336.728H88.67l17.256-298.9h0Z" transform="translate(0 -6.506)" fill="#9ac7f7"/>
            <path id="Trazado_171670" data-name="Trazado 171670" d="M109.51,334.839h21.512V26.85L109.51,35.942Z" transform="translate(-3.584 -4.618)" fill="#c5e1f9"/>
            <rect id="Rectángulo_44009" data-name="Rectángulo 44009" width="233.054" height="35.389" transform="translate(127.438 22.232)" fill="#eaf4fe"/>
            <path id="Trazado_171671" data-name="Trazado 171671" d="M189.448,53.314a5.614,5.614,0,1,1-5.614-5.614A5.613,5.613,0,0,1,189.448,53.314Z" transform="translate(-15.401 -8.204)" fill="#9ac7f7"/>
            <path id="Trazado_171672" data-name="Trazado 171672" d="M176.653,45.317v-1.3A21.359,21.359,0,1,0,155.29,22.663h-1.3a22.663,22.663,0,1,1,22.663,22.663Z" transform="translate(-11.234)" fill="#03066d"/>
            <path id="Trazado_171673" data-name="Trazado 171673" d="M252,53.314a5.614,5.614,0,1,1-5.614-5.614A5.613,5.613,0,0,1,252,53.314Z" transform="translate(-26.159 -8.204)" fill="#9ac7f7"/>
            <path id="Trazado_171674" data-name="Trazado 171674" d="M239.193,45.317v-1.3A21.359,21.359,0,1,0,217.83,22.663h-1.3a22.663,22.663,0,1,1,22.663,22.663Z" transform="translate(-21.99 0)" fill="#03066d"/>
            <path id="Trazado_171675" data-name="Trazado 171675" d="M314.548,53.314a5.614,5.614,0,1,1-5.614-5.614A5.613,5.613,0,0,1,314.548,53.314Z" transform="translate(-36.916 -8.204)" fill="#9ac7f7"/>
            <path id="Trazado_171676" data-name="Trazado 171676" d="M301.743,45.317v-1.3A21.363,21.363,0,1,0,280.38,22.655h-1.3a22.663,22.663,0,1,1,22.663,22.671Z" transform="translate(-32.747 0)" fill="#03066d"/>
            <path id="Trazado_171677" data-name="Trazado 171677" d="M377.1,53.314a5.614,5.614,0,1,1-5.614-5.614A5.613,5.613,0,0,1,377.1,53.314Z" transform="translate(-47.674 -8.204)" fill="#9ac7f7"/>
            <path id="Trazado_171678" data-name="Trazado 171678" d="M364.293,45.317v-1.3A21.363,21.363,0,1,0,342.93,22.655h-1.3a22.663,22.663,0,1,1,22.663,22.671Z" transform="translate(-43.505 0)" fill="#03066d"/>
            <g id="Grupo_136663" data-name="Grupo 136663" transform="translate(197.223 70.386)">
              <path id="Trazado_171679" data-name="Trazado 171679" d="M231.586,113.269c-2.343,0-3.759-1.573-4.786-3.892a40.272,40.272,0,0,1-5.846,3.751l-1.184-2.368a39.126,39.126,0,0,0,6.094-4.016c-.364-1.217-.679-2.525-1.01-3.85-.431-1.755-.878-3.577-1.424-5.2-1.457-4.3-.811-8.322,1.722-10.772a6.308,6.308,0,0,1,6.641-1.532c2.608.994,4.273,3.71,4.562,7.469.381,5-2.178,10.11-7.419,14.755.679,1.78,1.507,3.014,2.641,3.014.936,0,1.524-1.6,2.194-3.693.646-2,1.308-4.082,3.039-4.645a3.663,3.663,0,0,1,3.32.82c4.952,3.6,8.4,5.142,10.549,4.736a4.166,4.166,0,0,0,2.658-2.2,7,7,0,0,0,1.018-2.5c-4.405-2.931-4.827-4.422-4.67-5.407a1.763,1.763,0,0,1,1.391-1.432c1.441-.339,3.6.778,4.827,2.484a6.149,6.149,0,0,1,1.126,2.931c.025.017.041.025.066.041,10.383,6.442,12.13,5.515,15.3,3.842,8.1-4.289,5.515-12.743,5.4-13.1l2.517-.811c.033.108,3.4,10.913-6.682,16.246-4.3,2.277-7.121,2.633-16.925-3.312a10.376,10.376,0,0,1-1.134,2.41,6.777,6.777,0,0,1-4.4,3.4c-2.973.58-6.873-1.018-12.6-5.192-.6-.431-.9-.464-.944-.447-.439.141-1.027,1.962-1.341,2.939-.787,2.459-1.772,5.523-4.711,5.523Zm-1.871-25.619a3.953,3.953,0,0,0-2.724,1.176c-1.78,1.722-2.178,4.72-1.06,8.023.588,1.731,1.052,3.61,1.49,5.424.207.853.422,1.722.646,2.55,2.973-2.857,6.02-7.005,5.655-11.766-.207-2.691-1.25-4.587-2.865-5.2a3.172,3.172,0,0,0-1.143-.207Z" transform="translate(-219.77 -85.005)" fill="#ffef0f"/>
              <path id="Trazado_171680" data-name="Trazado 171680" d="M323.856,112.823a23.808,23.808,0,0,1-13.878-4.728c-4.811,1.532-11.112,1.259-12.188,1.2l.149-2.641A40.356,40.356,0,0,0,307.5,106a11.26,11.26,0,0,1-3.155-4.612A2.969,2.969,0,0,1,305.6,98.2a7.618,7.618,0,0,1,7.692-.224,4.708,4.708,0,0,1,2.277,5.01,5.424,5.424,0,0,1-2.757,3.842,20.393,20.393,0,0,0,12.561,3.279,15.335,15.335,0,0,0,8.686-3.072,14.4,14.4,0,0,1,9.555-2.973c4.554,0,8.727.389,12.081.712s6.26.588,7.353.224l.836,2.509c-1.631.538-4.339.29-8.437-.1-3.3-.306-7.4-.7-11.832-.7a11.843,11.843,0,0,0-8.057,2.509,17.8,17.8,0,0,1-9.961,3.527Q324.713,112.823,323.856,112.823ZM309.622,99.69a4.363,4.363,0,0,0-2.443.638c-.315.232-.282.356-.265.431.24.977,1.507,2.666,3.536,4.355,1.391-.6,2.352-1.424,2.509-2.5a2.121,2.121,0,0,0-1.01-2.368,4.655,4.655,0,0,0-2.327-.563Z" transform="translate(-233.188 -87.076)" fill="#ffef0f"/>
            </g>
            <rect id="Rectángulo_44010" data-name="Rectángulo 44010" width="154.218" height="2.641" transform="translate(179.114 103.486)" fill="#c5e1f9"/>
            <rect id="Rectángulo_44011" data-name="Rectángulo 44011" width="154.218" height="2.641" transform="translate(179.114 153.556)" fill="#c5e1f9"/>
            <rect id="Rectángulo_44012" data-name="Rectángulo 44012" width="154.218" height="2.641" transform="translate(179.114 203.618)" fill="#c5e1f9"/>
            <rect id="Rectángulo_44013" data-name="Rectángulo 44013" width="154.218" height="2.641" transform="translate(179.114 253.68)" fill="#c5e1f9"/>
            <path id="Trazado_171681" data-name="Trazado 171681" d="M248.158,180.226a8.852,8.852,0,0,1-5.871-1.838,5.182,5.182,0,0,1-.8-.845,5.725,5.725,0,0,1-3.378,1.176,5.437,5.437,0,0,1-4.405-2.426,10.069,10.069,0,0,1-7.966,3.652,10.274,10.274,0,0,1-9.059-7.03,18.441,18.441,0,0,1-2.219.762l-.687-2.55a14.825,14.825,0,0,0,2.443-.886c-.091-4.894,3.238-8.827,6.666-12.445a4.757,4.757,0,0,1,3.1-1.615h.008a2.384,2.384,0,0,1,1.755.745l.439.455-.075.629a19.033,19.033,0,0,1-9.034,13.7,7.208,7.208,0,0,0,13.546,1.482,4.386,4.386,0,0,1,1.018-3l2.832-3.4-.505,4.4a9.263,9.263,0,0,1-.629,2.426,2.688,2.688,0,0,0,.232.654,2.992,2.992,0,0,0,2.484,1.813h.025a3.219,3.219,0,0,0,2.277-1.043,5.973,5.973,0,0,1-.108-1.532,4.421,4.421,0,0,1,2-3.569l1.706-1.085.306,2a7.14,7.14,0,0,1-.961,4.67,2.913,2.913,0,0,0,.687.853c1.283,1.076,3.312,1.449,6.011,1.093,2.136-.273,7.345-1.358,9.514-5.481l.629-1.2,1.184.662a35.127,35.127,0,0,0,24.981,3.478l.613,2.575a37.762,37.762,0,0,1-25.76-3.146c-2.153,3.055-6.011,5.117-10.822,5.73a16.771,16.771,0,0,1-2.169.149ZM225.2,159.235a5,5,0,0,0-.4.364c-2.625,2.766-5.183,5.713-5.8,8.967A16.435,16.435,0,0,0,225.2,159.235Z" transform="translate(-21.515 -26.86)" fill="#ffef0f"/>
            <path id="Trazado_171682" data-name="Trazado 171682" d="M310.4,177.683h-.339a5.248,5.248,0,0,1-2.2-.431,3.548,3.548,0,0,1-1.855-2.26,5.961,5.961,0,0,1,.7-4.546,9.239,9.239,0,0,1,5.125-3.966,13.156,13.156,0,0,0-2.7-.753,18.62,18.62,0,0,0-10.6,1.3l-1.068-2.418a21.257,21.257,0,0,1,12.114-1.482,11.955,11.955,0,0,1,6.649,3.13,9.264,9.264,0,0,1,6.1,4.372c.29.505.538,1.043.795,1.59.571,1.25,1.068,2.327,1.954,2.674,1.06.422,2.443-.422,3.254-1.482a16.346,16.346,0,0,0,1.341-2.252,19.851,19.851,0,0,1,1.474-2.492l2.592-3.519-.207,4.364a4.023,4.023,0,0,0,1.49,3.18,7.076,7.076,0,0,0,5.6,1.615c3.734-.638,6.881-3.643,9.415-6.069l2.873-2.749-.654,3.917c-.265,1.573.306,3.652,1.88,4.405a2.622,2.622,0,0,0,2.327-.182,1.794,1.794,0,0,0,.944-1.333l2.641.166a4.314,4.314,0,0,1-2.244,3.453,5.18,5.18,0,0,1-4.811.29,6.127,6.127,0,0,1-3.2-4.115c-2.4,2.145-5.25,4.239-8.727,4.827a9.72,9.72,0,0,1-7.792-2.244,7.542,7.542,0,0,1-1.507-1.813,15.687,15.687,0,0,1-1.333,2.161c-1.416,1.855-3.933,3.3-6.334,2.335-1.863-.745-2.666-2.492-3.37-4.032-.215-.472-.431-.944-.679-1.375a6.378,6.378,0,0,0-1.805-1.987,6.168,6.168,0,0,1-.894,4.877c-1.341,1.871-3.734,2.857-6.939,2.857Zm4.066-8.967a6.54,6.54,0,0,0-5.506,3.1,3.279,3.279,0,0,0-.422,2.434.919.919,0,0,0,.48.629,2.993,2.993,0,0,0,1.1.166c1.408.025,3.941-.157,5.076-1.747a4.1,4.1,0,0,0-.323-4.562c-.133-.008-.265-.017-.4-.017Z" transform="translate(-35.91 -28.003)" fill="#ffef0f"/>
            <path id="Trazado_171683" data-name="Trazado 171683" d="M272.007,241.13a21.474,21.474,0,0,1-7.75-4.562,6.808,6.808,0,0,1-10.93-1.391,33.469,33.469,0,0,1-17.885,3.3,6.866,6.866,0,0,1-4.016-1.4c-.1-.083-.2-.182-.29-.273a7.414,7.414,0,0,1-7.667,1.2,8.67,8.67,0,0,1-4.6-5.945,19.391,19.391,0,0,1-14.615,6.268l.075-2.641A16.785,16.785,0,0,0,218.9,227.6l2.443.894c-.522,2.964.869,6.02,3.238,7.1a4.629,4.629,0,0,0,4.066-.265,4.11,4.11,0,0,0,1.466-1.308,3.031,3.031,0,0,1,.836-1.971l2.824-2.89-.571,4a5.609,5.609,0,0,1-.381,1.383,1.316,1.316,0,0,0,.348.53,4.731,4.731,0,0,0,2.534.77,30.781,30.781,0,0,0,17.645-3.66l1.466-.811.447,1.615a4.194,4.194,0,0,0,7.7.936l.878-1.573,1.234,1.308a19.012,19.012,0,0,0,7.767,4.96L272,241.13Z" transform="translate(-19.878 -39.143)" fill="#ffef0f"/>
            <path id="Trazado_171684" data-name="Trazado 171684" d="M338.425,246.508a6.054,6.054,0,0,1-2.716-.638,7.619,7.619,0,0,1-3.85-7.237,13.967,13.967,0,0,1,.729-3.867,10.908,10.908,0,0,1-4.538,2.517,7.631,7.631,0,0,1-6.873-1.863,6.091,6.091,0,0,1-.836-.977,17.257,17.257,0,0,1-3.039,3.842,8.941,8.941,0,0,1-8.487,2.343,8.042,8.042,0,0,1-4.844-4.521,34.909,34.909,0,0,1-4.372,1.275l-.629-2.567a32.77,32.77,0,0,0,4.1-1.2,27.068,27.068,0,0,1-.811-5.647c-.232-3.941,1.283-5.3,2.6-5.746a3.955,3.955,0,0,1,3.4.53,5.531,5.531,0,0,1,2.459,4.074,7.929,7.929,0,0,1-2,6.243,10.741,10.741,0,0,1-2.368,1.9A5.4,5.4,0,0,0,309.6,238.1a6.392,6.392,0,0,0,5.92-1.772,21.484,21.484,0,0,0,4.115-6.086l2.467.878a2.6,2.6,0,0,0,.894,2.385,4.976,4.976,0,0,0,4.4,1.217c2.8-.712,4.9-3.246,6.988-6.011l.6.389a9.736,9.736,0,0,1,2.459-3.122c1.954-1.548,5.125-1.979,7.055-.008a5.389,5.389,0,0,1,1.391,3.892c-.05,3.71-3.105,6.93-6.558,6.93h-.041a5.517,5.517,0,0,1-3.983-1.846,12.254,12.254,0,0,0-.82,3.751c-.05,1.78.662,3.95,2.376,4.794,3.229,1.59,6.988-2.376,8.934-4.877l.762-.977,1.027.7a8.371,8.371,0,0,0,7.4.811,6.007,6.007,0,0,1-2.029-3.511,3.961,3.961,0,0,1,1.648-4.14c1.441-.952,3.453-.936,5.523.033a7.341,7.341,0,0,1,4.032,4.331c.174-.1.34-.2.505-.3l4.273-2.534,1.35,2.277-4.273,2.534c-.7.414-1.408.82-2.136,1.184a4.412,4.412,0,0,1-3.4,2.1,3.461,3.461,0,0,1-2.343-.6,11.079,11.079,0,0,1-10.971.629c-2.973,3.527-5.978,5.357-8.736,5.357Zm20.535-10.127.48,1.391a8.706,8.706,0,0,0,2.252-.638c-.025-1.292-1.308-2.559-2.683-3.2a3.173,3.173,0,0,0-2.948-.215,1.354,1.354,0,0,0-.5,1.482,3.315,3.315,0,0,0,1.979,2.451l1.416-1.259Zm-22.431-4.388a3.341,3.341,0,0,0,2.782,2.153h.025c1.987,0,3.883-2.095,3.908-4.322a2.876,2.876,0,0,0-.638-2.012c-.828-.853-2.525-.563-3.519.232a10.108,10.108,0,0,0-2.559,3.95Zm-30.587-7.32a.781.781,0,0,0-.248.041c-.613.207-.919,1.366-.811,3.088a27.541,27.541,0,0,0,.6,4.554,7.83,7.83,0,0,0,1.292-1.1,5.355,5.355,0,0,0,1.308-4.115,2.958,2.958,0,0,0-1.259-2.178,1.711,1.711,0,0,0-.878-.3Z" transform="translate(-36.168 -38.187)" fill="#ffef0f"/>
            <path id="Trazado_171685" data-name="Trazado 171685" d="M286.352,309.682l-1.731-.969c-2.9-1.631-3.527-5.556-2.459-8.4a10.912,10.912,0,0,1,1.176-2.244,25.776,25.776,0,0,0-1.432-4.19,9.039,9.039,0,0,1-10.367,1,8.646,8.646,0,0,1-3.544-4.273,18.927,18.927,0,0,1-4.082,4.4l-.778.6-.8-.571a6.762,6.762,0,0,1-1.805-1.921,8.154,8.154,0,0,1-5.6,2.84,6.039,6.039,0,0,1-4.844-2.368l-.149-.2a8.429,8.429,0,0,1-7.585,2.882,7.419,7.419,0,0,1-5.125-3.842c-.058-.116-.116-.224-.174-.339a5.717,5.717,0,0,1-.638.389,12.8,12.8,0,0,1-5.49,1.1l-5.78.248a26.183,26.183,0,0,1-6.069,5.051c-2.666,1.615-4.976,2.153-7.055,1.648a5.519,5.519,0,0,1-3.635-3.072,4.086,4.086,0,0,1,.066-3.685l2.327,1.259a1.5,1.5,0,0,0,.025,1.35,2.886,2.886,0,0,0,1.838,1.573c1.366.331,3.031-.108,5.067-1.341a24.074,24.074,0,0,0,3.544-2.625l-2.169.091c-2.169.1-4.869.207-7.229-.952-2.492-1.234-4.446-4.331-3.254-7.187l.207-.489.489-.215a23.523,23.523,0,0,1,12.544-1.731c2.724.373,5.738,1.805,6.02,4.711a4.99,4.99,0,0,1-.671,2.865l3.618-.157a10.405,10.405,0,0,0,4.38-.8,3.512,3.512,0,0,0,1.167-1.018,6.114,6.114,0,0,1,.5-2.467l1.573-3.61.927,3.834a4.374,4.374,0,0,1-.3,2.84,4.944,4.944,0,0,0,3.751,3.958,6.09,6.09,0,0,0,6.425-4.256c0-.017.008-.025.017-.041l2.525.787s0,.025-.008.033a2.058,2.058,0,0,0,.431,1.8,3.424,3.424,0,0,0,2.641,1.333c1.789-.066,3.627-1.408,4.927-3.585l1.871-3.138.571,3.61a4.171,4.171,0,0,0,.927,2,16.555,16.555,0,0,0,4.281-6.127,8.234,8.234,0,0,1,.9-2.848l2.459.9a18.965,18.965,0,0,1-.745,2.509,6.091,6.091,0,0,0,11.112,4.148l1.234-1.822,1.035,1.938a27.589,27.589,0,0,1,1.979,4.7c.629-.638,1.267-1.217,1.855-1.755l1.764-1.615.431,2.352a1.533,1.533,0,0,0,.447.795l3.3-5.821.7,3.461a3.105,3.105,0,0,0,.8,1.515l1.582-1.126,1.532,2.153-3.08,2.186-.737-.439a5.471,5.471,0,0,1-1.449-1.242l-1.4,2.467-.911-.157a4.182,4.182,0,0,1-2.459-1.416,21.469,21.469,0,0,0-1.573,1.673,28.89,28.89,0,0,1,.4,9.05l-.232,1.971ZM210.92,287.433a3.608,3.608,0,0,0,2.12,3.329c1.747.869,3.974.77,5.937.679l4.91-.215c.083-.1.166-.207.248-.315a3.955,3.955,0,0,0,1.1-2.443c-.124-1.283-1.971-2.1-3.751-2.343a20.856,20.856,0,0,0-10.574,1.3Z" transform="translate(-20.519 -48.675)" fill="#ffef0f"/>
            <path id="Trazado_171686" data-name="Trazado 171686" d="M371.6,302.849a16.212,16.212,0,0,0-3.693-1.341,21.457,21.457,0,0,1-3.577-1.217,7.874,7.874,0,0,1-4.032-4.3,5.574,5.574,0,0,1-.2-.729,9.825,9.825,0,0,1-1.275.886,34.5,34.5,0,0,1-7.874,3.428,16.386,16.386,0,0,1-7.336.729,8.88,8.88,0,0,1-6.21-3.941c-.19.141-.381.273-.58.4l-1.391-2.252a6.088,6.088,0,0,0,1.06-.845,6.039,6.039,0,0,1,2.3-5.564l2-1.432.1,2.451a8.613,8.613,0,0,1-1.54,5.225,3.276,3.276,0,0,0,.174.389,6.141,6.141,0,0,0,4.521,2.964,13.869,13.869,0,0,0,6.16-.654,31.96,31.96,0,0,0,7.278-3.171c.911-.538,1.838-1.325,1.913-2.012-.017-.157-.033-.315-.041-.472l1.962-.273c1.7-1.747,4.5-2.02,5.821-2.145a3.489,3.489,0,0,1,2.1.306,2.941,2.941,0,0,1,1.341,1.838,4.772,4.772,0,0,1-.977,4.314,5.513,5.513,0,0,1-4.463,2.111,2.469,2.469,0,0,1-.348-.033,5.372,5.372,0,0,0,.671.381,20.141,20.141,0,0,0,3.155,1.06,18.378,18.378,0,0,1,4.3,1.59l-1.308,2.294Zm-8.76-9.357a3.43,3.43,0,0,0,2.443,1.424,2.9,2.9,0,0,0,2.252-1.118,2.149,2.149,0,0,0,.5-1.938.7.7,0,0,0-.133-.29c-.058,0-.381.025-.522.041-1.871.182-3.875.546-4.529,1.855,0,0,0,.017-.008.017Z" transform="translate(-42.439 -49.302)" fill="#ffef0f"/>
            <path id="Trazado_171687" data-name="Trazado 171687" d="M179.536,112.766H158.72V91.95h20.816Zm-18.167-2.641h15.525V94.6H161.37Z" transform="translate(-12.047 -15.814)" fill="#c5e1f9"/>
            <path id="Trazado_171688" data-name="Trazado 171688" d="M172.534,105.741,166.39,99.6l1.871-1.871L172.534,102,185.492,89.04l1.871,1.871Z" transform="translate(-13.367 -15.313)" fill="#7eb3ff"/>
            <path id="Trazado_171689" data-name="Trazado 171689" d="M179.536,174.776H158.72V153.96h20.816Zm-18.167-2.641h15.525V156.61H161.37Z" transform="translate(-12.047 -26.479)" fill="#c5e1f9"/>
            <path id="Trazado_171690" data-name="Trazado 171690" d="M172.534,167.751l-6.144-6.144,1.871-1.871,4.273,4.281,12.958-12.967,1.871,1.871Z" transform="translate(-13.367 -25.978)" fill="#7eb3ff"/>
            <path id="Trazado_171691" data-name="Trazado 171691" d="M179.536,236.8H158.72V215.98h20.816Zm-18.167-2.641h15.525V218.63H161.37Z" transform="translate(-12.047 -37.145)" fill="#c5e1f9"/>
            <path id="Trazado_171692" data-name="Trazado 171692" d="M172.534,229.771l-6.144-6.152,1.871-1.863,4.273,4.273,12.958-12.958,1.871,1.871Z" transform="translate(-13.367 -36.644)" fill="#7eb3ff"/>
            <path id="Trazado_171693" data-name="Trazado 171693" d="M179.536,298.806H158.72V277.99h20.816Zm-18.167-2.641h15.525V280.64H161.37Z" transform="translate(-12.047 -47.81)" fill="#c5e1f9"/>
          </g>
          <path id="Trazado_171694" data-name="Trazado 171694" d="M118.85,425.44c27.27-.47,111.75-2.44,163.03-7.98,95.08-10.27,172.72,6.42,121.7,25.66-14.26,5.38,26.83,37.45-73.82,44.83-88.35,6.48-178.39-7.03-221.98-12.83s-63.69-16.16-73.02-20.83c-8.21-4.11-11.22-27.23,84.09-28.85Z" transform="translate(-31.036 18.831)" fill="#d1d4e2"/>
          <g id="Grupo_136669" data-name="Grupo 136669">
            <g id="Grupo_136668" data-name="Grupo 136668">
              <g id="Grupo_136665" data-name="Grupo 136665">
                <path id="Trazado_171695" data-name="Trazado 171695" d="M1.38,42.34l10.45,3.8,6.73-18.48L8.12,23.86a2.124,2.124,0,0,0-2.72,1.3L.13,39.59A2.132,2.132,0,0,0,1.38,42.34Z" fill="#c6412a"/>
                <path id="Trazado_171696" data-name="Trazado 171696" d="M2.5,39.9l10.25,3.73,2.86-7.85L5.36,32.05a1.047,1.047,0,0,0-1.34.64L1.89,38.54A1.058,1.058,0,0,0,2.5,39.9Z" fill="#c6412a"/>
                <path id="Trazado_171697" data-name="Trazado 171697" d="M16.99,31.98l1.57-4.32L8.12,23.86a2.124,2.124,0,0,0-2.72,1.3l-.84,2.3,12.43,4.53Z" fill="#c6412a"/>
              </g>
              <path id="Trazado_171698" data-name="Trazado 171698" d="M47.08,59.26l241.28,87.69a5.34,5.34,0,0,0-2.63-5.86L48.65,54.93l-1.58,4.33Z" fill="#a43107"/>
              <path id="Trazado_171699" data-name="Trazado 171699" d="M52.41,44.63l-3.75,10.3,237.07,86.16h.06c-.01,0-.04-.02-.05-.02a5.547,5.547,0,0,0,3.73-10.25h.05c-.01,0-.03-.02-.05-.03h0Z" fill="#ffef0f"/>
              <path id="Trazado_171700" data-name="Trazado 171700" d="M289.48,130.79a5.349,5.349,0,0,0,5.78-2.8L53.98,40.3,52.4,44.63l237.07,86.16Z" fill="#a43107"/>
              <path id="Trazado_171701" data-name="Trazado 171701" d="M295.26,127.98a5.356,5.356,0,0,1-5.78,2.81h0s.03.02.05.03h-.05a5.547,5.547,0,0,1-3.73,10.25c.01,0,.04.02.05.02h-.06a5.335,5.335,0,0,1,2.62,5.87l42.36,4.67-35.45-23.65Z" fill="#e5e8ec"/>
              <path id="Trazado_171702" data-name="Trazado 171702" d="M295.26,127.98a5.356,5.356,0,0,1-5.78,2.81h0s.03.02.05.03h-.05c2.29,1.18,41.24,20.82,41.24,20.82l-35.45-23.65Z" fill="#cdd5d7"/>
              <rect id="Rectángulo_44014" data-name="Rectángulo 44014" width="19.96" height="38" transform="matrix(0.342, -0.94, 0.94, 0.342, 11.408, 46.161)" fill="#f0ca67"/>
              <rect id="Rectángulo_44015" data-name="Rectángulo 44015" width="4.08" height="38" transform="matrix(0.342, -0.94, 0.94, 0.342, 13.679, 39.938)" fill="#f4da80"/>
              <path id="Trazado_171703" data-name="Trazado 171703" d="M320.03,144.5a18.59,18.59,0,0,0-2.03,5.72l12.71,1.4-10.69-7.12Z" fill="#212957"/>
              <g id="Grupo_136666" data-name="Grupo 136666">
                <rect id="Rectángulo_44016" data-name="Rectángulo 44016" width="1.28" height="5.47" transform="translate(38.411 55.439) rotate(-69.98)" fill="#f4da80"/>
                <rect id="Rectángulo_44017" data-name="Rectángulo 44017" width="1.29" height="5.47" transform="translate(39.41 52.685) rotate(-69.98)" fill="#f4da80"/>
                <rect id="Rectángulo_44018" data-name="Rectángulo 44018" width="1.28" height="5.47" transform="matrix(0.343, -0.94, 0.94, 0.343, 40.416, 49.921)" fill="#f0ca67"/>
                <rect id="Rectángulo_44019" data-name="Rectángulo 44019" width="1.29" height="5.47" transform="matrix(0.342, -0.94, 0.94, 0.342, 41.426, 47.18)" fill="#f0ca67"/>
                <rect id="Rectángulo_44020" data-name="Rectángulo 44020" width="1.28" height="5.47" transform="matrix(0.342, -0.94, 0.94, 0.342, 42.428, 44.406)" fill="#f4da80"/>
                <rect id="Rectángulo_44021" data-name="Rectángulo 44021" width="1.29" height="5.47" transform="translate(43.432 41.662) rotate(-69.98)" fill="#f4da80"/>
                <rect id="Rectángulo_44022" data-name="Rectángulo 44022" width="1.28" height="5.47" transform="matrix(0.342, -0.94, 0.94, 0.342, 44.449, 38.902)" fill="#f4da80"/>
              </g>
              <g id="Grupo_136667" data-name="Grupo 136667">
                <rect id="Rectángulo_44023" data-name="Rectángulo 44023" width="1.28" height="5.47" transform="translate(16.528 47.468) rotate(-69.98)" fill="#f4da80"/>
                <rect id="Rectángulo_44024" data-name="Rectángulo 44024" width="1.29" height="5.47" transform="matrix(0.342, -0.94, 0.94, 0.342, 17.53, 44.706)" fill="#f4da80"/>
                <rect id="Rectángulo_44025" data-name="Rectángulo 44025" width="1.28" height="5.47" transform="matrix(0.342, -0.94, 0.94, 0.342, 18.529, 41.952)" fill="#f0ca67"/>
                <path id="Trazado_171704" data-name="Trazado 171704" d="M19.98,37.99l5.14,1.87-.44,1.21L19.54,39.2Z" fill="#f0ca67"/>
                <rect id="Rectángulo_44026" data-name="Rectángulo 44026" width="1.28" height="5.47" transform="matrix(0.342, -0.94, 0.94, 0.342, 20.537, 36.441)" fill="#f4da80"/>
                <rect id="Rectángulo_44027" data-name="Rectángulo 44027" width="1.28" height="5.47" transform="translate(21.54 33.69) rotate(-69.98)" fill="#f4da80"/>
                <rect id="Rectángulo_44028" data-name="Rectángulo 44028" width="1.28" height="5.47" transform="matrix(0.342, -0.94, 0.94, 0.342, 22.54, 30.92)" fill="#f4da80"/>
              </g>
            </g>
            <path id="Trazado_171705" data-name="Trazado 171705" d="M216.19,117.41s-18.16-6.05-.62-35.9c6.97-11.85-3.7-45.09-23.11-31.77s-15.65-.18-26.62,7.25S150.92,73.7,153.92,82.71s4.64,26.8-2.11,31.29-38.72,28.75-12.63,49.29,96.9-8.18,77.01-45.89Z" fill="#212957"/>
            <path id="Trazado_171706" data-name="Trazado 171706" d="M180.32,84.51l2.66,41.11,21.05-.82-7.39-27.6Z" fill="#f7b68b"/>
            <path id="Trazado_171707" data-name="Trazado 171707" d="M198.97,106.56c-.48-.19-.99-.43-1.55-.71a76.39,76.39,0,0,1-16.13-11.07l-.96-12.44,16.31,13.58,2.32,10.63Z" fill="#ec9568"/>
            <path id="Trazado_171708" data-name="Trazado 171708" d="M202.36,63.37s5.61,13.19,4.43,22.2,1.22,15.06-8.34,13.59-21.28-5.41-24.8-9.28-2.21-11.1,4.07-9.94,4.54-2.83,10.16-3.73,15.23-4.91,14.49-12.85Z" fill="#f7b68b"/>
            <path id="Trazado_171709" data-name="Trazado 171709" d="M208.41,115.83s-13.35,3.04-23.93-.29c-10.09-3.17-27.1-10.67-27.1-10.67s-8.94.58-7.21,13.26,25.37,46.71,30.56,51.32-5.19,23.07-5.19,23.07,57.09,5.77,58.82,7.5-8.28-36.92-8.07-38.63c.87-7.21-8.07-45.55-17.88-45.55Z" fill="#6677d6"/>
            <path id="Trazado_171710" data-name="Trazado 171710" d="M167.11,108.55s-8.29-7.42-15.21-7.42c-2.31,0-7.5,8.36-8.36,19.03-.8,9.92-5.48,46.42-5.48,56.8s17.01,12.33,17.8,9.01c.9-3.76,3.53-46.49,3.53-46.49l7.71-30.92Z" fill="#4e2e8e"/>
            <path id="Trazado_171711" data-name="Trazado 171711" d="M203.8,116.69s13.98,5.77,19.75,30.99c.81,3.56,13.41,11.24,18.31,16,6.15,5.96,19.32,10.38,19.32,10.38s-18.16-16.15-17.59-26.53-32.58-36.33-39.79-30.85Z" fill="#4e2e8e"/>
            <path id="Trazado_171712" data-name="Trazado 171712" d="M250.36,133.3s7.78,8.68,13.41,16.11c3.11,4.12,4.76,11.57,5.62,16.11.88,4.63-2.16,11.16-8.22,11.57-7.78.53-14.7-11.16-15.86-17.22s-5.08-28.15-6.34-30.3c-.29-.49,11.39,3.72,11.39,3.72Z" fill="#f7b68b"/>
            <path id="Trazado_171713" data-name="Trazado 171713" d="M238.97,121.6c-1.15-1.73-11.53-7.35-11.53-7.35l2.88-9.95,22.49,3.89s-.07,2.18-.07,4.04c0,.59-3.09-.37-3.74.37-3.84,4.32-9.29,10.11-10.02,9Z" fill="#f7b68b"/>
            <path id="Trazado_171714" data-name="Trazado 171714" d="M140.51,179.26s-3.03,22.49-1.87,31.71,6.92,35.75,8.07,39.21,2.88,10.38,2.88,10.38,8.65-12.69,8.07-14.42a58.25,58.25,0,0,0-5.19-10.38c-1.73-2.31-2.31-9.23-1.73-18.45s9.87-26.6,2.96-35.25-13.19-2.81-13.19-2.81Z" fill="#f7b68b"/>
            <path id="Trazado_171715" data-name="Trazado 171715" d="M203.22,240.96s-.58-6.34,5.19,19.03c5.38,23.68,3.46,45.55,4.04,47.86s-3.61,18.5-4.9,26.24c-2.16,12.97-2.59,6.05-.29,30.27s-.58,50.74-.58,52.47,12.69,2.88,12.69,2.88,3.46-36.33,10.38-54.78,6.78-36.9,5.77-65.16c-.2-5.68,10.96-60.42,9.8-66.89-2.29-12.81-8.94-30.71-11.58-37.56-.69-1.78-1.11-2.81-1.11-2.81l-29.41,48.44Z" fill="#b0a2cd"/>
            <path id="Trazado_171716" data-name="Trazado 171716" d="M175.54,192.52h57.09l-29.41,48.44h-6.34l-41.23,67.18s-13.41,32.87-21.62,59.11c-8.32,26.58-9.23,66.89-9.23,66.89l-12.69,2.88s-8.91-68.92-4.61-86.5c6.34-25.95,27.39-44.93,27.39-48.44,0-10.38,12.11-55.65,19.03-68.33s21.62-41.23,21.62-41.23Z" fill="#b0a2cd"/>
            <path id="Trazado_171717" data-name="Trazado 171717" d="M205.09,425.77l-2.88,22.49,32.29,1.15s.14-10.09-4.47-10.67-11.1-13.55-11.1-13.55-1.44-5.91-2.74-5.48c-10.77,3.59-11.1,6.05-11.1,6.05Z" fill="#3d46c2"/>
            <path id="Trazado_171718" data-name="Trazado 171718" d="M112.69,448.25l-.58,9.23,6.34,8.65,27.1.58s-9.8-12.11-10.38-13.84-2.88-13.26-7.5-14.99-9.23.58-9.23,4.61-4.61,5.77-5.77,5.77Z" fill="#3d46c2"/>
            <path id="Trazado_171719" data-name="Trazado 171719" d="M113.48,431.83l1.3-.02c0-.63-.84-63.25.86-76.89,1.69-13.54,21.33-44.4,21.53-44.71.79-1.79,18.27-41.79,20.84-52.97,2.55-11.04,24.81-56.49,25.03-56.95l-1.17-.57c-.92,1.87-22.55,46.04-25.13,57.23-2.55,11.06-20.54,52.23-20.72,52.65-.77,1.19-19.94,31.33-21.67,45.16C112.63,368.48,113.47,431.2,113.48,431.83Z" fill="#7eb3ff"/>
            <path id="Trazado_171720" data-name="Trazado 171720" d="M174.68,218.83c17.59,0,23.06-19.31,23.12-19.51l-1.25-.34c-.05.19-5.27,18.55-21.86,18.55v1.3Z" fill="#7eb3ff"/>
          </g>
        </g>
      </g>
    </g>
  </g>
</svg>
