<svg xmlns="http://www.w3.org/2000/svg" width="238.771" height="334.725" viewBox="0 0 238.771 334.725">
  <g id="Grupo_163879" data-name="Grupo 163879" transform="translate(7767.897 6382.944)">
    <g id="Grupo_113624" data-name="Grupo 113624" transform="translate(-7796.5 -10008.73)">
      <g id="Grupo_113566" data-name="Grupo 113566" transform="translate(139.012 3625.787)">
        <g id="Grupo_113412" data-name="Grupo 113412" transform="translate(0 0.001)">
          <g id="Grupo_113408" data-name="Grupo 113408" transform="translate(1.712 1.71)">
            <g id="Grupo_113407" data-name="Grupo 113407">
              <g id="Grupo_113406" data-name="Grupo 113406">
                <path id="Trazado_162119" data-name="Trazado 162119" d="M419.951,3630.594H349.1a5.61,5.61,0,0,0-5.592,5.595v169.7a5.61,5.61,0,0,0,5.592,5.6H462.854a5.611,5.611,0,0,0,5.593-5.6V3679.092Z" transform="translate(-343.51 -3630.594)" fill="#fff"/>
              </g>
            </g>
          </g>
          <g id="Grupo_113411" data-name="Grupo 113411">
            <g id="Grupo_113410" data-name="Grupo 113410">
              <g id="Grupo_113409" data-name="Grupo 113409">
                <path id="Trazado_162120" data-name="Trazado 162120" d="M459.758,3810.1H346.006a7.315,7.315,0,0,1-7.3-7.306V3633.1a7.315,7.315,0,0,1,7.3-7.305h70.849a1.707,1.707,0,0,1,1.208.5l48.5,48.5a1.718,1.718,0,0,1,.5,1.211v126.794A7.315,7.315,0,0,1,459.758,3810.1ZM346.006,3629.213a3.888,3.888,0,0,0-3.883,3.883v169.7a3.89,3.89,0,0,0,3.883,3.885H459.758a3.89,3.89,0,0,0,3.884-3.885V3676.706l-47.5-47.493Z" transform="translate(-338.702 -3625.79)" fill="#2f54a6"/>
              </g>
            </g>
          </g>
        </g>
        <g id="Grupo_113458" data-name="Grupo 113458" transform="translate(10.839 20.076)">
          <g id="Grupo_113421" data-name="Grupo 113421">
            <g id="Grupo_113416" data-name="Grupo 113416" transform="translate(0 1.616)">
              <g id="Grupo_113415" data-name="Grupo 113415">
                <g id="Grupo_113414" data-name="Grupo 113414">
                  <g id="Grupo_113413" data-name="Grupo 113413">
                    <path id="Trazado_162121" data-name="Trazado 162121" d="M369.144,3686.71h0Z" transform="translate(-369.144 -3686.71)" fill="#aaccf2"/>
                  </g>
                </g>
              </g>
            </g>
            <g id="Grupo_113420" data-name="Grupo 113420" transform="translate(0)">
              <g id="Grupo_113419" data-name="Grupo 113419">
                <g id="Grupo_113418" data-name="Grupo 113418">
                  <g id="Grupo_113417" data-name="Grupo 113417">
                    <rect id="Rectángulo_41639" data-name="Rectángulo 41639" width="72.921" height="3.232" fill="#aaccf2"/>
                  </g>
                </g>
              </g>
            </g>
          </g>
          <g id="Grupo_113430" data-name="Grupo 113430" transform="translate(0 6.214)">
            <g id="Grupo_113425" data-name="Grupo 113425" transform="translate(0 1.616)">
              <g id="Grupo_113424" data-name="Grupo 113424">
                <g id="Grupo_113423" data-name="Grupo 113423">
                  <g id="Grupo_113422" data-name="Grupo 113422">
                    <path id="Trazado_162122" data-name="Trazado 162122" d="M369.144,3704.163h0Z" transform="translate(-369.144 -3704.163)" fill="#aaccf2"/>
                  </g>
                </g>
              </g>
            </g>
            <g id="Grupo_113429" data-name="Grupo 113429" transform="translate(0)">
              <g id="Grupo_113428" data-name="Grupo 113428">
                <g id="Grupo_113427" data-name="Grupo 113427">
                  <g id="Grupo_113426" data-name="Grupo 113426">
                    <rect id="Rectángulo_41640" data-name="Rectángulo 41640" width="57.731" height="3.23" fill="#aaccf2"/>
                  </g>
                </g>
              </g>
            </g>
          </g>
          <g id="Grupo_113439" data-name="Grupo 113439" transform="translate(0 13.315)">
            <g id="Grupo_113434" data-name="Grupo 113434" transform="translate(0 1.615)">
              <g id="Grupo_113433" data-name="Grupo 113433">
                <g id="Grupo_113432" data-name="Grupo 113432">
                  <g id="Grupo_113431" data-name="Grupo 113431">
                    <path id="Trazado_162123" data-name="Trazado 162123" d="M369.144,3724.1h0Z" transform="translate(-369.144 -3724.105)" fill="#aaccf2"/>
                  </g>
                </g>
              </g>
            </g>
            <g id="Grupo_113438" data-name="Grupo 113438" transform="translate(0)">
              <g id="Grupo_113437" data-name="Grupo 113437">
                <g id="Grupo_113436" data-name="Grupo 113436">
                  <g id="Grupo_113435" data-name="Grupo 113435">
                    <rect id="Rectángulo_41641" data-name="Rectángulo 41641" width="28.866" height="3.23" fill="#aaccf2"/>
                  </g>
                </g>
              </g>
            </g>
          </g>
          <g id="Grupo_113448" data-name="Grupo 113448" transform="translate(39.158 13.315)">
            <g id="Grupo_113443" data-name="Grupo 113443" transform="translate(0 1.615)">
              <g id="Grupo_113442" data-name="Grupo 113442">
                <g id="Grupo_113441" data-name="Grupo 113441">
                  <g id="Grupo_113440" data-name="Grupo 113440">
                    <path id="Trazado_162124" data-name="Trazado 162124" d="M479.124,3724.1h0Z" transform="translate(-479.124 -3724.105)" fill="#aaccf2"/>
                  </g>
                </g>
              </g>
            </g>
            <g id="Grupo_113447" data-name="Grupo 113447" transform="translate(0)">
              <g id="Grupo_113446" data-name="Grupo 113446">
                <g id="Grupo_113445" data-name="Grupo 113445">
                  <g id="Grupo_113444" data-name="Grupo 113444">
                    <rect id="Rectángulo_41642" data-name="Rectángulo 41642" width="46.182" height="3.23" fill="#aaccf2"/>
                  </g>
                </g>
              </g>
            </g>
          </g>
          <g id="Grupo_113457" data-name="Grupo 113457" transform="translate(0 19.94)">
            <g id="Grupo_113452" data-name="Grupo 113452" transform="translate(0 1.613)">
              <g id="Grupo_113451" data-name="Grupo 113451">
                <g id="Grupo_113450" data-name="Grupo 113450">
                  <g id="Grupo_113449" data-name="Grupo 113449">
                    <path id="Trazado_162125" data-name="Trazado 162125" d="M369.144,3742.707h0Z" transform="translate(-369.144 -3742.707)" fill="#aaccf2"/>
                  </g>
                </g>
              </g>
            </g>
            <g id="Grupo_113456" data-name="Grupo 113456" transform="translate(0)">
              <g id="Grupo_113455" data-name="Grupo 113455">
                <g id="Grupo_113454" data-name="Grupo 113454">
                  <g id="Grupo_113453" data-name="Grupo 113453">
                    <rect id="Rectángulo_41643" data-name="Rectángulo 41643" width="85.34" height="3.229" fill="#aaccf2"/>
                  </g>
                </g>
              </g>
            </g>
          </g>
        </g>
        <g id="Grupo_113522" data-name="Grupo 113522" transform="translate(10.839 56.668)">
          <g id="Grupo_113467" data-name="Grupo 113467">
            <g id="Grupo_113462" data-name="Grupo 113462" transform="translate(0 1.615)">
              <g id="Grupo_113461" data-name="Grupo 113461">
                <g id="Grupo_113460" data-name="Grupo 113460">
                  <g id="Grupo_113459" data-name="Grupo 113459">
                    <path id="Trazado_162126" data-name="Trazado 162126" d="M369.144,3789.484h0Z" transform="translate(-369.144 -3789.484)" fill="#aaccf2"/>
                  </g>
                </g>
              </g>
            </g>
            <g id="Grupo_113466" data-name="Grupo 113466" transform="translate(0)">
              <g id="Grupo_113465" data-name="Grupo 113465">
                <g id="Grupo_113464" data-name="Grupo 113464">
                  <g id="Grupo_113463" data-name="Grupo 113463">
                    <rect id="Rectángulo_41644" data-name="Rectángulo 41644" width="106.683" height="3.23" fill="#aaccf2"/>
                  </g>
                </g>
              </g>
            </g>
          </g>
          <g id="Grupo_113476" data-name="Grupo 113476" transform="translate(0 6.212)">
            <g id="Grupo_113471" data-name="Grupo 113471" transform="translate(0 1.617)">
              <g id="Grupo_113470" data-name="Grupo 113470">
                <g id="Grupo_113469" data-name="Grupo 113469">
                  <g id="Grupo_113468" data-name="Grupo 113468">
                    <path id="Trazado_162127" data-name="Trazado 162127" d="M369.144,3806.937h0Z" transform="translate(-369.144 -3806.937)" fill="#aaccf2"/>
                  </g>
                </g>
              </g>
            </g>
            <g id="Grupo_113475" data-name="Grupo 113475" transform="translate(0)">
              <g id="Grupo_113474" data-name="Grupo 113474">
                <g id="Grupo_113473" data-name="Grupo 113473">
                  <g id="Grupo_113472" data-name="Grupo 113472">
                    <rect id="Rectángulo_41645" data-name="Rectángulo 41645" width="57.731" height="3.232" fill="#aaccf2"/>
                  </g>
                </g>
              </g>
            </g>
          </g>
          <g id="Grupo_113485" data-name="Grupo 113485" transform="translate(65.4 6.212)">
            <g id="Grupo_113480" data-name="Grupo 113480" transform="translate(0 1.617)">
              <g id="Grupo_113479" data-name="Grupo 113479">
                <g id="Grupo_113478" data-name="Grupo 113478">
                  <g id="Grupo_113477" data-name="Grupo 113477">
                    <path id="Trazado_162128" data-name="Trazado 162128" d="M552.829,3806.937h0Z" transform="translate(-552.829 -3806.937)" fill="#aaccf2"/>
                  </g>
                </g>
              </g>
            </g>
            <g id="Grupo_113484" data-name="Grupo 113484" transform="translate(0)">
              <g id="Grupo_113483" data-name="Grupo 113483">
                <g id="Grupo_113482" data-name="Grupo 113482">
                  <g id="Grupo_113481" data-name="Grupo 113481">
                    <rect id="Rectángulo_41646" data-name="Rectángulo 41646" width="41.283" height="3.232" fill="#aaccf2"/>
                  </g>
                </g>
              </g>
            </g>
          </g>
          <g id="Grupo_113494" data-name="Grupo 113494" transform="translate(92.446 19.939)">
            <g id="Grupo_113489" data-name="Grupo 113489" transform="translate(0 1.615)">
              <g id="Grupo_113488" data-name="Grupo 113488">
                <g id="Grupo_113487" data-name="Grupo 113487">
                  <g id="Grupo_113486" data-name="Grupo 113486">
                    <path id="Trazado_162129" data-name="Trazado 162129" d="M628.791,3845.484h0Z" transform="translate(-628.791 -3845.484)" fill="#aaccf2"/>
                  </g>
                </g>
              </g>
            </g>
            <g id="Grupo_113493" data-name="Grupo 113493">
              <g id="Grupo_113492" data-name="Grupo 113492">
                <g id="Grupo_113491" data-name="Grupo 113491">
                  <g id="Grupo_113490" data-name="Grupo 113490">
                    <rect id="Rectángulo_41647" data-name="Rectángulo 41647" width="14.237" height="3.229" fill="#aaccf2"/>
                  </g>
                </g>
              </g>
            </g>
          </g>
          <g id="Grupo_113503" data-name="Grupo 113503" transform="translate(0 13.313)">
            <g id="Grupo_113498" data-name="Grupo 113498" transform="translate(0 1.616)">
              <g id="Grupo_113497" data-name="Grupo 113497">
                <g id="Grupo_113496" data-name="Grupo 113496">
                  <g id="Grupo_113495" data-name="Grupo 113495">
                    <path id="Trazado_162130" data-name="Trazado 162130" d="M369.144,3826.876h0Z" transform="translate(-369.144 -3826.876)" fill="#aaccf2"/>
                  </g>
                </g>
              </g>
            </g>
            <g id="Grupo_113502" data-name="Grupo 113502" transform="translate(0)">
              <g id="Grupo_113501" data-name="Grupo 113501">
                <g id="Grupo_113500" data-name="Grupo 113500">
                  <g id="Grupo_113499" data-name="Grupo 113499">
                    <rect id="Rectángulo_41648" data-name="Rectángulo 41648" width="28.866" height="3.231" fill="#aaccf2"/>
                  </g>
                </g>
              </g>
            </g>
          </g>
          <g id="Grupo_113512" data-name="Grupo 113512" transform="translate(39.158 13.313)">
            <g id="Grupo_113507" data-name="Grupo 113507" transform="translate(0 1.616)">
              <g id="Grupo_113506" data-name="Grupo 113506">
                <g id="Grupo_113505" data-name="Grupo 113505">
                  <g id="Grupo_113504" data-name="Grupo 113504">
                    <path id="Trazado_162131" data-name="Trazado 162131" d="M479.124,3826.876h0Z" transform="translate(-479.124 -3826.876)" fill="#aaccf2"/>
                  </g>
                </g>
              </g>
            </g>
            <g id="Grupo_113511" data-name="Grupo 113511" transform="translate(0)">
              <g id="Grupo_113510" data-name="Grupo 113510">
                <g id="Grupo_113509" data-name="Grupo 113509">
                  <g id="Grupo_113508" data-name="Grupo 113508">
                    <rect id="Rectángulo_41649" data-name="Rectángulo 41649" width="67.525" height="3.231" fill="#aaccf2"/>
                  </g>
                </g>
              </g>
            </g>
          </g>
          <g id="Grupo_113521" data-name="Grupo 113521" transform="translate(0 19.939)">
            <g id="Grupo_113516" data-name="Grupo 113516" transform="translate(0 1.615)">
              <g id="Grupo_113515" data-name="Grupo 113515">
                <g id="Grupo_113514" data-name="Grupo 113514">
                  <g id="Grupo_113513" data-name="Grupo 113513">
                    <path id="Trazado_162132" data-name="Trazado 162132" d="M369.144,3845.484h0Z" transform="translate(-369.144 -3845.484)" fill="#aaccf2"/>
                  </g>
                </g>
              </g>
            </g>
            <g id="Grupo_113520" data-name="Grupo 113520" transform="translate(0)">
              <g id="Grupo_113519" data-name="Grupo 113519">
                <g id="Grupo_113518" data-name="Grupo 113518">
                  <g id="Grupo_113517" data-name="Grupo 113517">
                    <rect id="Rectángulo_41650" data-name="Rectángulo 41650" width="85.34" height="3.229" fill="#aaccf2"/>
                  </g>
                </g>
              </g>
            </g>
          </g>
        </g>
        <g id="Grupo_113529" data-name="Grupo 113529" transform="translate(76.442)">
          <g id="Grupo_113525" data-name="Grupo 113525" transform="translate(1.71 1.711)">
            <g id="Grupo_113524" data-name="Grupo 113524">
              <g id="Grupo_113523" data-name="Grupo 113523">
                <path id="Trazado_162133" data-name="Trazado 162133" d="M558.2,3673.5v-42.9l48.5,48.5H563.8A5.611,5.611,0,0,1,558.2,3673.5Z" transform="translate(-558.204 -3630.593)" fill="#b0a2cd"/>
              </g>
            </g>
          </g>
          <g id="Grupo_113528" data-name="Grupo 113528">
            <g id="Grupo_113527" data-name="Grupo 113527">
              <g id="Grupo_113526" data-name="Grupo 113526">
                <path id="Trazado_162134" data-name="Trazado 162134" d="M603.607,3677.707h-42.9a7.314,7.314,0,0,1-7.305-7.3v-42.9a1.709,1.709,0,0,1,2.918-1.209l48.5,48.5a1.712,1.712,0,0,1-1.211,2.922Zm-46.786-46.078V3670.4a3.887,3.887,0,0,0,3.884,3.882h38.772Z" transform="translate(-553.4 -3625.787)" fill="#b0a2cd"/>
              </g>
            </g>
          </g>
        </g>
        <g id="Grupo_113532" data-name="Grupo 113532" transform="translate(9.365 93.242)">
          <g id="Grupo_113531" data-name="Grupo 113531">
            <g id="Grupo_113530" data-name="Grupo 113530">
              <path id="Trazado_162135" data-name="Trazado 162135" d="M371.575,3890.954a3.285,3.285,0,1,1-3.286-3.285A3.286,3.286,0,0,1,371.575,3890.954Z" transform="translate(-365.005 -3887.669)" fill="#aaccf2"/>
            </g>
          </g>
        </g>
        <g id="Grupo_113535" data-name="Grupo 113535" transform="translate(9.365 104.935)">
          <g id="Grupo_113534" data-name="Grupo 113534">
            <g id="Grupo_113533" data-name="Grupo 113533">
              <path id="Trazado_162136" data-name="Trazado 162136" d="M371.575,3923.794a3.285,3.285,0,1,1-3.286-3.286A3.286,3.286,0,0,1,371.575,3923.794Z" transform="translate(-365.005 -3920.509)" fill="#aaccf2"/>
            </g>
          </g>
        </g>
        <g id="Grupo_113538" data-name="Grupo 113538" transform="translate(9.365 116.628)">
          <g id="Grupo_113537" data-name="Grupo 113537">
            <g id="Grupo_113536" data-name="Grupo 113536">
              <path id="Trazado_162137" data-name="Trazado 162137" d="M371.575,3956.635a3.285,3.285,0,1,1-3.286-3.284A3.286,3.286,0,0,1,371.575,3956.635Z" transform="translate(-365.005 -3953.351)" fill="#aaccf2"/>
            </g>
          </g>
        </g>
        <g id="Grupo_113547" data-name="Grupo 113547" transform="translate(17.946 94.913)">
          <g id="Grupo_113542" data-name="Grupo 113542" transform="translate(0 1.615)">
            <g id="Grupo_113541" data-name="Grupo 113541">
              <g id="Grupo_113540" data-name="Grupo 113540">
                <g id="Grupo_113539" data-name="Grupo 113539">
                  <path id="Trazado_162138" data-name="Trazado 162138" d="M389.107,3896.9h0Z" transform="translate(-389.107 -3896.898)" fill="#aaccf2"/>
                </g>
              </g>
            </g>
          </g>
          <g id="Grupo_113546" data-name="Grupo 113546">
            <g id="Grupo_113545" data-name="Grupo 113545">
              <g id="Grupo_113544" data-name="Grupo 113544">
                <g id="Grupo_113543" data-name="Grupo 113543">
                  <rect id="Rectángulo_41651" data-name="Rectángulo 41651" width="85.338" height="3.229" fill="#aaccf2"/>
                </g>
              </g>
            </g>
          </g>
        </g>
        <g id="Grupo_113556" data-name="Grupo 113556" transform="translate(17.946 106.605)">
          <g id="Grupo_113551" data-name="Grupo 113551" transform="translate(0 1.615)">
            <g id="Grupo_113550" data-name="Grupo 113550">
              <g id="Grupo_113549" data-name="Grupo 113549">
                <g id="Grupo_113548" data-name="Grupo 113548">
                  <path id="Trazado_162139" data-name="Trazado 162139" d="M389.107,3929.736h0Z" transform="translate(-389.107 -3929.736)" fill="#aaccf2"/>
                </g>
              </g>
            </g>
          </g>
          <g id="Grupo_113555" data-name="Grupo 113555">
            <g id="Grupo_113554" data-name="Grupo 113554">
              <g id="Grupo_113553" data-name="Grupo 113553">
                <g id="Grupo_113552" data-name="Grupo 113552">
                  <rect id="Rectángulo_41652" data-name="Rectángulo 41652" width="85.338" height="3.229" fill="#aaccf2"/>
                </g>
              </g>
            </g>
          </g>
        </g>
        <g id="Grupo_113565" data-name="Grupo 113565" transform="translate(17.946 118.297)">
          <g id="Grupo_113560" data-name="Grupo 113560" transform="translate(0 1.615)">
            <g id="Grupo_113559" data-name="Grupo 113559">
              <g id="Grupo_113558" data-name="Grupo 113558">
                <g id="Grupo_113557" data-name="Grupo 113557">
                  <path id="Trazado_162140" data-name="Trazado 162140" d="M389.107,3962.574h0Z" transform="translate(-389.107 -3962.574)" fill="#aaccf2"/>
                </g>
              </g>
            </g>
          </g>
          <g id="Grupo_113564" data-name="Grupo 113564">
            <g id="Grupo_113563" data-name="Grupo 113563">
              <g id="Grupo_113562" data-name="Grupo 113562">
                <g id="Grupo_113561" data-name="Grupo 113561">
                  <rect id="Rectángulo_41653" data-name="Rectángulo 41653" width="85.338" height="3.229" fill="#aaccf2"/>
                </g>
              </g>
            </g>
          </g>
        </g>
      </g>
      <g id="Devushka" transform="translate(28.603 3669.976)">
        <g id="Grupo_113567" data-name="Grupo 113567" transform="translate(18.251 194.522)">
          <path id="Trazado_162141" data-name="Trazado 162141" d="M155.323,4296.239H89.752a70.148,70.148,0,0,0-5.464,11.318c-4.826,12.834-4.582,23.768-4.293,32.786.547,17.068,1.269,34.137,2.342,51.91H151.42Z" transform="translate(-79.864 -4296.239)" fill="#6677d6"/>
        </g>
        <g id="Grupo_113568" data-name="Grupo 113568" transform="translate(28.954 194.522)">
          <path id="Trazado_162142" data-name="Trazado 162142" d="M113.209,4296.239c-1.2,5.821-.865,11.94-1.1,17.836a108.588,108.588,0,0,1-1.072,10.974,79.86,79.86,0,0,0-1.107,12.631c.144,8.387,1.69,16.662,3.1,24.905.692,4.05,1.446,8.119,1.75,12.219A67.879,67.879,0,0,0,116.4,4387.2c.449,1.7.988,3.385,1.553,5.056h52.822l3.9-96.014Z" transform="translate(-109.925 -4296.239)" fill="#4e2e8e"/>
        </g>
        <g id="Grupo_113569" data-name="Grupo 113569" transform="translate(26.403 191.644)">
          <path id="Trazado_162143" data-name="Trazado 162143" d="M181.825,4386.95H125.768a195.184,195.184,0,0,1-13.466-29.565c-3.811-10.65-8.028-22.7-9.221-38.933a120.767,120.767,0,0,1,1.61-30.3l69.474,1.708Z" transform="translate(-102.76 -4288.155)" fill="#6677d6"/>
        </g>
        <g id="Grupo_113583" data-name="Grupo 113583" transform="translate(114.972 81.779)">
          <g id="Grupo_113570" data-name="Grupo 113570">
            <path id="Trazado_162144" data-name="Trazado 162144" d="M382.666,4042.686l-28.9-13.2a3.447,3.447,0,0,1-1.3-5.621l34.871-42.108a6.53,6.53,0,0,1,7.341-1.678l28.9,13.2a3.447,3.447,0,0,1,1.3,5.621l-34.871,42.108A6.529,6.529,0,0,1,382.666,4042.686Z" transform="translate(-351.516 -3979.584)" fill="#fff"/>
          </g>
          <g id="Grupo_113571" data-name="Grupo 113571" transform="translate(2.941 1.961)">
            <path id="Trazado_162145" data-name="Trazado 162145" d="M390.294,4044l-29.566-13.5a1.458,1.458,0,0,1-.549-2.378l34.871-42.108a2.762,2.762,0,0,1,3.106-.709l29.565,13.5a1.459,1.459,0,0,1,.549,2.378L393.4,4043.288A2.763,2.763,0,0,1,390.294,4044Z" transform="translate(-359.777 -3985.092)" fill="#bcdafe"/>
          </g>
          <g id="Grupo_113578" data-name="Grupo 113578" transform="translate(11.23 7.53)">
            <g id="Grupo_113572" data-name="Grupo 113572" transform="translate(28.362)">
              <path id="Trazado_162146" data-name="Trazado 162146" d="M484.217,4013.5l-20.887-9.537a.945.945,0,0,1-.355-1.541l.9-1.088a1.789,1.789,0,0,1,2.012-.459l20.887,9.537a.945.945,0,0,1,.355,1.54l-.9,1.088A1.79,1.79,0,0,1,484.217,4013.5Z" transform="translate(-462.713 -4000.734)" fill="#fff"/>
            </g>
            <g id="Grupo_113573" data-name="Grupo 113573" transform="translate(14.878 5.614)">
              <path id="Trazado_162147" data-name="Trazado 162147" d="M457.738,4026.177l-20.887-9.537a1.789,1.789,0,0,0-2.012.46l-9.735,11.755a.945.945,0,0,0,.355,1.54l20.887,9.537a1.789,1.789,0,0,0,2.012-.46l9.735-11.755A.944.944,0,0,0,457.738,4026.177Z" transform="translate(-424.843 -4016.503)" fill="#fff"/>
            </g>
            <g id="Grupo_113574" data-name="Grupo 113574" transform="translate(0 30.318)">
              <path id="Trazado_162148" data-name="Trazado 162148" d="M404.559,4102.578l-20.887-9.537a.945.945,0,0,1-.355-1.541l4.155-5.018a1.79,1.79,0,0,1,2.012-.46l20.887,9.537a.945.945,0,0,1,.355,1.541l-4.155,5.018A1.789,1.789,0,0,1,404.559,4102.578Z" transform="translate(-383.056 -4085.886)" fill="#fff"/>
            </g>
            <g id="Grupo_113575" data-name="Grupo 113575" transform="translate(17.16 29.168)">
              <path id="Trazado_162149" data-name="Trazado 162149" d="M433.2,4087.121l-1.329-.607a.944.944,0,0,1-.355-1.54l1.424-1.719a1.79,1.79,0,0,1,2.012-.46l1.329.607a.945.945,0,0,1,.355,1.54l-1.424,1.72A1.79,1.79,0,0,1,433.2,4087.121Z" transform="translate(-431.252 -4082.658)" fill="#fff"/>
            </g>
            <g id="Grupo_113576" data-name="Grupo 113576" transform="translate(7.36 24.694)">
              <path id="Trazado_162150" data-name="Trazado 162150" d="M405.674,4074.554l-1.329-.607a.945.945,0,0,1-.355-1.541l1.424-1.72a1.79,1.79,0,0,1,2.012-.459l1.329.606a.945.945,0,0,1,.355,1.541l-1.424,1.719A1.789,1.789,0,0,1,405.674,4074.554Z" transform="translate(-403.728 -4070.091)" fill="#fff"/>
            </g>
            <g id="Grupo_113577" data-name="Grupo 113577" transform="translate(26.835 33.586)">
              <path id="Trazado_162151" data-name="Trazado 162151" d="M460.372,4099.528l-1.329-.607a.944.944,0,0,1-.355-1.54l1.424-1.719a1.789,1.789,0,0,1,2.012-.46l1.329.606a.945.945,0,0,1,.355,1.541l-1.424,1.719A1.788,1.788,0,0,1,460.372,4099.528Z" transform="translate(-458.426 -4095.065)" fill="#fff"/>
            </g>
          </g>
          <g id="Grupo_113582" data-name="Grupo 113582" transform="translate(29.429 15.755)">
            <g id="Grupo_113579" data-name="Grupo 113579" transform="translate(6.8)">
              <path id="Trazado_162152" data-name="Trazado 162152" d="M471,4033.82l-17.108-7.812a.961.961,0,0,1-.361-1.567h0a1.82,1.82,0,0,1,2.047-.468l17.108,7.811a.961.961,0,0,1,.361,1.568h0A1.821,1.821,0,0,1,471,4033.82Z" transform="translate(-453.269 -4023.834)" fill="#bcdafe"/>
            </g>
            <g id="Grupo_113580" data-name="Grupo 113580" transform="translate(3.371 4.141)">
              <path id="Trazado_162153" data-name="Trazado 162153" d="M461.374,4045.449l-17.108-7.811a.962.962,0,0,1-.361-1.568h0a1.821,1.821,0,0,1,2.047-.468l17.108,7.812a.961.961,0,0,1,.361,1.567h0A1.82,1.82,0,0,1,461.374,4045.449Z" transform="translate(-443.639 -4035.463)" fill="#bcdafe"/>
            </g>
            <g id="Grupo_113581" data-name="Grupo 113581" transform="translate(0 8.211)">
              <path id="Trazado_162154" data-name="Trazado 162154" d="M451.907,4056.881,434.8,4049.07a.961.961,0,0,1-.361-1.567h0a1.82,1.82,0,0,1,2.047-.468l17.108,7.811a.961.961,0,0,1,.361,1.568h0A1.82,1.82,0,0,1,451.907,4056.881Z" transform="translate(-434.171 -4046.896)" fill="#bcdafe"/>
            </g>
          </g>
        </g>
        <g id="Grupo_113586" data-name="Grupo 113586" transform="translate(32.253 39.198)">
          <g id="Grupo_113584" data-name="Grupo 113584">
            <path id="Trazado_162155" data-name="Trazado 162155" d="M119.28,3900.3a1.971,1.971,0,0,0-.028,1.048,1.809,1.809,0,0,0,.778.836c6.055,3.027,12.45,1.847,19.008,1.423,2.77-.179,7.358.08,9.052-2.575a10.737,10.737,0,0,0,1.219-3.4q2.138-9.2,3.55-18.546c.365-2.415,1.289-5.352.456-7.712a16.186,16.186,0,0,0-4.123-5.607,22.465,22.465,0,0,0-6.771-4.734,14.476,14.476,0,0,0-11.77.451c-3.4,1.706-3.622,6.97-4.546,10.393Q122.3,3885.985,119.28,3900.3Z" transform="translate(-119.19 -3859.989)" fill="#fe8658"/>
          </g>
          <g id="Grupo_113585" data-name="Grupo 113585" transform="translate(63.555 60.316)">
            <path id="Trazado_162156" data-name="Trazado 162156" d="M297.693,4047.026l26.638-9.367a27.921,27.921,0,0,1,13.246-8.05c1.13-.3,1.9-.325,2.415.2a1.338,1.338,0,0,1,.293.463,3.208,3.208,0,0,1,2.464.073,3.053,3.053,0,0,1,1.22,1.073,2.915,2.915,0,0,1,2.317.719,2.46,2.46,0,0,1,.549.842l7.355.585c.951,1.61-8.343,2.805-12.514,4.208l-4.757,2.378c2.843.372,4.961.655,6.074.732a2.652,2.652,0,0,1,1.756.659,1.978,1.978,0,0,1,.366.512l-14.051,3.073-27.956,25.028Z" transform="translate(-297.693 -4029.395)" fill="#fe8658"/>
          </g>
        </g>
        <g id="Grupo_113587" data-name="Grupo 113587" transform="translate(54.397 39.872)">
          <path id="Trazado_162157" data-name="Trazado 162157" d="M181.583,3868.638a23.7,23.7,0,0,0,1.83,7.274c.911,2.091,2.078,4.055,3.129,6.076.991,1.9,1.727,3.916,2.68,5.836a12.9,12.9,0,0,0,1.865,2.916q1.022-5.2,1.822-10.442c.365-2.414,1.289-5.352.456-7.712a16.182,16.182,0,0,0-4.123-5.607,22.456,22.456,0,0,0-6.771-4.734c-.342-.14-.7-.251-1.049-.363A52.6,52.6,0,0,0,181.583,3868.638Z" transform="translate(-181.382 -3861.883)" fill="#e9511e"/>
        </g>
        <g id="Grupo_113588" data-name="Grupo 113588" transform="translate(14.223 73.528)">
          <path id="Trazado_162158" data-name="Trazado 162158" d="M123.351,3958.461c-2.411-.964-4.441-1.633-5.781-2.049-.811.094-1.913.206-3.22.292a211.291,211.291,0,0,1-22.644-.223,7.7,7.7,0,0,0-3.271.412,11.361,11.361,0,0,0-3.289,2.3c-5.489,4.714-12.846,8.19-15.189,15.036a23.585,23.585,0,0,0-.993,5.961c-1.16,16.008.335,32.077,1.828,48.058q2.051,21.959,4.1,43.917c.21,2.254.5,4.7,2.082,6.319,1.684,1.733,4.322,2.019,6.732,2.187,3.023.211,56.5.513,63.792.874.994.048,3.914.233,5.708-1.6,1.74-1.781,1.547-4.567,1.464-5.854-.4-6.215-.087-12.466-.569-18.675-.644-8.3-1.176-12.5.2-17.244,1.406-4.848,4.633-9.043,5.817-13.95,1.472-6.1-.4-12.51-2.889-18.272s-5.646-11.321-6.933-17.465c-1.6-7.624-.12-7.154-1.737-11.187C144.38,3966.871,131.7,3961.8,123.351,3958.461Z" transform="translate(-68.549 -3956.412)" fill="#fff"/>
        </g>
        <g id="Grupo_113589" data-name="Grupo 113589" transform="translate(40.343 84.838)">
          <path id="Trazado_162159" data-name="Trazado 162159" d="M201.543,4058.623a27.416,27.416,0,0,1,1.435-3.743,40.586,40.586,0,0,1-1.391-3.937,27,27,0,0,1-.938-5.923c-.288-4.68-1.041-9.317-1.771-13.943-1.191-7.546-2.441-15.34-1.5-22.97-1.315-6.743-.019-6.48-1.573-10.357a22.371,22.371,0,0,0-5.74-8.045c-.292-.021-.585-.028-.877-.055-6.026-.57-12.222-2.567-18.208-.681a18.645,18.645,0,0,0-8.715,6.041,31.6,31.6,0,0,0-4.887,9.041c-1.164,3.123-1.991,6.34-3,9.511a58.313,58.313,0,0,1-4.3,9.235,29.888,29.888,0,0,0-3.461,9.4,67.733,67.733,0,0,1-3,11.4,23.22,23.22,0,0,0-1.618,5.843,24.6,24.6,0,0,0,.451,4.7,18.418,18.418,0,0,1-.434,4.785,9.646,9.646,0,0,0,.435,4.634c1.013,2.867,3.176,5.066,5.329,7.123,1.039.992,2.093,1.97,3.068,3.027a34.2,34.2,0,0,1,2.606,3.462,26.786,26.786,0,0,0,5.437,6,18.947,18.947,0,0,0,7.684,3.283,41.553,41.553,0,0,0,12.672.135c2.19-.233,4.389-.5,6.562-.858,2.111-.345,4.207-.765,6.325-1.067,1.759-.251,3.52-.441,5.276-.719,1.408-.224,2.818-.426,4.229-.628-.034-2.487-.1-4.972-.291-7.45C200.7,4067.567,200.169,4063.362,201.543,4058.623Z" transform="translate(-141.91 -3988.175)" fill="#d9eafe"/>
        </g>
        <g id="Grupo_113590" data-name="Grupo 113590" transform="translate(16.185 111.966)">
          <path id="Trazado_162160" data-name="Trazado 162160" d="M114.236,4067.33a169.071,169.071,0,0,0-40.069-1.075l-.108-1.166a170.246,170.246,0,0,1,40.347,1.082Z" transform="translate(-74.059 -4064.368)" fill="#d9eafe"/>
        </g>
        <g id="Grupo_113591" data-name="Grupo 113591" transform="translate(13.195)">
          <path id="Trazado_162161" data-name="Trazado 162161" d="M68.1,3752.52c-3.314,3.13-3.053,8.81-.414,12.528,3.547,5,19.859,13.093,24.917,6.9,4.595-5.629-2.717-17.265-7.726-20C80.4,3749.493,72.095,3748.749,68.1,3752.52Z" transform="translate(-65.661 -3749.898)" fill="#3d46c2"/>
        </g>
        <g id="Grupo_113592" data-name="Grupo 113592" transform="translate(13.522 11.385)">
          <path id="Trazado_162162" data-name="Trazado 162162" d="M90.038,3784.778c-1.552.41-3.04.985-4.574,1.442a8.722,8.722,0,0,1-3.678.315c-1.207-.158-2.386-.455-3.606-.5-.971-.038-1.943-.02-2.915-.026a14.8,14.8,0,0,1-5.638-.8,5.339,5.339,0,0,1-3.046-3.333,11.082,11.082,0,0,0,1.7,3.766c3.547,5,19.859,13.093,24.917,6.9,1.844-2.259,1.768-5.487.694-8.719C92.605,3784.138,91.314,3784.44,90.038,3784.778Z" transform="translate(-66.581 -3781.873)" fill="#1b2b80"/>
        </g>
        <g id="Grupo_113593" data-name="Grupo 113593" transform="translate(0 7.223)">
          <path id="Trazado_162163" data-name="Trazado 162163" d="M110.2,3777.03c-1.337-4.139-6.364-5.608-10.676-6.179-7.352-.974-14.992-1.127-22.014,1.259s-13.368,7.657-15.54,14.748c-1.538,5.022-.958,10.65-3.336,15.332-3.293,6.483-11.219,9.254-15.483,15.144a16.5,16.5,0,0,0-3.093,8.77c-.2,3.8.916,7.747-.331,11.342-1.3,3.734-4.86,6.169-7.106,9.279-2.508,3.473-4.26,6.958-3.993,11.39.217,3.606,1.674,7.029,2.115,10.614s-1.752,8.728.627,11.9c1.167,1.554,3.286,2.045,5.23,2.082s3.919-.264,5.814.167c3.514.8,6.257,3.559,9.927,3.987a8.793,8.793,0,0,0,8.805-4.87c1.053-2.355,1.049-5.2,2.651-7.22,1.962-2.478,5.815-3.024,7.418-5.749,1.941-3.3-.543-7.755.982-11.265,1.039-2.39,3.626-3.655,5.4-5.568,3.193-3.453,3.44-8.775,2.277-13.332a16.232,16.232,0,0,1-.925-5.322c.23-2.656,2.056-4.772,3.317-7a13.03,13.03,0,0,0,1.713-7.462,50.323,50.323,0,0,1,.343-9.077,1.612,1.612,0,0,1,.205-.7c.391-.585,1.888-.651,2.54-.758a22.725,22.725,0,0,0,9.59-4.344,13.844,13.844,0,0,0,3.7-3.287c.9-1.434,1.976-2.762,2.878-4.207a54.949,54.949,0,0,0,4.066-9.084C108.663,3784.191,111.478,3780.986,110.2,3777.03Z" transform="translate(-28.603 -3770.185)" fill="#3d46c2"/>
        </g>
        <g id="Grupo_113594" data-name="Grupo 113594" transform="translate(50.069 19.52)">
          <path id="Trazado_162164" data-name="Trazado 162164" d="M188.989,3807.577a8.716,8.716,0,0,0-3.638,2.446c-1.1,1.411-1.212,3.068-1.287,6.327q-.109,4.729-.588,9.439a1.209,1.209,0,0,1-.239.724,1.069,1.069,0,0,1-.634.269,4.515,4.515,0,0,1-2.178-.2,1.2,1.2,0,0,1-.524-.308,1.11,1.11,0,0,1-.25-.551c-.079-.463-1.169-3.17-3.1-7.756a5.1,5.1,0,0,0-7.319,5.245,10.392,10.392,0,0,0,1.5,5.378,7.327,7.327,0,0,0,2.768,2.751,6.579,6.579,0,0,0,1.4.553,30.62,30.62,0,0,0,1.248,4.9,21.09,21.09,0,0,0,2.121,4.552,13.041,13.041,0,0,0,7.831,5.949,19.9,19.9,0,0,0,4.918.294,8.136,8.136,0,0,0,3.99-.816,7.342,7.342,0,0,0,2.846-3.116,44.052,44.052,0,0,0,3.99-10.365c1.3-.067,2.864-.325,3.255-1.271.3-.731-.246-1.514-.781-2.653a16.013,16.013,0,0,1-1.415-5.324c.119-3.294.049-6.055-.056-8.12a33.616,33.616,0,0,0-.613-5.647,25.7,25.7,0,0,0-1.892-5.553c-2.388.731-4.376,1.182-5.781,1.464C192.027,3806.692,190.835,3806.758,188.989,3807.577Z" transform="translate(-169.229 -3804.723)" fill="#fe8658"/>
        </g>
        <g id="Grupo_113595" data-name="Grupo 113595" transform="translate(57.078 130.043)">
          <path id="Trazado_162165" data-name="Trazado 162165" d="M191.97,4153.227c.93,4.486,2.363,8.93,5.319,12.309a18.69,18.69,0,0,0,10.265,5.623,40.913,40.913,0,0,0,11.859.4c36.044-2.978,55.876-22.344,55.876-22.344a99.158,99.158,0,0,0,9.193-8.628c.842-.673,2.126-1.694,3.708-2.927,3.249-2.534,3.034-2.285,3.324-2.578,2.444-2.467,3.351-5.665,4.19-8.62.313-1.1.512-2.024.63-2.627a15.276,15.276,0,0,0,.207-1.543,13.857,13.857,0,0,0-.014-2.355,6.788,6.788,0,0,0-.069-2.907,2.353,2.353,0,0,0,.1-.662,2.445,2.445,0,0,0-.338-1.231l-7.489,9.008c-.417-2.914.2-9.075-1.251-8.739l-5.677,13.325-2.561,1.61a273.507,273.507,0,0,0-38.025,7.738q-7.237,2.017-13.9,4.277c-.164.083-.3-.146-.347-.326-1.749-7.42-2.171-14.957-4.1-22.322a1.379,1.379,0,0,0-1.55-1.329c-7.144-.453-14.437-.756-21.488.6a58.253,58.253,0,0,0-6.479,1.743c-1.418.446-3.8.665-4.324,2.325a3.693,3.693,0,0,0-.112,1.157,150.187,150.187,0,0,0,1.883,22.209C191.148,4148.606,191.493,4150.922,191.97,4153.227Z" transform="translate(-188.914 -4115.141)" fill="#fe8658"/>
        </g>
        <g id="Grupo_113606" data-name="Grupo 113606" transform="translate(133.746 100.032)">
          <g id="Grupo_113597" data-name="Grupo 113597" transform="translate(5.349 2.631)">
            <g id="Grupo_113596" data-name="Grupo 113596">
              <path id="Trazado_162166" data-name="Trazado 162166" d="M419.329,4039.212l-.059-.464q1.366-.18,2.844-.315,1.443-.128,2.791-.19l.234.427q-1.448.086-2.982.229Q420.7,4039.035,419.329,4039.212Z" transform="translate(-419.27 -4038.242)" fill="#e9511e"/>
            </g>
          </g>
          <g id="Grupo_113599" data-name="Grupo 113599" transform="translate(3.139 1.129)">
            <g id="Grupo_113598" data-name="Grupo 113598">
              <path id="Trazado_162167" data-name="Trazado 162167" d="M413.168,4035.276l-.105-.455c.758-.177,1.572-.342,2.438-.482s1.7-.243,2.48-.315c.048.062.1.126.145.193s.089.125.131.186c-.858.1-1.753.235-2.68.4C414.739,4034.945,413.936,4035.106,413.168,4035.276Z" transform="translate(-413.063 -4034.024)" fill="#e9511e"/>
            </g>
          </g>
          <g id="Grupo_113601" data-name="Grupo 113601">
            <g id="Grupo_113600" data-name="Grupo 113600">
              <path id="Trazado_162168" data-name="Trazado 162168" d="M404.419,4032.717l-.172-.434c.68-.262,1.4-.52,2.164-.765.791-.256,1.554-.476,2.284-.666a.945.945,0,0,1,.2.365q-1.145.344-2.343.747Q405.452,4032.334,404.419,4032.717Z" transform="translate(-404.247 -4030.852)" fill="#e9511e"/>
            </g>
          </g>
          <g id="Grupo_113603" data-name="Grupo 113603" transform="translate(28.15 31.836)">
            <g id="Grupo_113602" data-name="Grupo 113602">
              <path id="Trazado_162169" data-name="Trazado 162169" d="M483.729,4126.849l-.419-.209c.485-.969.97-2.009,1.441-3.12.479-1.128.9-2.216,1.262-3.253.041.148.079.311.11.489.026.146.043.284.055.414q-.448,1.227-1,2.534C484.707,4124.822,484.219,4125.87,483.729,4126.849Z" transform="translate(-483.31 -4120.267)" fill="#e9511e"/>
            </g>
          </g>
          <g id="Grupo_113605" data-name="Grupo 113605" transform="translate(28.973 34.81)">
            <g id="Grupo_113604" data-name="Grupo 113604">
              <path id="Trazado_162170" data-name="Trazado 162170" d="M486.056,4134.059l-.434-.169q.464-1.171.92-2.384.55-1.461,1.051-2.885.015.269.032.537c.006.092.012.184.019.275q-.326,1.072-.707,2.191Q486.507,4132.888,486.056,4134.059Z" transform="translate(-485.622 -4128.621)" fill="#e9511e"/>
            </g>
          </g>
        </g>
        <g id="Grupo_113607" data-name="Grupo 113607" transform="translate(51.582 83.666)">
          <path id="Trazado_162171" data-name="Trazado 162171" d="M192.965,3986.257a17.113,17.113,0,0,0-6.061,3.333,21.508,21.508,0,0,0-4.913,7.549c-7.115,16.127-8.251,34.194-8.511,51.819a3.876,3.876,0,0,0,.333,2.007c.67,1.166,2.265,1.307,3.609,1.308q10.256,0,20.51-.277c6.648-.183,13.339-.46,19.824-1.939a2.4,2.4,0,0,0,1.457-.726,2.453,2.453,0,0,0,.328-1.5q.011-12.051.021-24.1c.006-7.191.011-14.414-1.037-21.528a27.049,27.049,0,0,0-3.2-10.208C210.67,3984.337,200.734,3983.654,192.965,3986.257Z" transform="translate(-173.476 -3984.886)" fill="#fff"/>
        </g>
        <g id="Grupo_113610" data-name="Grupo 113610" transform="translate(73.419 31.154)">
          <g id="Grupo_113608" data-name="Grupo 113608" transform="translate(0 0.734)" opacity="0.24" style="mix-blend-mode: overlay;isolation: isolate">
            <path id="Trazado_162172" data-name="Trazado 162172" d="M243,3845.022c0,3.071-1.833,5.562-4.094,5.562s-4.094-2.49-4.094-5.562,1.833-5.562,4.094-5.562S243,3841.95,243,3845.022Z" transform="translate(-234.81 -3839.46)" fill="#fff"/>
          </g>
          <g id="Grupo_113609" data-name="Grupo 113609" transform="translate(9.987)" opacity="0.24" style="mix-blend-mode: overlay;isolation: isolate">
            <path id="Trazado_162173" data-name="Trazado 162173" d="M269.223,3842.231c0,2.668-1.425,4.832-3.182,4.832s-3.181-2.164-3.181-4.832,1.424-4.832,3.181-4.832S269.223,3839.563,269.223,3842.231Z" transform="translate(-262.86 -3837.399)" fill="#fff"/>
          </g>
        </g>
        <g id="Grupo_113619" data-name="Grupo 113619" transform="translate(55.429 30.646)">
          <g id="Grupo_113612" data-name="Grupo 113612" transform="translate(17.373 0.624)">
            <g id="Grupo_113611" data-name="Grupo 113611">
              <path id="Trazado_162174" data-name="Trazado 162174" d="M237.788,3850.084c-2.6,0-4.711-2.772-4.711-6.179s2.113-6.179,4.711-6.179,4.711,2.772,4.711,6.179S240.386,3850.084,237.788,3850.084Zm0-11.124c-1.916,0-3.476,2.219-3.476,4.944s1.56,4.944,3.476,4.944,3.476-2.219,3.476-4.944S239.7,3838.96,237.788,3838.96Z" transform="translate(-233.077 -3837.725)" fill="#fff"/>
            </g>
          </g>
          <g id="Grupo_113614" data-name="Grupo 113614" transform="translate(27.47)">
            <g id="Grupo_113613" data-name="Grupo 113613">
              <path id="Trazado_162175" data-name="Trazado 162175" d="M265.124,3846.652c-2.068,0-3.689-2.345-3.689-5.34s1.62-5.34,3.689-5.34,3.689,2.345,3.689,5.34S267.192,3846.652,265.124,3846.652Zm0-9.665c-1.448,0-2.673,1.98-2.673,4.324s1.225,4.324,2.673,4.324,2.674-1.98,2.674-4.324S266.573,3836.987,265.124,3836.987Z" transform="translate(-261.435 -3835.972)" fill="#fff"/>
            </g>
          </g>
          <g id="Grupo_113616" data-name="Grupo 113616" transform="translate(25.893 4.836)">
            <g id="Grupo_113615" data-name="Grupo 113615" transform="translate(0 0)">
              <rect id="Rectángulo_41654" data-name="Rectángulo 41654" width="2.142" height="1.016" transform="translate(0 0.294) rotate(-7.895)" fill="#fff"/>
            </g>
          </g>
          <g id="Grupo_113618" data-name="Grupo 113618" transform="translate(0 1.206)">
            <g id="Grupo_113617" data-name="Grupo 113617">
              <path id="Trazado_162176" data-name="Trazado 162176" d="M202.42,3842.972l-16.13-2.625a5.063,5.063,0,0,0-2.008-.518,3.466,3.466,0,0,1,2.032-.458l16.241,2.595Z" transform="translate(-184.282 -3839.358)" fill="#fff"/>
            </g>
          </g>
        </g>
        <g id="Grupo_113623" data-name="Grupo 113623" transform="translate(28.458 204.045)">
          <g id="Grupo_113620" data-name="Grupo 113620">
            <path id="Trazado_162177" data-name="Trazado 162177" d="M143.8,4326.49a266.437,266.437,0,0,1-35.266-2.344l.156-1.162a265.217,265.217,0,0,0,67.743.32l.143,1.162A266.251,266.251,0,0,1,143.8,4326.49Z" transform="translate(-108.532 -4322.985)" fill="#bcdafe"/>
          </g>
          <g id="Grupo_113621" data-name="Grupo 113621" transform="translate(38.529 7.459)">
            <path id="Trazado_162178" data-name="Trazado 162178" d="M248.664,4417.836a693.572,693.572,0,0,1-31.919-73.5l1.1-.4a692.345,692.345,0,0,0,31.865,73.375Z" transform="translate(-216.745 -4343.933)" fill="#bcdafe"/>
          </g>
          <g id="Grupo_113622" data-name="Grupo 113622" transform="translate(50.298 7.261)">
            <path id="Trazado_162179" data-name="Trazado 162179" d="M250.535,4373.2l-.734-.913a17.944,17.944,0,0,0,5.729-7.652c.687-1.826,1.019-3.465,1.106-10.589l.129-10.671,1.17.014-.129,10.671c-.088,7.311-.444,9.032-1.179,10.988A19.112,19.112,0,0,1,250.535,4373.2Z" transform="translate(-249.801 -4343.379)" fill="#bcdafe"/>
          </g>
        </g>
      </g>
    </g>
  </g>
</svg>
