<svg xmlns="http://www.w3.org/2000/svg" width="100" height="100" viewBox="0 0 100 100">
  <g id="Grupo_163861" data-name="Grupo 163861" transform="translate(7750 10698.949)">
    <g id="Grupo_112143" data-name="Grupo 112143" transform="translate(-3191.77 -350.428)">
      <g id="Grupo_109049" data-name="Grupo 109049" transform="translate(-4557 -10346.926)">
        <g id="Grupo_109036" data-name="Grupo 109036" transform="translate(27.381 87.692)">
          <rect id="Rectángulo_40585" data-name="Rectángulo 40585" width="42" height="9" fill="#4e2e8e"/>
        </g>
        <g id="Grupo_109037" data-name="Grupo 109037" transform="translate(27.381 83.692)">
          <rect id="Rectángulo_40586" data-name="Rectángulo 40586" width="42" height="9" fill="#4e2e8e"/>
        </g>
        <g id="Grupo_109038" data-name="Grupo 109038" transform="translate(0.366 17.018)">
          <path id="Trazado_160484" data-name="Trazado 160484" d="M220.354,416h-83.9A6.419,6.419,0,0,0,130,422.383v57.449a6.419,6.419,0,0,0,6.454,6.383h83.9a6.419,6.419,0,0,0,6.454-6.383V422.383A6.419,6.419,0,0,0,220.354,416Z" transform="translate(-130 -416)" fill="none"/>
        </g>
        <g id="Grupo_109039" data-name="Grupo 109039" transform="translate(0 77.692)">
          <path id="Rectángulo_40587" data-name="Rectángulo 40587" d="M0,0H96.767a0,0,0,0,1,0,0V6a4,4,0,0,1-4,4H4A4,4,0,0,1,0,6V0A0,0,0,0,1,0,0Z" fill="#6677d6"/>
        </g>
        <g id="Grupo_109040" data-name="Grupo 109040" transform="translate(0 72.531)">
          <rect id="Rectángulo_40588" data-name="Rectángulo 40588" width="96.767" height="5" fill="#c6412a"/>
        </g>
        <g id="Grupo_109041" data-name="Grupo 109041" transform="translate(16.859)">
          <path id="Trazado_160485" data-name="Trazado 160485" d="M140,406v70.216h63.833V406Z" transform="translate(-140 -406)" fill="#515fab"/>
        </g>
        <g id="Grupo_109042" data-name="Grupo 109042" transform="translate(26.554)">
          <path id="Trazado_160486" data-name="Trazado 160486" d="M200.258,476.216V406h-19.15L146,476.216Z" transform="translate(-146 -406)" fill="#515fab"/>
        </g>
        <g id="Grupo_109043" data-name="Grupo 109043" transform="translate(16.859)">
          <path id="Trazado_160487" data-name="Trazado 160487" d="M140,406v12.766h63.833V406Z" transform="translate(-140 -406)" fill="#6677d6"/>
        </g>
        <g id="Grupo_109044" data-name="Grupo 109044" transform="translate(26.388 20.141)">
          <rect id="Rectángulo_40589" data-name="Rectángulo 40589" width="45" height="25" fill="#ffef0f"/>
        </g>
        <g id="Grupo_109045" data-name="Grupo 109045" transform="translate(39.303 19.439)">
          <path id="Trazado_160488" data-name="Trazado 160488" d="M154,443.533h31.916V418h-19.15Z" transform="translate(-154 -418)" fill="#ffef0f"/>
        </g>
        <g id="Grupo_109046" data-name="Grupo 109046" transform="translate(44.005 25.86)">
          <path id="Trazado_160489" data-name="Trazado 160489" d="M157,434.767V422l12.767,6.383Z" transform="translate(-157 -422)" fill="#4e2e8e"/>
        </g>
        <g id="Grupo_109047" data-name="Grupo 109047" transform="translate(68.449 38.853)">
          <path id="Trazado_160490" data-name="Trazado 160490" d="M194.341,444.362l-9.575-9.575L189.554,430H172v17.554l4.787-4.787,9.575,9.575Z" transform="translate(-172 -430)" fill="#ffef0f"/>
        </g>
        <g id="Grupo_109048" data-name="Grupo 109048" transform="translate(55.443)">
          <path id="Trazado_160491" data-name="Trazado 160491" d="M189.533,418.767V406h-19.15L164,418.767Z" transform="translate(-164 -406)" fill="#6677d6"/>
        </g>
      </g>
      <g id="Grupo_109068" data-name="Grupo 109068" transform="translate(-4558.23 -10348.521)">
        <g id="Grupo_109050" data-name="Grupo 109050" transform="translate(0 77.447)">
          <path id="Trazado_160492" data-name="Trazado 160492" d="M227.387,456.192H130.613a1.6,1.6,0,1,1,0-3.192h96.774a1.6,1.6,0,1,1,0,3.192Z" transform="translate(-129 -453)"/>
        </g>
        <g id="Grupo_109051" data-name="Grupo 109051" transform="translate(69.379 87.233)">
          <path id="Trazado_160493" data-name="Trazado 160493" d="M173.6,471.767a1.594,1.594,0,0,1-1.6-1.6V460.6a1.6,1.6,0,1,1,3.192,0v9.575A1.594,1.594,0,0,1,173.6,471.767Z" transform="translate(-172 -459)"/>
        </g>
        <g id="Grupo_109052" data-name="Grupo 109052" transform="translate(27.429 87.233)">
          <path id="Trazado_160494" data-name="Trazado 160494" d="M147.6,471.767a1.594,1.594,0,0,1-1.6-1.6V460.6a1.6,1.6,0,1,1,3.192,0v9.575A1.594,1.594,0,0,1,147.6,471.767Z" transform="translate(-146 -459)"/>
        </g>
        <g id="Grupo_109053" data-name="Grupo 109053" transform="translate(19.679 96.808)">
          <path id="Trazado_160495" data-name="Trazado 160495" d="M200.045,468.192H142.6a1.6,1.6,0,1,1,0-3.192h57.449a1.6,1.6,0,1,1,0,3.192Z" transform="translate(-141 -465)"/>
        </g>
        <g id="Grupo_109054" data-name="Grupo 109054" transform="translate(16.488)">
          <path id="Trazado_160496" data-name="Trazado 160496" d="M204.428,478.408H140.6a1.594,1.594,0,0,1-1.6-1.6V406.6a1.594,1.594,0,0,1,1.6-1.6h63.833a1.594,1.594,0,0,1,1.6,1.6v38.3a1.6,1.6,0,0,1-3.192,0v-36.7H142.192v67.024h60.641v-9.575a1.6,1.6,0,0,1,3.192,0v11.171A1.594,1.594,0,0,1,204.428,478.408Z" transform="translate(-139 -405)"/>
        </g>
        <g id="Grupo_109055" data-name="Grupo 109055" transform="translate(0 17.018)">
          <path id="Trazado_160497" data-name="Trazado 160497" d="M220.935,488.408H137.064A8.031,8.031,0,0,1,129,480.428V422.979A8.031,8.031,0,0,1,137.064,415h9.677a1.6,1.6,0,1,1,0,3.192h-9.677a4.819,4.819,0,0,0-4.839,4.787v57.449a4.819,4.819,0,0,0,4.839,4.787h83.871a4.819,4.819,0,0,0,4.839-4.787V422.979a4.819,4.819,0,0,0-4.839-4.787h-9.677a1.6,1.6,0,1,1,0-3.192h9.677A8.031,8.031,0,0,1,229,422.979v57.449A8.031,8.031,0,0,1,220.935,488.408Z" transform="translate(-129 -415)"/>
        </g>
        <g id="Grupo_109056" data-name="Grupo 109056" transform="translate(23.414 6.52)">
          <ellipse id="Elipse_5287" data-name="Elipse 5287" cx="1" cy="1.5" rx="1" ry="1.5"/>
        </g>
        <g id="Grupo_109057" data-name="Grupo 109057" transform="translate(28.458 6.52)">
          <ellipse id="Elipse_5288" data-name="Elipse 5288" cx="2" cy="1.5" rx="2" ry="1.5"/>
        </g>
        <g id="Grupo_109058" data-name="Grupo 109058" transform="translate(35.514 6.52)">
          <ellipse id="Elipse_5289" data-name="Elipse 5289" cx="2" cy="1.5" rx="2" ry="1.5"/>
        </g>
        <g id="Grupo_109059" data-name="Grupo 109059" transform="translate(16.488 12.767)">
          <path id="Trazado_160498" data-name="Trazado 160498" d="M204.428,416.192H140.6a1.6,1.6,0,1,1,0-3.192h63.833a1.6,1.6,0,1,1,0,3.192Z" transform="translate(-139 -413)"/>
        </g>
        <g id="Grupo_109060" data-name="Grupo 109060" transform="translate(68.084 38.852)">
          <path id="Trazado_160499" data-name="Trazado 160499" d="M186.958,454.533a1.591,1.591,0,0,1-1.128-.468l-8.447-8.447-3.659,3.659A1.6,1.6,0,0,1,171,448.15V430.6a1.594,1.594,0,0,1,1.6-1.6H190.15a1.6,1.6,0,0,1,1.128,2.724l-3.659,3.659,8.447,8.447a1.594,1.594,0,0,1,0,2.257l-7.979,7.979A1.591,1.591,0,0,1,186.958,454.533Zm-9.575-12.767a1.591,1.591,0,0,1,1.128.468l8.447,8.447,5.723-5.723-8.447-8.447a1.594,1.594,0,0,1,0-2.257l2.063-2.063H174.192V444.3l2.063-2.063A1.591,1.591,0,0,1,177.383,441.767Z" transform="translate(-171 -429)"/>
        </g>
        <g id="Grupo_109061" data-name="Grupo 109061" transform="translate(26.063 19.439)">
          <path id="Trazado_160500" data-name="Trazado 160500" d="M188.087,445.725H146.6a1.594,1.594,0,0,1-1.6-1.6V418.6a1.594,1.594,0,0,1,1.6-1.6h44.683a1.594,1.594,0,0,1,1.6,1.6v19.15a1.6,1.6,0,0,1-3.192,0V420.192H148.192v22.341h39.9a1.6,1.6,0,1,1,0,3.192Z" transform="translate(-145 -417)"/>
        </g>
        <g id="Grupo_109062" data-name="Grupo 109062" transform="translate(42.021 25.858)">
          <path id="Trazado_160501" data-name="Trazado 160501" d="M156.6,436.958a1.6,1.6,0,0,1-1.6-1.6V422.6a1.6,1.6,0,0,1,2.309-1.428l12.767,6.383a1.6,1.6,0,0,1,0,2.856l-12.767,6.383A1.6,1.6,0,0,1,156.6,436.958Zm1.6-11.78v7.6l7.6-3.8Z" transform="translate(-155 -421)"/>
        </g>
        <g id="Grupo_109063" data-name="Grupo 109063" transform="translate(25.979 51.631)">
          <path id="Trazado_160502" data-name="Trazado 160502" d="M181.7,440.192H146.6a1.6,1.6,0,1,1,0-3.192H181.7a1.6,1.6,0,1,1,0,3.192Z" transform="translate(-145 -437)"/>
        </g>
        <g id="Grupo_109064" data-name="Grupo 109064" transform="translate(25.937 64.539)">
          <path id="Trazado_160503" data-name="Trazado 160503" d="M175.32,448.192H146.6a1.6,1.6,0,1,1,0-3.192H175.32a1.6,1.6,0,1,1,0,3.192Z" transform="translate(-145 -445)"/>
        </g>
        <g id="Grupo_109065" data-name="Grupo 109065" transform="translate(25.865 58.085)">
          <path id="Trazado_160504" data-name="Trazado 160504" d="M160.958,444.192H146.6a1.6,1.6,0,0,1,0-3.192h14.362a1.6,1.6,0,1,1,0,3.192Z" transform="translate(-145 -441)"/>
        </g>
        <g id="Grupo_109066" data-name="Grupo 109066" transform="translate(46.881 58.085)">
          <path id="Trazado_160505" data-name="Trazado 160505" d="M173.958,444.192H159.6a1.6,1.6,0,0,1,0-3.192h14.362a1.6,1.6,0,1,1,0,3.192Z" transform="translate(-158 -441)"/>
        </g>
        <g id="Grupo_109067" data-name="Grupo 109067" transform="translate(60.715 65.035)">
          <ellipse id="Elipse_5290" data-name="Elipse 5290" cx="2" cy="1.5" rx="2" ry="1.5"/>
        </g>
      </g>
    </g>
  </g>
</svg>
