<svg xmlns="http://www.w3.org/2000/svg" width="106.304" height="82.304" viewBox="0 0 106.304 82.304">
  <g id="Grupo_163866" data-name="Grupo 163866" transform="translate(7845.674 10070.125)">
    <g id="Grupo_112833" data-name="Grupo 112833" transform="translate(-9734.129 -10625.193)">
      <path id="Trazado_161100" data-name="Trazado 161100" d="M2007.991,611.629c.011-1.1-.4-2.551.15-3.2.567-.679,2.071-.167,3.164-.2a23.772,23.772,0,0,1,2.677.011c.736.059.863-.224.858-.892-.03-4.071-.015-8.142-.015-12.212q0-16.5,0-33a6.784,6.784,0,0,1,7.055-7.061q25.548,0,51.1,0a6.78,6.78,0,0,1,6.987,7.022q0,34.121,0,68.241a6.784,6.784,0,0,1-6.987,7.024q-25.6,0-51.2,0a6.781,6.781,0,0,1-6.948-6.955c0-2.571-.019-5.142.012-7.713.007-.593-.138-.789-.757-.774-1.784.042-3.571-.01-5.355.028-.6.013-.812-.141-.77-.759.06-.889.033-1.783.042-2.675q10.1,0,20.2-.006c1.448,0,2.047.619,2.056,2.089.006,1,0,2.007,0,3.178,3.684-2.579,7.182-5.017,10.663-7.479.534-.378,1.194-.615,1.543-1.229-.046-.291-.316-.356-.509-.491q-5.459-3.827-10.926-7.643c-.216-.15-.382-.436-.771-.337,0,1.023.009,2.05,0,3.076a1.738,1.738,0,0,1-1.956,1.973Q2018.143,611.645,2007.991,611.629Zm11.984-3.449c2.07.011,4.14.007,6.209.046.531.01.66-.178.65-.676-.028-1.428,0-2.856-.015-4.284a1.752,1.752,0,0,1,.9-1.694,1.678,1.678,0,0,1,1.907.153q8.456,5.915,16.9,11.844a1.7,1.7,0,0,1,0,3.007q-8.435,5.946-16.9,11.844a1.679,1.679,0,0,1-1.908.154,1.751,1.751,0,0,1-.9-1.693c.018-1.428-.013-2.856.015-4.284.01-.5-.12-.686-.65-.676-2.069.038-4.139.034-6.209.046a4.767,4.767,0,0,1-.532-.037c-.981-.177-1.245.227-1.212,1.2.075,2.246.023,4.5.024,6.743,0,2.723,1.342,4.061,4.075,4.061h37.354q6.529,0,13.058,0a3.326,3.326,0,0,0,3.224-1.675,3.469,3.469,0,0,0,.573-2.327q0-29.227,0-58.454V570.3c-.6.737-1.031,1.245-1.442,1.765a9.031,9.031,0,0,1-7.619,3.585c-3.6-.048-7.208.005-10.812-.026a.94.94,0,0,0-1.09.8,8.541,8.541,0,0,1-16.358-.011.937.937,0,0,0-1.1-.783c-3.568.028-7.137-.038-10.7.03a9.316,9.316,0,0,1-7.261-3.006l-1.9-2.353v36.4c0,1.557,0,1.557,1.615,1.495A.958.958,0,0,0,2019.975,608.18Zm27.419-49.681q-12.694,0-25.389,0a3.474,3.474,0,0,0-3.75,3.729c-.005.643.019,1.286-.008,1.928a1.477,1.477,0,0,0,.39,1.057c1.33,1.632,2.62,3.3,3.946,4.931a5.341,5.341,0,0,0,4.287,2.059c3.785.022,7.57-.006,11.355.022a.81.81,0,0,0,.946-.685,8.559,8.559,0,0,1,16.446,0,.814.814,0,0,0,.947.687c3.785-.028,7.57,0,11.355-.023a5.387,5.387,0,0,0,4.354-2.141c.934-1.172,1.787-2.423,2.823-3.5a5.124,5.124,0,0,0,1.472-4.124c-.128-2.579-1.4-3.945-4-3.946Q2059.982,558.5,2047.394,558.5Zm5.14,15.357a5.137,5.137,0,1,0-5.043,5.2A5.231,5.231,0,0,0,2052.534,573.856Z" transform="translate(-85.207)" fill="#070706"/>
      <path id="Trazado_161101" data-name="Trazado 161101" d="M2008.328,739.963q10.152.007,20.3.011a1.738,1.738,0,0,0,1.957-1.973c.011-1.026,0-2.052,0-3.076.39-.1.556.187.772.337q5.468,3.814,10.926,7.643c.192.135.463.2.509.491l-34.463.026Z" transform="translate(-85.544 -128.334)" fill="#b0a2cd"/>
      <path id="Trazado_161102" data-name="Trazado 161102" d="M2008.349,764.582l34.463-.026c-.35.614-1.009.851-1.544,1.229-3.481,2.462-6.979,4.9-10.663,7.479,0-1.171,0-2.175,0-3.178-.009-1.47-.607-2.088-2.056-2.089q-10.1,0-20.2.006Q2008.35,766.292,2008.349,764.582Z" transform="translate(-85.559 -149.494)" fill="#4e2e8e"/>
      <path id="Trazado_161103" data-name="Trazado 161103" d="M1903.048,800.469c4.57,0,9.141.015,13.711-.017.7,0,.883.171.879.873-.016,2.572.012,2.572-2.592,2.572-8.534,0-17.067-.012-25.6.02-.8,0-1.006-.178-.99-.984.05-2.464.011-2.465,2.488-2.465Z" transform="translate(0 -175.111)" fill="#040506"/>
      <path id="Trazado_161104" data-name="Trazado 161104" d="M1946.618,588.39c-3.142,0-6.284-.017-9.426.014-.628.006-.844-.107-.844-.8,0-2.642-.03-2.642,2.631-2.642,5.677,0,11.354.014,17.031-.017.723,0,.963.133.951.912-.036,2.534,0,2.534-2.524,2.534Z" transform="translate(-34.178 -21.319)" fill="#040506"/>
      <path id="Trazado_161105" data-name="Trazado 161105" d="M1898.775,630.286c-3.142,0-6.284-.022-9.426.017-.7.009-.883-.172-.879-.874.016-2.572-.012-2.572,2.591-2.572,5.677,0,11.354.018,17.031-.02.8-.005,1.006.179.989.985-.049,2.464-.011,2.465-2.487,2.465Z" transform="translate(-0.011 -51.215)" fill="#040506"/>
      <path id="Trazado_161106" data-name="Trazado 161106" d="M1962.124,833.811c-2.321,0-4.641-.018-6.962.012-.6.007-.862-.059-.862-.782,0-2.659-.037-2.659,2.615-2.659,3.963,0,7.926.03,11.888-.024.84-.011.979.244.966,1.008-.042,2.444-.01,2.444-2.5,2.444Z" transform="translate(-46.988 -196.452)" fill="#040506"/>
      <path id="Trazado_161107" data-name="Trazado 161107" d="M1989.321,702.127c-1.464,0-2.928-.026-4.39.013-.566.016-.7-.158-.711-.712-.057-2.73-.075-2.73,2.644-2.73,2.284,0,4.57.028,6.854-.017.668-.013.822.167.821.824,0,2.622.024,2.622-2.54,2.622Z" transform="translate(-68.329 -102.484)" fill="#040506"/>
      <path id="Trazado_161108" data-name="Trazado 161108" d="M1915.907,586.775c0,1.658,0,1.658-1.664,1.658-1.765,0-1.765,0-1.765-1.771,0-1.658,0-1.658,1.664-1.658C1915.907,585,1915.907,585,1915.907,586.775Z" transform="translate(-17.144 -21.362)" fill="#040506"/>
      <path id="Trazado_161109" data-name="Trazado 161109" d="M1962.183,698.744c1.611,0,1.611,0,1.611,1.6,0,1.825,0,1.825-1.818,1.825-1.611,0-1.611,0-1.611-1.6C1960.365,698.744,1960.365,698.744,1962.183,698.744Z" transform="translate(-51.316 -102.529)" fill="#040506"/>
      <path id="Trazado_161110" data-name="Trazado 161110" d="M1932.194,830.443c1.67,0,1.67,0,1.67,1.651,0,1.777,0,1.777-1.758,1.777-1.67,0-1.67,0-1.67-1.651C1930.436,830.443,1930.436,830.443,1932.194,830.443Z" transform="translate(-29.959 -196.512)" fill="#040506"/>
      <path id="Trazado_161111" data-name="Trazado 161111" d="M2050.287,610.616a9.316,9.316,0,0,0,7.262,3.006c3.567-.067,7.136,0,10.7-.03a.937.937,0,0,1,1.1.783,8.541,8.541,0,0,0,16.358.011.941.941,0,0,1,1.091-.8c3.6.031,7.208-.021,10.812.026a9.031,9.031,0,0,0,7.619-3.585c.411-.521.839-1.028,1.442-1.765v1.17q0,29.227,0,58.454a3.468,3.468,0,0,1-.573,2.327c-.428-.013-.856-.036-1.284-.036q-24.743,0-49.486,0a5.2,5.2,0,0,1-5.227-5.215c0-1.678,0-3.356.006-5.035,2.07-.011,4.14-.007,6.209-.046.531-.01.66.178.65.676-.028,1.428,0,2.856-.015,4.284a1.751,1.751,0,0,0,.9,1.693,1.679,1.679,0,0,0,1.908-.154q8.456-5.915,16.9-11.844a1.7,1.7,0,0,0,0-3.007q-8.435-5.946-16.9-11.844a1.678,1.678,0,0,0-1.907-.153,1.751,1.751,0,0,0-.9,1.694c.018,1.428-.013,2.857.015,4.284.01.5-.119.686-.65.676-2.069-.038-4.139-.034-6.209-.046q0-17.255,0-34.511C2050.11,611.289,2049.993,610.913,2050.287,610.616Zm40.841,57.849h9.735c2.4,0,2.36,0,2.4-2.452.014-.8-.183-1-.99-1-6.847.036-13.694.021-20.541.021-2.526,0-2.5,0-2.507,2.559,0,.692.175.893.88.886C2083.782,668.445,2087.455,668.464,2091.128,668.464Zm6.971-6.857h2.564c2.663,0,2.641,0,2.6-2.673-.01-.607-.169-.779-.776-.77-2.314.034-4.629.014-6.943.014-2.739,0-2.722,0-2.6,2.78.023.509.156.67.667.66C2095.108,661.588,2096.6,661.607,2098.1,661.607Z" transform="translate(-115.344 -37.963)" fill="#6677d6"/>
      <path id="Trazado_161112" data-name="Trazado 161112" d="M2073.285,567.043q12.587,0,25.175,0c2.6,0,3.872,1.367,4,3.946a5.124,5.124,0,0,1-1.472,4.124c-1.037,1.073-1.89,2.323-2.823,3.5a5.388,5.388,0,0,1-4.354,2.141c-3.785.024-7.571-.005-11.355.023a.813.813,0,0,1-.947-.687,8.559,8.559,0,0,0-16.446,0,.81.81,0,0,1-.946.685c-3.785-.028-7.57,0-11.355-.022a5.341,5.341,0,0,1-4.287-2.059c-1.326-1.635-2.616-3.3-3.946-4.931a1.478,1.478,0,0,1-.389-1.057c.026-.642,0-1.285.008-1.928a3.474,3.474,0,0,1,3.75-3.729Q2060.591,567.036,2073.285,567.043Z" transform="translate(-111.098 -8.544)" fill="#b0a2cd"/>
      <path id="Trazado_161113" data-name="Trazado 161113" d="M2045.821,788.468c0,1.678-.01,3.356-.006,5.035a5.2,5.2,0,0,0,5.227,5.215q24.743,0,49.486,0c.428,0,.856.023,1.284.036a3.326,3.326,0,0,1-3.224,1.675q-6.529,0-13.058,0h-37.354c-2.732,0-4.073-1.338-4.075-4.061,0-2.248.051-4.5-.024-6.743-.033-.971.231-1.375,1.212-1.2A4.767,4.767,0,0,0,2045.821,788.468Z" transform="translate(-111.053 -166.502)" fill="#515fab"/>
      <path id="Trazado_161114" data-name="Trazado 161114" d="M2138.268,608.041a5.137,5.137,0,1,1-5.177-5.068A5.231,5.231,0,0,1,2138.268,608.041Zm-6.852.042c0,1.743,0,1.743,1.284,1.744,2.142,0,2.142,0,2.143-1.31,0-2.116,0-2.116-1.444-2.116C2131.416,606.4,2131.416,606.4,2131.416,608.083Z" transform="translate(-170.94 -34.185)" fill="#ffef0f"/>
      <path id="Trazado_161115" data-name="Trazado 161115" d="M2046.063,610.607c-.294.3-.177.674-.177,1.016q-.005,17.255,0,34.511a.958.958,0,0,1-.106.016c-1.615.062-1.615.062-1.615-1.495v-36.4Z" transform="translate(-111.119 -37.954)" fill="#6677d6"/>
      <path id="Trazado_161116" data-name="Trazado 161116" d="M2163.746,809.875c-3.673,0-7.346-.019-11.019.017-.706.007-.882-.194-.88-.886.008-2.559-.019-2.559,2.507-2.559,6.847,0,13.694.015,20.54-.021.807,0,1,.2.99,1-.042,2.451-.006,2.452-2.4,2.452Z" transform="translate(-187.962 -179.373)" fill="#040506"/>
      <path id="Trazado_161117" data-name="Trazado 161117" d="M2204.794,785.945c-1.5,0-2.992-.019-4.487.011-.511.01-.644-.151-.667-.66-.125-2.78-.141-2.78,2.6-2.78,2.315,0,4.629.021,6.943-.014.606-.009.766.163.776.77.042,2.673.064,2.672-2.6,2.672Z" transform="translate(-222.039 -162.301)" fill="#040506"/>
      <path id="Trazado_161118" data-name="Trazado 161118" d="M2139.94,616.622c0-1.683,0-1.683,1.983-1.683,1.445,0,1.445,0,1.444,2.116,0,1.312,0,1.312-2.143,1.31C2139.94,618.365,2139.94,618.365,2139.94,616.622Z" transform="translate(-179.465 -42.725)" fill="#040506"/>
    </g>
  </g>
</svg>
