<svg xmlns="http://www.w3.org/2000/svg" width="150" height="150" viewBox="0 0 150 150">
  <g id="Grupo_163902" data-name="Grupo 163902" transform="translate(-7615.666 14974.432)">
    <g id="Grupo_163835" data-name="Grupo 163835" transform="translate(7276.666 -16579.432)">
      <path id="Trazado_170461" data-name="Trazado 170461" d="M75,0A75,75,0,1,1,0,75,75,75,0,0,1,75,0Z" transform="translate(339 1605)" fill="#fff"/>
      <g id="Grupo_136913" data-name="Grupo 136913" transform="translate(875 11735.969)">
        <circle id="Elipse_6084" data-name="Elipse 6084" cx="54" cy="54" r="54" transform="translate(-515 -10109.969)" fill="#b8bee0"/>
        <g id="Grupo_136911" data-name="Grupo 136911" transform="translate(-549.018 -10190.487)">
          <g id="Capa_1" data-name="Capa 1" transform="translate(44.018 90.519)">
            <g id="Grupo_116138" data-name="Grupo 116138" transform="translate(0 0)">
              <ellipse id="Elipse_6014" data-name="Elipse 6014" cx="39.448" cy="39.448" rx="39.448" ry="39.448" transform="translate(4.558 4.546)" fill="#fff"/>
              <path id="Trazado_170561" data-name="Trazado 170561" d="M66.854,67.25c5.026,12.9,3.839,25.407-2.639,27.927s-16.734-5.29-21.761-18.2-2.927-26,3.563-28.514S61.828,54.354,66.854,67.25Z" transform="translate(-21.484 -21.408)" fill="#b0a2cd"/>
              <path id="Trazado_170562" data-name="Trazado 170562" d="M86.7,76.5c-7.413,11.7-17.694,22.924-25.491,17.97s-10.2-24.208-2.783-35.892,19.757-17.154,27.567-12.2,8.133,18.438.72,30.134Z" transform="translate(-20.355 -21.891)" fill="#b0a2cd"/>
              <path id="Trazado_170563" data-name="Trazado 170563" d="M65.355,21.37A44.046,44.046,0,0,0,21.36,65.364c0,24.257,18.133,42.293,41,43.843a25.167,25.167,0,0,0,3,.152,43.994,43.994,0,1,0-.011-87.989Zm6.124,54.389c.585-2.363,2.287-8.823,7.891-13.44a2.164,2.164,0,1,0-2.753-3.338,26.158,26.158,0,0,0-6.7,8.508,34.813,34.813,0,0,0-5.062-10.427,23.343,23.343,0,0,1,16.28-10.405c6.557,7.934,7.674,18.653,2.959,28.918-3.306,7.175-8.9,12.681-14.34,14.578A33.009,33.009,0,0,0,71.489,75.77Zm-4.6-2.135c1.149,7.565-.13,13.841-2.287,17.093C63.252,83.053,61,72.9,54.733,65.2a2.165,2.165,0,0,0-3.36,2.731c5.972,7.349,7.956,17.656,9.2,24.994-4.379-.293-9.484-4.368-13.3-10.828-5.409-9.148-7.425-22.2-.1-31.259,15.4,2.287,18.968,17.938,19.7,22.772Zm-1.528,31.4h-.076V96.168a9.139,9.139,0,0,0,1.246-1C74.578,94.8,83.3,87.66,88.029,77.4c5.647-12.259,4-25.146-4.4-34.467a2.206,2.206,0,0,0-1.832-.7A27.379,27.379,0,0,0,61.973,53.669a24.974,24.974,0,0,0-15.445-7.251,2.132,2.132,0,0,0-1.832.7c-9.647,10.709-7.511,26.4-1.138,37.209C48.327,92.4,54.906,97.209,60.943,97.285v7.49a39.562,39.562,0,1,1,4.422.26Z" transform="translate(-21.36 -21.37)"/>
            </g>
          </g>
        </g>
      </g>
    </g>
  </g>
</svg>
