<svg xmlns="http://www.w3.org/2000/svg" width="140.663" height="140.664" viewBox="0 0 140.663 140.664">
  <g id="Grupo_163926" data-name="Grupo 163926" transform="translate(-9285.383 13561.232)">
    <g id="Grupo_137047" data-name="Grupo 137047" transform="translate(8282.287 -18137.328)">
      <path id="Trazado_171609" data-name="Trazado 171609" d="M56.61,0A56.5,56.5,0,1,1,0,56.611,56.233,56.233,0,0,1,56.61,0Z" transform="matrix(0.229, -0.973, 0.973, 0.229, 1005.5, 4688.503)" fill="#fff" stroke="#6677d6" stroke-width="4"/>
      <g id="Capa_1" data-name="Capa 1" transform="translate(1038 4609)">
        <g id="Grupo_114565" data-name="Grupo 114565" transform="translate(5 0)">
          <rect id="Rectángulo_42492" data-name="Rectángulo 42492" width="53.496" height="71.298" rx="17.62" transform="translate(1.341 1.341)" fill="#fff"/>
          <path id="Trazado_169297" data-name="Trazado 169297" d="M50.9,73.98H5.276A5.282,5.282,0,0,1,0,68.7V5.276A5.283,5.283,0,0,1,5.276,0H50.9a5.283,5.283,0,0,1,5.276,5.276V68.7A5.283,5.283,0,0,1,50.9,73.978ZM5.276,2.682a2.6,2.6,0,0,0-2.6,2.6V68.7a2.6,2.6,0,0,0,2.6,2.6H50.9a2.6,2.6,0,0,0,2.6-2.6V5.276a2.6,2.6,0,0,0-2.6-2.6H5.276Z" fill="#12263f"/>
          <path id="Trazado_169298" data-name="Trazado 169298" d="M107.286,64.432H82.041a1.341,1.341,0,1,1,0-2.682h25.245a1.341,1.341,0,0,1,0,2.682Z" transform="translate(-66.61 -50.969)" fill="#12263f"/>
          <path id="Trazado_169299" data-name="Trazado 169299" d="M87.3,123.292H51.331a1.341,1.341,0,0,1,0-2.682H87.3a1.341,1.341,0,0,1,0,2.682Z" transform="translate(-41.262 -99.552)" fill="#12263f"/>
          <path id="Trazado_169300" data-name="Trazado 169300" d="M87.3,183.432H51.331a1.341,1.341,0,0,1,0-2.682H87.3a1.341,1.341,0,0,1,0,2.682Z" transform="translate(-41.262 -149.192)" fill="#12263f"/>
          <path id="Trazado_169301" data-name="Trazado 169301" d="M87.3,243.572H51.331a1.341,1.341,0,1,1,0-2.682H87.3a1.341,1.341,0,1,1,0,2.682Z" transform="translate(-41.262 -198.832)" fill="#12263f"/>
          <path id="Trazado_169302" data-name="Trazado 169302" d="M78.14,302.442H51.331a1.341,1.341,0,1,1,0-2.682H78.14a1.341,1.341,0,1,1,0,2.682Z" transform="translate(-41.262 -247.423)" fill="#12263f"/>
          <path id="Trazado_169303" data-name="Trazado 169303" d="M140.09,352.082a2.966,2.966,0,0,1-2.088-.864l-1.863-1.863a.272.272,0,0,0-.445.094,2.953,2.953,0,0,1-4.992.854l-3.59-4.18a1.341,1.341,0,0,1,2.034-1.748l3.59,4.18a.272.272,0,0,0,.459-.079,2.953,2.953,0,0,1,4.84-1.018l1.863,1.863a.269.269,0,0,0,.2.079.259.259,0,0,0,.194-.089l2.067-2.284a1.341,1.341,0,0,1,1.5-.342l3.158,1.282a1.34,1.34,0,1,1-1.007,2.484l-2.289-.929-1.439,1.589a2.967,2.967,0,0,1-2.116.971h-.072Z" transform="translate(-104.652 -283.864)" fill="#ffef0f"/>
          <g id="Grupo_114564" data-name="Grupo 114564" transform="matrix(0.978, -0.208, 0.208, 0.978, 28.089, 13.639)">
            <path id="Trazado_169304" data-name="Trazado 169304" d="M7.4,41.612,0,46.761l.084-9.016L18.869,2.206A4.14,4.14,0,0,1,24.463.481h0a4.14,4.14,0,0,1,1.725,5.594L7.4,41.614Z" transform="translate(1.499 0.859)" fill="#c6412a"/>
            <g id="Grupo_114563" data-name="Grupo 114563" transform="translate(0 0)">
              <path id="Trazado_169305" data-name="Trazado 169305" d="M1.713,49A1.34,1.34,0,0,1,0,47.677L.24,38.663a1.334,1.334,0,0,1,.166-.611L19.8,2.839a5.48,5.48,0,0,1,9.6,5.285L10.007,43.337a1.335,1.335,0,0,1-.428.466l-7.49,5.021A1.349,1.349,0,0,1,1.715,49Zm1.2-9.94-.161,6.1,5.065-3.394L27.047,6.836a2.8,2.8,0,0,0-4.9-2.7L2.911,39.063Z" fill="#12263f"/>
              <path id="Trazado_169306" data-name="Trazado 169306" d="M8.965,6.622a1.336,1.336,0,0,1-1.02-.113L.694,2.515A1.341,1.341,0,1,1,1.988.167L9.239,4.16a1.341,1.341,0,0,1-.274,2.462Z" transform="translate(15.957 8.813)" fill="#12263f"/>
              <path id="Trazado_169307" data-name="Trazado 169307" d="M8.965,6.622a1.336,1.336,0,0,1-1.02-.113L.694,2.515A1.341,1.341,0,0,1,1.988.167L9.239,4.16a1.341,1.341,0,0,1-.274,2.462Z" transform="translate(0.244 37.351)" fill="#12263f"/>
              <path id="Trazado_169308" data-name="Trazado 169308" d="M1.714,17.11A1.341,1.341,0,0,1,.167,15.175L5.384,5.7A1.733,1.733,0,0,0,4.7,3.351L3.182,2.515A1.341,1.341,0,0,1,4.476.167L6,1A4.419,4.419,0,0,1,7.734,7L2.517,16.471a1.334,1.334,0,0,1-.8.641Z" transform="translate(24.327 6.257)" fill="#12263f"/>
            </g>
          </g>
        </g>
      </g>
    </g>
  </g>
</svg>
