<svg xmlns="http://www.w3.org/2000/svg" width="281" height="272.339" viewBox="0 0 281 272.339">
  <g id="Grupo_163881" data-name="Grupo 163881" transform="translate(7729.045 5726.966)">
    <g id="Grupo_112911" data-name="Grupo 112911" transform="translate(-7882.021 -7527.748)">
      <g id="Grupo_112852" data-name="Grupo 112852" transform="translate(161.454 1942.73)">
        <g id="Grupo_112849" data-name="Grupo 112849" transform="translate(0 22.191)">
          <path id="Trazado_161156" data-name="Trazado 161156" d="M175.179,2119.465h4.4a1.147,1.147,0,0,0,1.147-1.147V2092.84a1.141,1.141,0,0,0-1.234-1.145A12.725,12.725,0,0,0,168,2104.36v7.927A7.178,7.178,0,0,0,175.179,2119.465Z" transform="translate(-168.001 -2091.69)" fill="#eac759"/>
          <path id="Trazado_161157" data-name="Trazado 161157" d="M188.736,2119.308h0a2.35,2.35,0,0,1-2.35-2.35v-22.124a2.351,2.351,0,0,1,2.35-2.351h0a2.351,2.351,0,0,1,2.35,2.351v22.124A2.35,2.35,0,0,1,188.736,2119.308Z" transform="translate(-176.013 -2092.036)" fill="#233a49"/>
          <path id="Trazado_161158" data-name="Trazado 161158" d="M183.136,2120.156a.3.3,0,0,1-.3-.3v-24.2a.3.3,0,1,1,.6,0v24.2A.3.3,0,0,1,183.136,2120.156Z" transform="translate(-174.465 -2093.283)" fill="#c4a345"/>
          <path id="Trazado_161159" data-name="Trazado 161159" d="M177.208,2133.469c-4.325,0-7.979-3.33-7.979-7.271a.3.3,0,1,1,.6,0c0,3.613,3.377,6.666,7.375,6.666a.3.3,0,0,1,0,.6Z" transform="translate(-168.536 -2106.596)" fill="#c4a345"/>
        </g>
        <g id="Grupo_112850" data-name="Grupo 112850" transform="translate(35.352 22.191)">
          <path id="Trazado_161160" data-name="Trazado 161160" d="M240.368,2119.465h-4.4a1.147,1.147,0,0,1-1.147-1.147V2092.84a1.141,1.141,0,0,1,1.234-1.145,12.725,12.725,0,0,1,11.489,12.665v7.927A7.178,7.178,0,0,1,240.368,2119.465Z" transform="translate(-232.472 -2091.69)" fill="#eac759"/>
          <path id="Trazado_161161" data-name="Trazado 161161" d="M241.77,2133.469a.3.3,0,0,1,0-.6c4,0,7.374-3.053,7.374-6.666a.3.3,0,1,1,.6,0C249.749,2130.139,246.095,2133.469,241.77,2133.469Z" transform="translate(-235.368 -2106.596)" fill="#c4a345"/>
          <path id="Trazado_161162" data-name="Trazado 161162" d="M233.007,2119.308h0a2.35,2.35,0,0,0,2.35-2.35v-22.124a2.351,2.351,0,0,0-2.35-2.351h0a2.35,2.35,0,0,0-2.35,2.351v22.124A2.349,2.349,0,0,0,233.007,2119.308Z" transform="translate(-230.657 -2092.036)" fill="#233a49"/>
          <path id="Trazado_161163" data-name="Trazado 161163" d="M241.77,2120.156a.3.3,0,0,1-.3-.3v-24.2a.3.3,0,1,1,.6,0v24.2A.3.3,0,0,1,241.77,2120.156Z" transform="translate(-235.368 -2093.283)" fill="#c4a345"/>
        </g>
        <g id="Grupo_112851" data-name="Grupo 112851" transform="translate(3.516)">
          <rect id="Rectángulo_40727" data-name="Rectángulo 40727" width="1.823" height="6.24" rx="0.862" transform="translate(1.743 32.63) rotate(-27.74)" fill="#d66371"/>
          <rect id="Rectángulo_40728" data-name="Rectángulo 40728" width="1.823" height="6.24" rx="0.701" transform="translate(38.746 38.152) rotate(-152.26)" fill="#d66371"/>
          <path id="Trazado_161164" data-name="Trazado 161164" d="M215.07,2085.6a.3.3,0,0,1-.27-.438,20.873,20.873,0,0,0,2.221-9.434,21.093,21.093,0,0,0-42.185,0,20.875,20.875,0,0,0,2.222,9.434.3.3,0,0,1-.54.271,21.472,21.472,0,0,1-2.286-9.7,21.7,21.7,0,0,1,43.393,0,21.478,21.478,0,0,1-2.286,9.7A.3.3,0,0,1,215.07,2085.6Z" transform="translate(-174.233 -2053.089)" fill="#233a49"/>
          <path id="Trazado_161165" data-name="Trazado 161165" d="M181.941,2063a1.244,1.244,0,0,1-.976-2.014,22.525,22.525,0,0,1,17.781-8.626,1.244,1.244,0,1,1,0,2.488,20.052,20.052,0,0,0-15.828,7.679A1.243,1.243,0,0,1,181.941,2063Z" transform="translate(-177.05 -2052.361)" fill="#233a49"/>
          <path id="Trazado_161166" data-name="Trazado 161166" d="M228.532,2063a1.243,1.243,0,0,1-.977-.473,20.053,20.053,0,0,0-15.829-7.679,1.244,1.244,0,0,1,0-2.488,22.526,22.526,0,0,1,17.782,8.626,1.244,1.244,0,0,1-.976,2.014Z" transform="translate(-190.029 -2052.361)" fill="#233a49"/>
        </g>
      </g>
      <g id="Grupo_112855" data-name="Grupo 112855" transform="translate(161.325 2011.789)">
        <g id="Grupo_112853" data-name="Grupo 112853" transform="translate(11.498)">
          <path id="Trazado_161167" data-name="Trazado 161167" d="M238.437,2199.615l-6.118,1.429c-6.328,1.478-15.89-1.7-17.368-8.026l-3.992-17.092a1.51,1.51,0,0,0-1.635-1.161,84.76,84.76,0,0,0-20.2,4.7,1.507,1.507,0,0,0-.933,1.758l7.166,30.682.2.873-1.077,1.013a1.4,1.4,0,0,0-.406,1.344l1.127,4.828a1.409,1.409,0,0,0,.96,1.025l1.413.429.478,2.048a5.052,5.052,0,0,0,6.147,3.819c6.025-1.407,8.185-3.486,14.57-4.977s10.3-.832,14.652-1.849a104.147,104.147,0,0,0,14.325-4.854,6.039,6.039,0,0,0,3.516-6.93l-.3-1.273A10.436,10.436,0,0,0,238.437,2199.615Z" transform="translate(-188.152 -2174.756)" fill="#2b4253"/>
          <path id="Trazado_161168" data-name="Trazado 161168" d="M210.958,2175.927a1.51,1.51,0,0,0-1.635-1.161,84.76,84.76,0,0,0-20.2,4.7,1.507,1.507,0,0,0-.933,1.758l4.377,18.741,19.7-18.419Z" transform="translate(-188.152 -2174.756)" fill="#16232c"/>
          <path id="Trazado_161169" data-name="Trazado 161169" d="M195.8,2205.267a.238.238,0,0,1-.163-.412l19.7-18.419a.238.238,0,0,1,.325.347l-19.7,18.419A.239.239,0,0,1,195.8,2205.267Z" transform="translate(-191.38 -2179.818)" fill="#ba5868"/>
          <path id="Trazado_161170" data-name="Trazado 161170" d="M219.986,2237.353a.238.238,0,0,1-.119-.445,18.089,18.089,0,0,1,1.848-.9,47.285,47.285,0,0,1,8.308-2.819,53.321,53.321,0,0,1,9.564-1.263,30.854,30.854,0,0,0,5.089-.585,73.85,73.85,0,0,0,17.471-6.821.238.238,0,1,1,.217.423,74.2,74.2,0,0,1-17.579,6.861,31.107,31.107,0,0,1-5.168.6,53.007,53.007,0,0,0-9.485,1.252,46.92,46.92,0,0,0-8.231,2.793,18.479,18.479,0,0,0-1.8.871A.239.239,0,0,1,219.986,2237.353Z" transform="translate(-201.92 -2196.432)" fill="#16232c"/>
          <path id="Trazado_161171" data-name="Trazado 161171" d="M204.535,2245.363a.238.238,0,0,1-.054-.47c1.818-.425,3.811-2.189,5.33-4.718,1.491-2.482,2.155-5.15,1.732-6.962a5.525,5.525,0,0,0-2.846-3.926,7.563,7.563,0,0,0-5.122-.344,9.1,9.1,0,0,0-4.4,2.234.238.238,0,0,1-.337-.336,9.567,9.567,0,0,1,4.629-2.361c4.429-1.034,7.621.694,8.539,4.625.98,4.195-3.318,11.294-7.417,12.252A.266.266,0,0,1,204.535,2245.363Z" transform="translate(-192.778 -2198.039)" fill="#16232c"/>
          <path id="Trazado_161172" data-name="Trazado 161172" d="M189.1,2186.728a.239.239,0,0,1-.054-.471l22.762-5.316a.238.238,0,0,1,.108.464l-22.762,5.316A.214.214,0,0,1,189.1,2186.728Z" transform="translate(-188.463 -2177.448)" fill="#ba5868"/>
          <path id="Trazado_161173" data-name="Trazado 161173" d="M226.127,2247.119c6.385-1.492,10.3-.833,14.652-1.849a89.413,89.413,0,0,0,14.325-4.854h0a6.038,6.038,0,0,0,3.516-6.93l-.3-1.273q-.063-.267-.138-.526c-4.7,2.387-10.774,5.656-18.819,7.536a31.029,31.029,0,0,1-5.129.591,53.1,53.1,0,0,0-9.524,1.258,47.17,47.17,0,0,0-8.269,2.8,35.438,35.438,0,0,1-6.3,2.172,38.76,38.76,0,0,1-5.122.567l.388,1.663a5.052,5.052,0,0,0,6.147,3.819C217.582,2250.688,219.742,2248.609,226.127,2247.119Z" transform="translate(-195.503 -2199.564)" fill="#16232c"/>
        </g>
        <g id="Grupo_112854" data-name="Grupo 112854" transform="translate(0 5.184)">
          <path id="Trazado_161174" data-name="Trazado 161174" d="M214.5,2215.41h-6.283c-6.5,0-15.088-5.268-15.088-11.766v-17.552a1.511,1.511,0,0,0-1.328-1.5,84.779,84.779,0,0,0-20.739-.015,1.509,1.509,0,0,0-1.308,1.5v32.4l-1.279.74a1.405,1.405,0,0,0-.7,1.217v4.957a1.4,1.4,0,0,0,.7,1.217l1.279.74v2.1a5.051,5.051,0,0,0,5.117,5.117c6.187,0,8.763-1.532,15.32-1.532s10.219,1.532,14.689,1.532a104.3,104.3,0,0,0,15.054-1.469,6.038,6.038,0,0,0,5-5.948v-1.307A10.435,10.435,0,0,0,214.5,2215.41Z" transform="translate(-167.773 -2183.944)" fill="#3a5870"/>
          <path id="Trazado_161175" data-name="Trazado 161175" d="M194.657,2186.092a1.511,1.511,0,0,0-1.328-1.5,84.779,84.779,0,0,0-20.739-.015,1.509,1.509,0,0,0-1.308,1.5v19.244l23.375-13.454Z" transform="translate(-169.302 -2183.944)" fill="#233a49"/>
          <path id="Trazado_161176" data-name="Trazado 161176" d="M171.1,2211.49a.238.238,0,0,1-.119-.445l23.375-13.455a.238.238,0,1,1,.238.413l-23.375,13.455A.236.236,0,0,1,171.1,2211.49Z" transform="translate(-169.118 -2189.877)" fill="#d66371"/>
          <path id="Trazado_161177" data-name="Trazado 161177" d="M213.77,2252.406a31.132,31.132,0,0,1-5.168-.594,52.971,52.971,0,0,0-9.521-.938,46.928,46.928,0,0,0-8.65.847,18.121,18.121,0,0,0-1.948.44.238.238,0,0,1-.137-.456,18.275,18.275,0,0,1,2-.453,47.341,47.341,0,0,1,8.731-.854,53.364,53.364,0,0,1,9.6.944,30.868,30.868,0,0,0,5.092.589,73.465,73.465,0,0,0,18.615-2.706.238.238,0,0,1,.115.463A73.884,73.884,0,0,1,213.77,2252.406Z" transform="translate(-176.665 -2212.389)" fill="#233a49"/>
          <path id="Trazado_161178" data-name="Trazado 161178" d="M173.268,2250.07a.238.238,0,0,1,0-.476c1.868,0,4.209-1.265,6.264-3.382,2.017-2.078,3.27-4.525,3.27-6.386,0-3.738-2.537-5.969-6.787-5.969a9.1,9.1,0,0,0-4.793,1.174.238.238,0,0,1-.252-.4,9.569,9.569,0,0,1,5.045-1.246c4.548,0,7.263,2.41,7.263,6.446C183.278,2244.134,177.478,2250.07,173.268,2250.07Z" transform="translate(-169.117 -2205.487)" fill="#233a49"/>
          <path id="Trazado_161179" data-name="Trazado 161179" d="M194.473,2192.451H171.1a.238.238,0,0,1,0-.476h23.375a.238.238,0,0,1,0,.476Z" transform="translate(-169.118 -2187.444)" fill="#d66371"/>
          <path id="Trazado_161180" data-name="Trazado 161180" d="M191.719,2264.977c6.557,0,10.219,1.533,14.689,1.533a89.4,89.4,0,0,0,15.054-1.469h0a6.038,6.038,0,0,0,5-5.949v-1.307q0-.273-.014-.544c-5.123,1.255-11.778,3.059-20.04,3.059a31.037,31.037,0,0,1-5.128-.592,53.175,53.175,0,0,0-9.561-.941,47.11,47.11,0,0,0-8.69.851,35.534,35.534,0,0,1-6.63.682,38.61,38.61,0,0,1-5.117-.614v1.707a5.051,5.051,0,0,0,5.117,5.117C182.586,2266.51,185.162,2264.977,191.719,2264.977Z" transform="translate(-169.302 -2215.885)" fill="#233a49"/>
        </g>
      </g>
      <g id="Grupo_112858" data-name="Grupo 112858" transform="translate(155.681 1896.055)">
        <path id="Trazado_161181" data-name="Trazado 161181" d="M205.28,2015.824c-5.739,0-8.65,5.7-8.65,5.7,5.185-5.185,12.114-5.185,17.3,0C213.929,2021.522,211.018,2015.824,205.28,2015.824Z" transform="translate(-174.704 -1989.764)" fill="#d66371"/>
        <path id="Trazado_161182" data-name="Trazado 161182" d="M209.805,1991.547v0h0a139.971,139.971,0,0,0-35.04,0h0v0c-5.075.7-7.954,5.213-7.954,10.675,0,5.95,5.83,9.666,11.781,9.666,2.816,0,4.566-.834,5.63-2.341v.03c2.3-3.5,3.99-4.927,8.063-5.039,4.073.112,5.764,1.543,8.062,5.039v-.03c1.064,1.507,2.815,2.341,5.63,2.341,5.95,0,11.781-3.716,11.781-9.666C217.759,1996.76,214.88,1992.25,209.805,1991.547Z" transform="translate(-161.71 -1978.704)" fill="#e4edf4"/>
        <g id="Grupo_112856" data-name="Grupo 112856" transform="translate(7.912 11.79)">
          <path id="Trazado_161183" data-name="Trazado 161183" d="M171.793,2009.225a11.232,11.232,0,0,0,2.347,1.681l4.895-18.951q-1.05.116-2.1.248v0c-.269.037-.529.087-.785.145Z" transform="translate(-171.793 -1991.153)" fill="#f2f6f9"/>
          <path id="Trazado_161184" data-name="Trazado 161184" d="M179.6,2011.748l5.246-20.314q-.713.063-1.425.135l-5.1,19.739Q178.947,2011.558,179.6,2011.748Z" transform="translate(-174.639 -1990.926)" fill="#f2f6f9"/>
          <path id="Trazado_161185" data-name="Trazado 161185" d="M215.57,1990.533l-3.627,14.043h.01a10.978,10.978,0,0,1,2.95.428l3.71-14.363C217.6,1990.594,216.584,1990.559,215.57,1990.533Z" transform="translate(-189.289 -1990.533)" fill="#f2f6f9"/>
          <path id="Trazado_161186" data-name="Trazado 161186" d="M237.941,1992.273v0h0c-.452-.057-.9-.108-1.357-.161l-5.207,20.162a9.837,9.837,0,0,0,2.737.342c.475,0,.948-.026,1.418-.073l5.032-19.487A8.828,8.828,0,0,0,237.941,1992.273Z" transform="translate(-197.758 -1991.22)" fill="#f2f6f9"/>
        </g>
        <path id="Rectángulo_40729" data-name="Rectángulo 40729" d="M1.6,0h.311a0,0,0,0,1,0,0V6.558a0,0,0,0,1,0,0H1.6A1.6,1.6,0,0,1,0,4.955V1.6A1.6,1.6,0,0,1,1.6,0Z" transform="translate(3.39 19.711)" fill="#d66371"/>
        <path id="Rectángulo_40730" data-name="Rectángulo 40730" d="M1.6,0h.311a0,0,0,0,1,0,0V6.558a0,0,0,0,1,0,0H1.6A1.6,1.6,0,0,1,0,4.955V1.6A1.6,1.6,0,0,1,1.6,0Z" transform="translate(57.962 26.268) rotate(180)" fill="#d66371"/>
        <path id="Trazado_161187" data-name="Trazado 161187" d="M215.948,1989.617a139.994,139.994,0,0,0-35.04,0,47.241,47.241,0,0,1,8.673-1.946,67.144,67.144,0,0,1,17.695,0A47.22,47.22,0,0,1,215.948,1989.617Z" transform="translate(-167.853 -1977.241)" fill="#d66371"/>
        <path id="Trazado_161188" data-name="Trazado 161188" d="M205.442,2012.047c-2.832,0-4.825-.811-6.085-2.48a.689.689,0,0,1-.127-.144c-2.6-3.956-4.338-4.637-7.481-4.726-3.839.11-5.351,1.485-7.482,4.726a.7.7,0,0,1-.127.145c-1.259,1.667-3.252,2.479-6.085,2.479-6.133,0-12.476-3.875-12.476-10.361a12.853,12.853,0,0,1,2.2-7.527,9.167,9.167,0,0,1,6.288-3.829q.035-.008.071-.013a140.869,140.869,0,0,1,35.214,0c.024,0,.048.008.072.013a9.166,9.166,0,0,1,6.287,3.829,12.853,12.853,0,0,1,2.2,7.527C217.917,2008.171,211.574,2012.047,205.442,2012.047Zm-5.148-3.537a.672.672,0,0,1,.086.1c.985,1.4,2.594,2.046,5.062,2.046,5.449,0,11.085-3.356,11.085-8.97,0-5.448-2.887-9.368-7.354-9.986l-.052-.01a139.414,139.414,0,0,0-34.744,0l-.052.01c-4.467.619-7.354,4.539-7.354,9.986,0,5.614,5.636,8.97,11.085,8.97,2.468,0,4.077-.65,5.062-2.046a.672.672,0,0,1,.086-.1c2.276-3.429,4.167-5.084,8.526-5.2h.038C196.126,2003.425,198.018,2005.08,200.294,2008.509Z" transform="translate(-161.173 -1978.168)" fill="#c4a345"/>
        <g id="Grupo_112857" data-name="Grupo 112857" transform="translate(0)">
          <path id="Trazado_161189" data-name="Trazado 161189" d="M213.42,1990.126c.475-.44,2.343.045,2.383-.6a7.676,7.676,0,0,0-.207-1.924c-.227-1.171-2.116-3.523-2.8-4.5a5.762,5.762,0,0,0-2.467-1.9,17.707,17.707,0,0,0-3.191-.88c-5.006-1.089-10.258-.714-15.229-1.952-1.042-.26-2.065-.589-3.112-.827a18.482,18.482,0,0,0-7.97-.045,11.9,11.9,0,0,1-2.068.36,8.341,8.341,0,0,1-2.33-.349,3.336,3.336,0,0,1-1.125-.442,1.3,1.3,0,0,1-.593-1.063,10.555,10.555,0,0,1-4.274,3.852,19.092,19.092,0,0,1-3.03.772,17.226,17.226,0,0,0-2.149.641,5.019,5.019,0,0,0-1.425.738,4.243,4.243,0,0,0-.965,1.177c-.743,1.258-2.219,4-2.02,5.452.064.466.259,1,.715,1.121l.781,5.677a2.646,2.646,0,0,1-2.823-1.034,7.128,7.128,0,0,1-1.154-2.967,18.533,18.533,0,0,1-.487-6.4,7.934,7.934,0,0,1,3.062-5.471c1.966-1.37,4.634-1.514,6.472-3.052a11.631,11.631,0,0,0,2.363-3.233,8.434,8.434,0,0,1,2.561-3.056,3.171,3.171,0,0,1,3.743.073c.472.436.748,1.048,1.205,1.5,1.053,1.037,2.76.968,4.194.61s2.889-.937,4.343-.675c2.2.394,4.211,1.879,6.416,2.26,3.284.567,6.744.109,9.9,1.172,2.3.774,4.276,2.3,6.489,3.313a29.3,29.3,0,0,1,4.619,2.119c2.5,1.719,4.474,7.247,4.533,10.284.024,1.234-.956,3.876-2.054,3.924-1.233.054-1.145-.812-2.379-.8q.031-1.777.063-3.552Z" transform="translate(-157.77 -1969.641)" fill="#233a49"/>
          <path id="Trazado_161190" data-name="Trazado 161190" d="M187.62,1976.228a.231.231,0,0,1-.232-.231v-6.128a.232.232,0,1,1,.464,0V1976A.231.231,0,0,1,187.62,1976.228Z" transform="translate(-170.677 -1969.637)" fill="#09151c"/>
        </g>
      </g>
      <g id="Grupo_112865" data-name="Grupo 112865" transform="translate(251.606 2016.604)">
        <g id="Grupo_112861" data-name="Grupo 112861" transform="translate(0.01)">
          <g id="Grupo_112860" data-name="Grupo 112860" transform="translate(0 24.311)">
            <path id="Trazado_161191" data-name="Trazado 161191" d="M329.295,2242.772c-.578,1.167,2.265,2.9,7.209,6.166s8.075,5.175,9.216,3.623,5.609-7.811,7.462-10.314c.552-.746,1.524-2.038,2.675-3.564-5.482,1.342-9.208-1.35-13.345-4.509a13.571,13.571,0,0,1-4.886-7.8,18.584,18.584,0,0,1-2.462,8.809C333.432,2238.356,329.873,2241.6,329.295,2242.772Z" transform="translate(-328.418 -2226.375)" fill="#cbd3d9"/>
            <g id="Grupo_112859" data-name="Grupo 112859" transform="translate(1.644 1.754)">
              <path id="Trazado_161192" data-name="Trazado 161192" d="M355.367,2261.063a.13.13,0,0,1-.082-.231,4.877,4.877,0,0,0,1.165-1.7c.056-.112.112-.224.169-.335a26.968,26.968,0,0,1,2.635-3.924l4.883-6.425a.13.13,0,1,1,.207.157l-4.883,6.424a26.8,26.8,0,0,0-2.61,3.887c-.056.109-.112.221-.168.333a5.1,5.1,0,0,1-1.234,1.789A.134.134,0,0,1,355.367,2261.063Z" transform="translate(-341.399 -2237.724)" fill="#b4bfc7"/>
              <path id="Trazado_161193" data-name="Trazado 161193" d="M352.759,2259.581a.126.126,0,0,1-.074-.024.129.129,0,0,1-.032-.18l4.069-5.838c.267-.383.534-.765.8-1.151a54.849,54.849,0,0,0,2.993-4.962.13.13,0,1,1,.229.122,54.957,54.957,0,0,1-3.007,4.986c-.262.386-.53.771-.8,1.154l-4.069,5.838A.131.131,0,0,1,352.759,2259.581Z" transform="translate(-340.262 -2237.271)" fill="#b4bfc7"/>
              <path id="Trazado_161194" data-name="Trazado 161194" d="M348.087,2259.119a.131.131,0,0,1-.072-.022.13.13,0,0,1-.035-.18c1.224-1.833,2.427-3.729,3.591-5.564,1.528-2.408,3.108-4.9,4.755-7.274a.13.13,0,0,1,.213.149c-1.644,2.37-3.222,4.859-4.749,7.265-1.164,1.835-2.368,3.732-3.595,5.568A.127.127,0,0,1,348.087,2259.119Z" transform="translate(-338.226 -2236.69)" fill="#b4bfc7"/>
              <path id="Trazado_161195" data-name="Trazado 161195" d="M345.881,2255.622a.13.13,0,0,1-.1-.211c.969-1.219,1.83-2.552,2.663-3.839a12.957,12.957,0,0,0,.718-1.207c.115-.23.217-.471.317-.7s.2-.461.307-.686a13.821,13.821,0,0,1,1.623-2.384,11.119,11.119,0,0,0,1.814-2.852.13.13,0,0,1,.243.091,11.33,11.33,0,0,1-1.853,2.922,13.577,13.577,0,0,0-1.594,2.337c-.108.219-.206.449-.3.672-.1.238-.205.483-.323.719a12.928,12.928,0,0,1-.733,1.231c-.836,1.294-1.7,2.632-2.678,3.862A.131.131,0,0,1,345.881,2255.622Z" transform="translate(-337.265 -2235.658)" fill="#b4bfc7"/>
              <path id="Trazado_161196" data-name="Trazado 161196" d="M341.376,2254.148a.128.128,0,0,1-.059-.014.13.13,0,0,1-.069-.137l.141-.829a.13.13,0,1,1,.256.043l-.068.4a16.036,16.036,0,0,0,1.708-2.5l1.922-3.232a33.436,33.436,0,0,1,2.91-4.355c.088-.106.178-.211.267-.317a6.8,6.8,0,0,0,1.135-1.628.13.13,0,0,1,.238.1,7.01,7.01,0,0,1-1.176,1.693c-.089.1-.178.208-.265.313a33.263,33.263,0,0,0-2.887,4.322l-1.923,3.233a14.282,14.282,0,0,1-2.039,2.861A.13.13,0,0,1,341.376,2254.148Z" transform="translate(-335.302 -2234.722)" fill="#b4bfc7"/>
              <path id="Trazado_161197" data-name="Trazado 161197" d="M338.777,2251.48a.13.13,0,0,1-.1-.217,12.331,12.331,0,0,0,2.866-4.346,15.733,15.733,0,0,1,1.144-2.241c.174-.266.366-.525.551-.775.157-.21.319-.428.467-.647.2-.3.39-.617.572-.924.14-.235.284-.479.435-.714a12.1,12.1,0,0,1,2.062-2.437.13.13,0,1,1,.174.192,11.847,11.847,0,0,0-2.018,2.386c-.148.231-.291.473-.43.707-.184.31-.374.631-.581.936-.152.224-.315.444-.473.657-.183.247-.373.5-.543.762a15.451,15.451,0,0,0-1.124,2.205,12.579,12.579,0,0,1-2.91,4.414A.129.129,0,0,1,338.777,2251.48Z" transform="translate(-334.17 -2233.694)" fill="#b4bfc7"/>
              <path id="Trazado_161198" data-name="Trazado 161198" d="M334.559,2249.419a.135.135,0,0,1-.066-.018.13.13,0,0,1-.045-.178,27.769,27.769,0,0,1,2.211-3.182l.216-.265a9.759,9.759,0,0,0,1.571-2.444l.109-.221a40.623,40.623,0,0,1,4.513-7.083.13.13,0,0,1,.2.161,40.429,40.429,0,0,0-4.485,7.039l-.109.219a13.268,13.268,0,0,1-.731,1.341,13.483,13.483,0,0,1-.871,1.152l-.215.265a27.408,27.408,0,0,0-2.191,3.152A.128.128,0,0,1,334.559,2249.419Z" transform="translate(-332.331 -2232.313)" fill="#b4bfc7"/>
              <path id="Trazado_161199" data-name="Trazado 161199" d="M330.841,2245.2a.13.13,0,0,1-.086-.032.128.128,0,0,1-.01-.182l0,0c.534-.582,1.086-1.183,1.613-1.788a93.908,93.908,0,0,0,9.315-13.647.13.13,0,0,1,.223.133,94.182,94.182,0,0,1-9.342,13.685c-.529.607-1.083,1.21-1.618,1.793A.137.137,0,0,1,330.841,2245.2Z" transform="translate(-330.711 -2229.483)" fill="#b4bfc7"/>
            </g>
            <path id="Trazado_161200" data-name="Trazado 161200" d="M343.6,2266.359s-2.586-1.555-4.6-2.811c-1.963-1.225-10.694-6.486-10.694-6.486a1.058,1.058,0,0,1-.354-1.454h0a1.059,1.059,0,0,1,1.453-.354s5.885,3.43,8.367,4.939,6.922,4.358,6.922,4.358a1.058,1.058,0,0,1,.354,1.453h0A1.056,1.056,0,0,1,343.6,2266.359Z" transform="translate(-327.798 -2238.893)" fill="#2c4355"/>
          </g>
          <path id="Trazado_161201" data-name="Trazado 161201" d="M344.179,2205.028c-.021,1.223-.071,2.292-.152,3.252a7.788,7.788,0,0,0,.385,1.166,15.2,15.2,0,0,0,1.689,2.906,22.065,22.065,0,0,0,6.577,5.706,16.832,16.832,0,0,0,5.123,2.147,9.147,9.147,0,0,0,4.366-.11c2.725-3.612,6.543-8.65,8.163-10.848,2.267-3.076,6.389-8.987,7.855-11.4.9-1.486-.512-2.984-2.043-1.687-1.324,1.12-8,9.031-8.34,8.774s.089-1.53.858-2.8,2.9-4.524,4.627-7.039,3.208-5.03,1.689-5.953c-1.087-.661-2.8,1.671-4.369,3.928-2.349,3.374-6.059,8.743-6.71,8.347s6.2-11.332,7.209-13,1.747-3.145.063-4.12c-1.368-.791-5.476,5.748-7.469,9.024s-3.872,5.716-4.306,5.452-.162-1.171.378-2.493a73.78,73.78,0,0,1,3.673-6.406c1.114-1.831,3.5-5.471,1.958-6.409-1.353-.823-2.551,1.155-4.387,4.065s-6.862,10.416-8.353,12.216-2.907.873-3.287-.348.1-3.637.312-5.29.438-3.761-1.439-3.713-2.366,3.334-2.788,5.236A32.94,32.94,0,0,0,344.179,2205.028Z" transform="translate(-334.87 -2183.289)" fill="#2c4355"/>
        </g>
        <g id="Grupo_112864" data-name="Grupo 112864" transform="translate(0 12.074)">
          <g id="Grupo_112863" data-name="Grupo 112863" transform="translate(0 15.971)">
            <path id="Trazado_161202" data-name="Trazado 161202" d="M329.7,2245.621c-.937.9,1.157,3.49,4.708,8.235s5.858,7.595,7.455,6.52,7.914-5.464,10.5-7.2c.771-.517,2.122-1.4,3.72-2.453-5.613-.585-8.214-4.375-11.044-8.745a13.573,13.573,0,0,1-1.97-8.989,18.587,18.587,0,0,1-5.288,7.463C335.083,2242.859,330.637,2244.717,329.7,2245.621Z" transform="translate(-328.519 -2232.993)" fill="#e4edf4"/>
            <g id="Grupo_112862" data-name="Grupo 112862" transform="translate(1.574 2.828)">
              <path id="Trazado_161203" data-name="Trazado 161203" d="M349.239,2271.79a.13.13,0,0,1-.043-.252,4.909,4.909,0,0,0,1.671-1.209c.091-.088.181-.175.273-.26a27.06,27.06,0,0,1,3.8-2.807l6.763-4.4a.13.13,0,1,1,.142.218l-6.763,4.4a26.83,26.83,0,0,0-3.768,2.778c-.09.085-.18.171-.27.258a5.087,5.087,0,0,1-1.765,1.267A.132.132,0,0,1,349.239,2271.79Z" transform="translate(-338.648 -2248.826)" fill="#ccd9e2"/>
              <path id="Trazado_161204" data-name="Trazado 161204" d="M347.4,2269.252a.13.13,0,0,1-.075-.236l5.8-4.124c.38-.27.761-.541,1.137-.816a54.8,54.8,0,0,0,4.49-3.663.13.13,0,0,1,.174.192,55.025,55.025,0,0,1-4.512,3.681c-.377.276-.759.546-1.14.818l-5.8,4.124A.133.133,0,0,1,347.4,2269.252Z" transform="translate(-337.847 -2247.755)" fill="#ccd9e2"/>
              <path id="Trazado_161205" data-name="Trazado 161205" d="M342.93,2267.367a.132.132,0,0,1-.1-.052.13.13,0,0,1,.027-.182c1.77-1.312,3.543-2.693,5.257-4.027,2.251-1.752,4.578-3.564,6.929-5.246a.13.13,0,0,1,.151.212c-2.347,1.678-4.672,3.489-6.92,5.24-1.715,1.335-3.489,2.715-5.262,4.03A.126.126,0,0,1,342.93,2267.367Z" transform="translate(-335.899 -2246.647)" fill="#ccd9e2"/>
              <path id="Trazado_161206" data-name="Trazado 161206" d="M342.326,2263.1a.13.13,0,0,1-.069-.24c1.322-.821,2.583-1.785,3.8-2.718a12.9,12.9,0,0,0,1.084-.894c.185-.177.363-.37.536-.557s.34-.367.52-.542a13.869,13.869,0,0,1,2.331-1.7,11.124,11.124,0,0,0,2.67-2.073.13.13,0,1,1,.2.168,11.308,11.308,0,0,1-2.73,2.126,13.615,13.615,0,0,0-2.288,1.663c-.176.169-.346.354-.51.531s-.357.385-.547.568a12.945,12.945,0,0,1-1.1.912c-1.224.938-2.49,1.906-3.823,2.733A.126.126,0,0,1,342.326,2263.1Z" transform="translate(-335.636 -2245.12)" fill="#ccd9e2"/>
              <path id="Trazado_161207" data-name="Trazado 161207" d="M338.406,2260.4a.131.131,0,0,1-.095-.042.127.127,0,0,1-.018-.151l.412-.734a.13.13,0,1,1,.226.126l-.2.359a16.112,16.112,0,0,0,2.451-1.777l2.9-2.4a33.529,33.529,0,0,1,4.208-3.12l.359-.208a6.839,6.839,0,0,0,1.617-1.148.13.13,0,1,1,.189.178,7.019,7.019,0,0,1-1.677,1.2c-.12.068-.239.136-.356.207a33.254,33.254,0,0,0-4.175,3.1l-2.9,2.395a14.185,14.185,0,0,1-2.884,2.006A.135.135,0,0,1,338.406,2260.4Z" transform="translate(-333.928 -2243.786)" fill="#ccd9e2"/>
              <path id="Trazado_161208" data-name="Trazado 161208" d="M336.939,2256.97a.13.13,0,0,1-.062-.244,12.378,12.378,0,0,0,4.163-3.125,15.686,15.686,0,0,1,1.832-1.726c.254-.192.521-.37.78-.543.218-.145.444-.3.658-.451.291-.214.574-.448.849-.676.211-.175.429-.356.65-.526a12.094,12.094,0,0,1,2.763-1.6.13.13,0,0,1,.1.24,11.823,11.823,0,0,0-2.7,1.565c-.218.168-.434.348-.644.521-.278.229-.564.468-.862.685-.218.159-.446.312-.667.458-.256.171-.52.347-.768.535a15.531,15.531,0,0,0-1.8,1.7,12.569,12.569,0,0,1-4.229,3.176A.135.135,0,0,1,336.939,2256.97Z" transform="translate(-333.288 -2242.391)" fill="#ccd9e2"/>
              <path id="Trazado_161209" data-name="Trazado 161209" d="M333.374,2253.744a.13.13,0,0,1-.083-.23,27.592,27.592,0,0,1,3.155-2.25l.293-.178a13.069,13.069,0,0,0,1.185-.774,13.273,13.273,0,0,0,1.119-1l.176-.17a40.655,40.655,0,0,1,6.637-5.148.13.13,0,0,1,.137.221,40.394,40.394,0,0,0-6.595,5.114l-.176.169a9.995,9.995,0,0,1-2.35,1.808c-.1.058-.195.117-.291.177a27.433,27.433,0,0,0-3.125,2.228A.128.128,0,0,1,333.374,2253.744Z" transform="translate(-331.735 -2240.607)" fill="#ccd9e2"/>
              <path id="Trazado_161210" data-name="Trazado 161210" d="M330.7,2249.13a.13.13,0,0,1-.06-.246c.7-.368,1.422-.747,2.127-1.142a93.917,93.917,0,0,0,13.371-9.708.13.13,0,0,1,.183.018.131.131,0,0,1-.018.184,94.178,94.178,0,0,1-13.408,9.733c-.709.4-1.433.777-2.133,1.146A.123.123,0,0,1,330.7,2249.13Z" transform="translate(-330.57 -2238.004)" fill="#ccd9e2"/>
            </g>
            <path id="Trazado_161211" data-name="Trazado 161211" d="M339.275,2270.689s-1.91-2.336-3.379-4.2c-1.434-1.816-7.881-9.712-7.881-9.712a1.057,1.057,0,0,1,.156-1.488h0a1.058,1.058,0,0,1,1.487.156s4.384,5.214,6.212,7.472,5.048,6.436,5.048,6.436a1.057,1.057,0,0,1-.157,1.487h0A1.057,1.057,0,0,1,339.275,2270.689Z" transform="translate(-327.78 -2242.608)" fill="#3a5870"/>
          </g>
          <path id="Trazado_161212" data-name="Trazado 161212" d="M354.284,2218.272c-.432,1.144-.839,2.135-1.239,3.01a7.765,7.765,0,0,0-.03,1.227,15.211,15.211,0,0,0,.61,3.306,22.059,22.059,0,0,0,4.267,7.589,16.831,16.831,0,0,0,4.1,3.749,9.137,9.137,0,0,0,4.148,1.367c3.783-2.482,9.076-5.937,11.342-7.46,3.172-2.133,9.046-6.307,11.238-8.082,1.351-1.094.524-2.982-1.355-2.278-1.624.608-10.577,5.8-10.81,5.449s.6-1.41,1.751-2.342,4.255-3.282,6.729-5.067,4.716-3.654,3.6-5.035c-.8-.989-3.2.63-5.437,2.225-3.349,2.384-8.652,6.188-9.131,5.6s9.656-8.578,11.168-9.8,2.706-2.372,1.449-3.858c-1.021-1.206-7.093,3.565-10.074,5.979s-5.572,4.075-5.892,3.681.242-1.158,1.2-2.22,3.952-3.444,5.617-4.793,5.14-3.97,4-5.373c-1-1.231-2.791.227-5.5,2.348s-9.972,7.493-11.983,8.686-3.031-.159-2.977-1.436,1.319-3.39,2.077-4.875,1.68-3.393-.1-3.981-3.351,2.341-4.39,3.99A32.935,32.935,0,0,0,354.284,2218.272Z" transform="translate(-338.771 -2204.687)" fill="#3a5870"/>
        </g>
      </g>
      <g id="Grupo_112868" data-name="Grupo 112868" transform="translate(393.8 1993.625)">
        <g id="Grupo_112866" data-name="Grupo 112866">
          <path id="Trazado_161213" data-name="Trazado 161213" d="M612.239,2265.684c.5,1.256,4.432.786,10.131-.481,2.909-.647,8.842-2.276,9.187-3.506l-2.119-6.4-17.251,5.679Z" transform="translate(-593.911 -2191.69)" fill="#a64a59"/>
          <path id="Trazado_161214" data-name="Trazado 161214" d="M608.368,2172.533h0c-.433-4.163-1.025-9.981-1.315-12.491-.405-3.513-1.341-10.114-1.869-12.669-.325-1.575-2.229-1.7-2.448.146-.189,1.594.278,11.159-.113,11.2s-.905-1.092-1.182-2.434-.89-4.892-1.306-7.683-1-5.428-2.61-5.1c-1.153.238-.841,2.9-.481,5.414.537,3.765,1.41,9.74.721,9.882s-2.95-11.58-3.314-13.344-.8-3.232-2.555-2.83c-1.425.327-.083,7.344.634,10.819s.983,6.312.523,6.407-.849-.691-1.317-1.926-1.152-4.712-1.553-6.654-1.081-5.911-2.716-5.574c-1.435.3-1,2.392-.406,5.519s1.922,11.379,2.048,13.538-1.418,2.424-2.445,1.837-2.226-2.525-3.124-3.778-2.074-2.823-3.315-1.607.5,3.749,1.414,5.3a30.51,30.51,0,0,0,5.049,7.163c.757.841,1.4,1.6,1.948,2.3l.008.005c2.1,2.618,3.187,4.4,3.485,7.019.956,8.435,1.481,14.89,5.993,33.557.078-.975,5.809-2.916,9.015-3.566,3.241-.657,9.644-1.484,10.3-.421,0,0-1.824-10.387-3.8-18.931-2-8.644-4.345-14.342-4.859-17.22C608.638,2175.607,608.538,2174.2,608.368,2172.533Z" transform="translate(-579.796 -2142.562)" fill="#bb5663"/>
        </g>
        <g id="Grupo_112867" data-name="Grupo 112867" transform="translate(11.786 0.371)">
          <path id="Trazado_161215" data-name="Trazado 161215" d="M613.159,2268.6c.235,1.33,4.182,1.666,10.02,1.575,2.98-.045,9.119-.441,9.706-1.575l-.783-6.693-18.043,2.074Z" transform="translate(-606.12 -2194.94)" fill="#c15668"/>
          <path id="Trazado_161216" data-name="Trazado 161216" d="M626.654,2175.837h0c.418-4.165,1.014-9.982,1.237-12.5.313-3.522.731-10.176.731-12.785,0-1.609-1.839-2.114-2.427-.352-.507,1.522-1.983,10.985-2.374,10.945s-.665-1.252-.665-2.622.117-4.971.274-7.789.117-5.519-1.527-5.519c-1.177,0-1.409,2.666-1.565,5.206-.235,3.8-.587,9.823-1.292,9.823s-.548-11.937-.548-13.737-.13-3.327-1.931-3.288c-1.461.032-1.565,7.176-1.565,10.725s-.313,6.379-.783,6.379-.691-.848-.9-2.153-.176-4.847-.176-6.829.137-6.008-1.533-6.008c-1.465,0-1.461,2.139-1.513,5.322s-.418,11.533-.731,13.673-1.879,2.088-2.766,1.3-1.67-2.922-2.3-4.331-1.461-3.183-2.922-2.244-.268,3.773.313,5.479a30.456,30.456,0,0,0,3.5,8.036c.57.977,1.046,1.847,1.443,2.643l.007.007c1.528,2.989,2.233,4.952,1.994,7.58-.768,8.455-1.559,14.882-.913,34.076.274-.939,6.278-1.682,9.55-1.67,3.307.012,9.745.5,10.176,1.67,0,0,.313-10.541.1-19.309-.211-8.869-1.357-14.925-1.279-17.848C626.3,2178.9,626.483,2177.5,626.654,2175.837Z" transform="translate(-600.683 -2143.22)" fill="#d66371"/>
        </g>
      </g>
      <g id="Grupo_112869" data-name="Grupo 112869" transform="translate(152.976 1802.901)">
        <path id="Trazado_161217" data-name="Trazado 161217" d="M186.777,1804.538s7.61,4.955,15.4,0l1.5,21.59-9.822,11.325-7.079-15.484-2.123-16.281Z" transform="translate(-166.78 -1804.538)" fill="#c4a345"/>
        <path id="Trazado_161218" data-name="Trazado 161218" d="M157.71,1807.059l15.263-2.521a12.146,12.146,0,0,0,1.328,4.247c.973,1.416,1.592,4.424,1.858,6.371a39.166,39.166,0,0,0,2.92,8.406c.8,1.416,3.274,6.371,3.539,7.167,0,0,1.769-4.07,2.831-6.637a94.7,94.7,0,0,0,3.008-9.556c.442-1.77-.531-3.362-.531-4.159s.531-4.247.442-5.84l16.369,2.831s-.8,11.326.265,16.9,2.92,9.468,7.167,13.007c0,0,.531,11.679.973,16.634s.973,20,1.593,24.421-12.565,5.84-17.52,5.752-13.112-2.467-13.112-2.467-3.7,2.643-15.025,2.909-11.768-1.5-12.564-4.6-3.539-43.268-3.539-43.268a16.7,16.7,0,0,0,5.928-11.5C159.612,1817.456,157.71,1807.059,157.71,1807.059Z" transform="translate(-152.976 -1804.538)" fill="#eac759"/>
        <path id="Trazado_161219" data-name="Trazado 161219" d="M153.958,1875.487c.1,1.48.222,3.106.346,4.824H181.5a20.443,20.443,0,0,0-.594-4.83C170.216,1875.471,159.85,1875.469,153.958,1875.487Z" transform="translate(-153.404 -1835.449)" fill="#3a5870"/>
        <path id="Trazado_161220" data-name="Trazado 161220" d="M235.016,1875.532c-6.477-.011-18.54-.031-30.461-.042a26.972,26.972,0,0,1,.561,4.828h30.177C235.2,1878.767,235.1,1877.109,235.016,1875.532Z" transform="translate(-175.453 -1835.457)" fill="#3a5870"/>
        <path id="Trazado_161221" data-name="Trazado 161221" d="M155.839,1901.124c.124,1.626.249,3.246.374,4.826H183.5a42.624,42.624,0,0,0,.2-4.827C172.949,1901.112,162.259,1901.108,155.839,1901.124Z" transform="translate(-154.224 -1846.623)" fill="#3a5870"/>
        <path id="Trazado_161222" data-name="Trazado 161222" d="M237.064,1901.176c-5.931-.01-17.815-.03-29.814-.042-.032,1.524-.234,3.235-.146,4.825h30.217C237.233,1904.286,237.147,1902.658,237.064,1901.176Z" transform="translate(-176.554 -1846.632)" fill="#3a5870"/>
        <path id="Trazado_161223" data-name="Trazado 161223" d="M207.177,1882.094a.2.2,0,0,1-.2-.182c-.012-.116-1.255-11.687-1.452-14.774-.131-2.05-.061-4.479,0-6.622.033-1.157.065-2.25.065-3.212a44.535,44.535,0,0,0-.685-6.019,60.358,60.358,0,0,1-.974-10.244c.111-4.942.774-6.59,1.541-8.5.152-.376.308-.766.463-1.189a36.854,36.854,0,0,1,1.7-3.772c.5-1.011,1.017-2.055,1.493-3.2a72.6,72.6,0,0,0,2.578-8.333,12.089,12.089,0,0,0-.231-4.269,9.506,9.506,0,0,1-.173-1.256,11.311,11.311,0,0,1,.26-1.651,16.442,16.442,0,0,0,.446-3.489.2.2,0,1,1,.407-.022,16.7,16.7,0,0,1-.452,3.59,11.6,11.6,0,0,0-.253,1.573,9.824,9.824,0,0,0,.166,1.187,12.338,12.338,0,0,1,.226,4.437,73.062,73.062,0,0,1-2.6,8.39c-.481,1.162-1,2.213-1.5,3.229a36.565,36.565,0,0,0-1.678,3.731c-.157.429-.314.821-.467,1.2-.752,1.872-1.4,3.489-1.512,8.355a60,60,0,0,0,.97,10.173A44.773,44.773,0,0,1,206,1857.3c0,.969-.032,2.064-.065,3.224-.061,2.134-.131,4.553,0,6.585.2,3.079,1.439,14.64,1.451,14.757a.2.2,0,0,1-.181.224Z" transform="translate(-175.177 -1804.81)" fill="#c4a345"/>
        <path id="Trazado_161224" data-name="Trazado 161224" d="M197.479,1882.2a.2.2,0,0,1-.2-.186c-.011-.123-1.047-12.35-1.113-15.243-.019-.813.044-1.883.117-3.123.188-3.214.445-7.616-.509-11.432a51.328,51.328,0,0,1-1-15.143,22.938,22.938,0,0,1,1.211-4.452c-.377-.976-3.258-6.525-4.069-7.964a39.474,39.474,0,0,1-2.944-8.478c-.3-2.189-.934-4.989-1.824-6.283a14.747,14.747,0,0,1-1.5-4.715.2.2,0,0,1,.4-.062,14.7,14.7,0,0,0,1.432,4.546c1.171,1.7,1.744,5.374,1.892,6.459a38.844,38.844,0,0,0,2.9,8.334c.787,1.4,3.853,7.285,4.125,8.1a.2.2,0,0,1,0,.141,22.575,22.575,0,0,0-1.215,4.433,50.809,50.809,0,0,0,.992,14.985c.969,3.876.709,8.314.52,11.555-.072,1.231-.134,2.294-.116,3.09.065,2.88,1.1,15.095,1.111,15.218a.2.2,0,0,1-.186.22Z" transform="translate(-167.212 -1804.714)" fill="#c4a345"/>
      </g>
      <g id="Grupo_112874" data-name="Grupo 112874" transform="translate(229.366 1800.782)">
        <g id="Grupo_112870" data-name="Grupo 112870">
          <path id="Trazado_161225" data-name="Trazado 161225" d="M301.54,1828.245l-1.485,12.733s.5,9.965-.1,12.683-1.812,9.966-1.812,9.966a39.164,39.164,0,0,1,.086,5.938,16.644,16.644,0,0,1-9.864.6l.82-10.972a33.278,33.278,0,0,1-.5-7.046c.1-4.228-.138-8.72-.138-8.72s4.064-24.7,6.178-27.416,14.092-4.53,14.092-4.53Z" transform="translate(-288.364 -1805.446)" fill="#3a5870"/>
          <path id="Trazado_161226" data-name="Trazado 161226" d="M362.158,1811.486s11.777,5.284,13.438,6.417,7.7,20.534,8.154,24.007-.529,25.743-.906,27.857l-11.4.528s-.906-5.284-.528-7.625c0,0-.831-11.173-.529-16.231,0,0-2.038-5.133-2.038-8.531s-1.812-9.588-1.812-9.588Z" transform="translate(-320.521 -1805.446)" fill="#3a5870"/>
          <path id="Trazado_161227" data-name="Trazado 161227" d="M317.677,1811.486h21.189l8.858,16.458-.629,18.5-1.283,10.041.679,13.363a27.262,27.262,0,0,1-10.267,1.283,129.588,129.588,0,0,0-16.08-.227c-4.756.3-11.173-1.434-11.173-1.434s-.226-7.474,1.208-11.551a30.811,30.811,0,0,1-1.359-7.625c-.453-5.285.6-27.556.6-27.556Z" transform="translate(-297.228 -1805.446)" fill="#3a5870"/>
          <path id="Trazado_161228" data-name="Trazado 161228" d="M344.968,1821.714a.859.859,0,1,1-.859-.859A.859.859,0,0,1,344.968,1821.714Z" transform="translate(-312.282 -1809.529)" fill="#eac759"/>
          <path id="Trazado_161229" data-name="Trazado 161229" d="M320.34,1900.247l-.872-10.985a.215.215,0,0,0-.214-.2h-9.282a.215.215,0,0,0-.21.258,18.819,18.819,0,0,0,.606,2.329.206.206,0,0,1,0,.138,32.219,32.219,0,0,0-1.167,8.469.213.213,0,0,0,.214.219h10.71A.214.214,0,0,0,320.34,1900.247Z" transform="translate(-297.444 -1839.253)" fill="#2f495b"/>
          <path id="Trazado_161230" data-name="Trazado 161230" d="M357.765,1889.268l-.581,10.979a.215.215,0,0,0,.218.227l9.819-.21a.214.214,0,0,0,.209-.225l-.495-9.733a.214.214,0,0,1,0-.038l.123-.961a.215.215,0,0,0-.213-.242H357.98A.215.215,0,0,0,357.765,1889.268Z" transform="translate(-318.354 -1839.253)" fill="#2f495b"/>
          <path id="Trazado_161231" data-name="Trazado 161231" d="M353.835,1837.443a.214.214,0,0,0-.214.229l.173,2.695.328,5.1a.215.215,0,0,0,.214.2h7.511a.214.214,0,0,0,.214-.214v-7.8a.214.214,0,0,0-.214-.214Z" transform="translate(-316.801 -1816.758)" fill="#2f495b"/>
          <path id="Trazado_161232" data-name="Trazado 161232" d="M337.014,1839.987l-3.389-.75v-2.3l3.341-.7Z" transform="translate(-308.087 -1816.233)" fill="#eac759"/>
          <path id="Trazado_161233" data-name="Trazado 161233" d="M337.777,1859.767l-4.152-.927v-2.3l3.75-.872Z" transform="translate(-308.087 -1824.7)" fill="#eac759"/>
          <path id="Trazado_161234" data-name="Trazado 161234" d="M339.2,1880l-3.637-.781v-2.3l3.536-.821Z" transform="translate(-308.933 -1833.602)" fill="#eac759"/>
          <path id="Trazado_161235" data-name="Trazado 161235" d="M339.327,1898.105l-3.762-.839v-2.3l3.731-.839Z" transform="translate(-308.933 -1841.46)" fill="#eac759"/>
          <path id="Trazado_161236" data-name="Trazado 161236" d="M300.873,1858.15l.411-3.522-10.175-3.738c-.356,1.6-.581,3.241-.868,4.585l10.652,3.089C300.881,1858.3,300.873,1858.15,300.873,1858.15Z" transform="translate(-289.182 -1822.618)" fill="#d66371"/>
          <path id="Trazado_161237" data-name="Trazado 161237" d="M386.351,1850.825l-13.261,3.752a4.633,4.633,0,0,1,.023.475,17.231,17.231,0,0,0,.573,3.9l13.83-4.116C387.117,1853.385,386.891,1852.582,386.351,1850.825Z" transform="translate(-325.285 -1822.589)" fill="#d66371"/>
          <path id="Trazado_161238" data-name="Trazado 161238" d="M304.58,1828.063l43.484-.566-2.755,2.693-39.024.724Z" transform="translate(-295.43 -1812.424)" fill="#e4edf4"/>
          <path id="Trazado_161239" data-name="Trazado 161239" d="M328.959,1800.858l-4.354,5.964,2.051,8.153,9.323-3.548,9.1,3.963.717-8.568-2.189-6.04A27.685,27.685,0,0,1,328.959,1800.858Z" transform="translate(-304.157 -1800.782)" fill="#233a49"/>
          <path id="Trazado_161240" data-name="Trazado 161240" d="M332.094,1800.858s-2.492,7.474,7.021,10.569c0,0,8.078-3.1,7.625-10.645A25.879,25.879,0,0,1,332.094,1800.858Z" transform="translate(-307.292 -1800.782)" fill="#09151c"/>
        </g>
        <g id="Grupo_112873" data-name="Grupo 112873" transform="translate(0.154 10.671)">
          <path id="Trazado_161241" data-name="Trazado 161241" d="M302.072,1910.383a.1.1,0,0,1-.1-.1V1904a.1.1,0,0,1,.2,0v6.285A.1.1,0,0,1,302.072,1910.383Z" transform="translate(-294.448 -1856.388)" fill="#233a49"/>
          <path id="Trazado_161242" data-name="Trazado 161242" d="M298.4,1903.894l-.022,0c-3.242-.743-8.818-.069-8.874-.062a.1.1,0,0,1-.111-.085.1.1,0,0,1,.086-.111c.056-.007,5.667-.685,8.942.064a.1.1,0,0,1-.022.2Z" transform="translate(-288.967 -1856.147)" fill="#233a49"/>
          <path id="Trazado_161243" data-name="Trazado 161243" d="M291.889,1899.676a.1.1,0,0,1-.071-.029,7.982,7.982,0,0,1-1.864-3.521.1.1,0,1,1,.194-.043,7.934,7.934,0,0,0,1.81,3.424.1.1,0,0,1,0,.14A.1.1,0,0,1,291.889,1899.676Z" transform="translate(-289.21 -1852.948)" fill="#233a49"/>
          <path id="Trazado_161244" data-name="Trazado 161244" d="M288.94,1869.24a.1.1,0,0,1-.029-.195l4.176-1.268a.1.1,0,0,1,.058.19l-4.175,1.269A.1.1,0,0,1,288.94,1869.24Z" transform="translate(-288.726 -1840.646)" fill="#233a49"/>
          <path id="Trazado_161245" data-name="Trazado 161245" d="M288.736,1866.148a.1.1,0,0,1-.061-.178l3.133-2.457a.1.1,0,1,1,.123.156l-3.134,2.458A.1.1,0,0,1,288.736,1866.148Z" transform="translate(-288.637 -1838.78)" fill="#233a49"/>
          <path id="Trazado_161246" data-name="Trazado 161246" d="M368.566,1880.885l-.018,0c-.1-.019-2.56-.535-8.142-6.117a.1.1,0,1,1,.14-.141,35.971,35.971,0,0,0,6.113,5.125,6.877,6.877,0,0,0,1.925.937.1.1,0,0,1-.019.2Z" transform="translate(-319.899 -1843.619)" fill="#233a49"/>
          <path id="Trazado_161247" data-name="Trazado 161247" d="M389.992,1902.285h0l-12.023-.094a.1.1,0,0,1,0-.2h0l12.023.1a.1.1,0,0,1,0,.2Z" transform="translate(-327.522 -1855.557)" fill="#233a49"/>
          <path id="Trazado_161248" data-name="Trazado 161248" d="M382.963,1909.542a.1.1,0,0,1-.1-.1l-.277-7.183a.1.1,0,0,1,.1-.1.1.1,0,0,1,.1.1l.277,7.184a.1.1,0,0,1-.1.1Z" transform="translate(-329.577 -1855.63)" fill="#233a49"/>
          <path id="Trazado_161249" data-name="Trazado 161249" d="M362.069,1842.647h-7.927a.1.1,0,0,1,0-.2h7.927a.1.1,0,0,1,0,.2Z" transform="translate(-317.139 -1829.61)" fill="#233a49"/>
          <path id="Trazado_161250" data-name="Trazado 161250" d="M309.735,1848.383h-.012a.1.1,0,0,1-.086-.111,33.524,33.524,0,0,1,4.411-11.9.1.1,0,0,1,.167.106,33.314,33.314,0,0,0-4.381,11.813A.1.1,0,0,1,309.735,1848.383Z" transform="translate(-297.787 -1826.944)" fill="#233a49"/>
          <g id="Grupo_112871" data-name="Grupo 112871" transform="translate(31.183 5.562)">
            <path id="Trazado_161251" data-name="Trazado 161251" d="M344.019,1829.751a.119.119,0,0,1-.038-.008.121.121,0,0,1-.032-.021.1.1,0,0,1,0-.141.1.1,0,0,1,.14,0,.1.1,0,0,1,0,.141A.107.107,0,0,1,344.019,1829.751Z" transform="translate(-343.91 -1829.552)" fill="#233a49"/>
            <path id="Trazado_161252" data-name="Trazado 161252" d="M344,1830.691h0a.1.1,0,0,1-.1-.1c0-.6.009-.943.009-.943a.1.1,0,0,1,.2,0s-.007.339-.009.94A.1.1,0,0,1,344,1830.691Z" transform="translate(-343.903 -1829.551)" fill="#233a49"/>
            <path id="Trazado_161253" data-name="Trazado 161253" d="M345.572,1876.3h-.005a.1.1,0,0,1-.07-.032.1.1,0,0,1-.025-.072c.013-.3.025-.619.038-.94a.1.1,0,0,1,.1-.1.1.1,0,0,1,.1.1v.007l-.014.362c-.008.2-.016.389-.024.578A.1.1,0,0,1,345.572,1876.3Zm.167-4.238h0a.1.1,0,0,1-.1-.1c.011-.323.024-.639.033-.941a.1.1,0,0,1,.1-.1h0a.1.1,0,0,1,.1.1v.005c-.011.3-.022.618-.033.943A.1.1,0,0,1,345.739,1872.059Zm.111-4.242h0a.1.1,0,0,1-.1-.1c0-.262,0-.59-.008-.942a.1.1,0,0,1,.1-.1.1.1,0,0,1,.1.1c0,.338.006.656.009.944A.1.1,0,0,1,345.85,1867.817Zm-.068-4.243h0a.1.1,0,0,1-.1-.1c-.008-.305-.016-.62-.026-.942v-.005a.1.1,0,0,1,.1-.1h0a.1.1,0,0,1,.1.1c.009.325.017.639.025.945a.1.1,0,0,1-.1.1Zm-.136-4.24a.1.1,0,0,1-.1-.094c-.01-.272-.022-.563-.038-.943v0a.1.1,0,0,1,.1-.1h0a.1.1,0,0,1,.1.094h0c.016.379.028.669.038.941a.1.1,0,0,1-.1.1Zm-.2-4.236a.1.1,0,0,1-.1-.094c-.019-.333-.038-.641-.057-.941v-.005a.1.1,0,0,1,.2-.006c.024.377.041.666.057.94a.1.1,0,0,1-.094.1Zm-.3-4.23h0a.1.1,0,0,1-.1-.091c-.03-.347-.059-.654-.086-.938a.044.044,0,0,1,0-.011.1.1,0,0,1,.09-.1.1.1,0,0,1,.108.089c.03.313.059.63.086.939a.1.1,0,0,1-.091.106Zm-.463-4.216a.1.1,0,0,1-.1-.089c-.033-.3-.068-.615-.1-.936,0,0,0-.007,0-.011a.1.1,0,0,1,.091-.1.1.1,0,0,1,.108.089c.033.32.068.634.1.935a.1.1,0,0,1-.087.109A.034.034,0,0,1,344.682,1846.652Zm-.38-4.22a.1.1,0,0,1-.1-.093c-.019-.286-.038-.593-.06-.94h0v0a.1.1,0,0,1,.094-.1.1.1,0,0,1,.1.094c.021.333.04.641.06.939a.1.1,0,0,1-.092.105Zm-.208-4.231a.1.1,0,0,1-.1-.1c-.01-.3-.017-.623-.025-.941v0a.1.1,0,0,1,.1-.1h0a.1.1,0,0,1,.1.1c.008.318.016.634.025.939a.092.092,0,0,1-.027.072.1.1,0,0,1-.068.032Z" transform="translate(-343.931 -1832.823)" fill="#233a49"/>
            <path id="Trazado_161254" data-name="Trazado 161254" d="M346.485,1912.217a.1.1,0,0,1-.07-.029.089.089,0,0,1-.022-.033.1.1,0,0,1-.008-.038.1.1,0,0,1,.03-.07.1.1,0,0,1,.14,0,.1.1,0,0,1,.029.07.1.1,0,0,1-.007.038.117.117,0,0,1-.022.033A.1.1,0,0,1,346.485,1912.217Z" transform="translate(-344.985 -1865.488)" fill="#233a49"/>
          </g>
          <g id="Grupo_112872" data-name="Grupo 112872" transform="translate(11.664 51.236)">
            <path id="Trazado_161255" data-name="Trazado 161255" d="M309.409,1910.922a.1.1,0,0,1-.038-.009.075.075,0,0,1-.032-.021.08.08,0,0,1-.022-.032.1.1,0,0,1-.008-.039.108.108,0,0,1,.008-.039.1.1,0,0,1,.022-.031.066.066,0,0,1,.032-.021.1.1,0,0,1,.108.021.1.1,0,0,1,.021.031.089.089,0,0,1,.008.039.1.1,0,0,1-.029.07A.1.1,0,0,1,309.409,1910.922Z" transform="translate(-309.309 -1910.598)" fill="#233a49"/>
            <path id="Trazado_161256" data-name="Trazado 161256" d="M310.321,1911h-.008l-.912-.08a.1.1,0,0,1-.09-.107.1.1,0,0,1,.108-.09l.912.079a.1.1,0,0,1-.008.2Z" transform="translate(-309.309 -1910.598)" fill="#233a49"/>
            <path id="Trazado_161257" data-name="Trazado 161257" d="M338.156,1912.313h0c-.307-.013-.616-.031-.917-.053h0a.1.1,0,0,1-.091-.1l0,0a.1.1,0,0,1,.1-.093c.3.021.606.038.912.051a.1.1,0,0,1,.069.032.1.1,0,0,1,.025.071A.1.1,0,0,1,338.156,1912.313Zm3.2-.013a.1.1,0,0,1-.1-.1v0a.1.1,0,0,1,.1-.1c.3-.014.61-.031.911-.054a.1.1,0,0,1,.107.093.1.1,0,0,1-.024.071.1.1,0,0,1-.068.035c-.311.022-.62.04-.916.054Zm-16.455-.251h0a.1.1,0,0,1-.1-.1v0a.1.1,0,0,1,.1-.1l.073,0,.844-.025a.1.1,0,0,1,.1.1.1.1,0,0,1-.025.07.1.1,0,0,1-.07.031l-.916.027Zm-3.2-.062h-.008c-.183-.012-.378-.027-.577-.043l-.337-.031a.1.1,0,0,1-.09-.1v-.009a.1.1,0,0,1,.108-.091l.336.029c.179.016.368.028.576.043a.1.1,0,0,1,.068.034.1.1,0,0,1,.024.073A.1.1,0,0,1,321.7,1911.986Zm12.353-.036h-.008c-.308-.022-.615-.04-.911-.052a.1.1,0,0,1-.1-.1v-.005a.1.1,0,0,1,.1-.1c.313.014.621.032.915.052a.1.1,0,0,1,.093.107A.1.1,0,0,1,334.053,1911.95Zm-5.03-.024h0a.1.1,0,0,1-.1-.1v-.006a.1.1,0,0,1,.1-.1l.919-.027a.1.1,0,0,1,0,.2l-.914.027Zm16.434-.031a.1.1,0,0,1-.1-.087.039.039,0,0,1,0-.014.1.1,0,0,1,.084-.1c.292-.043.6-.092.9-.145a.1.1,0,0,1,.115.081.089.089,0,0,1-.016.073.1.1,0,0,1-.064.042c-.305.053-.609.1-.906.146h0Zm-27.863-.26h-.008l-.912-.079a.1.1,0,0,1-.091-.1v-.011a.1.1,0,0,1,.108-.091l.912.08a.1.1,0,0,1,.091.108A.1.1,0,0,1,317.594,1911.635Z" transform="translate(-312.479 -1910.874)" fill="#233a49"/>
            <path id="Trazado_161258" data-name="Trazado 161258" d="M374.837,1910.7a.111.111,0,0,1-.038-.008.106.106,0,0,1-.033-.022.1.1,0,0,1-.021-.032.118.118,0,0,1-.008-.039.112.112,0,0,1,.008-.038.149.149,0,0,1,.021-.032.132.132,0,0,1,.033-.022.106.106,0,0,1,.108.022.085.085,0,0,1,.021.032.1.1,0,0,1,.008.038.107.107,0,0,1-.008.039.076.076,0,0,1-.021.032A.1.1,0,0,1,374.837,1910.7Z" transform="translate(-337.821 -1910.5)" fill="#233a49"/>
          </g>
          <path id="Trazado_161259" data-name="Trazado 161259" d="M304.923,1857.338a.085.085,0,0,1-.022,0,.1.1,0,0,1-.075-.118c.594-2.674.1-12.557.1-12.656a.151.151,0,0,1,0-.016l1.086-9.308a10.515,10.515,0,0,0-1.268-6.377l-4.964-9.018a.1.1,0,1,1,.174-.1l4.964,9.016a10.717,10.717,0,0,1,1.292,6.5l-1.085,9.3c.025.513.493,10.017-.1,12.7A.1.1,0,0,1,304.923,1857.338Z" transform="translate(-293.486 -1819.694)" fill="#233a49"/>
          <path id="Trazado_161260" data-name="Trazado 161260" d="M374.7,1851.579a.1.1,0,0,1-.092-.063c-.02-.051-2.045-5.191-2.045-8.567,0-1.276-.148-3.342-.44-6.139a11.573,11.573,0,0,1,3.2-9.253l4.368-4.475a.1.1,0,1,1,.142.139l-4.367,4.475a11.371,11.371,0,0,0-3.142,9.093c.293,2.805.441,4.877.441,6.16,0,3.339,2.011,8.443,2.031,8.494a.1.1,0,0,1-.093.136Z" transform="translate(-324.991 -1821.157)" fill="#233a49"/>
          <path id="Trazado_161261" data-name="Trazado 161261" d="M341.112,1875.016a.1.1,0,0,1-.1-.094c0-.079-.34-7.947-.34-11.631a183.47,183.47,0,0,0-.8-20.22c-.8-6.474-.8-21.251-.8-21.4a.1.1,0,0,1,.1-.1h0a.1.1,0,0,1,.1.1c0,.148,0,14.913.8,21.375a183.6,183.6,0,0,1,.806,20.244c0,3.68.336,11.542.34,11.622a.1.1,0,0,1-.095.1Z" transform="translate(-310.613 -1820.512)" fill="#233a49"/>
        </g>
      </g>
      <g id="Grupo_112875" data-name="Grupo 112875" transform="translate(224.727 1880.389)">
        <path id="Trazado_161262" data-name="Trazado 161262" d="M286.456,2067.966a6.313,6.313,0,1,1,6.313-6.312A6.32,6.32,0,0,1,286.456,2067.966Zm0-11.594a5.281,5.281,0,1,0,5.281,5.281A5.287,5.287,0,0,0,286.456,2056.372Z" transform="translate(-280.143 -1991.319)" fill="#3a5870"/>
        <path id="Trazado_161263" data-name="Trazado 161263" d="M393.3,2067.551a6.312,6.312,0,1,1,6.313-6.312A6.319,6.319,0,0,1,393.3,2067.551Zm0-11.593a5.281,5.281,0,1,0,5.281,5.281A5.286,5.286,0,0,0,393.3,2055.958Z" transform="translate(-326.703 -1991.138)" fill="#3a5870"/>
        <path id="Trazado_161264" data-name="Trazado 161264" d="M349.655,2008.224l-30.733-64.34a2.3,2.3,0,0,0-.236-.381c-1.958,1.745-2.777,4.06-3.783,6.281l28.549,59.71Z" transform="translate(-295.29 -1942.583)" fill="#c4a345"/>
        <path id="Trazado_161265" data-name="Trazado 161265" d="M341.109,1943.4a2.252,2.252,0,0,0-.28.437l-31.567,66.046,7.037-.436,28.723-60.075C343.915,1947.248,343.738,1944.991,341.109,1943.4Z" transform="translate(-292.832 -1942.54)" fill="#c4a345"/>
        <path id="Trazado_161266" data-name="Trazado 161266" d="M314.455,2157.851a7.972,7.972,0,0,1,3.459,5l-4.114,1.777s.234-2.759-3.6-5.1Z" transform="translate(-293.241 -2035.989)" fill="#eac759"/>
        <path id="Trazado_161267" data-name="Trazado 161267" d="M350.054,2058.925s-7.044-6.763-25.182-6.763-25.7,7.229-25.7,7.229c1.319,1.567.814,2.648.162,4.676h3.89a201.568,201.568,0,0,1,21.664-1.148,188.668,188.668,0,0,1,21.733,1.241h3.822A16.7,16.7,0,0,1,350.054,2058.925Z" transform="translate(-288.435 -1989.933)" fill="#54809e"/>
        <path id="Trazado_161268" data-name="Trazado 161268" d="M349.933,2069.8a88.468,88.468,0,0,1-52.113,0,1.323,1.323,0,0,1-.869-1.672q.546-1.679,1.091-3.357a1.319,1.319,0,0,1,1.642-.853,82.3,82.3,0,0,0,48.385,0,1.319,1.319,0,0,1,1.642.853q.545,1.679,1.091,3.357A1.323,1.323,0,0,1,349.933,2069.8Z" transform="translate(-287.439 -1995.033)" fill="#eac759"/>
        <path id="Trazado_161269" data-name="Trazado 161269" d="M341.626,1992.7h-4.845a1.227,1.227,0,0,0-1.062.613l-2.422,4.2a1.225,1.225,0,0,0,0,1.227l2.422,4.2a1.226,1.226,0,0,0,1.063.614h4.845a1.227,1.227,0,0,0,1.063-.614l2.422-4.2a1.227,1.227,0,0,0,0-1.227l-2.423-4.2A1.226,1.226,0,0,0,341.626,1992.7Z" transform="translate(-303.234 -1964.02)" fill="#3a5870"/>
        <path id="Trazado_161270" data-name="Trazado 161270" d="M312.814,1942.793a2.286,2.286,0,0,0-1.91-.919l-2.352.085a2.891,2.891,0,0,0-2.483,1.6l-1.55,3.1a29.307,29.307,0,0,0-3.09,13.1v52.57h5.066V1960.2a29.3,29.3,0,0,1,2.363-11.494l.174.365C310.037,1946.853,310.856,1944.538,312.814,1942.793Z" transform="translate(-289.418 -1941.872)" fill="#eac759"/>
        <path id="Trazado_161271" data-name="Trazado 161271" d="M314.325,1949.6a.344.344,0,0,1-.146-.033.348.348,0,0,1-.17-.463,21.848,21.848,0,0,1,3.715-5.877.349.349,0,0,1,.507.479,21.2,21.2,0,0,0-3.589,5.691A.349.349,0,0,1,314.325,1949.6Z" transform="translate(-294.887 -1942.416)" fill="#a08338"/>
        <path id="Trazado_161272" data-name="Trazado 161272" d="M373.957,1946.659l-1.551-3.1a2.893,2.893,0,0,0-2.483-1.6l-2.352-.085a2.286,2.286,0,0,0-1.867.862c2.629,1.587,2.58,4.316,3.687,6.445l.226-.473a29.3,29.3,0,0,1,2.362,11.494v52.125h5.066v-52.57A29.315,29.315,0,0,0,373.957,1946.659Z" transform="translate(-317.429 -1941.873)" fill="#eac759"/>
        <path id="Trazado_161273" data-name="Trazado 161273" d="M369.551,1949.6a.348.348,0,0,1-.317-.2,21.208,21.208,0,0,0-3.589-5.691.349.349,0,0,1,.507-.479,21.863,21.863,0,0,1,3.715,5.877.349.349,0,0,1-.17.463A.345.345,0,0,1,369.551,1949.6Z" transform="translate(-317.361 -1942.416)" fill="#a08338"/>
        <path id="Trazado_161274" data-name="Trazado 161274" d="M347.988,1976.641H300.912a1.3,1.3,0,0,1-.255-.025,1.261,1.261,0,0,1-1.006-1.235v-3.651a1.261,1.261,0,0,1,1.006-1.234,1.285,1.285,0,0,1,.255-.026h47.076a1.246,1.246,0,0,1,.223.02,1.26,1.26,0,0,1,1.037,1.24v3.651a1.26,1.26,0,0,1-.992,1.231A1.227,1.227,0,0,1,347.988,1976.641Z" transform="translate(-288.644 -1954.335)" fill="#eac759"/>
        <path id="Trazado_161275" data-name="Trazado 161275" d="M381.468,1981.487h-4.289a.349.349,0,0,1,0-.7h4.289a.349.349,0,0,1,0,.7Z" transform="translate(-322.276 -1958.831)" fill="#a08338"/>
        <path id="Trazado_161276" data-name="Trazado 161276" d="M381.4,1970.55h-4.373a.349.349,0,1,1,0-.7H381.4a.349.349,0,0,1,0,.7Z" transform="translate(-322.212 -1954.065)" fill="#a08338"/>
        <path id="Trazado_161277" data-name="Trazado 161277" d="M306.363,1981.487h-4.289a.349.349,0,0,1,0-.7h4.289a.349.349,0,0,1,0,.7Z" transform="translate(-289.548 -1958.831)" fill="#a08338"/>
        <path id="Trazado_161278" data-name="Trazado 161278" d="M306.3,1970.55h-4.372a.349.349,0,1,1,0-.7H306.3a.349.349,0,1,1,0,.7Z" transform="translate(-289.484 -1954.065)" fill="#a08338"/>
        <path id="Trazado_161279" data-name="Trazado 161279" d="M359.54,1977.19h-.411a2.031,2.031,0,0,1-2.028-2.029.516.516,0,1,1,1.031,0,1,1,0,0,0,1,1h.411a1.806,1.806,0,0,0,1.8-1.8v-5.316a1.806,1.806,0,0,0-1.8-1.8h-.411a1,1,0,0,0-1,1,.516.516,0,1,1-1.031,0,2.031,2.031,0,0,1,2.028-2.028h.411a2.839,2.839,0,0,1,2.836,2.836v5.316A2.839,2.839,0,0,1,359.54,1977.19Z" transform="translate(-313.679 -1952.474)" fill="#3a5870"/>
        <path id="Trazado_161280" data-name="Trazado 161280" d="M357.746,1976.721a.349.349,0,0,1-.349-.349v-6.17a.349.349,0,1,1,.7,0v6.17A.349.349,0,0,1,357.746,1976.721Z" transform="translate(-313.808 -1954.065)" fill="#c4a345"/>
        <path id="Trazado_161281" data-name="Trazado 161281" d="M329.3,2076.359h-.069l-.41-.013a2.84,2.84,0,0,1-2.739-2.93l.179-5.314a2.842,2.842,0,0,1,2.93-2.739l.41.014a2.029,2.029,0,0,1,1.959,2.1.522.522,0,0,1-.533.5.516.516,0,0,1-.5-.533,1,1,0,0,0-.963-1.03l-.41-.015a1.8,1.8,0,0,0-1.864,1.743l-.18,5.313a1.806,1.806,0,0,0,1.743,1.864l.41.015a1,1,0,0,0,1.03-.962.516.516,0,1,1,1.031.034A2.031,2.031,0,0,1,329.3,2076.359Z" transform="translate(-300.161 -1995.685)" fill="#3a5870"/>
        <path id="Trazado_161282" data-name="Trazado 161282" d="M334.219,2075.992h-.012a.349.349,0,0,1-.336-.361l.208-6.167a.349.349,0,0,1,.7.023l-.208,6.167A.35.35,0,0,1,334.219,2075.992Z" transform="translate(-303.555 -1997.327)" fill="#c4a345"/>
        <path id="Trazado_161283" data-name="Trazado 161283" d="M305.589,2001a.388.388,0,0,1,0-.775.749.749,0,0,0,.748-.748v-.309a1.356,1.356,0,0,0-1.354-1.354h-3.991a1.356,1.356,0,0,0-1.355,1.354v.309a.749.749,0,0,0,.748.748.388.388,0,0,1,0,.775,1.525,1.525,0,0,1-1.523-1.523v-.309a2.132,2.132,0,0,1,2.129-2.129h3.991a2.132,2.132,0,0,1,2.129,2.129v.309A1.525,1.525,0,0,1,305.589,2001Z" transform="translate(-288.3 -1965.912)" fill="#3a5870"/>
        <path id="Trazado_161284" data-name="Trazado 161284" d="M306.5,2003.43h-4.633a.261.261,0,0,1,0-.523H306.5a.261.261,0,1,1,0,.523Z" transform="translate(-289.495 -1968.47)" fill="#c4a345"/>
        <path id="Trazado_161285" data-name="Trazado 161285" d="M381.115,2001a.388.388,0,0,1,0-.775.749.749,0,0,0,.748-.748v-.309a1.356,1.356,0,0,0-1.355-1.354h-3.991a1.356,1.356,0,0,0-1.355,1.354v.309a.749.749,0,0,0,.749.748.388.388,0,0,1,0,.775,1.524,1.524,0,0,1-1.523-1.523v-.309a2.131,2.131,0,0,1,2.129-2.129h3.991a2.132,2.132,0,0,1,2.129,2.129v.309A1.525,1.525,0,0,1,381.115,2001Z" transform="translate(-321.212 -1965.912)" fill="#3a5870"/>
        <path id="Trazado_161286" data-name="Trazado 161286" d="M382.023,2003.43h-4.632a.261.261,0,1,1,0-.523h4.632a.261.261,0,1,1,0,.523Z" transform="translate(-322.407 -1968.47)" fill="#c4a345"/>
        <path id="Trazado_161287" data-name="Trazado 161287" d="M313.04,2085.751a17.042,17.042,0,0,1,2.458,1.22c2.272,1.565,2.911,4.57,3.535,7.257s1.717,5.689,4.3,6.67c1.481.563,3.134.311,4.7.515,1.4.182,2.746.729,4.157.833a8.3,8.3,0,0,0,5.878-2.123,14.944,14.944,0,0,0,3.687-5.184,8.83,8.83,0,0,1,2.341-3.653c.579-.428,1.277-.686,1.821-1.158,1.307-1.136,1.355-3.1,1.693-4.8a11.582,11.582,0,0,1,3.61-6.32l1.7,3.488a5.205,5.205,0,0,0-1.824,3.3c-.248,1.263-.265,2.564-.536,3.822-.763,3.532-3.411,6.306-5.948,8.879a34.684,34.684,0,0,1-6.27,5.419,11.68,11.68,0,0,1-7.909,1.882c-1.544-.259-2.988-.93-4.508-1.3-1.987-.483-4.121-.458-5.964-1.344-2.52-1.21-3.989-3.863-5.062-6.445s-1.97-5.344-3.912-7.354c-.72-.746-1.562-1.361-2.336-2.05a11.586,11.586,0,0,1-3.137-4.442c-.306-.8-1.394-4.2.336-4.235.942-.017,2.195,3.041,2.855,3.8A13.265,13.265,0,0,0,313.04,2085.751Z" transform="translate(-290.928 -2001.468)" fill="#eac759"/>
        <path id="Trazado_161288" data-name="Trazado 161288" d="M313.952,2098.264l2.542,9.673a24.052,24.052,0,0,1,1.132,7.278,8.132,8.132,0,0,1-3.176,6.387,10.89,10.89,0,0,1-5.412,1.453,19.429,19.429,0,0,1-6.161-.334,8.548,8.548,0,0,1-5.068-3.32,10.373,10.373,0,0,1-1.365-6.2c.083-2.149.423-4.558.584-6.7q.617-8.218,1.233-16.437c.379-5.052.685-11.448,1.3-16.477,1.261-.028,2.581,1.286,3.8,1.609-1.462,5.2-1.51,10.7-1.4,16.106a40.752,40.752,0,0,1-.1,5.118c-.134,1.262-.394,2.508-.652,3.75q-1.164,5.582-2.326,11.164a6.867,6.867,0,0,0,3.316,6.859,8.2,8.2,0,0,0,3.605.824c2.676.14,5.52-.119,7.711-1.662s3.414-4.7,2.073-7.023a12.757,12.757,0,0,0-1.382-1.747,13.083,13.083,0,0,1-1.413-14.33C313.508,2095.282,313.633,2097.052,313.952,2098.264Z" transform="translate(-287.241 -1999.269)" fill="#eac759"/>
        <path id="Trazado_161289" data-name="Trazado 161289" d="M385.951,2103.663a24.889,24.889,0,0,1,1.967,8.866c.1,2.961-.516,6.263-2.891,8.034-1.958,1.461-4.614,1.506-7.044,1.251a31.388,31.388,0,0,1-6.134-1.231c-2.031-.635-4.166-1.684-4.986-3.648-.434-1.037-.44-2.207-.813-3.268-.626-1.784-2.219-3.089-2.9-4.855a9.442,9.442,0,0,1-.318-4.265,47.139,47.139,0,0,1,1.022-5.081,40.65,40.65,0,0,1,3.7-3.388c1.085,2.586-1.9,5.276-1.591,8.063a7.047,7.047,0,0,0,.526,1.783l3.764,9.544a2.32,2.32,0,0,0,2.512,1.847l5.207.475a8.754,8.754,0,0,0,3.384-.135c2.5-.775,3.795-3.688,3.645-6.3s-1.387-5.014-2.483-7.389a21.588,21.588,0,0,1-1.86-7.913c-.271-7.559-4.7-14.542-4.757-22.106.942-.2,1.718-1.07,2.588-1.48-.124,1.926.723,3.765,1.441,5.556a41.11,41.11,0,0,1,2.806,11.9c.177,2.16-.032,4.416.765,6.432.311.788.752,1.523,1.025,2.325C385.065,2100.238,385.306,2102.149,385.951,2103.663Z" transform="translate(-316.137 -1998.781)" fill="#eac759"/>
        <path id="Trazado_161290" data-name="Trazado 161290" d="M311.638,2158.7a2.111,2.111,0,0,1-.949-.226l-.276-.137a1.523,1.523,0,0,1-.682-2.043.387.387,0,0,1,.693.346.748.748,0,0,0,.335,1l.276.138a1.355,1.355,0,0,0,1.817-.607l1.783-3.571a1.357,1.357,0,0,0-.607-1.818l-.276-.137a.748.748,0,0,0-1,.335.387.387,0,1,1-.693-.346,1.524,1.524,0,0,1,2.042-.682l.276.138a2.131,2.131,0,0,1,.954,2.856l-1.783,3.571a2.11,2.11,0,0,1-1.23,1.068A2.143,2.143,0,0,1,311.638,2158.7Z" transform="translate(-292.966 -2032.914)" fill="#3a5870"/>
        <path id="Trazado_161291" data-name="Trazado 161291" d="M310.493,2157.254a.262.262,0,0,1-.234-.379l2.069-4.145a.262.262,0,1,1,.468.234l-2.069,4.145A.262.262,0,0,1,310.493,2157.254Z" transform="translate(-293.255 -2033.695)" fill="#c4a345"/>
        <path id="Trazado_161292" data-name="Trazado 161292" d="M391.889,2154.625a7.973,7.973,0,0,0-4.206,4.393l3.782,2.4s.2-2.761,4.359-4.464Z" transform="translate(-327.006 -2034.583)" fill="#eac759"/>
        <path id="Trazado_161293" data-name="Trazado 161293" d="M396.513,2155.968a2.133,2.133,0,0,1-2.032-1.491l-1.2-3.808a2.131,2.131,0,0,1,1.393-2.669l.294-.093a1.524,1.524,0,0,1,1.909,1,.387.387,0,1,1-.739.232.75.75,0,0,0-.938-.489l-.294.092a1.356,1.356,0,0,0-.886,1.7l1.2,3.807a1.356,1.356,0,0,0,1.7.886l.294-.093a.748.748,0,0,0,.489-.938.387.387,0,0,1,.739-.232,1.524,1.524,0,0,1-1,1.91l-.294.092A2.118,2.118,0,0,1,396.513,2155.968Z" transform="translate(-329.404 -2031.625)" fill="#3a5870"/>
        <path id="Trazado_161294" data-name="Trazado 161294" d="M400.417,2154.895a.261.261,0,0,1-.249-.184l-1.389-4.418a.262.262,0,1,1,.5-.157l1.389,4.419a.261.261,0,0,1-.172.328A.256.256,0,0,1,400.417,2154.895Z" transform="translate(-331.836 -2032.547)" fill="#c4a345"/>
      </g>
      <g id="Grupo_112878" data-name="Grupo 112878" transform="translate(302.778 1809.362)">
        <g id="Grupo_112876" data-name="Grupo 112876">
          <path id="Trazado_161295" data-name="Trazado 161295" d="M526.323,1970.647c-.056.614,1.615,1.421,4.619,1.941,1.547.269,5.268.45,5.653-.073l.4-3.51-9.763-1.584Z" transform="translate(-465.471 -1881.978)" fill="#09151c"/>
          <path id="Trazado_161296" data-name="Trazado 161296" d="M420.094,1973.809c.113.991,2.055,1.273,5.775,1.234,1.68-.017,5.6.322,5.941-.555l-1.911-5.136-9,.085Z" transform="translate(-419.18 -1882.82)" fill="#09151c"/>
          <path id="Trazado_161297" data-name="Trazado 161297" d="M446.273,1863.047a4.092,4.092,0,0,1-3.24,3.24c-2.929.722-9.3,3.184-11.928,4.967s-7.472,13.074-9.594,17.658-1.953,11.49-2.123,14.376.679,6.453-.17,10.358a29.389,29.389,0,0,0,.17,13.838c.085-.566,3.96-.762,5.915-.65,1.981.113,5.44.514,5.8,1.33a40.7,40.7,0,0,0-.849-12.763,37.221,37.221,0,0,0,2.717-9.848s.51-6.34,1.3-11.66,3.849-9.734,4.414-11.772l6.113-5.547Z" transform="translate(-418.475 -1836.495)" fill="#3a5870"/>
          <path id="Trazado_161298" data-name="Trazado 161298" d="M498.524,1859.235a3.391,3.391,0,0,0,1.867,3.453c2.207,1.019,12.791,3.056,14.546,4.244s9.068,20.361,10.257,24.436.537,13.052.621,18.23-1.342,15.773-1.342,15.773c-.16-.633-2.167-1.685-4.977-2.29-1.685-.363-4.868-.069-5.3.422a96.969,96.969,0,0,1,1.188-10.866,40.092,40.092,0,0,1-1.018-7.9c-.085-4.16-5.009-17.319-5.009-17.319l-1.188-7.641-7.3-6.2Z" transform="translate(-453.349 -1834.834)" fill="#3a5870"/>
          <path id="Trazado_161299" data-name="Trazado 161299" d="M458.071,1861.386l17.376-2.151.736,4.373,1.613,9.975,9.593,6.2-1.1,7.641s2.037,14.942-.849,18.848c0,0,1.613,3.99,1.273,6.367,0,0,3.735,13.839,3.735,20.29s-.34,19.357.34,23.772,1.925,12.508.34,15.451a45.166,45.166,0,0,1,.849,10.528c-.34,4.867-.4,8.15-.623,10.527s0,10.414,0,10.414-7.81,3.056-14.489,0c0,0-1.472-9.622-1.7-13.7a44.957,44.957,0,0,0-1.245-7.924l.679-6a71.647,71.647,0,0,1-2.377-11.66s-4.414-14.489-3.509-27.394c0,0-.905,12.565-2.6,16.527s.566,11.66.113,14.037-2.49,13.7-2.49,16.3a13.363,13.363,0,0,0,1.7,5.546,109.3,109.3,0,0,0-1.245,14.829s-9.4,3.17-16.64.906a67.151,67.151,0,0,1-1.132-14.15,37.5,37.5,0,0,1,.34-17.319,35.914,35.914,0,0,1-.793-9.509,48.977,48.977,0,0,1,2.038-9.962s-2.491-12.339-1.7-21.507a113.854,113.854,0,0,1,3.283-18.112l.113-4.3a21.537,21.537,0,0,1-1.811-9.509,15.53,15.53,0,0,0-1.811-8.49l.906-13.81,10.442-14.305Z" transform="translate(-430.273 -1834.834)" fill="#3a5870"/>
          <path id="Trazado_161300" data-name="Trazado 161300" d="M434.733,1921.5c.272-.648.1-2.212.34-2.929L421.9,1912.7a22.2,22.2,0,0,0-.647,3.082Z" transform="translate(-419.684 -1858.131)" fill="#eac759"/>
          <path id="Trazado_161301" data-name="Trazado 161301" d="M535.284,1916.185l-13.625,2.346c.259.781.522,1.593.779,2.412l13.295-2.341C535.654,1917.726,535.37,1916.995,535.284,1916.185Z" transform="translate(-463.439 -1859.651)" fill="#eac759"/>
          <path id="Trazado_161302" data-name="Trazado 161302" d="M466.277,1842.54s-4.556-13.272.453-21.677,15.2-4.5,18,.934,1.5,14.941-1.075,18.592Z" transform="translate(-438.479 -1815.989)" fill="#3a5870"/>
          <path id="Trazado_161303" data-name="Trazado 161303" d="M476.571,1819.512c4.67,0,8.575,3.226,8.575,9.339s-5.179,10.358-5.179,10.358h-6.452s-4.67-3.4-4.67-9S471.732,1819.512,476.571,1819.512Z" transform="translate(-440.425 -1817.524)" fill="#09151c"/>
          <path id="Trazado_161304" data-name="Trazado 161304" d="M507.84,1882.407H488.714c0,1.908.019,3.743.11,5.627l16.045.147Z" transform="translate(-449.083 -1844.932)" fill="#eac759"/>
          <path id="Trazado_161305" data-name="Trazado 161305" d="M505.068,1892.469l-16.146-.04c.062.455.106.91.134,1.365l15.3.1Z" transform="translate(-449.173 -1849.299)" fill="#d66371"/>
          <path id="Trazado_161306" data-name="Trazado 161306" d="M444.319,1882.407l3.863,5.433,15.452.14v-5.574Z" transform="translate(-429.737 -1844.932)" fill="#eac759"/>
          <path id="Trazado_161307" data-name="Trazado 161307" d="M450.814,1892.062l.963,1.288,14.983.093c0-.448-.3-.886-.3-1.342Z" transform="translate(-432.567 -1849.139)" fill="#d66371"/>
          <rect id="Rectángulo_40731" data-name="Rectángulo 40731" width="10.782" height="12.171" rx="1.051" transform="translate(42.259 48.172)" fill="#2f495b"/>
          <rect id="Rectángulo_40732" data-name="Rectángulo 40732" width="11.546" height="11.067" rx="1.051" transform="translate(20.014 48.427)" fill="#2f495b"/>
          <path id="Trazado_161308" data-name="Trazado 161308" d="M446.136,2040.083a35.905,35.905,0,0,0,.793,9.508,30.781,30.781,0,0,0-.973,5l18.365,1.252c.62-4.389,1.754-10.662,2.078-12.362.288-1.51-.52-5.167-.713-8.648l-18.464-1.259A41.447,41.447,0,0,0,446.136,2040.083Z" transform="translate(-430.45 -1910.805)" fill="#eac759"/>
          <path id="Trazado_161309" data-name="Trazado 161309" d="M511.6,2055.927c.078-3.659-.724-8.013-.912-7.98,1.507-2.8.455-10.251-.235-14.772l-20.005,1.751c.723,3.2,1.337,5.211,1.337,5.211a71.63,71.63,0,0,0,2.377,11.659l-.45,3.979Z" transform="translate(-449.84 -1910.632)" fill="#eac759"/>
        </g>
        <g id="Grupo_112877" data-name="Grupo 112877" transform="translate(9.701 21.585)">
          <path id="Trazado_161310" data-name="Trazado 161310" d="M435.767,1959.07a.1.1,0,0,1-.052-.015.1.1,0,0,1-.033-.136l1.98-3.213a.1.1,0,0,1,.169.1l-1.98,3.213A.1.1,0,0,1,435.767,1959.07Z" transform="translate(-435.668 -1898.438)" fill="#233a49"/>
          <path id="Trazado_161311" data-name="Trazado 161311" d="M483.773,1866H477.65a.1.1,0,0,1,0-.2h6.122a.1.1,0,0,1,0,.2Z" transform="translate(-453.919 -1859.278)" fill="#233a49"/>
          <path id="Trazado_161312" data-name="Trazado 161312" d="M483.9,1872.1h-5.956a.1.1,0,1,1,0-.2H483.9a.1.1,0,0,1,0,.2Z" transform="translate(-454.048 -1861.94)" fill="#233a49"/>
          <path id="Trazado_161313" data-name="Trazado 161313" d="M485.793,1975.645H481.15a.1.1,0,0,1,0-.2h4.643a.1.1,0,0,1,0,.2Z" transform="translate(-455.445 -1907.06)" fill="#233a49"/>
          <path id="Trazado_161314" data-name="Trazado 161314" d="M505.2,1949.164h-.006c-6.849-.366-11.886-.519-15.854-.478a.1.1,0,0,1,0-.2c3.971-.039,9.013.113,15.866.478a.1.1,0,0,1,0,.2Z" transform="translate(-459.011 -1895.31)" fill="#233a49"/>
          <path id="Trazado_161315" data-name="Trazado 161315" d="M453.082,1950.575a.1.1,0,0,1-.017-.2c.039-.007,4-.7,10.218-1.2l.855-.07c1.544-.127,3-.246,4.575-.335a.1.1,0,0,1,.1.094.1.1,0,0,1-.094.105c-1.571.089-3.028.208-4.57.334l-.855.07c-6.206.5-10.161,1.191-10.2,1.2Z" transform="translate(-443.213 -1895.436)" fill="#233a49"/>
          <path id="Trazado_161316" data-name="Trazado 161316" d="M504.137,1910.122H493.821a.1.1,0,0,1-.1-.1.1.1,0,0,1,.1-.1h10.315a.1.1,0,0,1,.1.1A.1.1,0,0,1,504.137,1910.122Z" transform="translate(-460.966 -1878.508)" fill="#233a49"/>
          <path id="Trazado_161317" data-name="Trazado 161317" d="M465.347,1909.363H454.1a.1.1,0,0,1,0-.2h11.249a.1.1,0,0,1,0,.2Z" transform="translate(-443.656 -1878.176)" fill="#233a49"/>
          <path id="Trazado_161318" data-name="Trazado 161318" d="M457.7,1945.372a.1.1,0,0,1-.089-.054c-1.354-2.642-1.285-7.271-1.284-7.317a.1.1,0,0,1,.1-.1.1.1,0,0,1,.1.1c0,.045-.069,4.625,1.263,7.222a.1.1,0,0,1-.089.144Z" transform="translate(-444.672 -1890.7)" fill="#233a49"/>
          <path id="Trazado_161319" data-name="Trazado 161319" d="M461.595,1946.112a.1.1,0,0,1-.085-.046c-1.246-1.984-1.172-5.6-1.168-5.758a.1.1,0,0,1,.1-.1h0a.1.1,0,0,1,.1.1c0,.037-.077,3.714,1.138,5.646a.1.1,0,0,1-.032.138A.1.1,0,0,1,461.595,1946.112Z" transform="translate(-446.419 -1891.706)" fill="#233a49"/>
          <path id="Trazado_161320" data-name="Trazado 161320" d="M452.658,1944.179a.1.1,0,0,1-.1-.088,8.835,8.835,0,0,1,.894-5.477c.036-.067.062-.116.075-.146a.1.1,0,0,1,.129-.055.1.1,0,0,1,.055.129,1.776,1.776,0,0,1-.084.167,8.646,8.646,0,0,0-.872,5.36.1.1,0,0,1-.088.11Z" transform="translate(-442.995 -1890.919)" fill="#233a49"/>
          <path id="Trazado_161321" data-name="Trazado 161321" d="M456.777,1958.642a.1.1,0,0,1-.1-.089,11.235,11.235,0,0,1,2.045-7.9.1.1,0,1,1,.153.127,11.028,11.028,0,0,0-2,7.751.1.1,0,0,1-.088.109Z" transform="translate(-444.793 -1896.241)" fill="#233a49"/>
          <path id="Trazado_161322" data-name="Trazado 161322" d="M464.3,1956.884a.1.1,0,0,1-.1-.08,12.253,12.253,0,0,1,.7-6.654.1.1,0,0,1,.182.081,12.031,12.031,0,0,0-.687,6.533.1.1,0,0,1-.078.117Z" transform="translate(-448.017 -1896.012)" fill="#233a49"/>
          <path id="Trazado_161323" data-name="Trazado 161323" d="M504.078,1942.291a.1.1,0,0,1-.087-.147,18.275,18.275,0,0,0,1.63-8.552.1.1,0,0,1,.1-.1.1.1,0,0,1,.1.1,20.54,20.54,0,0,1-.761,6.306,12.8,12.8,0,0,1-.893,2.347A.1.1,0,0,1,504.078,1942.291Z" transform="translate(-465.436 -1888.777)" fill="#233a49"/>
          <path id="Trazado_161324" data-name="Trazado 161324" d="M509.219,1943.746a.1.1,0,0,1-.041-.009.1.1,0,0,1-.049-.131,28.857,28.857,0,0,0,2.072-6.919.1.1,0,1,1,.2.024,29.059,29.059,0,0,1-2.088,6.977A.1.1,0,0,1,509.219,1943.746Z" transform="translate(-467.676 -1890.132)" fill="#233a49"/>
          <path id="Trazado_161325" data-name="Trazado 161325" d="M514.963,1956.978a.1.1,0,0,1-.1-.1,16.217,16.217,0,0,0-1.868-7.59.1.1,0,1,1,.172-.1,16.193,16.193,0,0,1,1.9,7.691.1.1,0,0,1-.1.1Z" transform="translate(-469.359 -1895.596)" fill="#233a49"/>
          <path id="Trazado_161326" data-name="Trazado 161326" d="M509.715,1954.842H509.7a.1.1,0,0,1-.083-.114,15.77,15.77,0,0,0-.493-5.687.1.1,0,0,1,.191-.056,16,16,0,0,1,.5,5.773A.1.1,0,0,1,509.715,1954.842Z" transform="translate(-467.676 -1895.498)" fill="#233a49"/>
          <path id="Trazado_161327" data-name="Trazado 161327" d="M504.58,1956.982l-.023,0a.1.1,0,0,1-.074-.119c.059-.26.12-.519.181-.78.535-2.278,1.088-4.633.5-7.071a.1.1,0,0,1,.193-.046c.6,2.484.042,4.863-.5,7.163-.061.26-.122.519-.181.778A.1.1,0,0,1,504.58,1956.982Z" transform="translate(-465.654 -1895.487)" fill="#233a49"/>
          <path id="Trazado_161328" data-name="Trazado 161328" d="M461.245,2098.591a.1.1,0,0,1-.067-.173c1.414-1.305,4.992-1.678,5.449-1.72l5.52-6.985a.1.1,0,0,1,.156.124l-5.547,7.018a.1.1,0,0,1-.069.037c-.039,0-3.945.352-5.375,1.672A.1.1,0,0,1,461.245,2098.591Z" transform="translate(-446.771 -1956.838)" fill="#233a49"/>
          <path id="Trazado_161329" data-name="Trazado 161329" d="M490.486,2006.38a.1.1,0,0,1-.082-.043,34.621,34.621,0,0,1-3.976-9.428.1.1,0,0,1,.193-.047,34.386,34.386,0,0,0,3.947,9.363.1.1,0,0,1-.027.138A.1.1,0,0,1,490.486,2006.38Z" transform="translate(-457.786 -1916.359)" fill="#233a49"/>
          <path id="Trazado_161330" data-name="Trazado 161330" d="M448.464,1888.563a.1.1,0,0,1-.082-.043l-7.456-10.761a.1.1,0,1,1,.163-.113l7.457,10.76a.1.1,0,0,1-.025.138A.1.1,0,0,1,448.464,1888.563Z" transform="translate(-437.952 -1864.423)" fill="#233a49"/>
          <path id="Trazado_161331" data-name="Trazado 161331" d="M515.564,1885.934a.1.1,0,0,1-.088-.145l6.665-12.608a.1.1,0,0,1,.175.093l-6.665,12.607A.1.1,0,0,1,515.564,1885.934Z" transform="translate(-470.441 -1862.473)" fill="#233a49"/>
          <path id="Trazado_161332" data-name="Trazado 161332" d="M446.4,1908.647h-.015a.1.1,0,0,1-.084-.114,31.121,31.121,0,0,1,3.23-9.079,18.762,18.762,0,0,0,1.187-2.705.1.1,0,1,1,.192.053,18.809,18.809,0,0,1-1.2,2.739,30.993,30.993,0,0,0-3.212,9.021A.1.1,0,0,1,446.4,1908.647Z" transform="translate(-440.301 -1872.734)" fill="#233a49"/>
          <path id="Trazado_161333" data-name="Trazado 161333" d="M516.753,1903.311a.1.1,0,0,1-.1-.084l-1.188-7.641a.1.1,0,0,1,.2-.03l1.188,7.641a.1.1,0,0,1-.083.113Z" transform="translate(-470.441 -1872.21)" fill="#233a49"/>
          <path id="Trazado_161334" data-name="Trazado 161334" d="M483.941,1928.007h0l-4.584-.043a.1.1,0,0,1-.1-.1c.168-29.874-2.287-73.083-2.312-73.515a.1.1,0,0,1,.094-.1.1.1,0,0,1,.1.094c.025.432,2.475,43.551,2.312,73.429l4.387.04c.024-1.454.293-18.418-.191-27.614-.3-5.694-.219-9.269-.134-13.055.059-2.584.119-5.255.049-8.682-.168-8.226-.17-23.955-.17-24.113a.1.1,0,1,1,.2,0c0,.158,0,15.885.17,24.109.07,3.431.01,6.1-.049,8.691-.085,3.781-.166,7.354.134,13.04.5,9.571.193,27.546.19,27.726A.1.1,0,0,1,483.941,1928.007Z" transform="translate(-453.655 -1854.244)" fill="#233a49"/>
          <path id="Trazado_161335" data-name="Trazado 161335" d="M447.618,2055.076H447.6a.079.079,0,0,1-.064-.092,35.881,35.881,0,0,1,3.121-8.965.08.08,0,0,1,.107-.034.081.081,0,0,1,.034.108,35.655,35.655,0,0,0-3.105,8.92A.08.08,0,0,1,447.618,2055.076Z" transform="translate(-440.841 -1937.794)" fill="#c4a345"/>
          <path id="Trazado_161336" data-name="Trazado 161336" d="M449.825,2019.17h-.014a.079.079,0,0,1-.064-.092l1.868-10.754a.08.08,0,1,1,.157.027L449.9,2019.1A.079.079,0,0,1,449.825,2019.17Z" transform="translate(-441.803 -1921.358)" fill="#233a49"/>
          <path id="Trazado_161337" data-name="Trazado 161337" d="M522.351,2062.516a.079.079,0,0,1-.055-.137,10.619,10.619,0,0,0,2.189-3.115.08.08,0,0,1,.1-.042.08.08,0,0,1,.042.1,10.79,10.79,0,0,1-2.226,3.168A.079.079,0,0,1,522.351,2062.516Z" transform="translate(-473.407 -1943.565)" fill="#c4a345"/>
          <path id="Trazado_161338" data-name="Trazado 161338" d="M496.972,2061.256h-.013a.08.08,0,0,1-.065-.091l1.075-6.4a.082.082,0,0,1,.092-.066.08.08,0,0,1,.065.092l-1.075,6.4A.08.08,0,0,1,496.972,2061.256Z" transform="translate(-462.348 -1941.597)" fill="#c4a345"/>
          <path id="Trazado_161339" data-name="Trazado 161339" d="M492.759,2043.5a.081.081,0,0,1-.051-.019.08.08,0,0,1-.01-.112c.062-.073,1.565-1.814,5.62-2.658a.079.079,0,0,1,.032.155c-4,.833-5.515,2.588-5.53,2.605A.08.08,0,0,1,492.759,2043.5Z" transform="translate(-460.512 -1935.499)" fill="#c4a345"/>
          <path id="Trazado_161340" data-name="Trazado 161340" d="M500.984,2112.612a.08.08,0,0,1-.078-.065.079.079,0,0,1,.063-.093,22.17,22.17,0,0,0,7.61-3.27.08.08,0,0,1,.111.02.079.079,0,0,1-.019.11,22.351,22.351,0,0,1-7.672,3.3Z" transform="translate(-464.096 -1965.333)" fill="#233a49"/>
          <path id="Trazado_161341" data-name="Trazado 161341" d="M513.523,1943.687a.079.079,0,0,1-.046-.144l1.5-1.075a.08.08,0,0,1,.093.129l-1.5,1.075A.074.074,0,0,1,513.523,1943.687Z" transform="translate(-469.56 -1892.683)" fill="#233a49"/>
        </g>
      </g>
      <g id="Grupo_112879" data-name="Grupo 112879" transform="translate(386.892 1807.597)">
        <path id="Trazado_161342" data-name="Trazado 161342" d="M605.35,1832.047a16.287,16.287,0,1,0-32.574,0l-5.225,5.975h43.024Z" transform="translate(-567.551 -1814.124)" fill="#eac759"/>
        <path id="Rectángulo_40733" data-name="Rectángulo 40733" d="M2.289,0H4.927a0,0,0,0,1,0,0V10.567a0,0,0,0,1,0,0H0a0,0,0,0,1,0,0V2.289A2.289,2.289,0,0,1,2.289,0Z" transform="translate(3.105 12.156)" fill="#eac759"/>
        <path id="Rectángulo_40734" data-name="Rectángulo 40734" d="M0,0H2.638A2.289,2.289,0,0,1,4.927,2.289v8.278a0,0,0,0,1,0,0H0a0,0,0,0,1,0,0V0A0,0,0,0,1,0,0Z" transform="translate(35.015 12.156)" fill="#eac759"/>
        <path id="Rectángulo_40735" data-name="Rectángulo 40735" d="M1.091,0H6.447A1.091,1.091,0,0,1,7.539,1.091V3.058a0,0,0,0,1,0,0H0a0,0,0,0,1,0,0V1.091A1.091,1.091,0,0,1,1.091,0Z" transform="translate(17.743)" fill="#eac759"/>
        <path id="Trazado_161343" data-name="Trazado 161343" d="M585.942,1835.8h-.01a.219.219,0,0,1-.209-.228,8.762,8.762,0,0,1,.995-3.694.214.214,0,0,1,.038-.072,8.815,8.815,0,0,1,1.439-1.975,15.182,15.182,0,0,0,2.753-3.744,22.412,22.412,0,0,0,2.045-9.25.218.218,0,1,1,.436,0,22.888,22.888,0,0,1-2.091,9.445,15.616,15.616,0,0,1-2.831,3.852,8.409,8.409,0,0,0-1.38,1.9l0,.009a8.342,8.342,0,0,0-.965,3.55A.218.218,0,0,1,585.942,1835.8Zm22.079,0a.219.219,0,0,1-.218-.209,8.336,8.336,0,0,0-.965-3.548l0-.009a8.386,8.386,0,0,0-1.38-1.9,15.631,15.631,0,0,1-2.83-3.852,22.89,22.89,0,0,1-2.091-9.445.218.218,0,1,1,.437,0,22.413,22.413,0,0,0,2.045,9.25,15.2,15.2,0,0,0,2.753,3.744,8.808,8.808,0,0,1,1.449,1.994.214.214,0,0,1,.013.026,8.772,8.772,0,0,1,1.009,3.72.219.219,0,0,1-.208.228Z" transform="translate(-575.47 -1814.5)" fill="#c4a345"/>
        <path id="Trazado_161344" data-name="Trazado 161344" d="M595.951,1820.8a.218.218,0,0,1-.218-.218v-2.9a.218.218,0,1,1,.436,0v2.9A.218.218,0,0,1,595.951,1820.8Z" transform="translate(-579.832 -1814.868)" fill="#c4a345"/>
        <path id="Trazado_161345" data-name="Trazado 161345" d="M615.12,1820.807a.219.219,0,0,1-.218-.219V1817.7a.218.218,0,0,1,.437,0v2.888A.218.218,0,0,1,615.12,1820.807Z" transform="translate(-588.185 -1814.875)" fill="#c4a345"/>
        <path id="Trazado_161346" data-name="Trazado 161346" d="M610.575,1855.215s-6.1,2.394-21.52,2.394-21.5-2.394-21.5-2.394Z" transform="translate(-567.551 -1831.318)" fill="#c4a345"/>
      </g>
      <g id="Grupo_112884" data-name="Grupo 112884" transform="translate(316.311 2000.176)">
        <path id="Trazado_161347" data-name="Trazado 161347" d="M501.113,2162.378a21.594,21.594,0,0,0-33.725,0,23.076,23.076,0,0,0,.543,29.55,21.851,21.851,0,0,0,7,5.355,21.054,21.054,0,0,0,9.322,2.091h0a21.06,21.06,0,0,0,9.323-2.091,21.853,21.853,0,0,0,7-5.355,23.076,23.076,0,0,0,.543-29.55ZM498.4,2190.75a19.115,19.115,0,0,1-6.036,4.969,16.89,16.89,0,0,1-16.235,0,19.129,19.129,0,0,1-6.036-4.969,20.868,20.868,0,0,1,.543-26.6,18.765,18.765,0,0,1,6.011-4.592,17.871,17.871,0,0,1,15.2,0,18.76,18.76,0,0,1,6.011,4.592,20.868,20.868,0,0,1,.543,26.6Z" transform="translate(-451.109 -2154.173)" fill="#233a49"/>
        <path id="Trazado_161348" data-name="Trazado 161348" d="M504.074,2203.486l-9.805-12.423a7.347,7.347,0,0,0-10.39,0l-9.805,12.423-.7,19.889,6.779,4.49c.863.572,1.667,1.224,2.475,1.872a8.966,8.966,0,0,0,5.6,1.968h1.679a8.968,8.968,0,0,0,5.6-1.968c.808-.648,1.611-1.3,2.474-1.872l6.779-4.49Z" transform="translate(-455.932 -2169.311)" fill="#3a5870"/>
        <path id="Trazado_161349" data-name="Trazado 161349" d="M482.5,2196.644l-8.06,10.211-.224,6.4a9.406,9.406,0,0,0,8.284-16.616Z" transform="translate(-456.298 -2172.681)" fill="#54809e"/>
        <path id="Trazado_161350" data-name="Trazado 161350" d="M510.481,2196.644l8.061,10.211.224,6.4a9.407,9.407,0,0,1-8.285-16.616Z" transform="translate(-470.399 -2172.681)" fill="#54809e"/>
        <g id="Grupo_112880" data-name="Grupo 112880" transform="translate(24.945 38.964)">
          <rect id="Rectángulo_40736" data-name="Rectángulo 40736" width="6.538" height="1.628" transform="translate(0.691 4.241) rotate(-39.243)" fill="#cce1f2"/>
          <circle id="Elipse_5853" data-name="Elipse 5853" cx="7" cy="7" r="7" transform="matrix(0.982, -0.189, 0.189, 0.982, 0, 2.647)" fill="#cce1f2"/>
          <path id="Trazado_161351" data-name="Trazado 161351" d="M496.6,2239.115a5.955,5.955,0,1,1,5.955-5.955A5.962,5.962,0,0,1,496.6,2239.115Zm0-11.255a5.3,5.3,0,1,0,5.3,5.3A5.307,5.307,0,0,0,496.6,2227.859Z" transform="translate(-488.401 -2224.962)" fill="#afc9db"/>
        </g>
        <g id="Grupo_112881" data-name="Grupo 112881" transform="translate(24.081 55.891)">
          <path id="Trazado_161352" data-name="Trazado 161352" d="M503.26,2256.934c0-2.045-4.057-3.7-9.061-3.7s-9.06,1.659-9.06,3.7a1.676,1.676,0,0,0,.216.8h0l2.261,4.2v0c.7,1.224,3.38,2.136,6.586,2.136s5.889-.912,6.586-2.136v0l2.26-4.2h0A1.677,1.677,0,0,0,503.26,2256.934Z" transform="translate(-485.139 -2253.23)" fill="#233a49"/>
          <path id="Trazado_161353" data-name="Trazado 161353" d="M502.454,2265.472a.319.319,0,0,1-.319-.32c0-1.4-3.311-2.38-6.283-2.38s-6.283.977-6.283,2.38a.319.319,0,1,1-.639,0c0-1.692,3.04-3.018,6.921-3.018s6.922,1.325,6.922,3.018A.319.319,0,0,1,502.454,2265.472Z" transform="translate(-486.791 -2257.111)" fill="#09151c"/>
        </g>
        <g id="Grupo_112882" data-name="Grupo 112882" transform="translate(0 28.594)">
          <ellipse id="Elipse_5854" data-name="Elipse 5854" cx="6.502" cy="13.324" rx="6.502" ry="13.324" transform="translate(0 6.545) rotate(-10.58)" fill="#68a4e0"/>
          <ellipse id="Elipse_5855" data-name="Elipse 5855" cx="6.502" cy="13.324" rx="6.502" ry="13.324" transform="translate(6.289 2.388) rotate(-10.58)" fill="#68a4e0"/>
          <path id="Trazado_161354" data-name="Trazado 161354" d="M452.023,2211.874l6.051-4.014,1.388,4.573-7.062,2.106Z" transform="translate(-446.627 -2206.163)" fill="#68a4e0"/>
          <path id="Trazado_161355" data-name="Trazado 161355" d="M464.758,2255.6l6.444-4.269-4.288-1.159-1.777,2.5Z" transform="translate(-452.176 -2224.602)" fill="#68a4e0"/>
          <path id="Trazado_161356" data-name="Trazado 161356" d="M457.72,2240.984a.328.328,0,0,1-.319-.255l-5.7-25.239a.327.327,0,1,1,.638-.144l5.7,25.239a.328.328,0,0,1-.247.392A.368.368,0,0,1,457.72,2240.984Z" transform="translate(-446.484 -2209.313)" fill="#588eba"/>
          <path id="Trazado_161357" data-name="Trazado 161357" d="M447.146,2237.868a.327.327,0,0,1-.061-.649l12.443-2.36a.327.327,0,0,1,.122.643l-12.443,2.361A.347.347,0,0,1,447.146,2237.868Z" transform="translate(-444.359 -2217.925)" fill="#588eba"/>
          <path id="Trazado_161358" data-name="Trazado 161358" d="M464.2,2236.3a.323.323,0,0,1-.087-.011.328.328,0,0,1-.229-.4,21.694,21.694,0,0,0,.136-9.464c-.818-4.377-2.633-8.211-4.855-10.256a6.611,6.611,0,0,0-1.272-.933.327.327,0,0,1,.315-.573,7.257,7.257,0,0,1,1.4,1.024c2.323,2.137,4.213,6.106,5.056,10.617a22.35,22.35,0,0,1-.148,9.759A.327.327,0,0,1,464.2,2236.3Z" transform="translate(-449.11 -2209.11)" fill="#588eba"/>
        </g>
        <g id="Grupo_112883" data-name="Grupo 112883" transform="translate(44.31 29.733)">
          <ellipse id="Elipse_5856" data-name="Elipse 5856" cx="13.324" cy="6.502" rx="13.324" ry="6.502" transform="matrix(0.184, -0.983, 0.983, 0.184, 4.297, 29.214)" fill="#68a4e0"/>
          <path id="Trazado_161359" data-name="Trazado 161359" d="M521.446,2218.829c-1.351,7.234.415,13.632,3.945,14.292s7.487-4.669,8.838-11.9-.415-13.632-3.945-14.292S522.8,2211.6,521.446,2218.829Z" transform="translate(-520.992 -2206.87)" fill="#68a4e0"/>
          <path id="Trazado_161360" data-name="Trazado 161360" d="M544.626,2211.874l-6.051-4.014-1.389,4.573,7.062,2.106Z" transform="translate(-528.049 -2207.301)" fill="#68a4e0"/>
          <path id="Trazado_161361" data-name="Trazado 161361" d="M532.661,2255.6l-6.444-4.269,4.289-1.159,1.777,2.5Z" transform="translate(-523.269 -2225.741)" fill="#68a4e0"/>
          <path id="Trazado_161362" data-name="Trazado 161362" d="M539.727,2240.943a.352.352,0,0,1-.074-.008.327.327,0,0,1-.245-.392l5.8-25.313a.327.327,0,0,1,.638.147l-5.8,25.312A.327.327,0,0,1,539.727,2240.943Z" transform="translate(-529.013 -2210.403)" fill="#588eba"/>
          <path id="Trazado_161363" data-name="Trazado 161363" d="M545.219,2237.849a.336.336,0,0,1-.06-.005L532.63,2235.5a.327.327,0,0,1,.12-.644l12.529,2.341a.327.327,0,0,1-.06.649Z" transform="translate(-525.947 -2219.065)" fill="#588eba"/>
          <path id="Trazado_161364" data-name="Trazado 161364" d="M532.48,2236.3a.327.327,0,0,1-.315-.239,22.353,22.353,0,0,1-.149-9.759c1.024-5.481,3.558-10.051,6.455-11.641a.327.327,0,0,1,.315.574c-2.69,1.477-5.153,5.973-6.126,11.188a21.7,21.7,0,0,0,.136,9.464.326.326,0,0,1-.316.414Z" transform="translate(-525.595 -2210.249)" fill="#588eba"/>
        </g>
      </g>
      <g id="Grupo_112892" data-name="Grupo 112892" transform="translate(388.356 1843.267)">
        <g id="Grupo_112885" data-name="Grupo 112885" transform="translate(0 24.4)">
          <path id="Trazado_161365" data-name="Trazado 161365" d="M578.317,1919.324l-5.459,14.463a121.645,121.645,0,0,1,1.82,17.145c.1,7.758-.1,11.493-.862,16.378s-1.628,8.907-1.341,12.45.862,7.854.862,7.854-.862,4.022-1.437,9.1a91.53,91.53,0,0,0-.862,14.558c.192,5.268.192,10.473-.574,13.346s.1,3.352.1,3.352,3.543-.129,6.513.062,6.8.767,6.8.767a24.376,24.376,0,0,0,.862-7.374,57.8,57.8,0,0,1,.592-11.807c.575-4.5,1.323-14.724,2.568-20.853s1.245-12.547,1.628-16.666a43.861,43.861,0,0,1,2.586-9.673s2.2,13.7,3.831,18.677,1.82,15.133,1.341,19.443a35.579,35.579,0,0,1,1.054,5.843c.287,3.16,2.107,12.26,2.3,15.42s.287,7.279.287,7.279,6.417,1.054,10.153.1,4.693-1.819,4.693-1.819-.478-4.214-1.149-7.375a111.43,111.43,0,0,0,.479-14.845,119.923,119.923,0,0,0-2.682-18.582,17.562,17.562,0,0,0,.479-7.279,93.8,93.8,0,0,1-1.245-14.941c.1-5.651-1.532-15.421-1.532-15.421a13.258,13.258,0,0,0,1.245-6.7c-.383-3.543-2.586-3.927-2.586-3.927l-4.885-18.964Z" transform="translate(-570.147 -1919.324)" fill="#3a5870"/>
          <path id="Rectángulo_40737" data-name="Rectángulo 40737" d="M0,0H19.537a0,0,0,0,1,0,0V0a4.6,4.6,0,0,1-4.6,4.6H4.6A4.6,4.6,0,0,1,0,0V0A0,0,0,0,1,0,0Z" transform="translate(11.619 3.161)" fill="#2f495b"/>
        </g>
        <g id="Grupo_112886" data-name="Grupo 112886" transform="translate(0.793 27.462)">
          <path id="Trazado_161366" data-name="Trazado 161366" d="M594.647,1955.4a183.089,183.089,0,0,1-18.262-1.4.1.1,0,0,1,.025-.2,182.778,182.778,0,0,0,18.237,1.4c8.511,0,13.993-.794,16.758-2.428a.1.1,0,0,1,.1.171C608.709,1954.6,603.194,1955.4,594.647,1955.4Z" transform="translate(-573.62 -1936.955)" fill="#233a49"/>
          <path id="Trazado_161367" data-name="Trazado 161367" d="M577.72,1978.251a.1.1,0,0,1-.077-.036.1.1,0,0,1,.015-.14l10.32-8.268a3.334,3.334,0,0,0,1.255-2.613v-10.389a.1.1,0,1,1,.2,0v10.389a3.528,3.528,0,0,1-1.329,2.767l-10.32,8.268A.1.1,0,0,1,577.72,1978.251Z" transform="translate(-574.196 -1938.675)" fill="#233a49"/>
          <path id="Trazado_161368" data-name="Trazado 161368" d="M633.657,1977.855a.1.1,0,0,1-.06-.02l-9.88-7.369a3.569,3.569,0,0,1-1.395-2.37l-1.516-11.277a.1.1,0,0,1,.085-.112.1.1,0,0,1,.112.085l1.515,11.278a3.367,3.367,0,0,0,1.317,2.238l9.88,7.368a.1.1,0,0,1-.059.18Z" transform="translate(-593.015 -1938.675)" fill="#233a49"/>
          <path id="Trazado_161369" data-name="Trazado 161369" d="M610.2,1942.751a.1.1,0,0,1-.1-.1v-17.7H590.762v17.7a.1.1,0,0,1-.2,0v-17.8a.1.1,0,0,1,.1-.1H610.2a.1.1,0,0,1,.1.1v17.8A.1.1,0,0,1,610.2,1942.751Z" transform="translate(-579.836 -1924.75)" fill="#233a49"/>
          <path id="Trazado_161370" data-name="Trazado 161370" d="M608.884,1978.979a.1.1,0,0,1-.1-.1,53.78,53.78,0,0,1,.48-9.022c.661-4.151-.61-12.576-.623-12.66a.1.1,0,1,1,.2-.03c.013.084,1.287,8.539.622,12.72a53.669,53.669,0,0,0-.478,8.984.1.1,0,0,1-.095.1Z" transform="translate(-587.714 -1938.841)" fill="#233a49"/>
          <path id="Trazado_161371" data-name="Trazado 161371" d="M574.524,2093.991a.1.1,0,0,1-.1-.076l-2.873-11.684a.1.1,0,1,1,.192-.047l2.874,11.685a.1.1,0,0,1-.073.12A.072.072,0,0,1,574.524,2093.991Z" transform="translate(-571.552 -1993.322)" fill="#233a49"/>
          <path id="Trazado_161372" data-name="Trazado 161372" d="M591.681,2098.761a.1.1,0,0,1-.1-.1c0-2.577,1.81-6.609,1.829-6.649a.1.1,0,0,1,.181.081c-.019.041-1.811,4.034-1.811,6.568A.1.1,0,0,1,591.681,2098.761Z" transform="translate(-580.28 -1997.612)" fill="#233a49"/>
          <path id="Trazado_161373" data-name="Trazado 161373" d="M585.4,2061.317a.1.1,0,0,1-.086-.148c.023-.04,2.335-4.061,4.622-5.872,2.247-1.779,3.687-6.511,3.7-6.559a.1.1,0,0,1,.19.057c-.059.2-1.472,4.84-3.769,6.658-2.257,1.787-4.549,5.774-4.572,5.814A.1.1,0,0,1,585.4,2061.317Z" transform="translate(-577.543 -1978.749)" fill="#233a49"/>
          <path id="Trazado_161374" data-name="Trazado 161374" d="M580.418,2046.221a.1.1,0,0,1-.059-.02,17.932,17.932,0,0,1-4.724-5.88.1.1,0,0,1,.18-.085,17.7,17.7,0,0,0,4.662,5.806.1.1,0,0,1-.059.18Z" transform="translate(-573.327 -1975.051)" fill="#233a49"/>
          <path id="Trazado_161375" data-name="Trazado 161375" d="M591.826,2016.2h-.011a11.463,11.463,0,0,1-5.8-2.322.1.1,0,0,1-.01-.141.1.1,0,0,1,.14-.009,11.262,11.262,0,0,0,5.692,2.274.1.1,0,0,1-.011.2Z" transform="translate(-577.839 -1963.511)" fill="#233a49"/>
          <path id="Trazado_161376" data-name="Trazado 161376" d="M630.994,2017.833a.1.1,0,0,1-.051-.014l-5.364-3.257a.1.1,0,0,1,.1-.17l5.364,3.257a.1.1,0,0,1-.052.184Z" transform="translate(-595.074 -1963.807)" fill="#233a49"/>
          <path id="Trazado_161377" data-name="Trazado 161377" d="M622.06,2030.435a.1.1,0,0,1-.092-.059l-2.192-5.053-5.917-4.486a.1.1,0,1,1,.12-.158l5.938,4.5a.1.1,0,0,1,.031.04l2.2,5.076a.1.1,0,0,1-.051.13A.1.1,0,0,1,622.06,2030.435Z" transform="translate(-589.971 -1966.544)" fill="#233a49"/>
          <path id="Trazado_161378" data-name="Trazado 161378" d="M639.041,2052.208a.1.1,0,0,1-.1-.1v-7.759a.1.1,0,0,1,.023-.063,20.886,20.886,0,0,0,3.335-5.906.1.1,0,1,1,.189.062,21.117,21.117,0,0,1-3.347,5.943v7.723A.1.1,0,0,1,639.041,2052.208Z" transform="translate(-600.918 -1974.237)" fill="#233a49"/>
          <path id="Trazado_161379" data-name="Trazado 161379" d="M622.281,2063.861a.089.089,0,0,1-.026,0,9.552,9.552,0,0,1-4.166-2.52.1.1,0,0,1,.033-.157l5.459-2.49a.1.1,0,0,1,.083.181l-5.333,2.432a9.355,9.355,0,0,0,3.976,2.362.1.1,0,0,1-.026.2Z" transform="translate(-591.82 -1983.113)" fill="#233a49"/>
          <path id="Trazado_161380" data-name="Trazado 161380" d="M643.115,2096.393a.1.1,0,0,1-.069-.171c2.066-1.972,3.41-5.86,3.423-5.9a.1.1,0,0,1,.188.064c-.013.04-1.373,3.973-3.473,5.978A.1.1,0,0,1,643.115,2096.393Z" transform="translate(-602.693 -1996.872)" fill="#233a49"/>
          <path id="Trazado_161381" data-name="Trazado 161381" d="M628.074,2103.148a.1.1,0,0,1-.089-.055,15.184,15.184,0,0,0-4.278-4.847.1.1,0,1,1,.114-.163,15.409,15.409,0,0,1,4.342,4.922.1.1,0,0,1-.045.133A.093.093,0,0,1,628.074,2103.148Z" transform="translate(-594.261 -2000.276)" fill="#233a49"/>
          <path id="Trazado_161382" data-name="Trazado 161382" d="M640.229,2106.3a.1.1,0,0,1-.1-.084.1.1,0,0,1,.083-.113,9.284,9.284,0,0,0,4.241-1.612,3.752,3.752,0,0,0,1.049-1.112.1.1,0,0,1,.178.089c-.044.087-1.126,2.161-5.437,2.831Z" transform="translate(-601.436 -2002.568)" fill="#233a49"/>
          <path id="Trazado_161383" data-name="Trazado 161383" d="M626.6,2109.619a.1.1,0,0,1-.059-.019l-1.82-1.341a.1.1,0,1,1,.118-.16l1.82,1.341a.1.1,0,0,1-.059.179Z" transform="translate(-594.705 -2004.64)" fill="#233a49"/>
          <path id="Trazado_161384" data-name="Trazado 161384" d="M628.432,1965.209a.1.1,0,0,1-.054-.183,25.793,25.793,0,0,0,7.821-8.058.1.1,0,0,1,.135-.038.1.1,0,0,1,.038.135,26.006,26.006,0,0,1-7.887,8.129A.1.1,0,0,1,628.432,1965.209Z" transform="translate(-596.295 -1938.767)" fill="#233a49"/>
          <path id="Trazado_161385" data-name="Trazado 161385" d="M636.325,1975.63a.1.1,0,0,1-.065-.174,16.683,16.683,0,0,0,2.563-3.8.1.1,0,0,1,.133-.045.1.1,0,0,1,.045.134,16.452,16.452,0,0,1-2.61,3.861A.1.1,0,0,1,636.325,1975.63Z" transform="translate(-599.735 -1945.166)" fill="#233a49"/>
          <path id="Trazado_161386" data-name="Trazado 161386" d="M582.361,1964.173a.1.1,0,0,1-.058-.019l-5.364-3.831a.1.1,0,0,1-.023-.139.1.1,0,0,1,.139-.023l5.363,3.831a.1.1,0,0,1,.023.139A.1.1,0,0,1,582.361,1964.173Z" transform="translate(-573.882 -1940.173)" fill="#233a49"/>
          <path id="Trazado_161387" data-name="Trazado 161387" d="M584.514,1969.516l-.022,0c-3.2-.716-6.764-4.157-6.8-4.191a.1.1,0,0,1,.138-.143c.035.034,3.561,3.437,6.7,4.141a.1.1,0,0,1-.021.2Z" transform="translate(-574.214 -1942.355)" fill="#233a49"/>
        </g>
        <g id="Grupo_112891" data-name="Grupo 112891" transform="translate(9.075)">
          <g id="Grupo_112888" data-name="Grupo 112888" transform="translate(0 0.358)">
            <path id="Trazado_161388" data-name="Trazado 161388" d="M589.586,1877.54l3.067,23.216h-3.125l-3.288-22.8a.951.951,0,0,1,.837-1.081l1.462-.16A.951.951,0,0,1,589.586,1877.54Z" transform="translate(-586.231 -1876.713)" fill="#54809e"/>
            <g id="Grupo_112887" data-name="Grupo 112887" transform="translate(1.67 14.118)">
              <path id="Trazado_161389" data-name="Trazado 161389" d="M593.051,1906.784a.554.554,0,0,1-.559-.475l-.071-.492a.554.554,0,0,1,.4-.614l.253-.069a.4.4,0,0,0,.293-.448l-.155-1.074a.354.354,0,0,0-.4-.3l-3.018.436a.355.355,0,0,0-.3.4l.155,1.075a.4.4,0,0,0,.409.346l.262,0a.555.555,0,0,1,.559.475l.071.492a.554.554,0,0,1-.4.614l-.252.07a.4.4,0,0,0-.293.448h0a.355.355,0,0,0,.4.3l3.018-.436a.355.355,0,0,0,.3-.4h0a.4.4,0,0,0-.408-.347Z" transform="translate(-589.321 -1902.419)" fill="#3a5870"/>
              <path id="Trazado_161390" data-name="Trazado 161390" d="M592.811,1902.106l-3.389.49a.166.166,0,0,1-.19-.14h0a.168.168,0,0,1,.142-.19l3.389-.489a.166.166,0,0,1,.189.141h0A.166.166,0,0,1,592.811,1902.106Z" transform="translate(-589.208 -1901.751)" fill="#3a5870"/>
              <rect id="Rectángulo_40738" data-name="Rectángulo 40738" width="2.294" height="0.334" rx="0.167" transform="matrix(-0.143, -0.99, 0.99, -0.143, 0.328, 2.808)" fill="#3a5870"/>
              <rect id="Rectángulo_40739" data-name="Rectángulo 40739" width="2.294" height="0.334" rx="0.167" transform="translate(3.717 2.319) rotate(-98.221)" fill="#3a5870"/>
              <path id="Trazado_161391" data-name="Trazado 161391" d="M589.554,1904.472a.063.063,0,0,1-.009-.125l3.592-.519a.064.064,0,0,1,.072.054.063.063,0,0,1-.053.071l-3.592.519Z" transform="translate(-589.322 -1902.646)" fill="#233a49"/>
            </g>
          </g>
          <g id="Grupo_112890" data-name="Grupo 112890" transform="translate(17.076)">
            <path id="Trazado_161392" data-name="Trazado 161392" d="M616.494,1900.479l3.164-23.575a.951.951,0,0,1,1.045-.819l1.375.15a.951.951,0,0,1,.838,1.078l-3.239,23.167Z" transform="translate(-616.494 -1876.079)" fill="#54809e"/>
            <g id="Grupo_112889" data-name="Grupo 112889" transform="translate(0.348 14.475)">
              <path id="Trazado_161393" data-name="Trazado 161393" d="M617.785,1906.784a.554.554,0,0,0,.559-.475l.071-.492a.554.554,0,0,0-.4-.614l-.253-.069a.405.405,0,0,1-.293-.448l.156-1.074a.354.354,0,0,1,.4-.3l3.018.436a.355.355,0,0,1,.3.4l-.155,1.075a.4.4,0,0,1-.409.346l-.262,0a.555.555,0,0,0-.559.475l-.071.492a.554.554,0,0,0,.4.614l.253.07a.4.4,0,0,1,.293.448h0a.355.355,0,0,1-.4.3l-3.018-.436a.354.354,0,0,1-.3-.4h0a.4.4,0,0,1,.408-.347Z" transform="translate(-617.111 -1902.419)" fill="#3a5870"/>
              <path id="Trazado_161394" data-name="Trazado 161394" d="M618.42,1902.106l3.39.49a.166.166,0,0,0,.19-.14h0a.168.168,0,0,0-.142-.19l-3.389-.489a.167.167,0,0,0-.19.141h0A.167.167,0,0,0,618.42,1902.106Z" transform="translate(-617.619 -1901.751)" fill="#3a5870"/>
              <rect id="Rectángulo_40740" data-name="Rectángulo 40740" width="2.294" height="0.334" rx="0.167" transform="matrix(0.143, -0.99, 0.99, 0.143, 3.745, 2.76)" fill="#3a5870"/>
              <rect id="Rectángulo_40741" data-name="Rectángulo 40741" width="2.294" height="0.334" rx="0.167" transform="translate(0.355 2.271) rotate(-81.779)" fill="#3a5870"/>
              <path id="Trazado_161395" data-name="Trazado 161395" d="M621.681,1904.472h-.009l-3.592-.519a.063.063,0,1,1,.018-.125l3.592.519a.063.063,0,0,1-.009.125Z" transform="translate(-617.51 -1902.646)" fill="#233a49"/>
            </g>
          </g>
        </g>
      </g>
    </g>
  </g>
</svg>
