<svg xmlns="http://www.w3.org/2000/svg" width="44.287" height="54.246" viewBox="0 0 44.287 54.246">
  <g id="Grupo_163853" data-name="Grupo 163853" transform="translate(12407.287 6953.684)">
    <g id="Grupo_163705" data-name="Grupo 163705" transform="translate(-12407.287 -6953.684)">
      <g id="documento">
        <path id="Trazado_158299" data-name="Trazado 158299" d="M37.123,64h-25A2.119,2.119,0,0,0,10,66.119v42.168a2.119,2.119,0,0,0,2.119,2.119H44.328a2.119,2.119,0,0,0,2.119-2.119V73.324Zm0,0" transform="translate(-8.94 -57.219)" fill="#6677d6"/>
        <path id="Trazado_158300" data-name="Trazado 158300" d="M91.123,10h-25A2.119,2.119,0,0,0,64,12.119V54.287a2.119,2.119,0,0,0,2.119,2.119H98.328a2.119,2.119,0,0,0,2.119-2.119V19.324Zm0,0" transform="translate(-57.219 -8.941)" fill="#fff"/>
        <path id="Trazado_158301" data-name="Trazado 158301" d="M91.123,10h-25A2.119,2.119,0,0,0,64,12.119V54.287a2.119,2.119,0,0,0,2.119,2.119H98.328a2.119,2.119,0,0,0,2.119-2.119V19.324Zm0,0" transform="translate(-57.219 -8.941)" fill="#fff"/>
        <path id="Trazado_158302" data-name="Trazado 158302" d="M127.543,64h22.885v6.781H127.543Zm0,0" transform="translate(-114.03 -57.219)" fill="#b0a2cd"/>
        <path id="Trazado_158303" data-name="Trazado 158303" d="M329.323,19.324h-6.41A2.914,2.914,0,0,1,320,16.41V10Zm0,0" transform="translate(-286.096 -8.941)" fill="#ffef0f"/>
        <path id="Trazado_158304" data-name="Trazado 158304" d="M43.976,9.634,34.653.31A1.059,1.059,0,0,0,33.9,0H8.9A3.182,3.182,0,0,0,5.721,3.178V5.721H3.178A3.182,3.182,0,0,0,0,8.9V51.067a3.182,3.182,0,0,0,3.178,3.178H35.387a3.182,3.182,0,0,0,3.178-3.178V48.525h2.543a3.182,3.182,0,0,0,3.178-3.178V33.162a1.059,1.059,0,1,0-2.119,0V45.346a1.06,1.06,0,0,1-1.059,1.059H8.9A1.06,1.06,0,0,1,7.84,45.346V3.178A1.06,1.06,0,0,1,8.9,2.119H32.844v3.6H13.513a1.059,1.059,0,0,0-1.059,1.059v6.781a1.059,1.059,0,0,0,1.059,1.059H36.4a1.059,1.059,0,0,0,1.059-1.059V11.443h4.71v13.1a1.059,1.059,0,1,0,2.119,0V10.383a1.059,1.059,0,0,0-.31-.749ZM8.9,48.525H36.446v2.543a1.06,1.06,0,0,1-1.059,1.059H3.178a1.06,1.06,0,0,1-1.059-1.059V8.9A1.06,1.06,0,0,1,3.178,7.84H5.721V45.346A3.182,3.182,0,0,0,8.9,48.525ZM14.572,12.5V7.84H32.862a3.982,3.982,0,0,0,2.477,3.316V12.5ZM36.817,9.324a1.856,1.856,0,0,1-1.854-1.854V3.618L37.816,6.47l2.853,2.853Zm0,0" transform="translate(0 0)"/>
        <path id="Trazado_158305" data-name="Trazado 158305" d="M399.059,262a1.06,1.06,0,1,0,.749.31A1.068,1.068,0,0,0,399.059,262Zm0,0" transform="translate(-355.832 -234.241)"/>
        <path id="Trazado_158306" data-name="Trazado 158306" d="M118.6,168.119a1.06,1.06,0,1,0-.749-.31A1.067,1.067,0,0,0,118.6,168.119Zm0,0" transform="translate(-105.086 -148.412)"/>
        <path id="Trazado_158307" data-name="Trazado 158307" d="M141.487,214H118.6a1.059,1.059,0,1,0,0,2.119h22.885a1.059,1.059,0,1,0,0-2.119Zm0,0" transform="translate(-105.089 -191.327)"/>
        <path id="Trazado_158308" data-name="Trazado 158308" d="M141.487,262H118.6a1.059,1.059,0,1,0,0,2.119h22.885a1.059,1.059,0,1,0,0-2.119Zm0,0" transform="translate(-105.089 -234.241)"/>
        <path id="Trazado_158309" data-name="Trazado 158309" d="M141.487,310H118.6a1.059,1.059,0,1,0,0,2.119h22.885a1.059,1.059,0,1,0,0-2.119Zm0,0" transform="translate(-105.089 -277.156)"/>
        <path id="Trazado_158310" data-name="Trazado 158310" d="M141.487,358H118.6a1.059,1.059,0,1,0,0,2.119h22.885a1.059,1.059,0,1,0,0-2.119Zm0,0" transform="translate(-105.089 -320.07)"/>
        <path id="Trazado_158311" data-name="Trazado 158311" d="M177.794,166H159.211a1.059,1.059,0,1,0,0,2.119h18.583a1.059,1.059,0,0,0,0-2.119Zm0,0" transform="translate(-141.396 -148.412)"/>
      </g>
    </g>
  </g>
</svg>
