<svg xmlns="http://www.w3.org/2000/svg" width="150" height="150" viewBox="0 0 150 150">
  <g id="Grupo_163908" data-name="Grupo 163908" transform="translate(-9765.277 14974.432)">
    <g id="Grupo_163841" data-name="Grupo 163841" transform="translate(9475.277 -16650.463)">
      <g id="Grupo_136630" data-name="Grupo 136630" transform="translate(-83 -1722.969)">
        <path id="Trazado_170461" data-name="Trazado 170461" d="M75,0A75,75,0,1,1,0,75,75,75,0,0,1,75,0Z" transform="translate(373 3399)" fill="#fff"/>
      </g>
      <g id="Capa_1" data-name="Capa 1" transform="translate(310.403 1688.964)">
        <g id="Grupo_113039" data-name="Grupo 113039" transform="translate(1.597 9.067)">
          <path id="Trazado_163421" data-name="Trazado 163421" d="M91.208,58.325A6.06,6.06,0,0,0,86.35,60.64V44.924H70.7a6.41,6.41,0,0,1,2.206,4.938,6.508,6.508,0,1,1-13.016-.029A6.348,6.348,0,0,1,62.1,44.924H46.7v15.5a6.555,6.555,0,1,0-4.864,10.917,6.445,6.445,0,0,0,4.861-2.1V84.577H86.35V69.022a6.065,6.065,0,0,0,4.858,2.316,6.508,6.508,0,1,0,0-13.016Z" transform="translate(5.978 7.616)" fill="#c6412a"/>
          <path id="Trazado_163422" data-name="Trazado 163422" d="M84.687,12.656H69.039A6.153,6.153,0,0,0,71.245,7.84a6.508,6.508,0,0,0-13.016-.016,6.186,6.186,0,0,0,2.206,4.832h-15.4v14.89a6.1,6.1,0,0,1,4.874-2.316,6.508,6.508,0,0,1,.026,13.016,6.144,6.144,0,0,1-4.9-2.316V52.312h15.4a6.389,6.389,0,0,0-2.206,4.929,6.508,6.508,0,1,0,13.016-.01,6.369,6.369,0,0,0-2.206-4.919H84.687Z" transform="translate(7.638 0.228)" fill="#ffef0f"/>
          <path id="Trazado_163423" data-name="Trazado 163423" d="M86.466,86.4H46.809a1.409,1.409,0,0,1-1.482-1.482v-12.4a9.028,9.028,0,0,1-3.278.643,8.1,8.1,0,1,1,0-16.207,8.985,8.985,0,0,1,3.275.643V45.269a1.607,1.607,0,0,1,1.482-1.712H62.322a1.657,1.657,0,0,1,.988,2.936,4.737,4.737,0,0,0-1.6,3.627,4.913,4.913,0,0,0,9.825.029,4.715,4.715,0,0,0-1.6-3.624,1.68,1.68,0,0,1-.52-1.835,1.648,1.648,0,0,1,1.508-1.13H86.469a1.8,1.8,0,0,1,1.709,1.712V57.659a7.208,7.208,0,0,1,3.262-.7,8.1,8.1,0,0,1,.016,16.207,7.265,7.265,0,0,1-3.275-.7V84.922A1.6,1.6,0,0,1,86.472,86.4ZM48.521,83.21H84.983V69.254a1.539,1.539,0,0,1,2.787-.959,4.549,4.549,0,0,0,3.624,1.68,4.913,4.913,0,0,0-.013-9.825,4.582,4.582,0,0,0-3.64,1.68,1.52,1.52,0,0,1-1.728.556,1.547,1.547,0,0,1-1.037-1.515V46.748H74.05a8.843,8.843,0,0,1,.678,3.343,8.1,8.1,0,1,1-16.207-.032,8.69,8.69,0,0,1,.675-3.311H48.518v13.9A1.657,1.657,0,0,1,45.6,61.667a4.813,4.813,0,0,0-3.611-1.518,4.913,4.913,0,1,0,0,9.825,4.777,4.777,0,0,0,3.585-1.518,1.687,1.687,0,0,1,1.828-.488,1.648,1.648,0,0,1,1.111,1.5V83.21Z" transform="translate(5.747 7.384)"/>
          <path id="Trazado_163424" data-name="Trazado 163424" d="M45.9,59.965a6.507,6.507,0,0,1,4.887,2.1v-15.5H35.169a6.186,6.186,0,0,0,2.206-4.832,6.508,6.508,0,0,0-13.016-.013,6.213,6.213,0,0,0,2.206,4.845H11.129V86.221H26.564a6.355,6.355,0,0,0-2.206,4.913,6.508,6.508,0,1,0,13.016-.01,6.342,6.342,0,0,0-2.206-4.906H50.785V70.882A6.539,6.539,0,1,1,45.9,59.965Z" transform="translate(1.887 5.975)" fill="#4e2e8e"/>
          <path id="Trazado_163425" data-name="Trazado 163425" d="M64.969,65.63a8.16,8.16,0,0,1-8.1-8.159,8.816,8.816,0,0,1,.675-3.333H45.151a1.409,1.409,0,0,1-1.482-1.483v-16.5a1.539,1.539,0,0,1,2.787-.959,4.585,4.585,0,0,0,3.653,1.68,4.911,4.911,0,0,0-.023-9.822,4.6,4.6,0,0,0-3.656,1.68,1.52,1.52,0,0,1-1.728.556,1.547,1.547,0,0,1-1.037-1.515V13a1.607,1.607,0,0,1,1.483-1.712h12.39a7.331,7.331,0,0,1-.675-3.22,8.1,8.1,0,0,1,16.207-.01,7.39,7.39,0,0,1-.675,3.233H84.8a1.8,1.8,0,0,1,1.709,1.712V52.662A1.6,1.6,0,0,1,84.8,54.145H72.394a8.82,8.82,0,0,1,.675,3.336,8.159,8.159,0,0,1-8.1,8.155ZM46.862,50.944h13.8a1.657,1.657,0,0,1,.988,2.936,4.746,4.746,0,0,0-1.6,3.634,4.913,4.913,0,0,0,9.825.013,4.711,4.711,0,0,0-1.6-3.617,1.68,1.68,0,0,1-.52-1.835,1.648,1.648,0,0,1,1.508-1.13H83.331V14.482H69.278a1.539,1.539,0,0,1-.988-2.765,4.683,4.683,0,0,0,1.6-3.6,4.913,4.913,0,0,0-9.825.01,4.718,4.718,0,0,0,1.6,3.621,1.511,1.511,0,0,1,.52,1.722,1.546,1.546,0,0,1-1.508,1.017h-13.8v10.09a7.212,7.212,0,0,1,3.278-.711,8.1,8.1,0,0,1,.026,16.207,7.273,7.273,0,0,1-3.3-.714V50.941Z" transform="translate(7.406 -0.003)"/>
          <path id="Trazado_163426" data-name="Trazado 163426" d="M52.559,52.5H37.069a1.538,1.538,0,0,1-.992-2.762,4.708,4.708,0,0,0,1.586-3.614,4.911,4.911,0,1,0-9.822.006,4.78,4.78,0,0,0,1.521,3.582,1.5,1.5,0,0,1,.675,1.247,1.549,1.549,0,0,1-1.6,1.541H12.9a1.409,1.409,0,0,1-1.483-1.483V37.793a8.987,8.987,0,0,1-3.265.643,8.1,8.1,0,1,1,.006-16.207,8.94,8.94,0,0,1,3.259.643v-11.5A1.607,1.607,0,0,1,12.9,9.654H52.559a1.8,1.8,0,0,1,1.709,1.712V22.939a7.212,7.212,0,0,1,3.278-.711,8.1,8.1,0,0,1,.016,16.207,7.269,7.269,0,0,1-3.291-.711v13.3A1.6,1.6,0,0,1,52.563,52.5ZM40.186,49.307H51.077V34.521a1.539,1.539,0,0,1,2.787-.959,4.568,4.568,0,0,0,3.64,1.68,4.911,4.911,0,0,0-.013-9.822,4.6,4.6,0,0,0-3.656,1.68,1.52,1.52,0,0,1-1.728.556,1.547,1.547,0,0,1-1.037-1.515V12.845H14.615V25.92A1.657,1.657,0,0,1,11.7,26.934a4.792,4.792,0,0,0-3.595-1.518,4.911,4.911,0,1,0,0,9.822,4.753,4.753,0,0,0,3.572-1.518,1.686,1.686,0,0,1,1.828-.488,1.651,1.651,0,0,1,1.111,1.5V49.3h10.71a7.365,7.365,0,0,1-.675-3.23,8.1,8.1,0,0,1,16.207-.013,7.42,7.42,0,0,1-.675,3.24Z" transform="translate(0 1.634)"/>
          <path id="Trazado_163427" data-name="Trazado 163427" d="M31.1,99.514a8.156,8.156,0,0,1-8.1-8.149,8.76,8.76,0,0,1,.675-3.317H11.247a1.409,1.409,0,0,1-1.483-1.482V46.91A1.607,1.607,0,0,1,11.247,45.2H23.669a7.38,7.38,0,0,1-.678-3.233A8.1,8.1,0,0,1,39.2,41.949,7.443,7.443,0,0,1,38.52,45.2H50.9a1.8,1.8,0,0,1,1.709,1.712V62.293a1.657,1.657,0,0,1-2.913,1.014,4.813,4.813,0,0,0-3.611-1.518,4.913,4.913,0,0,0-.013,9.825,4.8,4.8,0,0,0,3.6-1.518,1.686,1.686,0,0,1,1.828-.488,1.648,1.648,0,0,1,1.111,1.5V86.562A1.6,1.6,0,0,1,50.9,88.045H38.523a8.78,8.78,0,0,1,.675,3.324,8.154,8.154,0,0,1-8.1,8.142ZM12.959,84.854H26.8a1.657,1.657,0,0,1,.988,2.936,4.657,4.657,0,0,0-1.6,3.617,4.911,4.911,0,0,0,9.822.016,4.693,4.693,0,0,0-1.6-3.6,1.68,1.68,0,0,1-.52-1.835,1.648,1.648,0,0,1,1.508-1.13H49.421V74.166a9,9,0,0,1-3.291.643A8.1,8.1,0,1,1,46.142,58.6a8.985,8.985,0,0,1,3.275.643V48.392H35.4a1.539,1.539,0,0,1-.988-2.765,4.7,4.7,0,0,0,1.6-3.621,4.911,4.911,0,1,0-9.822.013,4.731,4.731,0,0,0,1.6,3.634,1.511,1.511,0,0,1,.52,1.722,1.546,1.546,0,0,1-1.508,1.017H12.959V84.854Z" transform="translate(1.656 5.743)"/>
        </g>
      </g>
    </g>
  </g>
</svg>
