<svg xmlns="http://www.w3.org/2000/svg" width="150" height="150" viewBox="0 0 150 150">
  <g id="Grupo_163903" data-name="Grupo 163903" transform="translate(-7998.666 14974.432)">
    <g id="Grupo_163834" data-name="Grupo 163834" transform="translate(7276.666 -16579.432)">
      <g id="Grupo_116729" data-name="Grupo 116729" transform="translate(349 -1794)">
        <path id="Trazado_170461" data-name="Trazado 170461" d="M75,0A75,75,0,1,1,0,75,75,75,0,0,1,75,0Z" transform="translate(373 3399)" fill="#fff"/>
      </g>
      <g id="Grupo_136747" data-name="Grupo 136747" transform="translate(1954.097 1571.627)">
        <g id="Capa_1" data-name="Capa 1" transform="translate(-1212.097 64.373)">
          <g id="Grupo_136729" data-name="Grupo 136729" transform="translate(-11.138 -6.129)">
            <path id="Trazado_171773" data-name="Trazado 171773" d="M59.8,0c33.029,0,59.8,5.041,59.8,11.259S92.834,22.518,59.8,22.518,0,17.477,0,11.259,26.775,0,59.8,0Z" transform="translate(0 73.612)" fill="none"/>
            <g id="Grupo_136728" data-name="Grupo 136728" transform="translate(17.454)">
              <path id="Trazado_171758" data-name="Trazado 171758" d="M19.366,114.346v-4.228a10.242,10.242,0,0,1,4.875-8.725L35.9,94.216h6.156l11.662,7.178a10.242,10.242,0,0,1,4.875,8.725v4.228Z" transform="translate(-17.984 -25.703)" fill="#b0a2cd"/>
              <path id="Trazado_171759" data-name="Trazado 171759" d="M54.214,57.787V53.559a10.242,10.242,0,0,1,4.875-8.725L70.75,37.656h6.156l11.662,7.178a10.242,10.242,0,0,1,4.875,8.725v4.228Z" transform="translate(-24.737 -14.742)" fill="#6677d6"/>
              <path id="Trazado_171760" data-name="Trazado 171760" d="M58.262,115.4H19.034a1.381,1.381,0,0,1-1.382-1.382v-4.228a11.7,11.7,0,0,1,5.532-9.9l11.662-7.178a1.375,1.375,0,0,1,.724-.2h6.156a1.375,1.375,0,0,1,.724.2l11.662,7.178a11.7,11.7,0,0,1,5.532,9.9v4.228A1.381,1.381,0,0,1,58.262,115.4Zm-37.847-2.763H56.88v-2.846a8.913,8.913,0,0,0-4.218-7.548l-11.33-6.973H35.958l-11.33,6.973a8.925,8.925,0,0,0-4.218,7.548v2.846Z" transform="translate(-17.652 -25.371)" fill="#13263c"/>
              <path id="Trazado_171761" data-name="Trazado 171761" d="M41.368,93.482h0A9.678,9.678,0,0,1,31.693,83.8V77.189a9.679,9.679,0,0,1,9.674-9.682h0a9.678,9.678,0,0,1,9.674,9.682V83.8A9.679,9.679,0,0,1,41.368,93.482Z" transform="translate(-20.373 -20.527)" fill="#fff"/>
              <path id="Trazado_171762" data-name="Trazado 171762" d="M41.035,94.532A11.072,11.072,0,0,1,29.979,83.468V76.857a11.056,11.056,0,1,1,22.112,0v6.611A11.072,11.072,0,0,1,41.035,94.532Zm0-25.973a8.3,8.3,0,0,0-8.293,8.3v6.611a8.293,8.293,0,1,0,16.586,0V76.857A8.3,8.3,0,0,0,41.035,68.559Z" transform="translate(-20.041 -20.195)" fill="#13263c"/>
              <path id="Trazado_171763" data-name="Trazado 171763" d="M78.331,81.37a1.381,1.381,0,0,1-1.382-1.382v-10.6a1.382,1.382,0,0,1,2.763,0v10.6A1.381,1.381,0,0,1,78.331,81.37Z" transform="translate(-29.144 -20.624)" fill="#4e2e8e"/>
              <path id="Trazado_171764" data-name="Trazado 171764" d="M65.849,91.3a1.383,1.383,0,0,1-.869-2.458l4.983-4.023,4.981-4.039a1.379,1.379,0,0,1,1.739,0l9.967,8.065a1.382,1.382,0,1,1-1.736,2.15l-9.1-7.361L71.7,86.967l-4.986,4.026A1.37,1.37,0,0,1,65.849,91.3Z" transform="translate(-26.724 -23.039)" fill="#4e2e8e"/>
              <path id="Trazado_171765" data-name="Trazado 171765" d="M89.065,114.346v-4.228a10.242,10.242,0,0,1,4.875-8.725L105.6,94.216h6.156l11.662,7.178a10.242,10.242,0,0,1,4.875,8.725v4.228Z" transform="translate(-31.491 -25.703)" fill="#ffef0f"/>
              <path id="Trazado_171766" data-name="Trazado 171766" d="M127.958,115.4H88.729a1.381,1.381,0,0,1-1.382-1.382v-4.228a11.7,11.7,0,0,1,5.532-9.9l11.662-7.178a1.375,1.375,0,0,1,.724-.2h6.156a1.375,1.375,0,0,1,.724.2l11.662,7.178a11.7,11.7,0,0,1,5.532,9.9v4.228a1.381,1.381,0,0,1-1.382,1.382Zm-37.847-2.763h36.465v-2.846a8.913,8.913,0,0,0-4.218-7.548l-11.328-6.973h-5.374l-11.33,6.973a8.925,8.925,0,0,0-4.218,7.548v2.846Z" transform="translate(-31.159 -25.371)" fill="#13263c"/>
              <path id="Trazado_171767" data-name="Trazado 171767" d="M111.067,93.482h0a9.678,9.678,0,0,1-9.674-9.682V77.189a9.679,9.679,0,0,1,9.674-9.682h0a9.678,9.678,0,0,1,9.674,9.682V83.8A9.679,9.679,0,0,1,111.067,93.482Z" transform="translate(-33.88 -20.527)" fill="#fff"/>
              <path id="Trazado_171768" data-name="Trazado 171768" d="M110.734,94.532A11.072,11.072,0,0,1,99.678,83.468V76.857a11.056,11.056,0,1,1,22.112,0v6.611A11.072,11.072,0,0,1,110.734,94.532Zm0-25.973a8.306,8.306,0,0,0-8.293,8.3v6.611a8.293,8.293,0,1,0,16.586,0V76.857A8.3,8.3,0,0,0,110.734,68.559Z" transform="translate(-33.548 -20.195)" fill="#13263c"/>
              <path id="Trazado_171769" data-name="Trazado 171769" d="M93.11,58.836H53.881A1.381,1.381,0,0,1,52.5,57.454V53.227a11.7,11.7,0,0,1,5.532-9.9l11.662-7.178a1.375,1.375,0,0,1,.724-.2h6.156a1.375,1.375,0,0,1,.724.2L88.96,43.324a11.7,11.7,0,0,1,5.532,9.9v4.228A1.381,1.381,0,0,1,93.11,58.836ZM55.263,56.073H91.728V53.227a8.913,8.913,0,0,0-4.218-7.548L76.183,38.706H70.809l-11.33,6.973a8.925,8.925,0,0,0-4.218,7.548v2.846Z" transform="translate(-24.405 -14.41)" fill="#13263c"/>
              <path id="Trazado_171770" data-name="Trazado 171770" d="M76.219,36.923h0a9.678,9.678,0,0,1-9.674-9.682V20.63a9.679,9.679,0,0,1,9.674-9.682h0a9.678,9.678,0,0,1,9.674,9.682v6.611A9.679,9.679,0,0,1,76.219,36.923Z" transform="translate(-27.127 -9.566)" fill="#fff"/>
              <path id="Trazado_171771" data-name="Trazado 171771" d="M75.887,37.972A11.072,11.072,0,0,1,64.83,26.908V20.3a11.056,11.056,0,1,1,22.112,0v6.611A11.072,11.072,0,0,1,75.887,37.972Zm0-25.973a8.306,8.306,0,0,0-8.293,8.3v6.611a8.293,8.293,0,1,0,16.586,0V20.3A8.3,8.3,0,0,0,75.887,12Z" transform="translate(-26.795 -9.234)" fill="#13263c"/>
            </g>
          </g>
        </g>
      </g>
    </g>
  </g>
</svg>
